<svg width="20" height="24" viewBox="0 0 20 24" fill="none" xmlns="http://www.w3.org/2000/svg">
<path d="M0.663719 11.9288C0.663719 7.93232 1.51253 4.9615 3.21014 3.01632C4.90775 1.07113 7.15355 0.0985436 9.94754 0.0985436C12.8476 0.0985436 15.1288 1.07113 16.791 3.01632C18.4887 4.92613 19.3375 7.89695 19.3375 11.9288C19.3375 15.8899 18.4887 18.843 16.791 20.7882C15.1288 22.7334 12.8476 23.706 9.94754 23.706C7.01208 23.706 4.73092 22.7511 3.10404 20.8412C1.47716 18.8961 0.663719 15.9252 0.663719 11.9288ZM9.94754 20.629C11.4683 20.629 12.6885 19.9394 13.608 18.5601C14.5629 17.1454 15.0404 14.935 15.0404 11.9288C15.0404 8.85186 14.5629 6.62374 13.608 5.24443C12.6885 3.86512 11.4683 3.17547 9.94754 3.17547C8.42676 3.17547 7.2066 3.86512 6.28706 5.24443C5.40289 6.62374 4.9608 8.85186 4.9608 11.9288C4.9608 15.0057 5.40289 17.2338 6.28706 18.6131C7.17123 19.9571 8.39139 20.629 9.94754 20.629Z" fill="black"/>
</svg>
