<svg width="20" height="24" viewBox="0 0 20 24" fill="none" xmlns="http://www.w3.org/2000/svg">
<path d="M0.652977 12.1328C0.652977 8.13634 1.50178 5.16552 3.1994 3.22034C4.89701 1.27515 7.14281 0.302563 9.9368 0.302563C12.8369 0.302563 15.1181 1.27515 16.7803 3.22034C18.4779 5.13015 19.3267 8.10097 19.3267 12.1328C19.3267 16.0939 18.4779 19.047 16.7803 20.9922C15.1181 22.9374 12.8369 23.91 9.9368 23.91C7.00134 23.91 4.72017 22.9551 3.09329 21.0453C1.46642 19.1001 0.652977 16.1293 0.652977 12.1328ZM9.9368 20.8331C11.4576 20.8331 12.6777 20.1434 13.5973 18.7641C14.5522 17.3494 15.0296 15.139 15.0296 12.1328C15.0296 9.05588 14.5522 6.82776 13.5973 5.44845C12.6777 4.06914 11.4576 3.37949 9.9368 3.37949C8.41602 3.37949 7.19586 4.06914 6.27632 5.44845C5.39215 6.82776 4.95006 9.05588 4.95006 12.1328C4.95006 15.2097 5.39215 17.4378 6.27632 18.8172C7.16049 20.1611 8.38065 20.8331 9.9368 20.8331Z" fill="black"/>
</svg>
