<svg width="44" height="45" viewBox="0 0 44 45" fill="none" xmlns="http://www.w3.org/2000/svg">
<path d="M5.63848 8.54151H0.916999V5.88899H1.50055C3.02133 5.88899 4.18844 5.53532 5.00188 4.82799C5.74458 4.15602 6.13362 3.09501 6.16899 1.64496H9.56421V24.5097H5.63848V8.54151ZM26.8056 25.3054C26.8056 23.5371 27.4599 22.0694 28.7685 20.9023C30.1124 19.6998 32.0929 19.0985 34.7101 19.0985C37.3273 19.0985 39.2901 19.6998 40.5987 20.9023C41.9426 22.0694 42.6146 23.5548 42.6146 25.3585C42.6146 26.7378 42.2433 27.8519 41.5005 28.7007C40.7932 29.5495 39.9267 30.133 38.9011 30.4513V30.5574C40.1036 30.8404 41.1469 31.4062 42.0311 32.255C42.9152 33.1038 43.3573 34.3771 43.3573 36.0747C43.3573 36.9942 43.1628 37.8607 42.7738 38.6741C42.3847 39.4876 41.8189 40.1949 41.0761 40.7962C40.3688 41.3974 39.467 41.8748 38.3706 42.2285C37.3096 42.5468 36.0894 42.706 34.7101 42.706C31.8807 42.706 29.7234 42.087 28.238 40.8492C26.7879 39.576 26.0629 37.9845 26.0629 36.0747C26.0629 35.2612 26.1867 34.5362 26.4342 33.8996C26.6818 33.263 27.0178 32.7325 27.4422 32.3081C27.8666 31.8483 28.3441 31.477 28.8746 31.194C29.4051 30.9111 29.9532 30.6989 30.5191 30.5574V30.4513C29.4935 30.133 28.6093 29.5495 27.8666 28.7007C27.1593 27.8519 26.8056 26.7201 26.8056 25.3054ZM34.7101 22.0163C33.5784 22.0163 32.6235 22.3169 31.8454 22.9182C31.0673 23.484 30.6783 24.3859 30.6783 25.6237C30.6783 26.8616 31.0673 27.7811 31.8454 28.3824C32.6235 28.9836 33.5784 29.2842 34.7101 29.2842C35.8065 29.2842 36.7437 28.9836 37.5218 28.3824C38.2998 27.7811 38.6889 26.8616 38.6889 25.6237C38.6889 24.3859 38.2998 23.484 37.5218 22.9182C36.7791 22.3169 35.8418 22.0163 34.7101 22.0163ZM34.7101 39.8412C36.054 39.8412 37.1681 39.5406 38.0523 38.9394C38.9718 38.3028 39.4316 37.3125 39.4316 35.9686C39.4316 34.6246 38.9718 33.652 38.0523 33.0508C37.1681 32.4142 36.054 32.0959 34.7101 32.0959C33.4369 32.0959 32.3228 32.4142 31.3679 33.0508C30.4484 33.652 29.9886 34.6246 29.9886 35.9686C29.9886 37.3125 30.4484 38.3028 31.3679 38.9394C32.3228 39.5406 33.4369 39.8412 34.7101 39.8412ZM31.5801 0.796158H35.7181L6.69949 44.3505H2.56156L31.5801 0.796158Z" fill="black"/>
</svg>
