<svg width="18" height="24" viewBox="0 0 18 24" fill="none" xmlns="http://www.w3.org/2000/svg">
<path d="M0.61484 7.79085C0.650207 5.35053 1.42828 3.4584 2.94906 2.11446C4.5052 0.770515 6.55648 0.0985436 9.1029 0.0985436C10.5176 0.0985436 11.7201 0.275378 12.7103 0.629047C13.736 0.982717 14.5671 1.46017 15.2037 2.06141C15.8757 2.62728 16.3531 3.29925 16.6361 4.07732C16.9544 4.82003 17.1135 5.61579 17.1135 6.46459C17.1135 7.27803 17.0074 8.02074 16.7952 8.69271C16.583 9.36468 16.247 10.019 15.7873 10.6556C15.3629 11.2922 14.797 11.9465 14.0896 12.6184C13.4177 13.2904 12.6042 14.0508 11.6493 14.8996L6.07903 19.8863V19.9394H17.5379V23.2285H0.402639V20.576L8.62545 12.9367C10.0401 11.6989 11.1011 10.6202 11.8085 9.70066C12.5512 8.78112 12.9225 7.77317 12.9225 6.67679C12.9225 5.65115 12.5689 4.82003 11.8615 4.18342C11.1896 3.54682 10.2346 3.22852 8.9968 3.22852C8.43093 3.22852 7.88274 3.31693 7.35224 3.49377C6.8571 3.63524 6.39733 3.8828 5.97293 4.23647C5.58389 4.59014 5.26559 5.0676 5.01802 5.66883C4.80582 6.23471 4.69972 6.94204 4.69972 7.79085H0.61484Z" fill="black"/>
</svg>
