<svg width="48" height="45" viewBox="0 0 48 45" fill="none" xmlns="http://www.w3.org/2000/svg">
<path d="M0.530209 9.07202C0.565576 6.6317 1.34365 4.73957 2.86443 3.39563C4.42057 2.05168 6.47185 1.37971 9.01827 1.37971C10.4329 1.37971 11.6354 1.55655 12.6257 1.91021C13.6513 2.26388 14.4825 2.74134 15.1191 3.34258C15.791 3.90845 16.2685 4.58042 16.5514 5.35849C16.8697 6.1012 17.0289 6.89695 17.0289 7.74576C17.0289 8.5592 16.9228 9.3019 16.7106 9.97388C16.4984 10.6458 16.1624 11.3001 15.7026 11.9367C15.2782 12.5733 14.7123 13.2276 14.005 13.8996C13.333 14.5716 12.5196 15.332 11.5647 16.1808L5.9944 21.1675V21.2206H17.4533V24.5097H0.318008V21.8572L8.54082 14.2179C9.9555 12.9801 11.0165 11.9014 11.7238 10.9818C12.4665 10.0623 12.8379 9.05434 12.8379 7.95796C12.8379 6.93232 12.4842 6.1012 11.7769 5.46459C11.1049 4.82799 10.15 4.50969 8.91217 4.50969C8.3463 4.50969 7.79811 4.5981 7.26761 4.77494C6.77247 4.91641 6.3127 5.16397 5.8883 5.51764C5.49926 5.87131 5.18096 6.34877 4.93339 6.95C4.72119 7.51587 4.61509 8.22321 4.61509 9.07202H0.530209ZM36.6045 32.202V29.1251H38.6734C39.8052 29.1251 40.7601 28.8068 41.5382 28.1702C42.3162 27.4982 42.7053 26.6494 42.7053 25.6237C42.7053 24.5627 42.3162 23.7316 41.5382 23.1304C40.7601 22.5291 39.8052 22.2285 38.6734 22.2285C35.9502 22.2285 34.5355 23.5017 34.4294 26.0481H30.3976C30.3976 25.164 30.5567 24.3152 30.875 23.5017C31.2287 22.6529 31.7415 21.9102 32.4135 21.2736C33.1208 20.6016 33.9873 20.0711 35.013 19.6821C36.074 19.2931 37.3295 19.0985 38.7795 19.0985C41.326 19.0985 43.2888 19.6821 44.6681 20.8492C46.0474 22.0163 46.7371 23.4664 46.7371 25.1993C46.7371 26.4018 46.3658 27.4628 45.623 28.3824C44.8803 29.2665 43.8901 29.9208 42.6522 30.3452V30.4513C43.9608 30.7343 45.0749 31.3355 45.9944 32.255C46.9139 33.1392 47.3737 34.4124 47.3737 36.0747C47.3737 36.9588 47.1792 37.8076 46.7902 38.6211C46.4365 39.3992 45.8883 40.1065 45.1456 40.7431C44.4029 41.3443 43.4833 41.8218 42.387 42.1755C41.326 42.5291 40.0881 42.706 38.6734 42.706C37.1527 42.706 35.8441 42.5115 34.7477 42.1224C33.6867 41.7334 32.8025 41.2206 32.0952 40.584C31.4232 39.912 30.9104 39.1693 30.5567 38.3558C30.2031 37.507 30.0085 36.6229 29.9732 35.7033H34.0581C34.2349 37.0119 34.7654 37.9845 35.6496 38.6211C36.5337 39.2577 37.5948 39.576 38.8326 39.576C40.1058 39.576 41.1845 39.24 42.0687 38.568C42.9528 37.8607 43.3949 36.9588 43.3949 35.8625C43.3949 34.6954 42.9882 33.7935 42.1748 33.1569C41.3967 32.5203 40.2826 32.202 38.8326 32.202H36.6045ZM36.8697 0.796158H41.0077L11.9891 44.3505H7.85116L36.8697 0.796158Z" fill="black"/>
</svg>
