<svg width="18" height="24" viewBox="0 0 18 24" fill="none" xmlns="http://www.w3.org/2000/svg">
<path d="M0.702242 7.99487C0.737609 5.55455 1.51568 3.66242 3.03646 2.31848C4.5926 0.974534 6.64389 0.302563 9.19031 0.302563C10.605 0.302563 11.8075 0.479398 12.7977 0.833066C13.8234 1.18674 14.6545 1.66419 15.2911 2.26543C15.9631 2.8313 16.4405 3.50327 16.7235 4.28134C17.0418 5.02405 17.2009 5.8198 17.2009 6.66861C17.2009 7.48205 17.0948 8.22476 16.8826 8.89673C16.6704 9.5687 16.3344 10.223 15.8747 10.8596C15.4503 11.4962 14.8844 12.1505 14.177 12.8225C13.5051 13.4944 12.6916 14.2548 11.7367 15.1036L6.16643 20.0904V20.1434H17.6253V23.4325H0.490041V20.78L8.71285 13.1408C10.1275 11.9029 11.1885 10.8242 11.8959 9.90468C12.6386 8.98514 13.0099 7.97719 13.0099 6.88081C13.0099 5.85517 12.6563 5.02405 11.9489 4.38744C11.277 3.75084 10.322 3.43254 9.0842 3.43254C8.51833 3.43254 7.97015 3.52095 7.43964 3.69779C6.94451 3.83926 6.48474 4.08683 6.06033 4.44049C5.6713 4.79416 5.35299 5.27162 5.10543 5.87286C4.89322 6.43873 4.78712 7.14606 4.78712 7.99487H0.702242Z" fill="black"/>
</svg>
