<svg width="19" height="24" viewBox="0 0 19 24" fill="none" xmlns="http://www.w3.org/2000/svg">
<path d="M7.55467 13.202V10.1251H9.62364C10.7554 10.1251 11.7103 9.80677 12.4884 9.17016C13.2664 8.49819 13.6555 7.64938 13.6555 6.62374C13.6555 5.56273 13.2664 4.73161 12.4884 4.13037C11.7103 3.52914 10.7554 3.22852 9.62364 3.22852C6.90039 3.22852 5.48571 4.50173 5.37961 7.04815H1.34778C1.34778 6.16397 1.50693 5.31517 1.82523 4.50173C2.1789 3.65292 2.69172 2.91022 3.36369 2.27361C4.07103 1.60164 4.93752 1.07113 5.96316 0.682098C7.02417 0.293062 8.2797 0.0985436 9.72974 0.0985436C12.2762 0.0985436 14.239 0.682098 15.6183 1.84921C16.9976 3.01632 17.6873 4.46636 17.6873 6.19934C17.6873 7.40182 17.3159 8.46282 16.5732 9.38236C15.8305 10.2665 14.8403 10.9208 13.6024 11.3452V11.4513C14.911 11.7343 16.0251 12.3355 16.9446 13.255C17.8641 14.1392 18.3239 15.4124 18.3239 17.0747C18.3239 17.9588 18.1294 18.8076 17.7404 19.6211C17.3867 20.3992 16.8385 21.1065 16.0958 21.7431C15.3531 22.3443 14.4335 22.8218 13.3372 23.1755C12.2762 23.5291 11.0383 23.706 9.62364 23.706C8.10286 23.706 6.79429 23.5115 5.69791 23.1224C4.6369 22.7334 3.75273 22.2206 3.04539 21.584C2.37342 20.912 1.8606 20.1693 1.50693 19.3558C1.15326 18.507 0.958742 17.6229 0.923375 16.7033H5.00826C5.18509 18.0119 5.71559 18.9845 6.59977 19.6211C7.48394 20.2577 8.54495 20.576 9.78279 20.576C11.056 20.576 12.1347 20.24 13.0189 19.568C13.903 18.8607 14.3451 17.9588 14.3451 16.8625C14.3451 15.6954 13.9384 14.7935 13.125 14.1569C12.3469 13.5203 11.2328 13.202 9.78279 13.202H7.55467Z" fill="black"/>
</svg>
