<svg width="18" height="24" viewBox="0 0 18 24" fill="none" xmlns="http://www.w3.org/2000/svg">
<path d="M6.64208 13.406V10.3291H8.71104C9.84278 10.3291 10.7977 10.0108 11.5758 9.37418C12.3538 8.70221 12.7429 7.8534 12.7429 6.82776C12.7429 5.76675 12.3538 4.93563 11.5758 4.33439C10.7977 3.73316 9.84278 3.43254 8.71104 3.43254C5.98779 3.43254 4.57311 4.70575 4.46701 7.25216H0.43518C0.43518 6.36799 0.594332 5.51919 0.912634 4.70575C1.2663 3.85694 1.77912 3.11423 2.4511 2.47763C3.15843 1.80566 4.02492 1.27515 5.05056 0.886116C6.11157 0.497081 7.3671 0.302563 8.81714 0.302563C11.3636 0.302563 13.3264 0.886117 14.7057 2.05323C16.085 3.22033 16.7747 4.67038 16.7747 6.40336C16.7747 7.60583 16.4033 8.66684 15.6606 9.58638C14.9179 10.4706 13.9277 11.1248 12.6898 11.5492V11.6553C13.9984 11.9383 15.1125 12.5395 16.032 13.4591C16.9515 14.3432 17.4113 15.6164 17.4113 17.2787C17.4113 18.1629 17.2168 19.0117 16.8278 19.8251C16.4741 20.6032 15.9259 21.3105 15.1832 21.9471C14.4405 22.5484 13.5209 23.0258 12.4246 23.3795C11.3636 23.7332 10.1257 23.91 8.71104 23.91C7.19026 23.91 5.88169 23.7155 4.78531 23.3264C3.7243 22.9374 2.84013 22.4246 2.13279 21.788C1.46082 21.116 0.948001 20.3733 0.594332 19.5599C0.240662 18.7111 0.0461442 17.8269 0.0107774 16.9073H4.09566C4.27249 18.2159 4.803 19.1885 5.68717 19.8251C6.57134 20.4617 7.63235 20.78 8.87019 20.78C10.1434 20.78 11.2221 20.444 12.1063 19.7721C12.9904 19.0647 13.4325 18.1629 13.4325 17.0665C13.4325 15.8994 13.0258 14.9975 12.2124 14.3609C11.4343 13.7243 10.3202 13.406 8.87019 13.406H6.64208Z" fill="black"/>
</svg>
