<svg width="18" height="24" viewBox="0 0 18 24" fill="none" xmlns="http://www.w3.org/2000/svg">
<path d="M13.324 15.8545C13.324 14.3691 12.882 13.2374 11.9978 12.4593C11.149 11.6812 10.0526 11.2922 8.70866 11.2922C6.76347 11.2922 5.3488 11.8934 4.46462 13.0959H1.0694L2.18346 0.416847H15.9766V3.70597H5.41953L4.83598 10.019H4.88903C5.3488 9.52383 5.9854 9.09943 6.79884 8.74576C7.64765 8.35672 8.63792 8.1622 9.76966 8.1622C10.7953 8.1622 11.7679 8.32135 12.6874 8.63966C13.6423 8.95796 14.4558 9.43541 15.1278 10.072C15.8351 10.7086 16.3833 11.5044 16.7723 12.4593C17.1967 13.4142 17.4089 14.5283 17.4089 15.8015C17.4089 18.0649 16.6308 19.9571 15.0747 21.4779C13.5539 22.9633 11.3789 23.706 8.5495 23.706C7.02873 23.706 5.75552 23.5115 4.72988 23.1224C3.70423 22.7334 2.85543 22.2206 2.18346 21.584C1.54685 20.9473 1.0694 20.24 0.751096 19.4619C0.468161 18.6485 0.291326 17.8351 0.220592 17.0216H4.19937C4.30547 18.2595 4.74756 19.1613 5.52563 19.7272C6.33907 20.2577 7.3824 20.5229 8.65561 20.5229C9.85808 20.5229 10.9368 20.1339 11.8917 19.3558C12.8466 18.5778 13.324 17.4107 13.324 15.8545Z" fill="black"/>
</svg>
