<svg width="47" height="45" viewBox="0 0 47 45" fill="none" xmlns="http://www.w3.org/2000/svg">
<path d="M13.4323 17.1357C13.4323 15.6503 12.9902 14.5185 12.1061 13.7405C11.2573 12.9624 10.1609 12.5733 8.81695 12.5733C6.87177 12.5733 5.45709 13.1746 4.57292 14.3771H1.17769L2.29175 1.69801H16.0849V4.98714H5.52782L4.94427 11.3001H4.99732C5.45709 10.805 6.09369 10.3806 6.90713 10.0269C7.75594 9.63789 8.74621 9.44337 9.87796 9.44337C10.9036 9.44337 11.8762 9.60252 12.7957 9.92083C13.7506 10.2391 14.5641 10.7166 15.236 11.3532C15.9434 11.9898 16.4916 12.7855 16.8806 13.7405C17.305 14.6954 17.5172 15.8094 17.5172 17.0826C17.5172 19.3461 16.7391 21.2382 15.183 22.759C13.6622 24.2444 11.4872 24.9871 8.6578 24.9871C7.13702 24.9871 5.86381 24.7926 4.83817 24.4036C3.81253 24.0145 2.96372 23.5017 2.29175 22.8651C1.65514 22.2285 1.17769 21.5212 0.859389 20.7431C0.576453 19.9297 0.399619 19.1162 0.328885 18.3028H4.30766C4.41377 19.5406 4.85585 20.4425 5.63392 21.0084C6.44736 21.5389 7.49069 21.8041 8.7639 21.8041C9.96637 21.8041 11.0451 21.4151 12 20.637C12.9549 19.8589 13.4323 18.6918 13.4323 17.1357ZM29.7188 25.3054C29.7188 23.5371 30.3731 22.0694 31.6817 20.9023C33.0256 19.6998 35.0062 19.0985 37.6233 19.0985C40.2405 19.0985 42.2033 19.6998 43.5119 20.9023C44.8558 22.0694 45.5278 23.5548 45.5278 25.3585C45.5278 26.7378 45.1565 27.8519 44.4138 28.7007C43.7064 29.5495 42.8399 30.133 41.8143 30.4513V30.5574C43.0168 30.8404 44.0601 31.4062 44.9443 32.255C45.8284 33.1038 46.2705 34.3771 46.2705 36.0747C46.2705 36.9942 46.076 37.8607 45.687 38.6741C45.2979 39.4876 44.7321 40.1949 43.9894 40.7962C43.282 41.3974 42.3802 41.8748 41.2838 42.2285C40.2228 42.5468 39.0026 42.706 37.6233 42.706C34.794 42.706 32.6366 42.087 31.1512 40.8492C29.7011 39.576 28.9761 37.9845 28.9761 36.0747C28.9761 35.2612 29.0999 34.5362 29.3474 33.8996C29.595 33.263 29.931 32.7325 30.3554 32.3081C30.7798 31.8483 31.2573 31.477 31.7878 31.194C32.3183 30.9111 32.8665 30.6989 33.4323 30.5574V30.4513C32.4067 30.133 31.5225 29.5495 30.7798 28.7007C30.0725 27.8519 29.7188 26.7201 29.7188 25.3054ZM37.6233 22.0163C36.4916 22.0163 35.5367 22.3169 34.7586 22.9182C33.9805 23.484 33.5915 24.3859 33.5915 25.6237C33.5915 26.8616 33.9805 27.7811 34.7586 28.3824C35.5367 28.9836 36.4916 29.2842 37.6233 29.2842C38.7197 29.2842 39.6569 28.9836 40.435 28.3824C41.2131 27.7811 41.6021 26.8616 41.6021 25.6237C41.6021 24.3859 41.2131 23.484 40.435 22.9182C39.6923 22.3169 38.7551 22.0163 37.6233 22.0163ZM37.6233 39.8412C38.9673 39.8412 40.0813 39.5406 40.9655 38.9394C41.885 38.3028 42.3448 37.3125 42.3448 35.9686C42.3448 34.6246 41.885 33.652 40.9655 33.0508C40.0813 32.4142 38.9673 32.0959 37.6233 32.0959C36.3501 32.0959 35.236 32.4142 34.2811 33.0508C33.3616 33.652 32.9018 34.6246 32.9018 35.9686C32.9018 37.3125 33.3616 38.3028 34.2811 38.9394C35.236 39.5406 36.3501 39.8412 37.6233 39.8412ZM35.5013 0.796158H39.6392L10.6207 44.3505H6.48273L35.5013 0.796158Z" fill="black"/>
</svg>
