<svg width="19" height="24" viewBox="0 0 19 24" fill="none" xmlns="http://www.w3.org/2000/svg">
<path d="M14.064 16.0585C14.064 14.5731 13.6219 13.4414 12.7378 12.6633C11.889 11.8852 10.7926 11.4962 9.44865 11.4962C7.50346 11.4962 6.08879 12.0974 5.20461 13.2999H1.80939L2.92345 0.620864H16.7165V3.90999H6.15952L5.57597 10.223H5.62902C6.08879 9.72785 6.72539 9.30345 7.53883 8.94978C8.38764 8.56074 9.37791 8.36622 10.5097 8.36622C11.5353 8.36622 12.5079 8.52537 13.4274 8.84368C14.3823 9.16198 15.1958 9.63943 15.8677 10.276C16.5751 10.9126 17.1233 11.7084 17.5123 12.6633C17.9367 13.6182 18.1489 14.7323 18.1489 16.0055C18.1489 18.269 17.3708 20.1611 15.8147 21.6819C14.2939 23.1673 12.1188 23.91 9.28949 23.91C7.76872 23.91 6.49551 23.7155 5.46987 23.3264C4.44422 22.9374 3.59542 22.4246 2.92345 21.788C2.28684 21.1514 1.80939 20.444 1.49109 19.666C1.20815 18.8525 1.03132 18.0391 0.960583 17.2256H4.93936C5.04546 18.4635 5.48755 19.3653 6.26562 19.9312C7.07906 20.4617 8.12239 20.727 9.3956 20.727C10.5981 20.727 11.6768 20.3379 12.6317 19.5599C13.5866 18.7818 14.064 17.6147 14.064 16.0585Z" fill="black"/>
</svg>
