<svg width="19" height="24" viewBox="0 0 19 24" fill="none" xmlns="http://www.w3.org/2000/svg">
<path d="M14.1403 5.61578C13.9634 4.90845 13.5567 4.28952 12.9201 3.75902C12.3189 3.22852 11.4878 2.96326 10.4268 2.96326C9.47185 2.96326 8.64073 3.19315 7.93339 3.65292C7.26141 4.07732 6.67786 4.67856 6.18272 5.45663C5.72295 6.19934 5.36928 7.08351 5.12172 8.10915C4.90951 9.13479 4.80341 10.2312 4.80341 11.3983H4.96256C5.49307 10.4787 6.28882 9.70066 7.34983 9.06406C8.41084 8.39209 9.68405 8.0561 11.1695 8.0561C13.2915 8.0561 15.0245 8.69271 16.3684 9.96592C17.7123 11.2038 18.3843 13.0605 18.3843 15.5362C18.3843 16.668 18.1898 17.729 17.8008 18.7192C17.4117 19.7095 16.8459 20.576 16.1031 21.3187C15.3604 22.0614 14.4409 22.645 13.3445 23.0694C12.2835 23.4938 11.0634 23.706 9.68405 23.706C8.44621 23.706 7.2791 23.5291 6.18272 23.1755C5.12172 22.8218 4.18449 22.2206 3.37105 21.3718C2.59298 20.5229 1.97406 19.4089 1.51429 18.0296C1.05452 16.6503 0.824634 14.935 0.824634 12.8837C0.824634 8.67502 1.69112 5.492 3.4241 3.33462C5.19245 1.17723 7.63277 0.0985436 10.7451 0.0985436C13.1854 0.0985436 14.9714 0.611364 16.1031 1.63701C17.2703 2.66265 17.9422 3.98891 18.1191 5.61578H14.1403ZM9.7371 20.576C10.9396 20.576 12.0183 20.187 12.9732 19.4089C13.9281 18.6308 14.4055 17.446 14.4055 15.8545C14.4055 14.3691 13.9634 13.2197 13.0793 12.4062C12.2305 11.5928 11.1164 11.1861 9.7371 11.1861C8.35779 11.1861 7.24373 11.5751 6.39493 12.3532C5.54612 13.1313 5.12172 14.2984 5.12172 15.8545C5.12172 17.446 5.58149 18.6308 6.50103 19.4089C7.45593 20.187 8.53462 20.576 9.7371 20.576Z" fill="black"/>
</svg>
