<svg width="19" height="24" viewBox="0 0 19 24" fill="none" xmlns="http://www.w3.org/2000/svg">
<path d="M14.1425 5.81981C13.9656 5.11247 13.5589 4.49354 12.9223 3.96304C12.3211 3.43254 11.49 3.16729 10.429 3.16729C9.47405 3.16729 8.64292 3.39717 7.93558 3.85694C7.26361 4.28134 6.68006 4.88258 6.18492 5.66065C5.72515 6.40336 5.37148 7.28753 5.12391 8.31317C4.91171 9.33881 4.80561 10.4352 4.80561 11.6023H4.96476C5.49527 10.6828 6.29102 9.90469 7.35203 9.26808C8.41304 8.59611 9.68625 8.26012 11.1717 8.26012C13.2937 8.26012 15.0267 8.89673 16.3706 10.1699C17.7145 11.4078 18.3865 13.2645 18.3865 15.7402C18.3865 16.872 18.192 17.933 17.803 18.9233C17.4139 19.9135 16.848 20.78 16.1053 21.5227C15.3626 22.2654 14.4431 22.849 13.3467 23.2734C12.2857 23.6978 11.0656 23.91 9.68625 23.91C8.4484 23.91 7.2813 23.7332 6.18492 23.3795C5.12391 23.0258 4.18669 22.4246 3.37325 21.5758C2.59518 20.727 1.97626 19.6129 1.51649 18.2336C1.05672 16.8543 0.826831 15.139 0.826831 13.0877C0.826831 8.87904 1.69332 5.69602 3.4263 3.53864C5.19465 1.38125 7.63497 0.302563 10.7473 0.302563C13.1876 0.302563 14.9736 0.815383 16.1053 1.84102C17.2725 2.86667 17.9444 4.19293 18.1213 5.81981H14.1425ZM9.7393 20.78C10.9418 20.78 12.0205 20.391 12.9754 19.6129C13.9303 18.8348 14.4077 17.65 14.4077 16.0585C14.4077 14.5731 13.9656 13.4237 13.0815 12.6103C12.2327 11.7968 11.1186 11.3901 9.7393 11.3901C8.35999 11.3901 7.24593 11.7791 6.39712 12.5572C5.54832 13.3353 5.12391 14.5024 5.12391 16.0585C5.12391 17.65 5.58368 18.8348 6.50322 19.6129C7.45813 20.391 8.53682 20.78 9.7393 20.78Z" fill="black"/>
</svg>
