<svg width="18" height="24" viewBox="0 0 18 24" fill="none" xmlns="http://www.w3.org/2000/svg">
<path d="M0.975318 6.30544C0.975318 4.53709 1.62961 3.06937 2.93818 1.90226C4.28213 0.699782 6.26267 0.0985436 8.87983 0.0985436C11.497 0.0985436 13.4598 0.699782 14.7684 1.90226C16.1124 3.06937 16.7843 4.55478 16.7843 6.35849C16.7843 7.7378 16.413 8.85186 15.6703 9.70066C14.9629 10.5495 14.0964 11.133 13.0708 11.4513V11.5574C14.2733 11.8404 15.3166 12.4062 16.2008 13.255C17.085 14.1038 17.527 15.3771 17.527 17.0747C17.527 17.9942 17.3325 18.8607 16.9435 19.6741C16.5544 20.4876 15.9886 21.1949 15.2459 21.7962C14.5385 22.3974 13.6367 22.8748 12.5403 23.2285C11.4793 23.5468 10.2591 23.706 8.87983 23.706C6.05047 23.706 3.89309 23.087 2.40768 21.8492C0.957634 20.576 0.232612 18.9845 0.232612 17.0747C0.232612 16.2612 0.356396 15.5362 0.603965 14.8996C0.851533 14.263 1.18752 13.7325 1.61192 13.3081C2.03633 12.8483 2.51378 12.477 3.04428 12.194C3.57479 11.9111 4.12297 11.6989 4.68885 11.5574V11.4513C3.6632 11.133 2.77903 10.5495 2.03633 9.70066C1.32899 8.85186 0.975318 7.72012 0.975318 6.30544ZM8.87983 3.01632C7.74808 3.01632 6.79318 3.31693 6.01511 3.91817C5.23703 4.48404 4.848 5.3859 4.848 6.62374C4.848 7.86158 5.23703 8.78112 6.01511 9.38236C6.79318 9.9836 7.74808 10.2842 8.87983 10.2842C9.9762 10.2842 10.9134 9.9836 11.6915 9.38236C12.4696 8.78112 12.8586 7.86158 12.8586 6.62374C12.8586 5.3859 12.4696 4.48404 11.6915 3.91817C10.9488 3.31693 10.0116 3.01632 8.87983 3.01632ZM8.87983 20.8412C10.2238 20.8412 11.3378 20.5406 12.222 19.9394C13.1415 19.3028 13.6013 18.3125 13.6013 16.9686C13.6013 15.6246 13.1415 14.652 12.222 14.0508C11.3378 13.4142 10.2238 13.0959 8.87983 13.0959C7.60662 13.0959 6.49256 13.4142 5.53765 14.0508C4.61811 14.652 4.15834 15.6246 4.15834 16.9686C4.15834 18.3125 4.61811 19.3028 5.53765 19.9394C6.49256 20.5406 7.60662 20.8412 8.87983 20.8412Z" fill="black"/>
</svg>
