<svg width="19" height="24" viewBox="0 0 19 24" fill="none" xmlns="http://www.w3.org/2000/svg">
<path d="M1.72849 6.50946C1.72849 4.74111 2.38278 3.27339 3.69136 2.10628C5.0353 0.9038 7.01585 0.302563 9.633 0.302563C12.2502 0.302563 14.213 0.9038 15.5216 2.10628C16.8655 3.27339 17.5375 4.7588 17.5375 6.56251C17.5375 7.94182 17.1662 9.05588 16.4235 9.90468C15.7161 10.7535 14.8496 11.337 13.824 11.6553V11.7614C15.0265 12.0444 16.0698 12.6103 16.954 13.4591C17.8381 14.3079 18.2802 15.5811 18.2802 17.2787C18.2802 18.1982 18.0857 19.0647 17.6967 19.8782C17.3076 20.6916 16.7418 21.3989 15.999 22.0002C15.2917 22.6014 14.3899 23.0789 13.2935 23.4325C12.2325 23.7508 11.0123 23.91 9.633 23.91C6.80365 23.91 4.64626 23.2911 3.16085 22.0532C1.71081 20.78 0.985786 19.1885 0.985786 17.2787C0.985786 16.4653 1.10957 15.7402 1.35714 15.1036C1.60471 14.467 1.94069 13.9365 2.3651 13.5121C2.7895 13.0523 3.26695 12.681 3.79746 12.3981C4.32796 12.1151 4.87615 11.9029 5.44202 11.7614V11.6553C4.41638 11.337 3.5322 10.7535 2.7895 9.90468C2.08216 9.05588 1.72849 7.92414 1.72849 6.50946ZM9.633 3.22034C8.50126 3.22034 7.54635 3.52095 6.76828 4.12219C5.99021 4.68806 5.60117 5.58992 5.60117 6.82776C5.60117 8.0656 5.99021 8.98514 6.76828 9.58638C7.54635 10.1876 8.50126 10.4882 9.633 10.4882C10.7294 10.4882 11.6666 10.1876 12.4447 9.58638C13.2227 8.98514 13.6118 8.0656 13.6118 6.82776C13.6118 5.58992 13.2227 4.68806 12.4447 4.12219C11.702 3.52095 10.7647 3.22034 9.633 3.22034ZM9.633 21.0453C10.9769 21.0453 12.091 20.7446 12.9752 20.1434C13.8947 19.5068 14.3545 18.5165 14.3545 17.1726C14.3545 15.8286 13.8947 14.8561 12.9752 14.2548C12.091 13.6182 10.9769 13.2999 9.633 13.2999C8.35979 13.2999 7.24573 13.6182 6.29083 14.2548C5.37129 14.8561 4.91152 15.8286 4.91152 17.1726C4.91152 18.5165 5.37129 19.5068 6.29083 20.1434C7.24573 20.7446 8.35979 21.0453 9.633 21.0453Z" fill="black"/>
</svg>
