<svg width="19" height="24" viewBox="0 0 19 24" fill="none" xmlns="http://www.w3.org/2000/svg">
<path d="M9.4794 3.28157C8.91353 3.28157 8.34766 3.36998 7.78179 3.54682C7.25129 3.72365 6.77383 3.98891 6.34943 4.34258C5.92503 4.69624 5.57136 5.1737 5.28842 5.77494C5.04085 6.34081 4.91707 7.01278 4.91707 7.79085C4.91707 9.31163 5.34147 10.4434 6.19028 11.1861C7.03908 11.9288 8.13546 12.3001 9.4794 12.3001C10.8233 12.3001 11.9374 11.9111 12.8216 11.133C13.7057 10.3196 14.1478 9.20553 14.1478 7.79085C14.1478 6.30544 13.6704 5.19138 12.7155 4.44868C11.7606 3.6706 10.6819 3.28157 9.4794 3.28157ZM5.07622 17.8704C5.25305 18.7546 5.71282 19.4443 6.45553 19.9394C7.2336 20.4345 8.11778 20.6821 9.10805 20.6821C12.574 20.6821 14.3247 17.8881 14.36 12.3001H14.2539C13.7588 13.1136 12.9984 13.8386 11.9728 14.4752C10.9825 15.0764 9.81539 15.3771 8.47144 15.3771C7.5519 15.3771 6.63236 15.2356 5.71282 14.9527C4.82865 14.6697 4.03289 14.2276 3.32556 13.6264C2.61822 12.9898 2.03466 12.2117 1.57489 11.2922C1.15049 10.3726 0.938288 9.27626 0.938288 8.00305C0.938288 5.7042 1.69868 3.81207 3.21946 2.32666C4.7756 0.841249 6.87993 0.0985436 9.53245 0.0985436C12.3618 0.0985436 14.5546 0.965033 16.1107 2.69801C17.6668 4.43099 18.4449 7.18961 18.4449 10.9739C18.4449 15.4655 17.6138 18.7192 15.9516 20.7351C14.3247 22.7157 12.0258 23.706 9.055 23.706C6.93298 23.706 5.18232 23.2108 3.80301 22.2206C2.45907 21.2303 1.64563 19.7802 1.36269 17.8704H5.07622Z" fill="black"/>
</svg>
