<svg width="19" height="24" viewBox="0 0 19 24" fill="none" xmlns="http://www.w3.org/2000/svg">
<path d="M9.30972 3.48559C8.74385 3.48559 8.17798 3.574 7.61211 3.75084C7.08161 3.92767 6.60415 4.19292 6.17975 4.54659C5.75535 4.90026 5.40168 5.37772 5.11874 5.97895C4.87117 6.54483 4.74739 7.2168 4.74739 7.99487C4.74739 9.51565 5.17179 10.6474 6.0206 11.3901C6.86941 12.1328 7.96578 12.5042 9.30972 12.5042C10.6537 12.5042 11.7677 12.1151 12.6519 11.337C13.5361 10.5236 13.9782 9.40955 13.9782 7.99487C13.9782 6.50946 13.5007 5.3954 12.5458 4.6527C11.5909 3.87462 10.5122 3.48559 9.30972 3.48559ZM4.90654 18.0744C5.08338 18.9586 5.54315 19.6483 6.28585 20.1434C7.06392 20.6385 7.9481 20.8861 8.93837 20.8861C12.4043 20.8861 14.155 18.0921 14.1904 12.5042H14.0843C13.5891 13.3176 12.8287 14.0426 11.8031 14.6792C10.8128 15.2805 9.64571 15.5811 8.30177 15.5811C7.38223 15.5811 6.46269 15.4396 5.54315 15.1567C4.65897 14.8737 3.86322 14.4317 3.15588 13.8304C2.44854 13.1938 1.86499 12.4157 1.40522 11.4962C0.980812 10.5767 0.768611 9.48028 0.768611 8.20707C0.768611 5.90822 1.529 4.01609 3.04978 2.53068C4.60592 1.04527 6.71025 0.302563 9.36277 0.302563C12.1921 0.302563 14.3849 1.16905 15.941 2.90203C17.4972 4.63501 18.2752 7.39363 18.2752 11.1779C18.2752 15.6695 17.4441 18.9233 15.7819 20.9392C14.155 22.9197 11.8561 23.91 8.88532 23.91C6.76331 23.91 5.01264 23.4149 3.63333 22.4246C2.28939 21.4343 1.47595 19.9843 1.19301 18.0744H4.90654Z" fill="black"/>
</svg>
