<svg width="1341" height="1938" viewBox="0 0 1341 1938" fill="none" xmlns="http://www.w3.org/2000/svg">
<g clip-path="url(#clip0_413_2)">
<path d="M1298.69 658.382C1290.12 636.567 1278.32 617.599 1263.3 601.513C1248.29 585.426 1230.6 572.186 1210.22 561.801C1189.84 551.442 1167.87 543.407 1144.29 537.68V534.441C1183.24 521.227 1215.15 501.145 1240.02 474.116C1230.84 467.1 1220.9 460.876 1210.22 455.427C1189.84 445.068 1167.87 437.034 1144.29 431.306V428.068C1188.61 413.052 1223.81 389.096 1249.91 356.182C1264.98 337.188 1275.69 316.418 1282.04 293.829C1279.06 282.87 1275.14 272.232 1270.26 261.926C1257.77 235.454 1239.33 212.212 1215.04 192.173C1190.75 172.169 1160.53 156.405 1124.47 144.975C1088.34 133.546 1047.06 127.792 1000.61 127.792C946.268 127.792 899.821 135.139 861.222 149.798C822.631 164.457 790.8 183.947 765.798 208.26C743.858 229.587 726.633 253.508 714.028 280.014H839.778C845.476 234.958 860.674 199.738 885.354 174.328C910.008 148.945 947.007 136.236 996.315 136.236C1041.37 136.236 1076.02 147.143 1100.34 168.957C1124.64 190.798 1136.8 218.862 1136.8 253.177C1136.8 273.538 1133.03 291.792 1125.43 307.914C1119.43 320.684 1111.08 332.113 1100.34 342.228C1076.02 365.14 1042.44 376.569 999.552 376.569H901.961V495.652H1002.75C1051.37 495.652 1089.25 506.586 1116.42 528.374C1143.56 550.215 1157.15 580.421 1157.15 619.036C1157.15 638.552 1153.53 656.284 1146.28 672.292C1145.81 673.337 1145.32 674.373 1144.82 675.391C1136.6 692.192 1125.35 706.503 1111.05 718.315C1096.75 730.102 1079.77 739.224 1060.13 745.666C1040.46 752.108 1019.54 755.311 997.411 755.311C950.217 755.311 911.435 742.976 881.057 718.315C850.678 693.619 832.279 655.91 825.841 605.125V711.464H696.612C709.756 741.287 728.521 767.872 752.923 791.271C778.673 815.941 811.348 835.422 851.035 849.733C890.696 864.044 938.769 871.191 995.245 871.191C1046 871.191 1091.03 864.749 1130.36 851.866C1169.66 839.009 1202.72 821.303 1229.54 798.775C1256.35 776.22 1276.71 750.314 1290.64 720.961C1296.99 707.591 1301.95 693.715 1305.38 679.413C1303.57 672.092 1301.33 665.076 1298.7 658.365L1298.69 658.382Z" fill="white" stroke="black" stroke-width="2"/>
<path d="M1289.05 241.408V347.747C1289.05 328.997 1286.72 311.021 1282.04 293.838C1279.06 282.878 1275.14 272.241 1270.26 261.934C1257.77 235.463 1239.33 212.221 1215.05 192.182C1190.75 172.178 1160.53 156.414 1124.47 144.984C1088.34 133.554 1047.06 127.801 1000.61 127.801C946.268 127.801 899.821 135.147 861.222 149.807C822.631 164.466 790.8 183.956 765.798 208.269C743.858 229.596 726.633 253.517 714.028 280.023C712.244 283.775 710.548 287.588 708.965 291.427C696.09 322.564 688.591 354.189 686.451 386.397V280.032C688.591 247.859 696.09 216.199 708.965 185.061C721.84 153.95 740.761 126.242 765.798 101.903C790.809 77.6168 822.631 58.1091 861.222 43.4413C899.813 28.7822 946.259 21.4353 1000.6 21.4353C1047.06 21.4353 1088.34 27.1892 1124.46 38.6188C1160.53 50.0744 1190.74 65.8042 1215.04 85.8168C1239.33 105.855 1257.77 129.124 1270.25 155.569C1282.77 182.041 1289.04 210.654 1289.04 241.408H1289.05Z" fill="white" stroke="black" stroke-width="2"/>
<path d="M1311.56 626.565V732.931C1311.56 713.632 1309.51 695.796 1305.37 679.43C1303.56 672.11 1301.32 665.093 1298.69 658.382C1290.12 636.567 1278.32 617.599 1263.3 601.513C1248.29 585.426 1230.6 572.186 1210.22 561.801C1189.84 551.442 1167.87 543.407 1144.29 537.68V534.441C1183.24 521.227 1215.15 501.145 1240.02 474.116C1248.43 480.471 1256.15 487.461 1263.3 495.139C1278.31 511.225 1290.11 530.193 1298.69 552.008C1307.26 573.822 1311.56 598.684 1311.56 626.557V626.565Z" fill="white" stroke="black" stroke-width="2"/>
<path d="M825.833 605.125H670.365V711.465H825.833V605.125Z" fill="white" stroke="black" stroke-width="2"/>
<path d="M1122.63 730.032L596.673 680.458V836.345C596.673 845.172 589.522 852.319 580.701 852.319H44.4072C35.586 852.319 28.4351 845.172 28.4351 836.345V515.473C28.4351 506.655 35.586 499.5 44.4072 499.5H580.701C589.522 499.5 596.673 506.655 596.673 515.473V624.45L1122.63 730.032Z" fill="white" stroke="black" stroke-width="2"/>
<path d="M213.959 806.113H297.613" stroke="black" stroke-width="2"/>
<path d="M336.847 806.113H297.613" stroke="black" stroke-width="2"/>
<path d="M373.941 800.429L408.808 789.017" stroke="black" stroke-width="2"/>
<path d="M443.615 777.596L408.809 789.017" stroke="black" stroke-width="2"/>
<path d="M473.724 761.422L499.065 740.478" stroke="black" stroke-width="2"/>
<path d="M524.415 719.586L499.065 740.478" stroke="black" stroke-width="2"/>
<path d="M145.199 784.255L91.3579 740.478" stroke="black" stroke-width="2"/>
<path d="M37.5085 696.753L91.358 740.478" stroke="black" stroke-width="2"/>
<path d="M544.372 694.229L558.934 664.397" stroke="black" stroke-width="2"/>
<path d="M573.497 634.661L558.935 664.397" stroke="black" stroke-width="2"/>
<path d="M35.7164 697.241C36.7926 697.241 37.665 696.368 37.665 695.291C37.665 694.214 36.7926 693.341 35.7164 693.341C34.6401 693.341 33.7677 694.214 33.7677 695.291C33.7677 696.368 34.6401 697.241 35.7164 697.241Z" stroke="black" stroke-width="2"/>
<path d="M147.06 787.719C148.136 787.719 149.009 786.846 149.009 785.769C149.009 784.693 148.136 783.82 147.06 783.82C145.984 783.82 145.112 784.693 145.112 785.769C145.112 786.846 145.984 787.719 147.06 787.719Z" stroke="black" stroke-width="2"/>
<path d="M212.01 808.063C213.086 808.063 213.959 807.19 213.959 806.113C213.959 805.036 213.086 804.163 212.01 804.163C210.934 804.163 210.062 805.036 210.062 806.113C210.062 807.19 210.934 808.063 212.01 808.063Z" stroke="black" stroke-width="2"/>
<path d="M338.595 808.063C339.672 808.063 340.544 807.19 340.544 806.113C340.544 805.036 339.672 804.163 338.595 804.163C337.519 804.163 336.647 805.036 336.647 806.113C336.647 807.19 337.519 808.063 338.595 808.063Z" stroke="black" stroke-width="2"/>
<path d="M372.288 802.936C373.365 802.936 374.237 802.063 374.237 800.986C374.237 799.909 373.365 799.036 372.288 799.036C371.212 799.036 370.34 799.909 370.34 800.986C370.34 802.063 371.212 802.936 372.288 802.936Z" stroke="black" stroke-width="2"/>
<path d="M445.12 779.067C446.196 779.067 447.069 778.194 447.069 777.117C447.069 776.04 446.196 775.167 445.12 775.167C444.044 775.167 443.171 776.04 443.171 777.117C443.171 778.194 444.044 779.067 445.12 779.067Z" stroke="black" stroke-width="2"/>
<path d="M472.375 764.486C473.451 764.486 474.324 763.613 474.324 762.536C474.324 761.459 473.451 760.586 472.375 760.586C471.299 760.586 470.427 761.459 470.427 762.536C470.427 763.613 471.299 764.486 472.375 764.486Z" stroke="black" stroke-width="2"/>
<path d="M525.607 720.552C526.683 720.552 527.556 719.679 527.556 718.602C527.556 717.526 526.683 716.653 525.607 716.653C524.531 716.653 523.658 717.526 523.658 718.602C523.658 719.679 524.531 720.552 525.607 720.552Z" stroke="black" stroke-width="2"/>
<path d="M543.719 697.511C544.795 697.511 545.668 696.638 545.668 695.561C545.668 694.484 544.795 693.611 543.719 693.611C542.643 693.611 541.771 694.484 541.771 695.561C541.771 696.638 542.643 697.511 543.719 697.511Z" stroke="black" stroke-width="2"/>
<path d="M574.089 635.418C575.165 635.418 576.037 634.545 576.037 633.468C576.037 632.392 575.165 631.519 574.089 631.519C573.013 631.519 572.14 632.392 572.14 633.468C572.14 634.545 573.013 635.418 574.089 635.418Z" stroke="black" stroke-width="2"/>
<path d="M580.788 605.282C581.864 605.282 582.736 604.409 582.736 603.332C582.736 602.255 581.864 601.382 580.788 601.382C579.711 601.382 578.839 602.255 578.839 603.332C578.839 604.409 579.711 605.282 580.788 605.282Z" stroke="black" stroke-width="2"/>
<path d="M580.788 527.982C581.864 527.982 582.736 527.109 582.736 526.032C582.736 524.956 581.864 524.083 580.788 524.083C579.711 524.083 578.839 524.956 578.839 526.032C578.839 527.109 579.711 527.982 580.788 527.982Z" stroke="black" stroke-width="2"/>
<path d="M580.787 601.382V527.982" stroke="black" stroke-width="2"/>
<path d="M1305.37 679.43C1303.56 672.11 1301.32 665.093 1298.69 658.382C1290.12 636.567 1278.32 617.599 1263.3 601.513C1248.29 585.426 1230.6 572.186 1210.22 561.801C1189.84 551.442 1167.87 543.408 1144.29 537.68V534.441C1183.24 521.227 1215.15 501.145 1240.02 474.116C1243.45 470.391 1246.73 466.552 1249.91 462.548C1275.98 429.66 1289.05 391.402 1289.05 347.739C1289.05 328.988 1286.72 311.013 1282.04 293.829C1279.06 282.87 1275.14 272.232 1270.26 261.926C1257.77 235.454 1239.33 212.212 1215.04 192.173C1190.75 172.169 1160.53 156.405 1124.47 144.975C1088.34 133.546 1047.06 127.792 1000.61 127.792C946.268 127.792 899.821 135.139 861.222 149.798C822.631 164.457 790.8 183.947 765.798 208.26C743.858 229.587 726.633 253.508 714.028 280.014C712.244 283.766 710.548 287.579 708.965 291.418C696.09 322.555 688.591 354.18 686.451 386.388H839.778C845.476 341.332 860.674 306.086 885.354 280.702C910.008 255.319 947.007 242.609 996.315 242.609C1041.37 242.609 1076.02 253.517 1100.34 275.331C1111.08 284.976 1119.43 295.831 1125.43 307.922C1133.02 323.191 1136.8 340.4 1136.8 359.56C1136.8 396.042 1124.64 425.717 1100.34 448.602C1076.02 471.514 1042.44 482.943 999.552 482.943H901.961V602.026H1002.75C1051.37 602.026 1089.25 612.96 1116.42 634.748C1129.54 645.298 1139.48 657.825 1146.28 672.292C1153.53 687.752 1157.15 705.458 1157.15 725.41C1157.15 745.361 1153.04 764.956 1144.82 781.73C1136.6 798.557 1125.35 812.868 1111.05 824.654C1096.75 836.467 1079.77 845.59 1060.13 852.031C1040.46 858.473 1019.54 861.676 997.411 861.676C950.217 861.676 911.435 849.341 881.057 824.646C850.678 799.976 832.279 762.266 825.841 711.456H670.374C673.219 747.25 681.248 781.043 694.48 812.859C707.712 844.676 727.181 872.932 752.932 897.602C778.682 922.297 811.357 941.779 851.044 956.09C890.704 970.401 938.777 977.547 995.254 977.547C1046.01 977.547 1091.03 971.106 1130.36 958.222C1169.67 945.339 1202.73 927.633 1229.55 905.105C1256.36 882.577 1276.72 856.68 1290.65 827.327C1304.6 798 1311.57 766.54 1311.57 732.905C1311.57 713.606 1309.52 695.77 1305.38 679.404L1305.37 679.43Z" fill="white" stroke="black" stroke-width="2"/>
<path d="M974.036 141.241L596.673 184.687V358.28C596.673 367.098 589.522 374.254 580.701 374.254H44.4072C35.586 374.254 28.4351 367.098 28.4351 358.28V37.4088C28.4351 28.5907 35.586 21.4353 44.4072 21.4353H580.701C589.522 21.4353 596.673 28.5907 596.673 37.4088V162.986L974.036 141.241V141.241Z" stroke="black" stroke-width="2"/>
<path d="M974.036 141.241L596.673 184.687V358.28C596.673 367.098 589.522 374.254 580.701 374.254H44.4072C35.586 374.254 28.4351 367.098 28.4351 358.28V37.4088C28.4351 28.5907 35.586 21.4353 44.4072 21.4353H580.701C589.522 21.4353 596.673 28.5907 596.673 37.4088V162.986L974.036 141.241Z" fill="white" stroke="black" stroke-width="2" stroke-miterlimit="10"/>
<path d="M596.673 115.701C584.589 111.105 572.149 106.778 559.335 102.713C486.12 79.5581 402.475 67.8936 308.339 67.8936C199.414 67.8936 106.13 82.4569 28.4351 111.523M518.308 374.254C515.759 371.756 513.132 369.301 510.435 366.872C461.144 322.66 390.931 300.558 299.622 300.558C202.006 300.558 128.183 325.15 78.2567 374.254" stroke="black" stroke-width="2"/>
<path d="M197.935 67.8936H309.566" stroke="black" stroke-width="2"/>
<path d="M309.566 67.8936H402.293" stroke="black" stroke-width="2"/>
<path d="M196.186 69.7476C197.209 69.7476 198.039 68.9175 198.039 67.8934C198.039 66.8694 197.209 66.0393 196.186 66.0393C195.163 66.0393 194.333 66.8694 194.333 67.8934C194.333 68.9175 195.163 69.7476 196.186 69.7476Z" stroke="black" stroke-width="2"/>
<path d="M105.808 83.9715C106.831 83.9715 107.661 83.1413 107.661 82.1173C107.661 81.0933 106.831 80.2632 105.808 80.2632C104.784 80.2632 103.955 81.0933 103.955 82.1173C103.955 83.1413 104.784 83.9715 105.808 83.9715Z" stroke="black" stroke-width="2"/>
<path d="M197.856 302.412C198.88 302.412 199.709 301.582 199.709 300.558C199.709 299.534 198.88 298.704 197.856 298.704C196.833 298.704 196.003 299.534 196.003 300.558C196.003 301.582 196.833 302.412 197.856 302.412Z" stroke="black" stroke-width="2"/>
<path d="M125.521 327.361C126.544 327.361 127.374 326.531 127.374 325.506C127.374 324.482 126.544 323.652 125.521 323.652C124.497 323.652 123.668 324.482 123.668 325.506C123.668 326.531 124.497 327.361 125.521 327.361Z" stroke="black" stroke-width="2"/>
<path d="M392.784 302.412C393.808 302.412 394.637 301.582 394.637 300.558C394.637 299.534 393.808 298.704 392.784 298.704C391.761 298.704 390.931 299.534 390.931 300.558C390.931 301.582 391.761 302.412 392.784 302.412Z" stroke="black" stroke-width="2"/>
<path d="M460.248 323.217C461.272 323.217 462.101 322.387 462.101 321.363C462.101 320.339 461.272 319.509 460.248 319.509C459.225 319.509 458.395 320.339 458.395 321.363C458.395 322.387 459.225 323.217 460.248 323.217Z" stroke="black" stroke-width="2"/>
<path d="M404.137 69.7476C405.161 69.7476 405.99 68.9175 405.99 67.8934C405.99 66.8694 405.161 66.0393 404.137 66.0393C403.114 66.0393 402.284 66.8694 402.284 67.8934C402.284 68.9175 403.114 69.7476 404.137 69.7476Z" stroke="black" stroke-width="2"/>
<path d="M484.25 80.8116C485.273 80.8116 486.103 79.9814 486.103 78.9574C486.103 77.9334 485.273 77.1033 484.25 77.1033C483.227 77.1033 482.397 77.9334 482.397 78.9574C482.397 79.9814 483.227 80.8116 484.25 80.8116Z" stroke="black" stroke-width="2"/>
<path d="M104.068 82.7788L28.4351 111.514" stroke="black" stroke-width="2"/>
<path d="M486.12 79.5581L559.335 102.713" stroke="black" stroke-width="2"/>
<path d="M199.709 300.558H299.622" stroke="black" stroke-width="2"/>
<path d="M390.931 300.558H299.622" stroke="black" stroke-width="2"/>
<path d="M461.144 322.66L510.435 366.872" stroke="black" stroke-width="2"/>
<path d="M78.1697 374.254L124.224 326.83L124.72 326.325" stroke="black" stroke-width="2"/>
<path d="M28.4351 661.411C44.5116 693.123 65.4859 719.464 91.358 740.478C145.207 784.255 213.959 806.113 297.613 806.113C336.847 806.113 373.941 800.429 408.809 789.017C443.615 777.596 473.724 761.422 499.065 740.478C524.415 719.586 544.372 694.229 558.935 664.397C573.497 634.661 580.788 601.382 580.788 564.552C580.788 541.118 577.969 519.434 572.332 499.5" stroke="black" stroke-width="2"/>
<circle cx="310" cy="68" r="5" fill="#058C42"/>
<circle cx="300" cy="302" r="5" fill="#058C42"/>
<circle cx="298" cy="806" r="5" fill="#058C42"/>
<circle cx="409" cy="789" r="5" fill="#058C42"/>
<circle cx="499" cy="740" r="5" fill="#058C42"/>
<circle cx="559" cy="664" r="5" fill="#058C42"/>
<circle cx="581" cy="565" r="5" fill="#058C42"/>
<circle cx="91" cy="740" r="5" fill="#058C42"/>
</g>
<path d="M480.332 1076.89H398.542C399.31 1080.28 400.138 1083.78 400.984 1087.35C403.814 1097.24 406.973 1109.03 410.519 1122.8C414.04 1136.54 418.614 1151.18 424.266 1166.68L508.904 1420.5H457.723L494.053 1529.45H545.933L613.64 1732.52H713.518L480.332 1076.89ZM82.5988 1732.52H170.378L238.085 1529.45H289.965L326.296 1420.5H275.114L359.752 1166.68C369.616 1137.06 377.201 1111.52 382.491 1090C383.699 1085.14 384.752 1080.77 385.727 1076.89H313.187L82.5988 1732.52Z" fill="white" stroke="black" stroke-width="2"/>
<path d="M768.091 1732.52V1886L713.518 1732.52L480.332 1076.89V923.431L768.091 1732.52Z" stroke="black" stroke-width="2"/>
<path d="M480.332 923.431H313.187V1076.89H480.332V923.431Z" stroke="black" stroke-width="2"/>
<path d="M313.187 923.431V1076.89L82.5988 1732.52L28.6127 1886V1732.52L313.187 923.431Z" stroke="black" stroke-width="2"/>
<path d="M713.518 1732.52L480.332 1076.89H313.187L82.5988 1732.52L28.6127 1886H170.369L238.076 1682.94H545.933L613.64 1886H768.091L713.518 1732.52ZM275.105 1573.99L289.957 1529.45L326.287 1420.5L359.743 1320.16C369.607 1290.54 377.192 1264.98 382.482 1243.48C387.772 1221.98 390.758 1210.17 391.474 1208.03H393.58C395.685 1217.92 398.153 1228.84 400.984 1240.83C403.814 1250.7 406.973 1262.51 410.519 1276.26C414.04 1290 418.614 1304.64 424.266 1320.16L457.723 1420.5L494.053 1529.45L508.904 1573.99H275.105Z" fill="white" stroke="black" stroke-width="2"/>
<path d="M508.904 1573.99H275.105L289.957 1529.45L326.287 1420.5H457.723L494.053 1529.45L508.904 1573.99Z" stroke="black" stroke-width="2"/>
<path d="M1312.56 1104.06V1426.37C1312.56 1436.66 1304.22 1445 1293.93 1445H853.445C843.15 1445 834.814 1436.66 834.814 1426.37V1320.34L526.94 1587.05L834.814 1227.4V1104.06C834.814 1093.78 843.15 1085.44 853.445 1085.44H1293.93C1304.22 1085.44 1312.56 1093.78 1312.56 1104.06Z" fill="white" stroke="black" stroke-width="2"/>
<path d="M1207.28 1085H998.24L1021.13 1153.58L1042.37 1217.22H834.806V1372.88H1095.32L1119.24 1444.56H1293.92C1304.22 1444.56 1312.57 1436.22 1312.57 1425.94V1380.75L1207.28 1085Z" stroke="black" stroke-width="2"/>
<path d="M955.998 1217.22C955.998 1179.09 980.722 1146.73 1015.02 1135.29" stroke="#058C42" stroke-width="2"/>
<path d="M1113.25 1426.62C1107.6 1428.54 1101.53 1429.59 1095.23 1429.59C1064.32 1429.59 1039.27 1404.54 1039.27 1373.64" stroke="#058C42" stroke-width="2"/>
<path d="M916.76 1223.41V1366.69" stroke="black" stroke-width="2"/>
<path d="M912.462 1224.67L916.76 1217.22L921.066 1224.67H912.462Z" fill="black"/>
<path d="M912.462 1365.43L916.76 1372.88L921.066 1365.43H912.462Z" fill="black"/>
<path d="M1226.19 1156.49L1043.22 1201.23" stroke="black" stroke-width="2"/>
<path d="M1223.94 1152.61L1232.2 1155.02L1225.99 1160.97L1223.94 1152.61Z" fill="black"/>
<path d="M1043.42 1196.76L1037.21 1202.7L1045.47 1205.11L1043.42 1196.76Z" fill="black"/>
<path d="M1312.57 1607.49V1893.84C1312.57 1901.38 1306.45 1907.5 1298.91 1907.5H269.885C262.342 1907.5 256.224 1901.38 256.224 1893.84V1607.49C256.224 1599.95 262.342 1593.83 269.885 1593.83H415.033L392.009 1252.4L464.272 1593.83H1298.91C1306.45 1593.83 1312.57 1599.95 1312.57 1607.49Z" fill="white" stroke="black" stroke-width="2"/>
<path d="M733.133 1867.52C680.415 1852.36 641.842 1803.79 641.842 1746.2C641.842 1676.49 698.365 1619.99 768.091 1619.99C837.817 1619.99 894.34 1676.49 894.34 1746.2C894.34 1805.09 853.998 1854.57 799.425 1868.5" stroke="#058C42" stroke-width="2"/>
<path d="M799.373 1868.28C788.853 1823.64 779.672 1783 771.836 1746.2H763.992C761.317 1754.14 750.219 1798.11 730.527 1878.13C728.154 1887.76 725.66 1897.6 723.045 1907.67H810.384C806.57 1893.73 802.902 1880.59 799.373 1868.28V1868.28Z" stroke="black" stroke-width="2"/>
<path d="M1312.57 1870.8V1607.66C1312.57 1600.12 1306.45 1594 1298.91 1594H1214.12L1312.57 1870.8Z" stroke="black" stroke-width="2"/>
<path d="M354.497 1594H269.885C262.342 1594 256.224 1600.12 256.224 1607.66V1873.42L354.497 1594V1594Z" stroke="black" stroke-width="2"/>
<path d="M415.033 1594H464.273" stroke="black" stroke-width="2"/>
<path d="M927.565 1149.76H915.42V1145.87H932.99V1148.64L922.42 1171.81H917.52L927.565 1149.76ZM933.715 1154.27C933.715 1152.9 933.925 1151.67 934.345 1150.6C934.788 1149.5 935.407 1148.58 936.2 1147.83C936.993 1147.06 937.95 1146.48 939.07 1146.08C940.19 1145.69 941.45 1145.49 942.85 1145.49C944.39 1145.49 945.708 1145.69 946.805 1146.08C947.902 1146.48 948.8 1147.02 949.5 1147.69C950.2 1148.37 950.713 1149.15 951.04 1150.04C951.367 1150.9 951.53 1151.8 951.53 1152.73C951.53 1153.67 951.413 1154.52 951.18 1155.29C950.97 1156.04 950.62 1156.78 950.13 1157.53C949.663 1158.25 949.057 1159 948.31 1159.77C947.587 1160.54 946.723 1161.4 945.72 1162.36L939.805 1167.89V1167.96H951.6V1171.81H933.12V1168.87L942.185 1160.08C942.908 1159.36 943.55 1158.71 944.11 1158.12C944.67 1157.52 945.125 1156.95 945.475 1156.41C945.848 1155.85 946.128 1155.3 946.315 1154.76C946.502 1154.2 946.595 1153.62 946.595 1153.01C946.595 1151.82 946.257 1150.88 945.58 1150.18C944.903 1149.46 943.958 1149.09 942.745 1149.09C942.185 1149.09 941.648 1149.19 941.135 1149.37C940.622 1149.54 940.167 1149.83 939.77 1150.25C939.373 1150.65 939.058 1151.17 938.825 1151.82C938.592 1152.48 938.475 1153.29 938.475 1154.27H933.715ZM952.934 1151.02C952.934 1150.18 953.074 1149.41 953.354 1148.71C953.657 1147.99 954.066 1147.37 954.579 1146.85C955.092 1146.32 955.699 1145.91 956.399 1145.63C957.122 1145.33 957.904 1145.17 958.744 1145.17C959.584 1145.17 960.366 1145.33 961.089 1145.63C961.812 1145.91 962.431 1146.32 962.944 1146.85C963.457 1147.37 963.854 1147.99 964.134 1148.71C964.437 1149.41 964.589 1150.18 964.589 1151.02C964.589 1151.86 964.437 1152.63 964.134 1153.33C963.854 1154.03 963.457 1154.65 962.944 1155.18C962.431 1155.7 961.812 1156.11 961.089 1156.41C960.366 1156.69 959.584 1156.83 958.744 1156.83C957.904 1156.83 957.122 1156.69 956.399 1156.41C955.699 1156.11 955.092 1155.7 954.579 1155.18C954.066 1154.65 953.657 1154.03 953.354 1153.33C953.074 1152.63 952.934 1151.86 952.934 1151.02ZM958.744 1154.41C959.724 1154.41 960.506 1154.1 961.089 1153.47C961.672 1152.82 961.964 1152 961.964 1151.02C961.964 1150.02 961.672 1149.2 961.089 1148.57C960.506 1147.92 959.724 1147.59 958.744 1147.59C957.787 1147.59 957.017 1147.92 956.434 1148.57C955.874 1149.2 955.594 1150.02 955.594 1151.02C955.594 1152 955.874 1152.82 956.434 1153.47C957.017 1154.1 957.787 1154.41 958.744 1154.41Z" fill="#058C42"/>
<path d="M975.57 1403.86H970.46V1400.78H971.16C972.794 1400.78 974.054 1400.4 974.94 1399.63C975.757 1398.88 976.165 1397.71 976.165 1396.13H980.295V1422.13H975.57V1403.86ZM983.822 1409.25C983.822 1406.99 984.055 1405.02 984.522 1403.34C985.012 1401.66 985.689 1400.27 986.552 1399.17C987.439 1398.05 988.5 1397.22 989.737 1396.69C990.974 1396.13 992.35 1395.85 993.867 1395.85C997.04 1395.85 999.525 1396.94 1001.32 1399.14C1003.12 1401.33 1004.02 1404.7 1004.02 1409.25C1004.02 1411.51 1003.78 1413.49 1003.32 1415.17C1002.85 1416.85 1002.17 1418.25 1001.29 1419.37C1000.42 1420.46 999.362 1421.29 998.102 1421.85C996.842 1422.39 995.43 1422.66 993.867 1422.66C990.67 1422.66 988.197 1421.56 986.447 1419.37C984.697 1417.17 983.822 1413.8 983.822 1409.25ZM993.867 1419.02C995.36 1419.02 996.562 1418.25 997.472 1416.71C998.382 1415.14 998.837 1412.67 998.837 1409.29C998.837 1407.56 998.72 1406.08 998.487 1404.84C998.254 1403.6 997.915 1402.59 997.472 1401.8C997.029 1400.98 996.504 1400.38 995.897 1400.01C995.29 1399.64 994.614 1399.45 993.867 1399.45C993.12 1399.45 992.444 1399.64 991.837 1400.01C991.23 1400.38 990.705 1400.97 990.262 1401.76C989.842 1402.53 989.515 1403.55 989.282 1404.81C989.049 1406.04 988.932 1407.54 988.932 1409.29C988.932 1411.04 989.037 1412.53 989.247 1413.77C989.48 1415 989.807 1416.01 990.227 1416.78C990.67 1417.55 991.195 1418.12 991.802 1418.49C992.409 1418.84 993.097 1419.02 993.867 1419.02ZM1006.27 1402.92C1006.27 1401.91 1006.47 1400.98 1006.87 1400.12C1007.26 1399.25 1007.83 1398.51 1008.58 1397.88C1009.33 1397.22 1010.24 1396.72 1011.31 1396.37C1012.41 1396 1013.66 1395.81 1015.06 1395.81C1016.46 1395.81 1017.69 1396 1018.77 1396.37C1019.86 1396.72 1020.78 1397.22 1021.53 1397.88C1022.28 1398.51 1022.85 1399.25 1023.25 1400.12C1023.64 1400.98 1023.84 1401.91 1023.84 1402.92C1023.84 1403.71 1023.72 1404.42 1023.49 1405.05C1023.28 1405.68 1022.98 1406.24 1022.58 1406.73C1022.21 1407.2 1021.76 1407.61 1021.25 1407.96C1020.76 1408.28 1020.24 1408.54 1019.68 1408.73V1408.83C1020.33 1408.99 1020.96 1409.24 1021.57 1409.57C1022.17 1409.87 1022.7 1410.28 1023.14 1410.79C1023.61 1411.3 1023.98 1411.92 1024.26 1412.65C1024.54 1413.35 1024.68 1414.17 1024.68 1415.13C1024.68 1416.18 1024.45 1417.17 1023.98 1418.11C1023.54 1419.02 1022.9 1419.82 1022.06 1420.52C1021.22 1421.2 1020.2 1421.73 1019.01 1422.13C1017.82 1422.5 1016.5 1422.69 1015.06 1422.69C1013.56 1422.69 1012.22 1422.5 1011.03 1422.13C1009.84 1421.76 1008.84 1421.23 1008.02 1420.56C1007.2 1419.88 1006.57 1419.09 1006.13 1418.18C1005.69 1417.24 1005.47 1416.23 1005.47 1415.13C1005.47 1414.2 1005.61 1413.38 1005.89 1412.68C1006.17 1411.96 1006.54 1411.34 1007.01 1410.83C1007.47 1410.31 1008 1409.89 1008.58 1409.57C1009.19 1409.24 1009.81 1408.99 1010.44 1408.83V1408.73C1009.88 1408.54 1009.34 1408.28 1008.83 1407.96C1008.34 1407.63 1007.89 1407.22 1007.5 1406.73C1007.12 1406.24 1006.82 1405.68 1006.59 1405.05C1006.38 1404.42 1006.27 1403.71 1006.27 1402.92ZM1015.06 1399.21C1013.91 1399.21 1012.93 1399.54 1012.12 1400.22C1011.3 1400.87 1010.89 1401.89 1010.89 1403.27C1010.89 1403.94 1011 1404.54 1011.21 1405.05C1011.44 1405.54 1011.74 1405.96 1012.12 1406.31C1012.51 1406.64 1012.96 1406.89 1013.45 1407.08C1013.96 1407.24 1014.5 1407.33 1015.06 1407.33C1015.62 1407.33 1016.14 1407.24 1016.63 1407.08C1017.14 1406.89 1017.59 1406.64 1017.96 1406.31C1018.36 1405.96 1018.66 1405.54 1018.87 1405.05C1019.1 1404.54 1019.22 1403.94 1019.22 1403.27C1019.22 1402.57 1019.1 1401.97 1018.87 1401.48C1018.66 1400.97 1018.36 1400.55 1017.96 1400.22C1017.59 1399.87 1017.14 1399.61 1016.63 1399.45C1016.14 1399.29 1015.62 1399.21 1015.06 1399.21ZM1015.06 1419.33C1015.71 1419.33 1016.33 1419.25 1016.91 1419.09C1017.52 1418.9 1018.04 1418.63 1018.49 1418.28C1018.93 1417.93 1019.28 1417.49 1019.54 1416.95C1019.79 1416.41 1019.92 1415.77 1019.92 1415.03C1019.92 1414.28 1019.79 1413.64 1019.54 1413.1C1019.28 1412.54 1018.93 1412.09 1018.49 1411.74C1018.04 1411.36 1017.52 1411.09 1016.91 1410.93C1016.33 1410.74 1015.71 1410.65 1015.06 1410.65C1014.4 1410.65 1013.78 1410.74 1013.2 1410.93C1012.62 1411.09 1012.1 1411.36 1011.66 1411.74C1011.22 1412.09 1010.87 1412.54 1010.61 1413.1C1010.35 1413.64 1010.23 1414.28 1010.23 1415.03C1010.23 1415.77 1010.35 1416.41 1010.61 1416.95C1010.89 1417.49 1011.25 1417.93 1011.7 1418.28C1012.14 1418.63 1012.65 1418.9 1013.24 1419.09C1013.82 1419.25 1014.43 1419.33 1015.06 1419.33ZM1025.21 1401.34C1025.21 1400.5 1025.35 1399.73 1025.63 1399.03C1025.93 1398.31 1026.34 1397.69 1026.85 1397.18C1027.37 1396.64 1027.97 1396.23 1028.67 1395.95C1029.4 1395.65 1030.18 1395.5 1031.02 1395.5C1031.86 1395.5 1032.64 1395.65 1033.36 1395.95C1034.09 1396.23 1034.71 1396.64 1035.22 1397.18C1035.73 1397.69 1036.13 1398.31 1036.41 1399.03C1036.71 1399.73 1036.86 1400.5 1036.86 1401.34C1036.86 1402.18 1036.71 1402.95 1036.41 1403.65C1036.13 1404.35 1035.73 1404.97 1035.22 1405.51C1034.71 1406.02 1034.09 1406.43 1033.36 1406.73C1032.64 1407.01 1031.86 1407.15 1031.02 1407.15C1030.18 1407.15 1029.4 1407.01 1028.67 1406.73C1027.97 1406.43 1027.37 1406.02 1026.85 1405.51C1026.34 1404.97 1025.93 1404.35 1025.63 1403.65C1025.35 1402.95 1025.21 1402.18 1025.21 1401.34ZM1031.02 1404.74C1032 1404.74 1032.78 1404.42 1033.36 1403.79C1033.95 1403.14 1034.24 1402.32 1034.24 1401.34C1034.24 1400.34 1033.95 1399.52 1033.36 1398.89C1032.78 1398.24 1032 1397.91 1031.02 1397.91C1030.06 1397.91 1029.29 1398.24 1028.71 1398.89C1028.15 1399.52 1027.87 1400.34 1027.87 1401.34C1027.87 1402.32 1028.15 1403.14 1028.71 1403.79C1029.29 1404.42 1030.06 1404.74 1031.02 1404.74Z" fill="#058C42"/>
<defs>
<clipPath id="clip0_413_2">
<rect width="1340" height="978" fill="white"/>
</clipPath>
</defs>
</svg>
