<svg width="1255" height="282" viewBox="0 0 1255 282" fill="none" xmlns="http://www.w3.org/2000/svg">
<path d="M2.0341 152H1252.84L1234.24 173.852L1233.72 174.462L1234.2 175.102L1253.9 201.201L1246.04 227.968L1245.96 228.25L1246.04 228.532L1254 255.644V281H2.06355L15.7849 263.62L16.1513 263.156L15.9211 262.611L1.14834 227.648L30.2919 189.861L30.7629 189.25L30.2919 188.639L2.0341 152Z" fill="#FBD914" stroke="black" stroke-width="2"/>
<mask id="mask0_413_9" style="mask-type:alpha" maskUnits="userSpaceOnUse" x="0" y="151" width="1255" height="131">
<path d="M2.0341 152H1252.84L1234.24 173.852L1233.72 174.462L1234.2 175.102L1253.9 201.201L1246.04 227.968L1245.96 228.25L1246.04 228.532L1254 255.644V281H2.06355L15.7849 263.62L16.1513 263.156L15.9211 262.611L1.14834 227.648L30.2919 189.861L30.7629 189.25L30.2919 188.639L2.0341 152Z" fill="white" stroke="black" stroke-width="2"/>
</mask>
<g mask="url(#mask0_413_9)">
<path d="M-152.501 204.688C-152.543 204.814 -152.711 205.528 -153.005 206.83C-153.299 208.09 -153.761 209.707 -154.391 211.681L-158.864 225.73H-146.138L-150.548 211.744C-150.884 210.694 -151.157 209.749 -151.367 208.909C-151.577 208.027 -151.766 207.271 -151.934 206.641C-152.102 205.885 -152.249 205.234 -152.375 204.688H-152.501ZM-143.618 233.29H-161.321L-164.849 244H-174.74L-157.919 195.805H-146.327L-129.254 244H-140.09L-143.618 233.29ZM-94.1359 203.932H-108.374V244H-118.706V203.932H-132.944V195.805H-94.1359V203.932ZM-52.4058 203.932H-66.6438V244H-76.9758V203.932H-91.2138V195.805H-52.4058V203.932ZM-47.6813 195.805H-15.9293V203.68H-37.3493V216.091H-17.0633V223.777H-37.3493V236.188H-15.3623V244H-47.6813V195.805ZM-8.71974 195.805H2.68326L18.2443 221.887C18.8323 222.937 19.3363 223.903 19.7563 224.785C20.2183 225.667 20.5963 226.423 20.8903 227.053C21.2263 227.809 21.4993 228.481 21.7093 229.069H21.8983V195.805H31.3483V244H20.4493L4.44726 217.414C3.77526 216.364 3.20826 215.398 2.74626 214.516C2.32626 213.634 1.96926 212.857 1.67526 212.185C1.33926 211.429 1.04526 210.736 0.793261 210.106H0.604261V244H-8.71974V195.805ZM74.5072 203.932H60.2692V244H49.9372V203.932H35.6992V195.805H74.5072V203.932ZM79.2317 195.805H89.5637V244H79.2317V195.805ZM95.6973 220.06C95.6973 216.112 96.2433 212.584 97.3353 209.476C98.4693 206.368 100.023 203.764 101.997 201.664C104.013 199.522 106.407 197.905 109.179 196.813C111.993 195.679 115.08 195.112 118.44 195.112C121.968 195.112 125.139 195.658 127.953 196.75C130.767 197.842 133.14 199.459 135.072 201.601C137.046 203.701 138.558 206.305 139.608 209.413C140.658 212.479 141.183 216.028 141.183 220.06C141.183 224.05 140.637 227.599 139.545 230.707C138.495 233.773 136.962 236.377 134.946 238.519C132.972 240.619 130.578 242.236 127.764 243.37C124.992 244.462 121.884 245.008 118.44 245.008C111.216 245.008 105.609 242.866 101.619 238.582C97.6713 234.256 95.6973 228.082 95.6973 220.06ZM118.44 237.448C122.136 237.448 124.992 235.999 127.008 233.101C129.024 230.161 130.032 225.814 130.032 220.06C130.032 217.162 129.738 214.621 129.15 212.437C128.604 210.253 127.806 208.426 126.756 206.956C125.748 205.486 124.53 204.394 123.102 203.68C121.674 202.924 120.12 202.546 118.44 202.546C114.744 202.546 111.888 203.995 109.872 206.893C107.898 209.791 106.911 214.18 106.911 220.06C106.911 225.898 107.877 230.266 109.809 233.164C111.741 236.02 114.618 237.448 118.44 237.448ZM147.311 195.805H158.714L174.275 221.887C174.863 222.937 175.367 223.903 175.787 224.785C176.249 225.667 176.627 226.423 176.921 227.053C177.257 227.809 177.53 228.481 177.74 229.069H177.929V195.805H187.379V244H176.48L160.478 217.414C159.806 216.364 159.239 215.398 158.777 214.516C158.357 213.634 158 212.857 157.706 212.185C157.37 211.429 157.076 210.736 156.824 210.106H156.635V244H147.311V195.805ZM194.88 194.356H206.472L204.393 228.691H196.896L194.88 194.356ZM195.132 244V234.424H206.157V244H195.132ZM226.482 244V195.805H246.516C252.018 195.805 256.155 196.834 258.927 198.892C261.741 200.908 263.148 203.974 263.148 208.09C263.148 209.518 262.896 210.799 262.392 211.933C261.93 213.025 261.3 213.991 260.502 214.831C259.746 215.671 258.864 216.364 257.856 216.91C256.848 217.456 255.819 217.855 254.769 218.107V218.359C256.281 218.611 257.667 219.073 258.927 219.745C260.229 220.375 261.342 221.194 262.266 222.202C263.19 223.168 263.904 224.302 264.408 225.604C264.954 226.906 265.227 228.355 265.227 229.951C265.227 232.303 264.786 234.361 263.904 236.125C263.022 237.847 261.783 239.296 260.187 240.472C258.591 241.648 256.659 242.53 254.391 243.118C252.165 243.706 249.687 244 246.957 244H226.482ZM245.256 215.713C247.524 215.713 249.351 215.23 250.737 214.264C252.165 213.256 252.879 211.597 252.879 209.287C252.879 207.187 252.228 205.612 250.926 204.562C249.624 203.512 247.818 202.987 245.508 202.987H236.814V215.713H245.256ZM246.201 236.629C248.805 236.629 250.863 236.083 252.375 234.991C253.887 233.899 254.643 231.988 254.643 229.258C254.643 226.948 253.887 225.247 252.375 224.155C250.863 223.063 248.742 222.517 246.012 222.517H236.814V236.629H246.201ZM280.759 244H270.427V195.805H280.759V215.902H300.163V195.805H310.621V244H300.163V223.966H280.759V244ZM349.05 244V209.602H348.924C348.462 210.568 347.937 211.66 347.349 212.878C346.761 214.096 346.026 215.44 345.144 216.91L329.142 244H318.432V195.805H328.575V230.392H328.701C329.163 229.384 329.688 228.25 330.276 226.99C330.864 225.73 331.578 224.428 332.418 223.084L348.42 195.805H359.193V244H349.05ZM366.992 195.805H381.986L390.68 221.698C391.016 222.706 391.31 223.651 391.562 224.533C391.814 225.415 392.024 226.171 392.192 226.801L392.696 228.817H392.822L393.326 226.801C393.494 226.171 393.704 225.415 393.956 224.533C394.208 223.651 394.502 222.706 394.838 221.698L403.469 195.805H418.463V244H408.257V206.263H408.068C407.858 207.145 407.606 208.132 407.312 209.224C407.06 210.148 406.745 211.24 406.367 212.5C405.989 213.718 405.569 215.041 405.107 216.469L396.098 244H388.412L379.34 216.469C378.878 214.999 378.458 213.655 378.08 212.437C377.702 211.219 377.408 210.148 377.198 209.224C376.904 208.132 376.673 207.166 376.505 206.326H376.316V244H366.992V195.805ZM444.904 204.688C444.862 204.814 444.694 205.528 444.4 206.83C444.106 208.09 443.644 209.707 443.014 211.681L438.541 225.73H451.267L446.857 211.744C446.521 210.694 446.248 209.749 446.038 208.909C445.828 208.027 445.639 207.271 445.471 206.641C445.303 205.885 445.156 205.234 445.03 204.688H444.904ZM453.787 233.29H436.084L432.556 244H422.665L439.486 195.805H451.078L468.151 244H457.315L453.787 233.29ZM482.625 244H472.293V195.805H482.625V215.902H502.029V195.805H512.487V244H502.029V223.966H482.625V244ZM550.916 244V209.602H550.79C550.328 210.568 549.803 211.66 549.215 212.878C548.627 214.096 547.892 215.44 547.01 216.91L531.008 244H520.298V195.805H530.441V230.392H530.567C531.029 229.384 531.554 228.25 532.142 226.99C532.73 225.73 533.444 224.428 534.284 223.084L550.286 195.805H561.059V244H550.916ZM568.857 195.805H600.609V203.68H579.189V216.091H599.475V223.777H579.189V236.188H601.176V244H568.857V195.805ZM607.628 194.356H619.22L617.141 228.691H609.644L607.628 194.356ZM607.88 244V234.424H618.905V244H607.88ZM657.878 204.688C657.836 204.814 657.668 205.528 657.374 206.83C657.08 208.09 656.618 209.707 655.988 211.681L651.515 225.73H664.241L659.831 211.744C659.495 210.694 659.222 209.749 659.012 208.909C658.802 208.027 658.613 207.271 658.445 206.641C658.277 205.885 658.13 205.234 658.004 204.688H657.878ZM666.761 233.29H649.058L645.53 244H635.639L652.46 195.805H664.052L681.125 244H670.289L666.761 233.29ZM716.243 203.932H702.005V244H691.673V203.932H677.435V195.805H716.243V203.932ZM757.974 203.932H743.736V244H733.404V203.932H719.166V195.805H757.974V203.932ZM762.698 195.805H794.45V203.68H773.03V216.091H793.316V223.777H773.03V236.188H795.017V244H762.698V195.805ZM801.66 195.805H813.063L828.624 221.887C829.212 222.937 829.716 223.903 830.136 224.785C830.598 225.667 830.976 226.423 831.27 227.053C831.606 227.809 831.879 228.481 832.089 229.069H832.278V195.805H841.728V244H830.829L814.827 217.414C814.155 216.364 813.588 215.398 813.126 214.516C812.706 213.634 812.349 212.857 812.055 212.185C811.719 211.429 811.425 210.736 811.173 210.106H810.984V244H801.66V195.805ZM884.887 203.932H870.649V244H860.317V203.932H846.079V195.805H884.887V203.932ZM889.611 195.805H899.943V244H889.611V195.805ZM906.077 220.06C906.077 216.112 906.623 212.584 907.715 209.476C908.849 206.368 910.403 203.764 912.377 201.664C914.393 199.522 916.787 197.905 919.559 196.813C922.373 195.679 925.46 195.112 928.82 195.112C932.348 195.112 935.519 195.658 938.333 196.75C941.147 197.842 943.52 199.459 945.452 201.601C947.426 203.701 948.938 206.305 949.988 209.413C951.038 212.479 951.563 216.028 951.563 220.06C951.563 224.05 951.017 227.599 949.925 230.707C948.875 233.773 947.342 236.377 945.326 238.519C943.352 240.619 940.958 242.236 938.144 243.37C935.372 244.462 932.264 245.008 928.82 245.008C921.596 245.008 915.989 242.866 911.999 238.582C908.051 234.256 906.077 228.082 906.077 220.06ZM928.82 237.448C932.516 237.448 935.372 235.999 937.388 233.101C939.404 230.161 940.412 225.814 940.412 220.06C940.412 217.162 940.118 214.621 939.53 212.437C938.984 210.253 938.186 208.426 937.136 206.956C936.128 205.486 934.91 204.394 933.482 203.68C932.054 202.924 930.5 202.546 928.82 202.546C925.124 202.546 922.268 203.995 920.252 206.893C918.278 209.791 917.291 214.18 917.291 220.06C917.291 225.898 918.257 230.266 920.189 233.164C922.121 236.02 924.998 237.448 928.82 237.448ZM957.69 195.805H969.093L984.654 221.887C985.242 222.937 985.746 223.903 986.166 224.785C986.628 225.667 987.006 226.423 987.3 227.053C987.636 227.809 987.909 228.481 988.119 229.069H988.308V195.805H997.758V244H986.859L970.857 217.414C970.185 216.364 969.618 215.398 969.156 214.516C968.736 213.634 968.379 212.857 968.085 212.185C967.749 211.429 967.455 210.736 967.203 210.106H967.014V244H957.69V195.805ZM1005.26 194.356H1016.85L1014.77 228.691H1007.28L1005.26 194.356ZM1005.51 244V234.424H1016.54V244H1005.51ZM1036.86 244V195.805H1056.9C1062.4 195.805 1066.53 196.834 1069.31 198.892C1072.12 200.908 1073.53 203.974 1073.53 208.09C1073.53 209.518 1073.28 210.799 1072.77 211.933C1072.31 213.025 1071.68 213.991 1070.88 214.831C1070.13 215.671 1069.24 216.364 1068.24 216.91C1067.23 217.456 1066.2 217.855 1065.15 218.107V218.359C1066.66 218.611 1068.05 219.073 1069.31 219.745C1070.61 220.375 1071.72 221.194 1072.65 222.202C1073.57 223.168 1074.28 224.302 1074.79 225.604C1075.33 226.906 1075.61 228.355 1075.61 229.951C1075.61 232.303 1075.17 234.361 1074.28 236.125C1073.4 237.847 1072.16 239.296 1070.57 240.472C1068.97 241.648 1067.04 242.53 1064.77 243.118C1062.54 243.706 1060.07 244 1057.34 244H1036.86ZM1055.64 215.713C1057.9 215.713 1059.73 215.23 1061.12 214.264C1062.54 213.256 1063.26 211.597 1063.26 209.287C1063.26 207.187 1062.61 205.612 1061.31 204.562C1060 203.512 1058.2 202.987 1055.89 202.987H1047.19V215.713H1055.64ZM1056.58 236.629C1059.18 236.629 1061.24 236.083 1062.75 234.991C1064.27 233.899 1065.02 231.988 1065.02 229.258C1065.02 226.948 1064.27 225.247 1062.75 224.155C1061.24 223.063 1059.12 222.517 1056.39 222.517H1047.19V236.629H1056.58ZM1091.14 244H1080.81V195.805H1091.14V215.902H1110.54V195.805H1121V244H1110.54V223.966H1091.14V244ZM1159.43 244V209.602H1159.3C1158.84 210.568 1158.32 211.66 1157.73 212.878C1157.14 214.096 1156.41 215.44 1155.52 216.91L1139.52 244H1128.81V195.805H1138.95V230.392H1139.08C1139.54 229.384 1140.07 228.25 1140.66 226.99C1141.24 225.73 1141.96 224.428 1142.8 223.084L1158.8 195.805H1169.57V244H1159.43ZM1177.37 195.805H1192.36L1201.06 221.698C1201.39 222.706 1201.69 223.651 1201.94 224.533C1202.19 225.415 1202.4 226.171 1202.57 226.801L1203.07 228.817H1203.2L1203.7 226.801C1203.87 226.171 1204.08 225.415 1204.33 224.533C1204.59 223.651 1204.88 222.706 1205.22 221.698L1213.85 195.805H1228.84V244H1218.64V206.263H1218.45C1218.24 207.145 1217.98 208.132 1217.69 209.224C1217.44 210.148 1217.12 211.24 1216.75 212.5C1216.37 213.718 1215.95 215.041 1215.49 216.469L1206.48 244H1198.79L1189.72 216.469C1189.26 214.999 1188.84 213.655 1188.46 212.437C1188.08 211.219 1187.79 210.148 1187.58 209.224C1187.28 208.132 1187.05 207.166 1186.88 206.326H1186.69V244H1177.37V195.805ZM1255.28 204.688C1255.24 204.814 1255.07 205.528 1254.78 206.83C1254.49 208.09 1254.02 209.707 1253.39 211.681L1248.92 225.73H1261.65L1257.24 211.744C1256.9 210.694 1256.63 209.749 1256.42 208.909C1256.21 208.027 1256.02 207.271 1255.85 206.641C1255.68 205.885 1255.54 205.234 1255.41 204.688H1255.28ZM1264.17 233.29H1246.46L1242.94 244H1233.04L1249.87 195.805H1261.46L1278.53 244H1267.69L1264.17 233.29ZM1293 244H1282.67V195.805H1293V215.902H1312.41V195.805H1322.87V244H1312.41V223.966H1293V244ZM1361.3 244V209.602H1361.17C1360.71 210.568 1360.18 211.66 1359.59 212.878C1359.01 214.096 1358.27 215.44 1357.39 216.91L1341.39 244H1330.68V195.805H1340.82V230.392H1340.95C1341.41 229.384 1341.93 228.25 1342.52 226.99C1343.11 225.73 1343.82 224.428 1344.66 223.084L1360.67 195.805H1371.44V244H1361.3ZM1379.24 195.805H1410.99V203.68H1389.57V216.091H1409.85V223.777H1389.57V236.188H1411.56V244H1379.24V195.805ZM1418.01 194.356H1429.6L1427.52 228.691H1420.02L1418.01 194.356ZM1418.26 244V234.424H1429.28V244H1418.26Z" fill="black"/>
</g>
<path d="M229.82 1.34561L644.217 133.84L624.608 153.333L624.292 153.647L624.314 154.092L626.186 192.027L597.448 218.633L597.033 219.017L597.149 219.57L604.867 256.692L191.073 124.39L210.843 108.455L211.357 108.041L211.179 107.406L204.02 81.8825L235.715 61.644L236.34 61.2448L236.139 60.5307L228.082 31.854L229.82 1.34561Z" fill="#FBD914" stroke="black" stroke-width="2"/>
<mask id="mask1_413_9" style="mask-type:alpha" maskUnits="userSpaceOnUse" x="189" y="0" width="458" height="259">
<path d="M229.82 1.34561L644.217 133.84L624.608 153.333L624.292 153.647L624.314 154.092L626.186 192.027L597.448 218.633L597.033 219.017L597.149 219.57L604.867 256.692L191.073 124.39L210.843 108.455L211.357 108.041L211.179 107.406L204.02 81.8825L235.715 61.644L236.34 61.2448L236.139 60.5307L228.082 31.854L229.82 1.34561Z" fill="#FBD914" stroke="black" stroke-width="2"/>
</mask>
<g mask="url(#mask1_413_9)">
<path d="M234.72 55.5054C233.16 55.0065 231.604 54.9061 230.054 55.2041C228.556 55.4749 227.104 56.1569 225.696 57.2501C224.341 58.3161 223.071 59.8061 221.886 61.72C220.7 63.634 219.673 65.9512 218.803 68.6715C217.115 73.9522 216.763 78.2933 217.748 81.6948C218.746 85.0563 220.885 87.2614 224.165 88.3103C226.885 89.18 229.241 89.0515 231.233 87.9245C233.278 86.7704 234.901 84.7979 236.102 82.007L246.123 85.2111C245.21 87.6531 243.967 89.7471 242.395 91.4931C240.822 93.2392 238.986 94.5701 236.885 95.4859C234.824 96.4144 232.526 96.9142 229.99 96.9852C227.494 97.0691 224.846 96.6633 222.045 95.7679C218.485 94.6296 215.531 93.1118 213.183 91.2147C210.848 89.2776 209.1 87.0211 207.939 84.4453C206.819 81.8823 206.259 79.0135 206.26 75.8389C206.3 72.6772 206.903 69.2761 208.067 65.6356C209.269 61.8752 210.83 58.6482 212.749 55.9548C214.669 53.2614 216.861 51.1624 219.327 49.6577C221.845 48.1258 224.597 47.2419 227.582 47.006C230.581 46.73 233.74 47.1228 237.061 48.1845C239.861 49.0798 242.286 50.2521 244.336 51.7012C246.386 53.1504 247.987 54.8309 249.14 56.7427C250.345 58.6273 251.102 60.7432 251.41 63.0904C251.73 65.3976 251.561 67.857 250.903 70.4685L240.761 67.226C241.391 64.4289 241.162 61.9745 240.073 59.8627C239.025 57.7636 237.24 56.3112 234.72 55.5054ZM291.74 74.9269L278.179 70.5909L265.976 108.756L256.135 105.609L268.337 67.4444L254.776 63.1083L257.251 55.3674L294.215 67.186L291.74 74.9269ZM298.715 68.6248L328.959 78.2945L326.561 85.7955L306.158 79.2722L302.379 91.0937L321.701 97.2716L319.36 104.593L300.038 98.4146L296.258 110.236L317.201 116.932L314.822 124.373L284.038 114.53L298.715 68.6248ZM339.606 102.798L343.386 104.006L362.888 89.1426L373.509 92.5385L350.729 109.794L359.972 138.809L348.391 135.106L341.01 111.647L337.169 110.419L331.049 129.561L321.207 126.415L335.885 80.5089L345.726 83.6554L339.606 102.798ZM382.136 125.987C380.899 129.03 379.649 131.629 378.387 133.783C377.125 135.937 375.745 137.634 374.246 138.875C372.799 140.088 371.188 140.852 369.412 141.166C367.649 141.44 365.647 141.219 363.407 140.502C362.847 140.323 362.373 140.15 361.986 139.982C361.599 139.814 361.258 139.639 360.964 139.456C360.629 139.261 360.341 139.059 360.099 138.849L362.805 130.388C362.939 130.52 363.08 130.631 363.227 130.722C363.469 130.931 363.91 131.139 364.55 131.343C366.31 131.906 367.846 131.515 369.158 130.171C370.469 128.826 371.893 126.305 373.428 122.607C373.917 121.352 374.452 120.024 375.033 118.622C375.626 117.181 376.226 115.719 376.832 114.237C377.45 112.715 378.037 111.227 378.59 109.772C379.196 108.29 379.783 106.869 380.35 105.507C381.626 102.343 382.909 99.1596 384.198 95.9559L416.062 106.144L401.384 152.049L391.543 148.903L403.784 110.618L390.162 106.263C389.569 107.705 388.937 109.267 388.267 110.948C387.61 112.59 386.914 114.286 386.178 116.035C385.495 117.757 384.792 119.472 384.07 121.181C383.4 122.863 382.755 124.465 382.136 125.987ZM414.754 131.19C415.956 127.43 417.551 124.235 419.537 121.608C421.564 118.993 423.837 116.986 426.357 115.586C428.929 114.16 431.702 113.349 434.675 113.153C437.701 112.93 440.814 113.33 444.014 114.353C447.375 115.428 450.229 116.913 452.576 118.811C454.924 120.708 456.692 122.971 457.88 125.599C459.121 128.201 459.768 131.141 459.821 134.421C459.888 137.662 459.307 141.202 458.079 145.042C456.864 148.843 455.263 152.057 453.276 154.685C451.343 157.285 449.089 159.299 446.517 160.725C443.997 162.124 441.224 162.935 438.199 163.159C435.226 163.354 432.099 162.928 428.819 161.879C421.938 159.679 417.25 155.931 414.754 150.636C412.311 145.313 412.311 138.831 414.754 131.19ZM431.121 154.678C434.642 155.804 437.803 155.293 440.606 153.147C443.422 150.961 445.705 147.127 447.458 141.646C448.34 138.886 448.834 136.376 448.939 134.117C449.084 131.87 448.881 129.887 448.328 128.167C447.816 126.46 446.988 125.049 445.845 123.934C444.715 122.779 443.35 121.946 441.75 121.434C438.23 120.309 435.068 120.819 432.265 122.965C429.503 125.125 427.226 129.004 425.435 134.605C423.657 140.166 423.247 144.621 424.205 147.969C425.175 151.278 427.481 153.514 431.121 154.678ZM471.504 122.349L482.545 125.879L470.108 157.95L462.968 155.667L471.504 122.349ZM456.625 169.711L459.541 160.59L470.043 163.948L467.126 173.069L456.625 169.711ZM492.156 155.938C493.359 152.177 494.953 148.983 496.94 146.355C498.966 143.74 501.24 141.733 503.759 140.334C506.332 138.908 509.105 138.097 512.078 137.901C515.103 137.678 518.216 138.078 521.417 139.101C524.777 140.175 527.631 141.661 529.979 143.558C532.327 145.455 534.095 147.718 535.283 150.347C536.523 152.948 537.17 155.889 537.224 159.169C537.29 162.409 536.71 165.95 535.482 169.79C534.267 173.591 532.666 176.805 530.679 179.433C528.745 182.033 526.492 184.047 523.919 185.473C521.4 186.872 518.627 187.683 515.601 187.906C512.628 188.102 509.502 187.676 506.221 186.627C499.34 184.427 494.652 180.679 492.156 175.383C489.713 170.061 489.713 163.579 492.156 155.938ZM508.524 179.426C512.044 180.552 515.206 180.041 518.009 177.895C520.824 175.708 523.108 171.875 524.86 166.394C525.743 163.634 526.237 161.124 526.342 158.865C526.487 156.618 526.283 154.635 525.731 152.915C525.218 151.208 524.391 149.797 523.248 148.682C522.118 147.527 520.753 146.694 519.153 146.182C515.632 145.056 512.471 145.567 509.668 147.713C506.905 149.872 504.628 153.752 502.838 159.353C501.06 164.914 500.65 169.368 501.607 172.717C502.578 176.026 504.883 178.262 508.524 179.426ZM566.491 161.582C564.931 161.083 563.375 160.982 561.825 161.28C560.327 161.551 558.875 162.233 557.467 163.326C556.112 164.392 554.842 165.882 553.657 167.796C552.471 169.71 551.444 172.028 550.574 174.748C548.886 180.029 548.534 184.37 549.519 187.771C550.517 191.133 552.656 193.338 555.936 194.387C558.656 195.256 561.012 195.128 563.004 194.001C565.049 192.847 566.672 190.874 567.873 188.083L577.894 191.287C576.981 193.729 575.738 195.823 574.166 197.569C572.593 199.316 570.757 200.646 568.656 201.562C566.595 202.491 564.297 202.991 561.761 203.062C559.265 203.145 556.617 202.74 553.816 201.844C550.256 200.706 547.302 199.188 544.954 197.291C542.619 195.354 540.871 193.098 539.71 190.522C538.59 187.959 538.03 185.09 538.031 181.915C538.071 178.754 538.674 175.352 539.838 171.712C541.04 167.952 542.601 164.725 544.52 162.031C546.44 159.338 548.632 157.239 551.097 155.734C553.616 154.202 556.367 153.318 559.353 153.082C562.352 152.806 565.511 153.199 568.831 154.261C571.632 155.156 574.057 156.328 576.107 157.778C578.157 159.227 579.758 160.907 580.911 162.819C582.116 164.704 582.873 166.82 583.181 169.167C583.501 171.474 583.332 173.933 582.674 176.545L572.532 173.302C573.162 170.505 572.933 168.051 571.844 165.939C570.796 163.84 569.011 162.388 566.491 161.582ZM623.511 181.003L609.949 176.667L597.747 214.832L587.906 211.685L600.108 173.521L586.547 169.185L589.022 161.444L625.986 173.262L623.511 181.003ZM619.663 196.705C620.865 192.945 622.46 189.751 624.446 187.123C626.473 184.508 628.746 182.501 631.266 181.102C633.838 179.675 636.611 178.864 639.584 178.668C642.61 178.445 645.723 178.845 648.923 179.868C652.284 180.943 655.138 182.429 657.485 184.326C659.833 186.223 661.601 188.486 662.789 191.114C664.03 193.716 664.677 196.656 664.73 199.937C664.797 203.177 664.216 206.717 662.988 210.557C661.773 214.358 660.172 217.572 658.186 220.2C656.252 222.801 653.998 224.814 651.426 226.24C648.906 227.639 646.133 228.45 643.108 228.674C640.135 228.87 637.008 228.443 633.728 227.394C626.847 225.194 622.159 221.446 619.663 216.151C617.22 210.828 617.22 204.346 619.663 196.705ZM636.03 220.193C639.551 221.319 642.712 220.809 645.515 218.662C648.331 216.476 650.615 212.642 652.367 207.162C653.249 204.401 653.743 201.891 653.848 199.632C653.993 197.386 653.79 195.402 653.237 193.682C652.725 191.975 651.897 190.564 650.754 189.449C649.624 188.294 648.259 187.461 646.659 186.949C643.139 185.824 639.977 186.334 637.174 188.48C634.412 190.64 632.135 194.52 630.344 200.12C628.566 205.681 628.156 210.136 629.114 213.484C630.084 216.793 632.39 219.029 636.03 220.193ZM676.402 222.651L671.375 238.373L661.534 235.226L676.211 189.321L692.173 194.424C694.654 195.217 696.865 196.233 698.806 197.471C700.8 198.682 702.385 200.136 703.561 201.835C704.738 203.534 705.466 205.465 705.745 207.626C706.064 209.801 705.801 212.208 704.957 214.848C704.061 217.649 702.82 219.876 701.233 221.529C699.659 223.142 697.854 224.307 695.817 225.022C693.793 225.698 691.572 225.958 689.152 225.802C686.733 225.645 684.243 225.158 681.683 224.339L676.402 222.651ZM684.664 217.29C687.225 218.108 689.416 218.081 691.238 217.209C693.061 216.336 694.4 214.56 695.257 211.879C696.165 209.039 696.111 206.795 695.095 205.147C694.118 203.512 692.37 202.292 689.85 201.486L683.789 199.548L678.724 215.39L684.664 217.29ZM705.429 224.127C706.631 220.367 708.226 217.172 710.212 214.545C712.239 211.93 714.512 209.922 717.032 208.523C719.605 207.097 722.377 206.286 725.35 206.09C728.376 205.867 731.489 206.267 734.689 207.29C738.05 208.365 740.904 209.85 743.252 211.747C745.599 213.645 747.367 215.907 748.555 218.536C749.796 221.137 750.443 224.078 750.497 227.358C750.563 230.599 749.982 234.139 748.754 237.979C747.539 241.78 745.938 244.994 743.952 247.622C742.018 250.222 739.765 252.236 737.192 253.662C734.672 255.061 731.9 255.872 728.874 256.095C725.901 256.291 722.774 255.865 719.494 254.816C712.613 252.616 707.925 248.868 705.429 243.573C702.986 238.25 702.986 231.768 705.429 224.127ZM721.796 247.615C725.317 248.741 728.478 248.23 731.281 246.084C734.097 243.898 736.381 240.064 738.133 234.583C739.016 231.823 739.509 229.313 739.614 227.054C739.759 224.807 739.556 222.824 739.003 221.104C738.491 219.397 737.663 217.986 736.521 216.871C735.391 215.716 734.026 214.883 732.425 214.371C728.905 213.245 725.743 213.756 722.94 215.902C720.178 218.061 717.901 221.941 716.11 227.542C714.332 233.103 713.922 237.557 714.88 240.906C715.85 244.215 718.156 246.451 721.796 247.615ZM786.436 254.062L783.196 253.026L777.076 272.168L767.234 269.022L773.355 249.879L770.174 248.863L752.173 264.206L741.011 260.637L763.119 242.175L756.589 215.02L767.21 218.416L772.491 241.203L775.791 242.258L781.912 223.116L791.753 226.263L785.633 245.405L788.993 246.479L806.515 230.982L817.076 234.359L796.2 252.487L803.599 280.649L792.198 277.003L786.436 254.062ZM817.224 285.005L807.383 281.858L822.06 235.953L831.901 239.099L825.781 258.242L844.263 264.151L850.384 245.008L860.345 248.193L845.668 294.099L835.706 290.914L841.807 271.832L823.325 265.922L817.224 285.005ZM858.778 273.157C859.981 269.397 861.575 266.202 863.562 263.575C865.589 260.96 867.862 258.953 870.382 257.554C872.954 256.127 875.727 255.316 878.7 255.12C881.725 254.897 884.838 255.297 888.039 256.32C891.399 257.395 894.253 258.88 896.601 260.778C898.949 262.675 900.717 264.938 901.905 267.566C903.145 270.168 903.793 273.108 903.846 276.389C903.913 279.629 903.332 283.169 902.104 287.009C900.889 290.81 899.288 294.024 897.301 296.652C895.367 299.252 893.114 301.266 890.542 302.692C888.022 304.091 885.249 304.902 882.223 305.126C879.251 305.321 876.124 304.895 872.843 303.846C865.963 301.646 861.274 297.898 858.778 292.603C856.335 287.28 856.335 280.798 858.778 273.157ZM875.146 296.645C878.666 297.771 881.828 297.26 884.631 295.114C887.446 292.928 889.73 289.094 891.483 283.613C892.365 280.853 892.859 278.343 892.964 276.084C893.109 273.837 892.905 271.854 892.353 270.134C891.84 268.427 891.013 267.016 889.87 265.901C888.74 264.746 887.375 263.913 885.775 263.401C882.254 262.276 879.093 262.786 876.29 264.932C873.527 267.092 871.251 270.972 869.46 276.572C867.682 282.133 867.272 286.588 868.229 289.936C869.2 293.245 871.505 295.481 875.146 296.645ZM915.528 264.316L926.57 267.846L914.133 299.917L906.992 297.634L915.528 264.316ZM900.65 311.678L903.566 302.557L914.067 305.915L911.151 315.036L900.65 311.678Z" fill="black"/>
</g>
</svg>
