<svg width="1001" height="463" viewBox="0 0 1001 463" fill="none" xmlns="http://www.w3.org/2000/svg">
<path d="M37.3467 24.6548C37.3114 24.7256 37.2406 24.9201 37.1345 25.2384C37.0638 25.5567 36.94 25.9634 36.7632 26.4585C36.6217 26.9183 36.4625 27.4311 36.2857 27.997C36.1089 28.5629 35.9144 29.1287 35.7022 29.6946L30.6624 44.2304H44.1372L39.0443 29.6946C38.8321 29.0934 38.6199 28.4921 38.4077 27.8909C38.2309 27.2897 38.0717 26.7415 37.9303 26.2463C37.7534 25.6805 37.5943 25.15 37.4528 24.6548H37.3467ZM45.5165 48.2092H29.2831L25.0921 60.3047H20.1584L34.5881 19.7211H40.4236L55.0125 60.3047H49.7605L45.5165 48.2092Z" fill="black"/>
<path d="M28.1014 340.04H50.9131V344.018H41.8945V367.997H37.12V344.018H28.1014V340.04Z" fill="black"/>
<path d="M43.9956 435.973H38.1601L31.688 446H26.3829L33.5978 434.966C31.7941 434.329 30.3971 433.339 29.4068 431.995C28.4165 430.615 27.9214 428.989 27.9214 427.114C27.9214 424.426 28.8409 422.251 30.68 420.589C32.5544 418.891 35.2423 418.042 38.7437 418.042H48.7702V446H43.9956V435.973ZM43.9956 431.995V422.021H39.3272C38.1601 422.021 37.1521 422.163 36.3033 422.446C35.4899 422.729 34.8179 423.118 34.2874 423.613C33.7569 424.073 33.3679 424.621 33.1203 425.257C32.9081 425.859 32.802 426.477 32.802 427.114C32.802 428.529 33.3148 429.696 34.3405 430.615C35.3661 431.535 37.0284 431.995 39.3272 431.995H43.9956Z" fill="black"/>
<path d="M104.235 340.04H109.01L114.845 357.546C115.058 358.218 115.252 358.819 115.429 359.35C115.606 359.88 115.747 360.34 115.853 360.729C115.995 361.154 116.119 361.543 116.225 361.896H116.384C116.49 361.543 116.614 361.154 116.755 360.729C116.861 360.34 116.985 359.88 117.126 359.35C117.303 358.819 117.516 358.2 117.763 357.493L123.493 340.04H128.267L118.081 369.748C117.516 371.339 116.95 372.701 116.384 373.833C115.853 374.964 115.199 375.866 114.421 376.538C113.678 377.246 112.794 377.758 111.768 378.077C110.743 378.395 109.47 378.554 107.949 378.554C107.418 378.554 106.905 378.519 106.41 378.448C105.915 378.377 105.473 378.307 105.084 378.236V374.31C105.544 374.416 106.004 374.487 106.463 374.522C106.923 374.558 107.277 374.575 107.524 374.575C108.409 374.575 109.151 374.487 109.752 374.31C110.389 374.133 110.92 373.833 111.344 373.408C111.804 373.019 112.193 372.506 112.511 371.87C112.829 371.233 113.148 370.437 113.466 369.482L113.997 367.997L104.235 340.04Z" fill="black"/>
<path d="M190.579 368.687C188.281 368.651 186.212 368.28 184.372 367.573C182.569 366.83 181.03 365.822 179.757 364.549C178.519 363.276 177.564 361.755 176.892 359.986C176.22 358.183 175.884 356.185 175.884 353.992C175.884 351.834 176.238 349.872 176.945 348.103C177.653 346.299 178.643 344.761 179.916 343.488C181.225 342.215 182.781 341.224 184.585 340.517C186.388 339.81 188.387 339.421 190.579 339.35V327.414H195.354V339.35C197.653 339.421 199.704 339.81 201.508 340.517C203.347 341.224 204.885 342.215 206.123 343.488C207.396 344.761 208.369 346.299 209.041 348.103C209.713 349.872 210.049 351.852 210.049 354.045C210.049 356.202 209.695 358.183 208.988 359.986C208.281 361.755 207.273 363.276 205.964 364.549C204.691 365.822 203.152 366.83 201.349 367.573C199.545 368.28 197.547 368.651 195.354 368.687V377.971H190.579V368.687ZM190.579 343.01C187.502 343.116 185.097 344.124 183.365 346.034C181.667 347.909 180.818 350.561 180.818 353.992C180.818 357.422 181.632 360.093 183.258 362.002C184.885 363.877 187.326 364.867 190.579 364.973V343.01ZM195.354 365.026C198.431 364.92 200.818 363.93 202.516 362.055C204.249 360.146 205.115 357.475 205.115 354.045C205.115 350.614 204.302 347.962 202.675 346.087C201.048 344.177 198.608 343.169 195.354 343.063V365.026Z" fill="black"/>
<path d="M268.613 353.567L259.754 340.04H265.377L271.478 349.801H271.584L277.844 340.04H283.043L274.236 353.302L283.945 367.997H278.268L271.319 357.069H271.16L264.263 367.997H259.064L268.613 353.567Z" fill="black"/>
<path d="M356.781 367.997H335.349V340.04H340.123V364.018H352.537V340.04H357.312V364.018H361.025V375.159H356.781V367.997Z" fill="black"/>
<path d="M412.409 340.04H417.184V348.05C417.184 349.995 417.608 351.516 418.457 352.612C419.306 353.673 420.738 354.204 422.754 354.204C423.674 354.204 424.522 354.151 425.3 354.045C426.078 353.939 426.75 353.797 427.316 353.62C427.953 353.479 428.536 353.284 429.067 353.037V340.04H433.842V367.997H429.067V357.016C428.536 357.263 427.953 357.458 427.316 357.599C426.75 357.776 426.078 357.917 425.3 358.024C424.522 358.13 423.674 358.183 422.754 358.183C419.182 358.183 416.565 357.334 414.903 355.636C413.24 353.939 412.409 351.41 412.409 348.05V340.04Z" fill="black"/>
<path d="M499.12 340.04H503.894V364.018H515.247V340.04H520.021V367.997H482.992V340.04H487.767V364.018H499.12V340.04Z" fill="black"/>
<path d="M64.0752 214.151H58.6641V209.748H68.4784V221.578H64.0752V214.151ZM36.7012 209.748V173.568H41.6349V209.748H58.6641V173.568H63.5978V214.151H14.7384V173.568H19.672V209.748H36.7012Z" fill="black"/>
<path d="M19.0287 96.645H26.5088L36.8006 125.717C37.1189 126.636 37.3841 127.414 37.5963 128.051C37.8085 128.687 38.003 129.236 38.1799 129.695C38.3213 130.226 38.4628 130.668 38.6043 131.022H38.7104C38.8165 130.668 38.9579 130.226 39.1348 129.695C39.2762 129.236 39.4531 128.687 39.6653 128.051C39.9128 127.414 40.1958 126.636 40.5141 125.717L50.965 96.645H58.3921V137.229H53.3523V102.374H53.1931C53.0517 102.799 52.8748 103.329 52.6626 103.966C52.4858 104.496 52.2559 105.168 51.973 105.982C51.7254 106.76 51.4071 107.679 51.0181 108.74L40.7793 137.229H36.1109L26.1374 108.74C25.7484 107.679 25.4124 106.76 25.1295 105.982C24.8819 105.168 24.6697 104.496 24.4929 103.966C24.2807 103.329 24.1038 102.799 23.9624 102.374H23.8032V137.229H19.0287V96.645Z" fill="black"/>
<path d="M46.167 274.31C46.1316 273.143 45.9901 272.064 45.7426 271.074C45.495 270.049 45.0883 269.164 44.5224 268.422C43.9919 267.679 43.2846 267.095 42.4004 266.671C41.5516 266.247 40.526 266.034 39.3235 266.034C37.0954 266.034 35.3624 266.83 34.1245 268.422C32.8867 270.013 32.1263 272.082 31.8434 274.629H46.167V274.31ZM50.6763 283.753C50.1811 286.194 48.9433 288.139 46.9627 289.589C45.0176 291.039 42.5419 291.764 39.5357 291.764C37.4137 291.764 35.5569 291.41 33.9654 290.703C32.3739 289.96 31.0476 288.935 29.9866 287.626C28.961 286.317 28.1829 284.779 27.6524 283.011C27.1573 281.242 26.9097 279.315 26.9097 277.228C26.9097 275.177 27.1749 273.249 27.7054 271.446C28.2713 269.642 29.0848 268.068 30.1458 266.724C31.2068 265.38 32.4977 264.337 34.0184 263.594C35.5746 262.816 37.3606 262.427 39.3765 262.427C41.4632 262.427 43.2492 262.798 44.7346 263.541C46.22 264.284 47.4225 265.292 48.3421 266.565C49.297 267.803 49.9866 269.235 50.411 270.862C50.8354 272.489 51.0476 274.187 51.0476 275.955V278.395H31.7903C31.9318 281.295 32.6215 283.647 33.8593 285.451C35.1325 287.219 37.0777 288.103 39.6948 288.103C40.8619 288.103 41.8169 287.962 42.5596 287.679C43.3376 287.361 43.9566 286.989 44.4163 286.565C44.9115 286.105 45.2828 285.628 45.5304 285.133C45.7779 284.637 45.9548 284.178 46.0609 283.753H50.6763ZM42.2413 251.552H47.1219V256.804H42.2413V251.552ZM31.8434 251.552H36.724V256.804H31.8434V251.552Z" fill="black"/>
<path d="M108.558 36.1668H117.417C119.362 36.1668 121.184 36.4143 122.881 36.9095C124.614 37.3692 126.1 38.0943 127.337 39.0845C128.575 40.0394 129.548 41.2773 130.255 42.7981C130.998 44.3188 131.369 46.1049 131.369 48.1561C131.369 50.1721 130.998 51.9404 130.255 53.4612C129.548 54.982 128.558 56.2552 127.284 57.2808C126.011 58.2711 124.49 59.0315 122.722 59.562C120.989 60.0571 119.079 60.3047 116.993 60.3047H103.624V19.7211H128.929V24.1243H108.558V36.1668ZM108.558 40.1455V56.3259H116.993C119.963 56.3259 122.245 55.6363 123.836 54.2569C125.463 52.8423 126.276 50.8087 126.276 48.1561C126.276 45.3622 125.463 43.3286 123.836 42.0554C122.245 40.7821 120.017 40.1455 117.152 40.1455H108.558Z" fill="black"/>
<path d="M136.169 434.806C136.169 438.697 135.09 441.668 132.933 443.719C130.776 445.735 127.681 446.743 123.649 446.743C122.977 446.743 122.358 446.707 121.793 446.637C121.227 446.566 120.732 446.477 120.307 446.371C119.812 446.265 119.37 446.141 118.981 446V441.597C119.37 441.738 119.812 441.862 120.307 441.968C120.732 442.074 121.227 442.163 121.793 442.233C122.358 442.304 122.977 442.34 123.649 442.34C126.054 442.34 127.911 441.703 129.22 440.43C130.564 439.156 131.235 437.282 131.235 434.806C131.235 432.154 130.387 430.138 128.689 428.759C126.991 427.344 124.445 426.637 121.05 426.637C119.6 426.637 118.274 426.743 117.071 426.955C115.869 427.132 114.808 427.326 113.888 427.538C112.827 427.821 111.872 428.122 111.023 428.44V446H106.09V409.714H93.0923V405.416H126.143V409.714H111.023V424.037C111.872 423.719 112.827 423.418 113.888 423.135C114.808 422.923 115.869 422.729 117.071 422.552C118.274 422.34 119.6 422.233 121.05 422.233C126.072 422.233 129.839 423.312 132.35 425.469C134.896 427.592 136.169 430.704 136.169 434.806Z" fill="black"/>
<path d="M97.7262 173.568H111.413V177.971H97.7262V173.568ZM111.413 188.634H118.681C120.626 188.634 122.448 188.882 124.145 189.377C125.878 189.872 127.364 190.65 128.601 191.711C129.839 192.737 130.812 194.045 131.519 195.637C132.262 197.228 132.633 199.12 132.633 201.313C132.633 203.471 132.262 205.363 131.519 206.99C130.812 208.581 129.822 209.907 128.548 210.968C127.275 212.029 125.754 212.825 123.986 213.356C122.253 213.886 120.343 214.151 118.257 214.151H106.479V173.568H111.413V188.634ZM111.413 192.613V210.173H118.257C121.227 210.173 123.509 209.43 125.1 207.944C126.727 206.424 127.54 204.213 127.54 201.313C127.54 198.272 126.727 196.061 125.1 194.682C123.509 193.303 121.281 192.613 118.416 192.613H111.413Z" fill="black"/>
<path d="M105.03 137.229H100.096V96.645H105.03V114.523H126.303V96.645H131.237V137.229H126.303V118.926H105.03V137.229Z" fill="black"/>
<path d="M96.6952 291.074L106.244 276.963L97.2788 263.117H102.531L110.17 274.947H114.043V263.117H118.817V274.947H122.69L130.329 263.117H135.475L126.616 276.804L136.324 291.074H130.86L122.637 278.926H118.817V291.074H114.043V278.926H110.223L102 291.074H96.6952Z" fill="black"/>
<path d="M179.262 60.3047V19.7211H195.231C196.964 19.7211 198.59 19.9333 200.111 20.3577C201.632 20.7468 202.958 21.348 204.09 22.1615C205.222 22.9749 206.106 24.0005 206.743 25.2384C207.415 26.4762 207.751 27.9263 207.751 29.5885C207.751 32.0642 207.096 34.0624 205.788 35.5832C204.479 37.104 202.658 38.1296 200.323 38.6601V38.7662C201.597 38.9784 202.764 39.3851 203.825 39.9864C204.886 40.5523 205.805 41.2773 206.583 42.1615C207.361 43.0103 207.963 43.9828 208.387 45.0792C208.812 46.1756 209.024 47.325 209.024 48.5275C209.024 50.8264 208.617 52.7362 207.804 54.2569C207.026 55.7424 205.947 56.9448 204.567 57.8644C203.224 58.7485 201.632 59.3851 199.793 59.7742C197.989 60.1279 196.062 60.3047 194.01 60.3047H179.262ZM194.329 36.8034C195.39 36.8034 196.415 36.6973 197.406 36.4851C198.431 36.2729 199.316 35.9192 200.058 35.4241C200.836 34.8935 201.455 34.2039 201.915 33.3551C202.375 32.4709 202.605 31.3745 202.605 30.066C202.605 27.8378 201.897 26.2287 200.483 25.2384C199.068 24.2127 197.229 23.6999 194.965 23.6999H184.196V36.8034H194.329ZM194.064 56.3259C195.549 56.3259 196.893 56.2021 198.095 55.9546C199.298 55.6716 200.323 55.2118 201.172 54.5752C202.056 53.9386 202.728 53.1075 203.188 52.0819C203.648 51.0209 203.878 49.73 203.878 48.2092C203.878 45.5213 202.976 43.6292 201.172 42.5328C199.369 41.4364 196.858 40.8882 193.639 40.8882H184.196V56.3259H194.064Z" fill="black"/>
<path d="M187.193 446H182.259V405.416H205.973V409.82H187.193V446ZM195.204 395.072H200.774L195.787 402.127H192.021L195.204 395.072Z" fill="black"/>
<path d="M178.657 188.634H185.925C187.87 188.634 189.692 188.882 191.389 189.377C193.122 189.872 194.608 190.65 195.845 191.711C197.083 192.737 198.056 194.045 198.763 195.637C199.506 197.228 199.877 199.12 199.877 201.313C199.877 203.471 199.506 205.363 198.763 206.99C198.056 208.581 197.066 209.907 195.792 210.968C194.519 212.029 192.998 212.825 191.23 213.356C189.497 213.886 187.587 214.151 185.501 214.151H173.723V173.568H178.657V188.634ZM178.657 192.613V210.173H185.501C188.471 210.173 190.753 209.43 192.344 207.944C193.971 206.424 194.784 204.213 194.784 201.313C194.784 198.272 193.971 196.061 192.344 194.682C190.753 193.303 188.524 192.613 185.66 192.613H178.657ZM205.766 173.568H210.7V214.151H205.766V173.568Z" fill="black"/>
<path d="M173.837 117.069C173.837 113.427 174.332 110.297 175.323 107.679C176.313 105.027 177.639 102.852 179.301 101.154C180.964 99.4213 182.891 98.1481 185.084 97.3346C187.277 96.4858 189.575 96.0614 191.98 96.0614C194.456 96.0614 196.79 96.4858 198.983 97.3346C201.211 98.1481 203.156 99.4213 204.819 101.154C206.481 102.852 207.807 105.027 208.797 107.679C209.788 110.297 210.283 113.427 210.283 117.069C210.283 120.677 209.788 123.807 208.797 126.459C207.842 129.112 206.516 131.305 204.819 133.038C203.156 134.735 201.211 136.008 198.983 136.857C196.79 137.671 194.456 138.077 191.98 138.077C189.469 138.077 187.117 137.671 184.925 136.857C182.732 136.008 180.804 134.735 179.142 133.038C177.515 131.305 176.224 129.112 175.27 126.459C174.315 123.807 173.837 120.677 173.837 117.069ZM191.98 134.099C193.89 134.099 195.641 133.727 197.232 132.984C198.859 132.242 200.239 131.163 201.37 129.748C202.537 128.298 203.439 126.512 204.076 124.39C204.748 122.268 205.084 119.846 205.084 117.122C205.084 114.328 204.766 111.87 204.129 109.748C203.492 107.626 202.59 105.84 201.423 104.39C200.292 102.94 198.912 101.844 197.285 101.101C195.694 100.358 193.926 99.9871 191.98 99.9871C190.071 99.9871 188.32 100.341 186.728 101.048C185.172 101.755 183.811 102.834 182.644 104.284C181.512 105.699 180.628 107.485 179.991 109.642C179.354 111.764 179.036 114.258 179.036 117.122C179.036 119.881 179.337 122.321 179.938 124.443C180.575 126.565 181.459 128.351 182.59 129.801C183.722 131.216 185.084 132.295 186.675 133.038C188.267 133.745 190.035 134.099 191.98 134.099Z" fill="black"/>
<path d="M193.167 288.05C195.147 288.05 196.668 287.608 197.729 286.724C198.79 285.805 199.32 284.567 199.32 283.011C199.32 281.454 198.79 280.34 197.729 279.668C196.703 278.961 195.218 278.607 193.273 278.607H189.559V274.629H193.273C195.041 274.629 196.367 274.257 197.251 273.515C198.136 272.772 198.578 271.711 198.578 270.332C198.578 268.988 198.083 267.962 197.092 267.255C196.137 266.512 194.882 266.141 193.326 266.141C191.31 266.141 189.736 266.653 188.604 267.679C187.473 268.669 186.818 269.96 186.641 271.552H182.079C182.221 270.031 182.61 268.705 183.246 267.573C183.918 266.441 184.749 265.504 185.74 264.761C186.73 263.983 187.879 263.4 189.188 263.011C190.496 262.622 191.893 262.427 193.379 262.427C194.723 262.427 195.996 262.586 197.198 262.904C198.436 263.187 199.515 263.647 200.435 264.284C201.354 264.885 202.079 265.663 202.61 266.618C203.175 267.538 203.458 268.634 203.458 269.907C203.458 271.675 202.981 273.143 202.026 274.31C201.071 275.477 199.727 276.202 197.994 276.485V276.591C198.808 276.733 199.586 276.98 200.328 277.334C201.106 277.652 201.778 278.077 202.344 278.607C202.91 279.138 203.352 279.774 203.671 280.517C204.024 281.26 204.201 282.091 204.201 283.011C204.201 284.496 203.9 285.787 203.299 286.883C202.698 287.98 201.885 288.899 200.859 289.642C199.869 290.349 198.702 290.88 197.358 291.233C196.049 291.587 194.652 291.764 193.167 291.764C191.681 291.764 190.267 291.587 188.923 291.233C187.614 290.88 186.429 290.314 185.368 289.536C184.343 288.758 183.494 287.75 182.822 286.512C182.15 285.239 181.743 283.718 181.602 281.95H186.164C186.27 282.763 186.482 283.541 186.801 284.284C187.119 284.991 187.561 285.628 188.127 286.194C188.693 286.759 189.382 287.219 190.196 287.573C191.045 287.891 192.035 288.05 193.167 288.05Z" fill="black"/>
<path d="M263.79 60.3047H258.856V19.7211H282.57V24.1243H263.79V60.3047Z" fill="black"/>
<path d="M270.875 408.812C268.966 408.812 267.25 409.165 265.729 409.873C264.209 410.545 262.9 411.517 261.804 412.79C260.743 414.028 259.876 415.549 259.204 417.353C258.568 419.121 258.161 421.084 257.984 423.241H275.915V427.645H257.931C258.073 429.979 258.462 432.083 259.098 433.958C259.735 435.832 260.584 437.424 261.645 438.732C262.741 440.041 264.05 441.049 265.57 441.756C267.126 442.428 268.859 442.764 270.769 442.764C272.573 442.764 274.111 442.499 275.385 441.968C276.658 441.402 277.719 440.677 278.568 439.793C279.416 438.874 280.071 437.866 280.531 436.769C280.99 435.637 281.291 434.488 281.432 433.321H286.472C286.295 435.231 285.818 437.017 285.04 438.679C284.262 440.306 283.183 441.721 281.804 442.923C280.46 444.126 278.851 445.08 276.976 445.788C275.137 446.46 273.068 446.796 270.769 446.796C268.117 446.796 265.676 446.371 263.448 445.523C261.256 444.638 259.363 443.33 257.772 441.597C256.18 439.864 254.943 437.689 254.058 435.072C253.174 432.419 252.732 429.324 252.732 425.788C252.732 422.499 253.174 419.563 254.058 416.981C254.978 414.364 256.233 412.154 257.825 410.35C259.452 408.546 261.362 407.167 263.554 406.212C265.783 405.257 268.223 404.78 270.875 404.78C272.608 404.78 274.341 405.027 276.074 405.523C277.843 405.982 279.452 406.725 280.902 407.751C282.387 408.776 283.625 410.103 284.615 411.729C285.641 413.321 286.26 415.248 286.472 417.512H281.273C281.096 416.486 280.76 415.461 280.265 414.435C279.77 413.374 279.098 412.437 278.249 411.623C277.401 410.775 276.357 410.103 275.119 409.607C273.917 409.077 272.502 408.812 270.875 408.812Z" fill="black"/>
<path d="M263.248 188.634H270.516C272.461 188.634 274.282 188.882 275.98 189.377C277.713 189.872 279.198 190.65 280.436 191.711C281.674 192.737 282.647 194.045 283.354 195.637C284.097 197.228 284.468 199.12 284.468 201.313C284.468 203.471 284.097 205.363 283.354 206.99C282.647 208.581 281.656 209.907 280.383 210.968C279.11 212.029 277.589 212.825 275.821 213.356C274.088 213.886 272.178 214.151 270.091 214.151H258.314V173.568H263.248V188.634ZM263.248 192.613V210.173H270.091C273.062 210.173 275.343 209.43 276.935 207.944C278.562 206.424 279.375 204.213 279.375 201.313C279.375 198.272 278.562 196.061 276.935 194.682C275.343 193.303 273.115 192.613 270.251 192.613H263.248Z" fill="black"/>
<path d="M258.635 137.229H253.702V96.645H284.312V137.229H279.378V101.048H258.635V137.229Z" fill="black"/>
<path d="M277.523 263.117H282.51V291.074H277.789V269.005H277.682C277.47 269.5 277.24 270.013 276.993 270.544C276.781 271.003 276.515 271.534 276.197 272.135C275.879 272.736 275.525 273.355 275.136 273.992L264.473 291.074H259.486V263.117H264.208V285.186H264.314C264.526 284.69 264.756 284.178 265.003 283.647C265.216 283.187 265.481 282.675 265.799 282.109C266.117 281.507 266.471 280.871 266.86 280.199L277.523 263.117Z" fill="black"/>
<path d="M325.29 67.7317V55.9015H329.004C329.57 55.0527 330.065 54.1862 330.489 53.302C330.914 52.3825 331.267 51.3922 331.55 50.3312C331.869 49.2702 332.116 48.1031 332.293 46.8299C332.505 45.5567 332.7 44.142 332.876 42.5859C332.983 41.6309 333.071 40.5876 333.142 39.4559C333.248 38.2888 333.354 37.0863 333.46 35.8485C333.566 34.5752 333.655 33.302 333.725 32.0288C333.831 30.7556 333.92 29.5178 333.991 28.3153C334.167 25.5213 334.344 22.6566 334.521 19.7211H360.463V55.9015H365.343V67.7317H360.94V60.3047H329.693V67.7317H325.29ZM337.492 42.5328C337.209 45.6097 336.802 48.2446 336.272 50.4373C335.741 52.6301 334.998 54.4515 334.044 55.9015H355.529V24.1243H338.818C338.747 25.3622 338.659 26.7768 338.553 28.3683C338.447 29.9599 338.323 31.5867 338.182 33.249C338.075 34.9112 337.952 36.5558 337.81 38.1827C337.704 39.7742 337.598 41.2242 337.492 42.5328Z" fill="black"/>
<path d="M354.343 416.292C354.237 415.302 353.989 414.347 353.6 413.427C353.247 412.508 352.734 411.712 352.062 411.04C351.39 410.332 350.541 409.784 349.515 409.395C348.525 408.971 347.323 408.759 345.908 408.759C344.529 408.759 343.309 408.953 342.248 409.342C341.187 409.696 340.302 410.191 339.595 410.828C338.888 411.464 338.339 412.207 337.95 413.056C337.597 413.905 337.42 414.806 337.42 415.761C337.42 417.636 337.95 419.121 339.011 420.218C340.072 421.279 341.805 422.039 344.21 422.499L349.94 423.507C351.92 423.86 353.583 424.373 354.927 425.045C356.306 425.682 357.402 426.477 358.216 427.432C359.065 428.352 359.666 429.413 360.019 430.615C360.408 431.818 360.603 433.144 360.603 434.594C360.603 438.308 359.347 441.279 356.836 443.507C354.361 445.699 350.7 446.796 345.855 446.796C343.521 446.796 341.434 446.495 339.595 445.894C337.756 445.293 336.182 444.462 334.874 443.401C333.6 442.304 332.61 441.013 331.903 439.528C331.195 438.042 330.789 436.398 330.683 434.594H335.828C335.97 435.691 336.271 436.734 336.73 437.724C337.19 438.714 337.827 439.599 338.64 440.377C339.489 441.119 340.515 441.721 341.717 442.18C342.92 442.605 344.334 442.817 345.961 442.817C347.765 442.817 349.268 442.622 350.47 442.233C351.708 441.809 352.698 441.243 353.441 440.536C354.219 439.828 354.767 438.997 355.086 438.042C355.404 437.088 355.563 436.08 355.563 435.019C355.563 433.25 355.033 431.782 353.972 430.615C352.946 429.448 351.178 428.653 348.667 428.228L342.99 427.22C341.01 426.866 339.33 426.336 337.95 425.629C336.571 424.921 335.457 424.09 334.608 423.135C333.759 422.18 333.141 421.119 332.752 419.952C332.398 418.785 332.221 417.53 332.221 416.186C332.221 414.559 332.539 413.056 333.176 411.676C333.848 410.262 334.767 409.059 335.935 408.069C337.137 407.043 338.587 406.248 340.285 405.682C341.982 405.116 343.874 404.833 345.961 404.833C348.118 404.833 350.011 405.116 351.637 405.682C353.264 406.212 354.626 406.99 355.722 408.016C356.854 409.006 357.721 410.209 358.322 411.623C358.923 413.003 359.277 414.559 359.383 416.292H354.343Z" fill="black"/>
<path d="M345.148 214.947C343.415 214.947 341.647 214.7 339.843 214.204C338.075 213.709 336.43 212.914 334.91 211.817C333.389 210.721 332.098 209.324 331.037 207.626C330.011 205.929 329.375 203.877 329.127 201.472H334.326C334.503 202.781 334.857 204.019 335.387 205.186C335.918 206.318 336.625 207.308 337.509 208.157C338.429 209.005 339.507 209.677 340.745 210.173C342.018 210.668 343.486 210.915 345.148 210.915C347.094 210.915 348.827 210.562 350.347 209.854C351.868 209.112 353.141 208.086 354.167 206.777C355.228 205.469 356.041 203.895 356.607 202.056C357.208 200.181 357.562 198.095 357.668 195.796H339.684V191.393H357.668C357.527 189.165 357.138 187.166 356.501 185.398C355.9 183.594 355.069 182.074 354.008 180.836C352.982 179.563 351.744 178.608 350.294 177.971C348.844 177.299 347.2 176.963 345.361 176.963C343.592 176.963 342.054 177.228 340.745 177.759C339.472 178.254 338.393 178.908 337.509 179.722C336.625 180.535 335.935 181.472 335.44 182.533C334.98 183.559 334.697 184.602 334.591 185.663H329.552C329.693 183.86 330.17 182.18 330.984 180.624C331.797 179.067 332.894 177.723 334.273 176.592C335.652 175.46 337.279 174.576 339.154 173.939C341.028 173.267 343.097 172.931 345.361 172.931C347.942 172.931 350.312 173.373 352.469 174.257C354.627 175.106 356.466 176.397 357.987 178.13C359.543 179.863 360.745 182.056 361.594 184.708C362.443 187.326 362.867 190.402 362.867 193.939C362.867 197.228 362.443 200.181 361.594 202.799C360.745 205.38 359.543 207.573 357.987 209.377C356.43 211.181 354.556 212.56 352.363 213.515C350.206 214.47 347.801 214.947 345.148 214.947Z" fill="black"/>
<path d="M339.096 121.738V137.229H334.163V96.645H346.364C348.309 96.645 350.131 96.8925 351.828 97.3877C353.561 97.8474 355.047 98.5901 356.285 99.6158C357.522 100.606 358.495 101.897 359.202 103.488C359.945 105.045 360.316 106.919 360.316 109.112C360.316 111.269 359.945 113.144 359.202 114.735C358.495 116.291 357.505 117.6 356.231 118.661C354.958 119.687 353.438 120.465 351.669 120.995C349.936 121.49 348.026 121.738 345.94 121.738H339.096ZM345.94 117.759C348.911 117.759 351.192 117.052 352.783 115.637C354.41 114.187 355.224 112.012 355.224 109.112C355.224 106.07 354.41 103.895 352.783 102.587C351.192 101.278 348.964 100.624 346.099 100.624H339.096V117.759H345.94Z" fill="black"/>
<path d="M353.523 263.117H358.51V291.074H353.789V269.005H353.682C353.47 269.5 353.24 270.013 352.993 270.544C352.781 271.003 352.515 271.534 352.197 272.135C351.879 272.736 351.525 273.355 351.136 273.992L340.473 291.074H335.486V263.117H340.208V285.186H340.314C340.526 284.69 340.756 284.178 341.003 283.647C341.216 283.187 341.481 282.675 341.799 282.109C342.117 281.507 342.471 280.871 342.86 280.199L353.523 263.117ZM342.648 249.271C342.648 251.074 343.037 252.418 343.815 253.302C344.629 254.151 345.725 254.576 347.104 254.576C348.413 254.576 349.438 254.151 350.181 253.302C350.924 252.418 351.295 251.074 351.295 249.271H354.956C354.956 250.756 354.743 252.029 354.319 253.09C353.895 254.151 353.329 255.035 352.621 255.743C351.914 256.415 351.065 256.91 350.075 257.228C349.085 257.546 348.041 257.706 346.945 257.706C345.849 257.706 344.805 257.546 343.815 257.228C342.86 256.91 342.029 256.415 341.322 255.743C340.614 255.035 340.049 254.151 339.624 253.09C339.2 252.029 338.988 250.756 338.988 249.271H342.648Z" fill="black"/>
<path d="M410.728 19.7211H436.67V24.1243H415.662V37.6522H434.972V41.9493H415.662V55.9015H436.935V60.3047H410.728V19.7211Z" fill="black"/>
<path d="M420.727 405.416H425.66V446H420.727V405.416ZM426.456 397.141H431.337V402.393H426.456V397.141ZM414.997 397.141H419.878V402.393H414.997V397.141Z" fill="black"/>
<path d="M405.431 214.151H400.498V173.568H405.431V191.446H412.699C412.911 188.263 413.53 185.522 414.556 183.223C415.582 180.889 416.89 178.961 418.482 177.44C420.073 175.92 421.877 174.806 423.893 174.098C425.909 173.356 428.013 172.984 430.206 172.984C432.611 172.984 434.892 173.409 437.049 174.257C439.207 175.071 441.081 176.344 442.673 178.077C444.3 179.775 445.591 181.95 446.545 184.602C447.5 187.219 447.978 190.349 447.978 193.992C447.978 197.6 447.5 200.73 446.545 203.382C445.591 206.035 444.3 208.227 442.673 209.96C441.081 211.658 439.207 212.931 437.049 213.78C434.892 214.593 432.611 215 430.206 215C427.872 215 425.679 214.629 423.628 213.886C421.576 213.108 419.755 211.941 418.163 210.385C416.607 208.829 415.334 206.848 414.344 204.443C413.354 202.003 412.788 199.138 412.646 195.849H405.431V214.151ZM430.206 211.021C432.045 211.021 433.725 210.65 435.246 209.907C436.802 209.165 438.128 208.086 439.224 206.671C440.356 205.221 441.223 203.435 441.824 201.313C442.461 199.191 442.779 196.769 442.779 194.045C442.779 191.251 442.478 188.793 441.877 186.671C441.276 184.549 440.409 182.763 439.278 181.313C438.181 179.863 436.855 178.767 435.299 178.024C433.778 177.281 432.08 176.91 430.206 176.91C428.402 176.91 426.74 177.264 425.219 177.971C423.698 178.678 422.39 179.757 421.293 181.207C420.197 182.622 419.331 184.408 418.694 186.565C418.093 188.687 417.792 191.181 417.792 194.045C417.792 196.804 418.093 199.244 418.694 201.366C419.295 203.488 420.126 205.274 421.187 206.724C422.284 208.139 423.592 209.218 425.113 209.96C426.634 210.668 428.331 211.021 430.206 211.021Z" fill="black"/>
<path d="M425.374 100.04C423.287 100.04 421.43 100.447 419.804 101.26C418.212 102.074 416.868 103.223 415.772 104.709C414.711 106.194 413.897 107.98 413.331 110.067C412.766 112.153 412.483 114.47 412.483 117.016C412.483 119.633 412.766 122.003 413.331 124.125C413.897 126.212 414.728 127.998 415.825 129.483C416.921 130.933 418.265 132.047 419.857 132.825C421.448 133.603 423.252 133.992 425.268 133.992C427.071 133.992 428.61 133.727 429.883 133.197C431.156 132.631 432.217 131.906 433.066 131.022C433.915 130.102 434.569 129.094 435.029 127.998C435.489 126.866 435.789 125.717 435.931 124.549H440.971C440.794 126.459 440.316 128.245 439.538 129.908C438.76 131.534 437.682 132.949 436.302 134.152C434.958 135.354 433.349 136.309 431.475 137.016C429.636 137.688 427.567 138.024 425.268 138.024C422.615 138.024 420.175 137.6 417.947 136.751C415.754 135.867 413.862 134.558 412.27 132.825C410.679 131.092 409.441 128.917 408.557 126.3C407.673 123.648 407.231 120.553 407.231 117.016C407.231 113.727 407.673 110.792 408.557 108.21C409.476 105.593 410.732 103.382 412.323 101.579C413.95 99.7749 415.86 98.3956 418.053 97.4407C420.281 96.4858 422.721 96.0084 425.374 96.0084C427.107 96.0084 428.84 96.2559 430.573 96.7511C432.341 97.2108 433.95 97.9535 435.4 98.9792C436.886 100.005 438.124 101.331 439.114 102.958C440.14 104.549 440.758 106.477 440.971 108.74H435.772C435.595 107.715 435.259 106.689 434.764 105.664C434.269 104.603 433.597 103.665 432.748 102.852C431.899 102.003 430.856 101.331 429.618 100.836C428.415 100.305 427.001 100.04 425.374 100.04Z" fill="black"/>
<path d="M418.893 274.947H422.871L431.2 263.117H436.452L426.797 276.804L437.301 291.074H431.731L422.818 278.926H418.893V291.074H414.118V263.117H418.893V274.947Z" fill="black"/>
<path d="M487.02 19.7211H512.961V24.1243H491.953V37.6522H511.264V41.9493H491.953V55.9015H513.227V60.3047H487.02V19.7211ZM503.412 11.4453H508.293V16.6973H503.412V11.4453ZM491.953 11.4453H496.834V16.6973H491.953V11.4453Z" fill="black"/>
<path d="M484.206 430.032C483.993 432.79 483.675 435.195 483.251 437.247C482.862 439.298 482.296 441.013 481.553 442.393C480.81 443.737 479.82 444.744 478.582 445.416C477.38 446.088 475.859 446.424 474.02 446.424C473.666 446.424 473.366 446.407 473.118 446.371C472.87 446.336 472.658 446.283 472.481 446.212C472.269 446.141 472.092 446.071 471.951 446V441.385C472.128 441.455 472.322 441.526 472.534 441.597C472.711 441.668 472.923 441.721 473.171 441.756C473.419 441.791 473.684 441.809 473.967 441.809C474.851 441.809 475.611 441.597 476.248 441.172C476.885 440.748 477.415 440.076 477.839 439.156C478.264 438.202 478.6 436.981 478.847 435.496C479.13 434.011 479.36 432.207 479.537 430.085C479.643 428.918 479.732 427.68 479.802 426.371C479.908 425.063 480.015 423.719 480.121 422.34C480.227 420.96 480.333 419.581 480.439 418.202C480.545 416.822 480.651 415.514 480.757 414.276C480.969 411.34 481.164 408.387 481.341 405.416H503.834L502.084 409.82H485.691C485.585 411.093 485.479 412.578 485.373 414.276C485.267 415.938 485.143 417.671 485.001 419.475C484.86 421.279 484.718 423.1 484.577 424.939C484.471 426.743 484.347 428.44 484.206 430.032ZM505.426 420.483H512.694C514.639 420.483 516.46 420.73 518.158 421.225C519.891 421.721 521.376 422.499 522.614 423.56C523.852 424.585 524.824 425.894 525.532 427.485C526.274 429.077 526.646 430.969 526.646 433.162C526.646 435.319 526.274 437.211 525.532 438.838C524.824 440.43 523.834 441.756 522.561 442.817C521.288 443.878 519.767 444.674 517.999 445.204C516.266 445.735 514.356 446 512.269 446H500.492V405.416H505.426V420.483ZM505.426 424.462V442.021H512.269C515.24 442.021 517.521 441.279 519.113 439.793C520.74 438.272 521.553 436.062 521.553 433.162C521.553 430.12 520.74 427.91 519.113 426.531C517.521 425.151 515.293 424.462 512.428 424.462H505.426Z" fill="black"/>
<path d="M483.854 214.151L494.994 196.273V196.167C494.004 195.92 492.961 195.566 491.864 195.106C490.803 194.611 489.831 193.939 488.947 193.09C488.062 192.242 487.337 191.163 486.772 189.854C486.206 188.546 485.923 186.954 485.923 185.08C485.923 183.135 486.259 181.437 486.931 179.987C487.603 178.537 488.522 177.334 489.689 176.379C490.892 175.425 492.289 174.717 493.88 174.257C495.472 173.798 497.187 173.568 499.026 173.568H513.456V214.151H508.522V196.963H500.034L489.318 214.151H483.854ZM508.522 177.6H499.238C496.904 177.6 494.959 178.219 493.403 179.456C491.882 180.659 491.122 182.516 491.122 185.027C491.122 187.821 491.917 189.837 493.509 191.074C495.101 192.277 497.187 192.878 499.769 192.878H508.522V177.6Z" fill="black"/>
<path d="M516.775 100.942H502.717V137.229H497.783V100.942H483.725V96.645H516.775V100.942Z" fill="black"/>
<path d="M497.443 279.244C497.337 281.295 497.125 283.081 496.806 284.602C496.524 286.123 496.081 287.396 495.48 288.422C494.914 289.412 494.136 290.155 493.146 290.65C492.191 291.145 490.989 291.393 489.539 291.393C488.796 291.393 488.248 291.339 487.894 291.233C487.682 291.198 487.505 291.145 487.363 291.074V286.724C487.505 286.795 487.682 286.848 487.894 286.883C488.248 286.989 488.778 287.042 489.485 287.042C490.617 287.042 491.431 286.441 491.926 285.239C492.421 284.001 492.757 282.02 492.934 279.297C493.005 277.776 493.093 276.079 493.199 274.204C493.34 272.33 493.447 270.561 493.517 268.899C493.623 266.954 493.712 265.026 493.783 263.117H512.722V291.074H507.947V267.095H498.08L497.443 279.244Z" fill="black"/>
<path d="M583.9 41.9493H579.603V60.3047H574.669V41.9493H570.372L557.746 60.3047H551.751L566.181 39.615L552.971 19.7211H558.754L570.425 37.5461H574.669V19.7211H579.603V37.5461H583.847L595.518 19.7211H601.194L588.144 39.4028L602.68 60.3047H596.526L583.9 41.9493Z" fill="black"/>
<path d="M578.591 395.072H584.161L579.174 402.127H575.408L578.591 395.072ZM568.511 423.241H573.604L587.609 405.416H593.286L577.742 425.151L594.771 446H588.617L573.604 427.645H568.511V446H563.577V405.416H568.511V423.241Z" fill="black"/>
<path d="M574.54 210.756C575.424 210.756 576.326 210.597 577.246 210.279C578.201 209.96 579.067 209.448 579.845 208.74C580.623 207.998 581.26 207.043 581.755 205.876C582.25 204.673 582.498 203.205 582.498 201.472V200.836C579.456 200.977 577.034 201.189 575.23 201.472C573.462 201.755 572.118 202.233 571.198 202.905C570.172 203.683 569.66 204.832 569.66 206.353C569.66 207.803 570.084 208.899 570.933 209.642C571.817 210.385 573.019 210.756 574.54 210.756ZM566.264 193.833C566.335 191.357 567.272 189.359 569.076 187.838C570.88 186.282 573.462 185.504 576.821 185.504C580.323 185.504 582.922 186.3 584.62 187.891C586.317 189.483 587.166 192.153 587.166 195.902V207.308C587.166 208.44 587.325 209.253 587.644 209.748C587.997 210.208 588.687 210.456 589.713 210.491V214.364H589.129C586.901 214.364 585.327 213.957 584.408 213.143C583.523 212.33 582.958 211.092 582.71 209.43H582.604C581.861 211.092 580.694 212.383 579.103 213.303C577.546 214.187 575.725 214.629 573.638 214.629C570.844 214.629 568.669 213.921 567.113 212.507C565.557 211.092 564.779 209.129 564.779 206.618C564.779 205.062 565.115 203.683 565.787 202.48C566.459 201.242 567.52 200.27 568.97 199.563C570.455 198.784 572.294 198.236 574.487 197.918C576.68 197.6 579.35 197.387 582.498 197.281V196.061C582.498 193.515 582.02 191.711 581.065 190.65C580.11 189.589 578.643 189.059 576.662 189.059C575.637 189.059 574.752 189.2 574.01 189.483C573.302 189.731 572.719 190.084 572.259 190.544C571.799 191.004 571.446 191.517 571.198 192.082C570.986 192.648 570.862 193.232 570.827 193.833H566.264Z" fill="black"/>
<path d="M575.04 127.52L560.133 96.645H565.597L575.571 117.388C575.783 117.812 575.995 118.307 576.207 118.873C576.455 119.439 576.685 119.969 576.897 120.465C577.144 121.066 577.392 121.667 577.64 122.268H577.746C577.958 121.667 578.188 121.066 578.435 120.465C578.612 119.969 578.824 119.439 579.072 118.873C579.32 118.307 579.532 117.812 579.709 117.388L589.098 96.645H594.297L580.027 127.892C579.178 129.731 578.347 131.287 577.533 132.56C576.72 133.798 575.818 134.806 574.828 135.584C573.873 136.362 572.794 136.91 571.592 137.229C570.425 137.582 569.045 137.759 567.454 137.759C566.464 137.759 565.703 137.671 565.173 137.494C564.854 137.423 564.607 137.335 564.43 137.229V132.772C564.642 132.878 564.907 132.967 565.226 133.038C565.827 133.214 566.57 133.303 567.454 133.303C569.293 133.303 570.778 132.861 571.91 131.977C573.077 131.092 574.068 129.731 574.881 127.892L575.04 127.52Z" fill="black"/>
<path d="M561.316 263.117H568.212L574.844 280.04C575.091 280.712 575.339 281.401 575.586 282.109C575.869 282.781 576.099 283.417 576.276 284.019C576.488 284.69 576.7 285.38 576.913 286.087H577.019C577.231 285.416 577.461 284.744 577.708 284.072C577.921 283.47 578.15 282.816 578.398 282.109C578.646 281.401 578.911 280.712 579.194 280.04L585.825 263.117H592.669V291.074H587.947V267.361H587.841C587.664 267.962 587.47 268.581 587.257 269.217C587.081 269.783 586.851 270.438 586.568 271.18C586.32 271.923 586.037 272.701 585.719 273.515L578.822 291.074H574.791L567.894 273.461C567.576 272.648 567.275 271.888 566.992 271.18C566.745 270.438 566.532 269.783 566.356 269.217C566.143 268.581 565.949 267.98 565.772 267.414H565.666V291.074H561.316V263.117Z" fill="black"/>
<path d="M594.836 368H590.591V364.021H599.08V375.162H594.836V368ZM574.464 340.042H579.239V364.021H590.591V340.042H595.366V368H558.337V340.042H563.111V364.021H574.464V340.042Z" fill="black"/>
<path d="M649.87 41.7901V37.3869H655.016C657.527 37.3869 659.508 36.6973 660.958 35.318C662.408 33.9386 663.133 32.1703 663.133 30.0129C663.133 28.0677 662.408 26.4585 660.958 25.1853C659.543 23.9121 657.421 23.2755 654.592 23.2755C651.657 23.2755 649.411 24.0182 647.855 25.5036C646.334 26.9537 645.397 29.058 645.043 31.8166H640.003C640.109 30.119 640.498 28.5098 641.17 26.989C641.842 25.4329 642.779 24.089 643.982 22.9572C645.22 21.7901 646.723 20.8706 648.491 20.1986C650.295 19.4913 652.364 19.1376 654.698 19.1376C656.82 19.1376 658.712 19.4205 660.374 19.9864C662.072 20.5169 663.504 21.2773 664.672 22.2676C665.839 23.2225 666.723 24.3719 667.324 25.7158C667.925 27.0244 668.226 28.4568 668.226 30.0129C668.226 31.0739 668.049 32.0819 667.695 33.0368C667.342 33.9563 666.847 34.8051 666.21 35.5832C665.573 36.3613 664.831 37.0686 663.982 37.7052C663.133 38.3065 662.214 38.8016 661.223 39.1906V39.3498C662.214 39.5974 663.186 39.9864 664.141 40.5169C665.131 41.012 666.015 41.6663 666.794 42.4798C667.572 43.2578 668.191 44.2127 668.65 45.3445C669.11 46.4409 669.34 47.7141 669.34 49.1641C669.34 50.8264 669.004 52.3825 668.332 53.8325C667.66 55.2826 666.67 56.5558 665.361 57.6522C664.088 58.7485 662.532 59.615 660.693 60.2516C658.854 60.8529 656.767 61.1535 654.433 61.1535C651.922 61.1535 649.747 60.8352 647.908 60.1986C646.069 59.562 644.512 58.6778 643.239 57.5461C642.001 56.4143 641.046 55.0881 640.374 53.5673C639.702 52.0111 639.296 50.3489 639.154 48.5805H644.353C644.742 51.3745 645.821 53.4789 647.589 54.8935C649.393 56.3082 651.674 57.0156 654.433 57.0156C655.777 57.0156 657.032 56.8387 658.199 56.4851C659.402 56.1314 660.445 55.6186 661.329 54.9466C662.214 54.2746 662.903 53.4612 663.398 52.5063C663.929 51.516 664.194 50.4019 664.194 49.1641C664.194 46.8299 663.381 45.0262 661.754 43.753C660.162 42.4444 657.916 41.7901 655.016 41.7901H649.87Z" fill="black"/>
<path d="M654.742 185.504C656.545 185.504 658.154 185.858 659.569 186.565C661.019 187.273 662.222 188.28 663.177 189.589C664.167 190.862 664.909 192.401 665.405 194.204C665.935 195.973 666.2 197.918 666.2 200.04C666.2 202.233 665.917 204.249 665.352 206.088C664.786 207.891 663.955 209.448 662.858 210.756C661.762 212.065 660.436 213.073 658.879 213.78C657.323 214.487 655.573 214.841 653.627 214.841C649.454 214.841 646.324 213.479 644.238 210.756C642.186 207.998 641.161 204.072 641.161 198.979C641.161 195.407 641.373 192.224 641.797 189.43C642.257 186.636 643.017 184.249 644.078 182.268C645.139 180.252 646.536 178.661 648.269 177.494C650.002 176.291 652.16 175.495 654.742 175.106L658.72 174.523C659.711 174.417 660.347 174.169 660.63 173.78C660.948 173.391 661.143 172.914 661.214 172.348H665.086C665.086 173.161 664.998 173.921 664.821 174.629C664.644 175.301 664.308 175.92 663.813 176.486C663.353 177.016 662.717 177.476 661.903 177.865C661.09 178.254 660.029 178.555 658.72 178.767L654.635 179.35C653.079 179.563 651.771 179.987 650.71 180.624C649.684 181.26 648.835 182.091 648.163 183.117C647.491 184.107 646.978 185.292 646.625 186.671C646.271 188.015 646.006 189.536 645.829 191.234H645.935C646.36 190.456 646.819 189.713 647.314 189.005C647.845 188.298 648.464 187.697 649.171 187.202C649.879 186.671 650.674 186.265 651.558 185.982C652.478 185.663 653.539 185.504 654.742 185.504ZM653.787 211.127C656.404 211.127 658.296 210.155 659.463 208.21C660.665 206.229 661.267 203.506 661.267 200.04C661.267 196.645 660.665 193.992 659.463 192.082C658.296 190.137 656.368 189.165 653.68 189.165C651.134 189.165 649.224 190.137 647.951 192.082C646.713 193.992 646.094 196.645 646.094 200.04C646.094 203.506 646.696 206.229 647.898 208.21C649.1 210.155 651.063 211.127 653.787 211.127Z" fill="black"/>
<path d="M647.483 131.552C645.043 131.552 642.779 131.252 640.693 130.65C638.606 130.049 636.785 129.129 635.229 127.892C633.708 126.618 632.505 125.045 631.621 123.17C630.737 121.296 630.295 119.085 630.295 116.539C630.295 113.957 630.737 111.729 631.621 109.855C632.505 107.98 633.708 106.442 635.229 105.239C636.785 104.037 638.606 103.152 640.693 102.587C642.779 101.985 645.025 101.685 647.43 101.685H650.984V95.584H655.918V101.685H659.473C661.877 101.685 664.123 101.985 666.21 102.587C668.297 103.152 670.1 104.037 671.621 105.239C673.177 106.442 674.397 107.98 675.282 109.855C676.166 111.729 676.608 113.957 676.608 116.539C676.608 119.085 676.166 121.296 675.282 123.17C674.397 125.045 673.177 126.618 671.621 127.892C670.1 129.129 668.297 130.049 666.21 130.65C664.123 131.252 661.86 131.552 659.419 131.552H655.918V138.29H650.984V131.552H647.483ZM659.207 127.573C663.274 127.573 666.334 126.671 668.385 124.868C670.472 123.064 671.515 120.288 671.515 116.539C671.515 114.523 671.232 112.825 670.666 111.446C670.136 110.067 669.34 108.953 668.279 108.104C667.253 107.255 665.98 106.636 664.459 106.247C662.938 105.858 661.188 105.664 659.207 105.664H655.918V127.573H659.207ZM650.984 105.664H647.695C645.715 105.664 643.964 105.858 642.443 106.247C640.923 106.636 639.632 107.255 638.571 108.104C637.545 108.953 636.749 110.067 636.183 111.446C635.653 112.825 635.388 114.523 635.388 116.539C635.388 120.288 636.413 123.064 638.465 124.868C640.551 126.671 643.628 127.573 647.695 127.573H650.984V105.664Z" fill="black"/>
<path d="M647.149 274.947H659.828V263.117H664.603V291.074H659.828V278.926H647.149V291.074H642.375V263.117H647.149V274.947Z" fill="black"/>
<path d="M652.07 344.021H639.338V340.042H652.07V344.021ZM652.07 349.485H657.322C660.823 349.485 663.493 350.334 665.332 352.032C667.207 353.694 668.144 355.869 668.144 358.557C668.144 361.351 667.207 363.632 665.332 365.401C663.493 367.134 660.823 368 657.322 368H647.295V340.042H652.07V349.485ZM652.07 353.464V364.021H656.738C657.905 364.021 658.895 363.88 659.709 363.597C660.558 363.279 661.247 362.872 661.778 362.377C662.308 361.846 662.68 361.263 662.892 360.626C663.14 359.954 663.263 359.264 663.263 358.557C663.263 357.072 662.75 355.851 661.725 354.897C660.699 353.942 659.037 353.464 656.738 353.464H652.07Z" fill="black"/>
<path d="M742.541 60.3047V25.875H742.435C742.329 26.1225 742.187 26.4409 742.01 26.8299C741.834 27.1482 741.604 27.5549 741.321 28.05C741.038 28.5452 740.702 29.1287 740.313 29.8007L721.745 60.3047H715.91V19.7211H720.79V54.2569H720.949C721.091 53.9033 721.268 53.5142 721.48 53.0898C721.657 52.7362 721.869 52.3294 722.117 51.8697C722.364 51.3745 722.665 50.844 723.018 50.2782L741.586 19.7211H747.422V60.3047H742.541Z" fill="black"/>
<path d="M720.463 186.194H732.134C734.963 186.194 737.156 186.813 738.712 188.051C740.304 189.253 741.099 190.951 741.099 193.143C741.099 194.841 740.693 196.22 739.879 197.281C739.101 198.342 738.022 199.067 736.643 199.456V199.563C738.376 199.845 739.791 200.553 740.887 201.685C742.019 202.816 742.585 204.249 742.585 205.982C742.585 207.573 742.284 208.899 741.683 209.96C741.117 210.986 740.339 211.817 739.349 212.454C738.394 213.09 737.262 213.532 735.953 213.78C734.645 214.028 733.248 214.151 731.762 214.151H720.463V186.194ZM725.131 190.013V197.653H731.656C732.258 197.653 732.841 197.582 733.407 197.44C734.008 197.299 734.521 197.069 734.945 196.751C735.405 196.433 735.759 196.026 736.006 195.531C736.289 195 736.431 194.364 736.431 193.621C736.431 192.312 736.024 191.393 735.211 190.862C734.397 190.296 733.354 190.013 732.081 190.013H725.131ZM725.131 201.525V210.332H731.922C733.69 210.332 735.105 210.013 736.166 209.377C737.262 208.705 737.81 207.538 737.81 205.876C737.81 204.249 737.262 203.117 736.166 202.48C735.069 201.844 733.566 201.525 731.656 201.525H725.131Z" fill="black"/>
<path d="M727.94 116.221L715.048 96.645H720.937L730.751 112.03H730.857L741.202 96.645H746.507L733.563 115.955L747.781 137.229H741.786L730.751 120.199H730.645L719.346 137.229H714.04L727.94 116.221Z" fill="black"/>
<path d="M730.41 291.764C728.359 291.764 726.555 291.41 724.999 290.703C723.443 289.996 722.134 289.005 721.073 287.732C720.048 286.423 719.27 284.867 718.739 283.064C718.209 281.26 717.943 279.262 717.943 277.069C717.943 274.912 718.226 272.931 718.792 271.127C719.393 269.324 720.225 267.785 721.286 266.512C722.382 265.203 723.708 264.195 725.264 263.488C726.821 262.781 728.571 262.427 730.516 262.427C732.603 262.427 734.424 262.781 735.981 263.488C737.537 264.195 738.828 265.203 739.853 266.512C740.914 267.785 741.692 269.324 742.187 271.127C742.718 272.931 742.983 274.912 742.983 277.069C742.983 279.262 742.7 281.26 742.134 283.064C741.569 284.867 740.737 286.423 739.641 287.732C738.545 289.005 737.218 289.996 735.662 290.703C734.106 291.41 732.355 291.764 730.41 291.764ZM730.463 266.087C727.917 266.087 726.007 267.06 724.734 269.005C723.496 270.95 722.877 273.638 722.877 277.069C722.877 280.5 723.478 283.187 724.681 285.133C725.883 287.078 727.846 288.05 730.569 288.05C733.187 288.05 735.079 287.078 736.246 285.133C737.448 283.187 738.05 280.5 738.05 277.069C738.05 273.638 737.448 270.95 736.246 269.005C735.079 267.06 733.151 266.087 730.463 266.087Z" fill="black"/>
<path d="M720.031 349.485H725.283C728.784 349.485 731.454 350.334 733.293 352.032C735.168 353.694 736.105 355.869 736.105 358.557C736.105 361.351 735.168 363.632 733.293 365.401C731.454 367.134 728.784 368 725.283 368H715.256V340.042H720.031V349.485ZM720.031 353.464V364.021H724.699C725.866 364.021 726.856 363.88 727.67 363.597C728.519 363.279 729.208 362.872 729.739 362.377C730.269 361.846 730.641 361.263 730.853 360.626C731.1 359.954 731.224 359.264 731.224 358.557C731.224 357.072 730.711 355.851 729.686 354.897C728.66 353.942 726.998 353.464 724.699 353.464H720.031ZM740.932 340.042H745.76V368H740.932V340.042Z" fill="black"/>
<path d="M819.506 60.3047V25.875H819.4C819.294 26.1225 819.153 26.4409 818.976 26.8299C818.799 27.1482 818.569 27.5549 818.286 28.05C818.003 28.5452 817.667 29.1287 817.278 29.8007L798.711 60.3047H792.875V19.7211H797.756V54.2569H797.915C798.056 53.9033 798.233 53.5142 798.445 53.0898C798.622 52.7362 798.834 52.3294 799.082 51.8697C799.329 51.3745 799.63 50.844 799.984 50.2782L818.551 19.7211H824.387V60.3047H819.506ZM808.949 13.0368C811.354 13.0368 812.734 11.6398 813.087 8.84581H816.748C816.642 10.1544 816.359 11.2861 815.899 12.241C815.474 13.1606 814.909 13.921 814.201 14.5222C813.494 15.1234 812.68 15.5655 811.761 15.8485C810.841 16.1314 809.851 16.2729 808.79 16.2729C807.764 16.2729 806.792 16.1314 805.872 15.8485C804.953 15.5655 804.139 15.1234 803.432 14.5222C802.725 13.921 802.141 13.1606 801.681 12.241C801.257 11.2861 800.992 10.1544 800.886 8.84581H804.546C804.723 10.2251 805.183 11.2684 805.925 11.9758C806.703 12.6831 807.711 13.0368 808.949 13.0368Z" fill="black"/>
<path d="M800.079 186.194H818.328V190.173H804.853V214.151H800.079V186.194Z" fill="black"/>
<path d="M817.458 132.825V96.645H822.392V132.825H827.273V144.656H822.869V137.229H791.782V96.645H796.716V132.825H817.458Z" fill="black"/>
<path d="M797.03 263.117H818.993V291.074H814.219V267.095H801.805V291.074H797.03V263.117Z" fill="black"/>
<path d="M803.058 349.485H808.31C811.812 349.485 814.482 350.334 816.321 352.032C818.195 353.694 819.133 355.869 819.133 358.557C819.133 361.351 818.195 363.632 816.321 365.401C814.482 367.134 811.812 368 808.31 368H798.284V340.042H803.058V349.485ZM803.058 353.464V364.021H807.727C808.894 364.021 809.884 363.88 810.698 363.597C811.546 363.279 812.236 362.872 812.767 362.377C813.297 361.846 813.668 361.263 813.881 360.626C814.128 359.954 814.252 359.264 814.252 358.557C814.252 357.072 813.739 355.851 812.713 354.897C811.688 353.942 810.026 353.464 807.727 353.464H803.058Z" fill="black"/>
<path d="M876.508 37.5461H881.601L895.607 19.7211H901.283L885.739 39.4559L902.768 60.3047H896.615L881.601 41.9493H876.508V60.3047H871.575V19.7211H876.508V37.5461Z" fill="black"/>
<path d="M869.54 221.313V210.173H872.193C872.794 209.218 873.236 208.015 873.519 206.565C873.837 205.08 874.085 203.046 874.262 200.464C874.332 199.333 874.421 197.953 874.527 196.326C874.633 194.664 874.739 193.09 874.845 191.605C874.987 189.872 875.11 188.068 875.217 186.194H894.686V210.173H898.4V221.313H894.156V214.151H873.784V221.313H869.54ZM878.771 200.464C878.63 202.869 878.417 204.832 878.134 206.353C877.887 207.874 877.551 209.147 877.126 210.173H889.912V190.173H879.461L878.771 200.464Z" fill="black"/>
<path d="M869.47 96.645H874.403V108.9C874.403 111.906 875.199 114.205 876.791 115.796C878.418 117.352 880.84 118.13 884.059 118.13C885.579 118.13 886.976 118.042 888.25 117.865C889.523 117.688 890.637 117.476 891.592 117.229C892.688 116.981 893.696 116.68 894.616 116.327V96.645H899.549V137.229H894.616V120.73C893.696 121.084 892.688 121.384 891.592 121.632C890.637 121.879 889.523 122.091 888.25 122.268C886.976 122.445 885.579 122.534 884.059 122.534C879.213 122.534 875.571 121.402 873.13 119.138C870.69 116.875 869.47 113.427 869.47 108.794V96.645Z" fill="black"/>
<path d="M877.887 278.13C877.887 279.509 878.046 280.8 878.364 282.003C878.718 283.205 879.23 284.248 879.902 285.133C880.574 286.017 881.406 286.724 882.396 287.255C883.386 287.75 884.553 287.997 885.897 287.997C888.408 287.997 890.265 287.042 891.467 285.133C892.705 283.187 893.324 280.376 893.324 276.698C893.324 275.212 893.2 273.833 892.953 272.56C892.705 271.286 892.299 270.19 891.733 269.271C891.167 268.316 890.389 267.573 889.398 267.042C888.444 266.512 887.259 266.247 885.844 266.247C884.606 266.247 883.492 266.494 882.502 266.989C881.547 267.449 880.716 268.103 880.009 268.952C879.337 269.766 878.806 270.721 878.417 271.817C878.063 272.878 877.887 273.992 877.887 275.159V278.13ZM873.271 263.117H877.887V267.785H877.993C878.806 266.3 879.955 265.044 881.441 264.019C882.962 262.958 884.783 262.427 886.905 262.427C888.39 262.427 889.805 262.675 891.149 263.17C892.528 263.665 893.731 264.478 894.757 265.61C895.782 266.706 896.596 268.174 897.197 270.013C897.833 271.817 898.152 274.045 898.152 276.698C898.152 279.244 897.833 281.472 897.197 283.382C896.596 285.256 895.765 286.813 894.703 288.05C893.678 289.288 892.458 290.225 891.043 290.862C889.664 291.463 888.178 291.764 886.587 291.764C885.561 291.764 884.589 291.622 883.669 291.339C882.785 291.092 881.971 290.756 881.229 290.332C880.486 289.872 879.849 289.359 879.319 288.793C878.788 288.227 878.399 287.626 878.152 286.989H878.046V301.048H873.271V263.117Z" fill="black"/>
<path d="M877.068 358.875C877.174 359.689 877.386 360.467 877.705 361.21C878.023 361.952 878.447 362.607 878.978 363.172C879.544 363.738 880.234 364.198 881.047 364.552C881.86 364.87 882.815 365.029 883.912 365.029C886.211 365.029 887.944 364.198 889.111 362.536C890.313 360.838 891.02 358.61 891.233 355.851H880.092V351.873H891.233C891.02 349.22 890.366 347.098 889.27 345.507C888.209 343.88 886.511 343.066 884.177 343.066C882.904 343.066 881.843 343.243 880.994 343.597C880.145 343.95 879.455 344.393 878.925 344.923C878.394 345.454 877.988 346.037 877.705 346.674C877.457 347.31 877.316 347.912 877.28 348.477H872.718C872.86 347.098 873.231 345.843 873.832 344.711C874.469 343.579 875.282 342.624 876.272 341.846C877.263 341.033 878.43 340.414 879.774 339.989C881.118 339.565 882.603 339.353 884.23 339.353C888.085 339.353 891.02 340.626 893.036 343.172C895.088 345.683 896.113 349.238 896.113 353.836C896.113 355.958 895.83 357.938 895.264 359.777C894.734 361.581 893.956 363.155 892.93 364.499C891.905 365.807 890.631 366.833 889.111 367.576C887.625 368.318 885.91 368.69 883.965 368.69C882.515 368.69 881.118 368.513 879.774 368.159C878.465 367.805 877.28 367.24 876.219 366.462C875.194 365.683 874.345 364.676 873.673 363.438C873.036 362.164 872.647 360.644 872.506 358.875H877.068Z" fill="black"/>
<path d="M953.829 44.3365C953.616 47.0951 953.298 49.5001 952.874 51.5514C952.485 53.6027 951.919 55.318 951.176 56.6973C950.433 58.0412 949.443 59.0492 948.205 59.7211C947.003 60.3931 945.482 60.7291 943.643 60.7291C943.289 60.7291 942.989 60.7114 942.741 60.676C942.493 60.6407 942.281 60.5876 942.104 60.5169C941.892 60.4462 941.715 60.3754 941.574 60.3047V55.6893C941.751 55.76 941.945 55.8308 942.157 55.9015C942.334 55.9722 942.547 56.0253 942.794 56.0607C943.042 56.096 943.307 56.1137 943.59 56.1137C944.474 56.1137 945.234 55.9015 945.871 55.4771C946.508 55.0527 947.038 54.3807 947.463 53.4612C947.887 52.5063 948.223 51.2861 948.47 49.8007C948.753 48.3153 948.983 46.5116 949.16 44.3896C949.266 43.2225 949.355 41.9846 949.425 40.676C949.531 39.3675 949.638 38.0235 949.744 36.6442C949.85 35.2649 949.956 33.8856 950.062 32.5063C950.168 31.127 950.274 29.8184 950.38 28.5806C950.593 25.6451 950.787 22.692 950.964 19.7211H976.11V60.3047H971.176V24.1243H955.314C955.208 25.3975 955.102 26.8829 954.996 28.5806C954.89 30.2428 954.766 31.9758 954.624 33.7795C954.483 35.5832 954.341 37.4046 954.2 39.2437C954.094 41.0474 953.97 42.745 953.829 44.3365Z" fill="black"/>
<path d="M969.167 197.387C969.132 196.22 968.99 195.142 968.743 194.151C968.495 193.126 968.088 192.242 967.522 191.499C966.992 190.756 966.285 190.173 965.4 189.748C964.552 189.324 963.526 189.112 962.323 189.112C960.095 189.112 958.362 189.907 957.125 191.499C955.887 193.09 955.126 195.159 954.843 197.706H969.167V197.387ZM973.676 206.83C973.181 209.271 971.943 211.216 969.963 212.666C968.018 214.116 965.542 214.841 962.536 214.841C960.414 214.841 958.557 214.487 956.965 213.78C955.374 213.037 954.048 212.012 952.987 210.703C951.961 209.395 951.183 207.856 950.652 206.088C950.157 204.319 949.91 202.392 949.91 200.305C949.91 198.254 950.175 196.326 950.705 194.523C951.271 192.719 952.085 191.145 953.146 189.801C954.207 188.457 955.498 187.414 957.018 186.671C958.575 185.893 960.361 185.504 962.377 185.504C964.463 185.504 966.249 185.876 967.735 186.618C969.22 187.361 970.423 188.369 971.342 189.642C972.297 190.88 972.987 192.312 973.411 193.939C973.835 195.566 974.048 197.264 974.048 199.032V201.472H954.79C954.932 204.372 955.621 206.724 956.859 208.528C958.133 210.296 960.078 211.181 962.695 211.181C963.862 211.181 964.817 211.039 965.56 210.756C966.338 210.438 966.957 210.066 967.416 209.642C967.911 209.182 968.283 208.705 968.53 208.21C968.778 207.715 968.955 207.255 969.061 206.83H973.676Z" fill="black"/>
<path d="M958.833 132.825V96.645H963.766V132.825H980.795V96.645H985.729V137.229H936.87V96.645H941.803V132.825H958.833Z" fill="black"/>
<path d="M968.711 271.552C968.641 270.844 968.446 270.172 968.128 269.536C967.845 268.864 967.438 268.28 966.908 267.785C966.377 267.255 965.723 266.848 964.945 266.565C964.202 266.247 963.336 266.087 962.345 266.087C961.072 266.087 959.958 266.353 959.003 266.883C958.048 267.414 957.252 268.156 956.616 269.111C955.979 270.066 955.484 271.216 955.13 272.56C954.812 273.904 954.653 275.389 954.653 277.016C954.653 278.643 954.777 280.128 955.024 281.472C955.307 282.816 955.749 283.983 956.351 284.973C956.952 285.928 957.73 286.671 958.685 287.202C959.64 287.732 960.825 287.997 962.239 287.997C963.548 287.997 964.626 287.785 965.475 287.361C966.359 286.936 967.049 286.406 967.544 285.769C968.075 285.133 968.446 284.478 968.658 283.806C968.906 283.099 969.047 282.48 969.083 281.95H973.539C973.362 283.576 972.955 285.009 972.319 286.247C971.682 287.449 970.869 288.457 969.878 289.271C968.888 290.084 967.739 290.685 966.43 291.074C965.122 291.499 963.707 291.711 962.186 291.711C960.17 291.711 958.384 291.375 956.828 290.703C955.307 290.031 954.016 289.076 952.955 287.838C951.894 286.565 951.099 285.044 950.568 283.276C950.038 281.472 949.772 279.456 949.772 277.228C949.772 275.106 950.055 273.143 950.621 271.339C951.187 269.5 952 267.927 953.061 266.618C954.158 265.309 955.466 264.284 956.987 263.541C958.543 262.798 960.312 262.427 962.292 262.427C963.672 262.427 964.998 262.604 966.271 262.958C967.58 263.276 968.729 263.806 969.719 264.549C970.745 265.256 971.576 266.194 972.213 267.361C972.885 268.528 973.274 269.925 973.38 271.552H968.711Z" fill="black"/>
<path d="M950.202 351.873H955.613C955.79 349.998 956.196 348.301 956.833 346.78C957.47 345.224 958.301 343.897 959.326 342.801C960.387 341.705 961.625 340.856 963.04 340.255C964.455 339.653 966.046 339.353 967.814 339.353C969.866 339.353 971.652 339.706 973.173 340.414C974.693 341.121 975.949 342.129 976.939 343.438C977.965 344.711 978.725 346.249 979.22 348.053C979.751 349.857 980.016 351.837 980.016 353.995C980.016 356.187 979.733 358.186 979.167 359.989C978.601 361.793 977.788 363.349 976.727 364.658C975.666 365.931 974.375 366.921 972.854 367.629C971.333 368.336 969.618 368.69 967.708 368.69C965.834 368.69 964.172 368.389 962.722 367.788C961.272 367.151 960.034 366.285 959.008 365.188C958.018 364.057 957.222 362.713 956.621 361.156C956.055 359.565 955.701 357.797 955.56 355.851H950.202V368H945.427V340.042H950.202V351.873ZM975.082 353.995C975.082 350.564 974.499 347.876 973.332 345.931C972.2 343.986 970.343 343.013 967.761 343.013C965.286 343.013 963.447 343.986 962.244 345.931C961.042 347.876 960.44 350.564 960.44 353.995C960.44 357.425 961.024 360.113 962.191 362.058C963.358 364.004 965.25 364.976 967.867 364.976C970.414 364.976 972.253 364.004 973.385 362.058C974.516 360.113 975.082 357.425 975.082 353.995Z" fill="black"/>
<line x1="1000" y1="1" x2="0.00012207" y2="1" stroke="black" stroke-width="2"/>
<line x1="1000" y1="77.9229" x2="0.00012207" y2="77.9229" stroke="black" stroke-width="2"/>
<line x1="1000" y1="231.77" x2="0.00012207" y2="231.77" stroke="black" stroke-width="2"/>
<line x1="1000" y1="154.846" x2="0.00012207" y2="154.846" stroke="black" stroke-width="2"/>
<line x1="1000" y1="231.77" x2="0.00012207" y2="231.77" stroke="black" stroke-width="2"/>
<line x1="1000" y1="308.692" x2="0.00012207" y2="308.692" stroke="black" stroke-width="2"/>
<line x1="1000" y1="386" x2="0.00012207" y2="386" stroke="black" stroke-width="2"/>
<line x1="1001" y1="386" y2="386" stroke="black" stroke-width="2"/>
<line x1="1001" y1="462" y2="462" stroke="black" stroke-width="2"/>
</svg>
