<svg width="251" height="251" viewBox="0 0 251 251" fill="none" xmlns="http://www.w3.org/2000/svg">
<path d="M118.983 138.945L114.595 156.32L114.28 157.347L94.4797 151.758C93.3517 151.422 92.3882 150.698 91.5893 149.586C90.7903 148.475 90.2588 147.278 89.9946 145.996C89.8234 145.066 89.7752 144.144 89.8498 143.232C89.9244 142.32 90.2043 141.301 90.6896 140.177C91.1748 139.052 91.549 138.219 91.8122 137.678C92.0754 137.136 92.6311 136.192 93.4791 134.845C94.3271 133.498 94.8063 132.721 94.9166 132.512C97.324 133.414 105.346 135.558 118.983 138.945ZM106.319 107.162L111.147 127.014L105.034 121.16C102.546 123.025 100.288 124.946 98.2593 126.924C96.2305 128.901 94.6589 130.643 93.5445 132.15C92.43 133.656 91.486 135.024 90.7124 136.254C89.9388 137.484 89.4343 138.422 89.199 139.069L88.7982 140.029L83.2717 121.124C82.9026 120.185 82.8018 119.236 82.9695 118.277C83.1371 117.318 83.389 116.592 83.7253 116.099L84.2875 115.322C85.8226 113.556 88.2654 110.952 91.6158 107.512L85.7774 102.013L106.319 107.162ZM160.041 144.117L147.468 159.329C146.892 160.169 146.155 160.786 145.258 161.178C144.36 161.569 143.598 161.75 142.973 161.718L142.072 161.728C139.761 161.476 136.23 160.935 131.477 160.105L130.224 167.995L122.884 148.213L136.587 133.089L135.196 141.397C140.511 143.041 145.006 144.066 148.683 144.471C152.359 144.877 155.179 144.921 157.143 144.603L160.041 144.117ZM131.712 92.2488C129.794 93.9349 124.122 99.9548 114.697 110.309L101.4 98.2271L100.611 97.4652L114.924 82.7666C115.768 81.916 116.875 81.4021 118.243 81.2249C119.612 81.0476 120.921 81.1561 122.169 81.5503C122.921 81.7741 123.655 82.1266 124.37 82.6077C125.084 83.0888 125.684 83.5625 126.169 84.0286C126.654 84.4947 127.206 85.1572 127.825 86.0159C128.444 86.8747 128.903 87.5426 129.203 88.0196C129.502 88.4966 129.945 89.2439 130.53 90.2614C131.116 91.2789 131.51 91.9413 131.712 92.2488ZM159.979 113.432L166.497 132.843C166.825 134.137 166.772 135.386 166.337 136.587C165.902 137.788 165.218 138.871 164.284 139.835C163.736 140.384 163.087 140.861 162.336 141.267C161.585 141.673 160.886 141.99 160.239 142.219C159.592 142.448 158.745 142.636 157.7 142.781C156.654 142.927 155.851 143.024 155.292 143.072C154.733 143.121 153.865 143.171 152.689 143.223C151.513 143.275 150.74 143.311 150.369 143.333C149.764 140.82 146.989 133.014 142.043 119.915L158.96 113.765L159.979 113.432ZM155.393 101.236L163.013 98.7067L148.769 114.265L128.928 109.114L137.008 106.532C136.516 103.479 135.872 100.594 135.077 97.8751C134.282 95.1567 133.488 92.9441 132.698 91.2373C131.907 89.5306 131.144 88.0453 130.411 86.7813C129.677 85.5174 129.082 84.6223 128.626 84.096L127.943 83.3066L147.305 87.4124C148.313 87.5242 149.203 87.8846 149.974 88.4936C150.745 89.1025 151.272 89.6852 151.555 90.2416L151.932 91.0661C152.77 93.2632 153.923 96.6533 155.393 101.236Z" fill="#058C42"/>
<circle cx="125.332" cy="125.356" r="112" stroke="black" stroke-width="2"/>
<circle cx="125.332" cy="125.356" r="81" stroke="black" stroke-width="2"/>
<path d="M96.8219 221.851L90.6511 219.85L91.0921 218.49L95.5316 219.929L96.4017 217.246L92.2466 215.898L92.6797 214.563L96.8347 215.91L97.7208 213.177L93.1824 211.706L93.6194 210.358L99.8891 212.391L96.8219 221.851Z" fill="black"/>
<path d="M83.8314 215.663C84.5588 215.989 85.2709 215.948 85.9675 215.538C86.6641 215.129 87.2608 214.371 87.7575 213.264C88.2471 212.173 88.4211 211.234 88.2796 210.449C88.1266 209.668 87.6785 209.11 86.9352 208.777C86.6189 208.635 86.3208 208.558 86.0411 208.547C85.7577 208.543 85.4997 208.589 85.2671 208.684C85.023 208.783 84.802 208.926 84.6043 209.113C84.4029 209.308 84.2283 209.538 84.0804 209.804L82.3962 209.049C82.6371 208.596 82.9355 208.217 83.2912 207.911C83.6469 207.606 84.0468 207.381 84.4908 207.238C84.9233 207.1 85.3965 207.051 85.9102 207.092C86.4125 207.137 86.9325 207.28 87.4702 207.521C88.8066 208.12 89.6571 208.977 90.0219 210.091C90.3831 211.212 90.2284 212.52 89.5579 214.015C89.2244 214.758 88.8315 215.379 88.3792 215.879C87.9154 216.384 87.4094 216.76 86.8612 217.008C86.313 217.256 85.7379 217.373 85.1361 217.36C84.5228 217.35 83.8998 217.204 83.2673 216.92C82.7691 216.696 82.3367 216.422 81.97 216.096C81.5998 215.778 81.3111 215.415 81.104 215.009C80.8933 214.61 80.7761 214.173 80.7523 213.697C80.7205 213.217 80.7984 212.716 80.9859 212.192L82.6939 212.958C82.6041 213.222 82.5609 213.487 82.5644 213.755C82.5599 214.019 82.6034 214.271 82.695 214.512C82.7865 214.752 82.9257 214.971 83.1124 215.169C83.2991 215.367 83.5388 215.531 83.8314 215.663Z" fill="black"/>
<path d="M79.5588 209.405C79.1265 210.126 78.6451 210.701 78.1146 211.131C77.5796 211.568 77.0283 211.864 76.4606 212.019C75.881 212.176 75.2939 212.203 74.6993 212.1C74.1003 212.003 73.5183 211.786 72.9534 211.447C72.3662 211.095 71.8868 210.681 71.5151 210.205C71.1433 209.73 70.8942 209.202 70.7677 208.62C70.6368 208.047 70.6418 207.423 70.7828 206.75C70.9193 206.084 71.206 205.387 71.6428 204.658C72.0795 203.93 72.5632 203.351 73.0937 202.921C73.6167 202.487 74.1643 202.189 74.7365 202.027C75.3043 201.872 75.8876 201.843 76.4866 201.939C77.0812 202.043 77.6684 202.269 78.2481 202.617C78.8502 202.978 79.3408 203.398 79.72 203.878C80.0917 204.354 80.3408 204.882 80.4673 205.463C80.5864 206.04 80.5739 206.659 80.4299 207.32C80.2859 207.982 79.9956 208.677 79.5588 209.405ZM77.564 203.783C76.8579 203.359 76.1318 203.298 75.3858 203.598C74.6397 203.899 73.948 204.58 73.3107 205.643C72.9898 206.179 72.7626 206.684 72.6289 207.16C72.4953 207.635 72.4501 208.073 72.4933 208.473C72.5291 208.868 72.6459 209.221 72.8436 209.532C73.0414 209.842 73.3113 210.1 73.6532 210.305C74.3519 210.724 75.0683 210.785 75.8024 210.487C76.5366 210.19 77.2335 209.491 77.8931 208.391C78.5393 207.313 78.8281 206.385 78.7595 205.606C78.6835 204.823 78.285 204.215 77.564 203.783Z" fill="black"/>
<path d="M69.7982 203.128L66.6619 200.81L67.4887 199.691L70.625 202.009L69.7982 203.128Z" fill="black"/>
<path d="M65.9238 193.919L67.2928 195.118L60.7399 202.599L56.1145 198.547L57.0567 197.471L60.3131 200.324L62.3775 197.967L59.3363 195.303L60.2614 194.247L63.3026 196.911L65.9238 193.919Z" fill="black"/>
<path d="M54.6522 190.33C54.4809 190.146 54.2962 189.992 54.0983 189.869C53.9003 189.745 53.6944 189.671 53.4807 189.645C53.2611 189.612 53.0396 189.635 52.816 189.713C52.5803 189.79 52.3482 189.936 52.1199 190.148C51.9043 190.349 51.7559 190.558 51.6746 190.776C51.5869 191 51.5546 191.22 51.5776 191.435C51.5947 191.644 51.6549 191.849 51.7582 192.049C51.8615 192.248 51.9929 192.434 52.1524 192.605L53.3752 193.918L55.8484 191.614L54.6522 190.33ZM55.6136 189.417L56.8187 190.71L59.7009 188.025L60.9414 189.357L53.6645 196.136L51.0771 193.358C50.8527 193.117 50.6474 192.852 50.4614 192.564C50.2754 192.275 50.1298 191.972 50.0245 191.656C49.8759 191.179 49.8499 190.699 49.9467 190.218C50.0371 189.743 50.3201 189.284 50.7958 188.841C51.1065 188.552 51.4174 188.345 51.7284 188.221C52.033 188.103 52.3325 188.043 52.627 188.041C52.9155 188.033 53.1902 188.067 53.4511 188.144C53.7121 188.221 53.9509 188.318 54.1674 188.436L54.1865 188.419L55.8198 183.859L57.1755 185.314L55.6136 189.417Z" fill="black"/>
<path d="M46.5763 188.114L45.4502 186.684L53.2632 180.531L54.3893 181.961L46.5763 188.114Z" fill="black"/>
<path d="M42.9684 183.382L39.3721 177.983L40.5623 177.191L43.1496 181.075L45.4974 179.511L43.0758 175.876L44.2443 175.097L46.6659 178.732L49.0569 177.14L46.412 173.169L47.5913 172.383L51.2452 177.869L42.9684 183.382Z" fill="black"/>
<path d="M37.4475 174.714L36.4913 172.867L40.2322 166.831C40.3498 166.644 40.4599 166.479 40.5625 166.338C40.6575 166.201 40.7469 166.082 40.8308 165.98C40.926 165.862 41.0137 165.758 41.0939 165.668L41.0759 165.633L34.507 169.034L33.742 167.556L42.5737 162.984L43.4941 164.762L39.7193 170.874C39.598 171.073 39.4881 171.247 39.3894 171.396C39.2907 171.544 39.1994 171.67 39.1156 171.772C39.0203 171.889 38.9365 171.991 38.8641 172.078L38.876 172.101L45.5142 168.664L46.2792 170.142L37.4475 174.714Z" fill="black"/>
<path d="M32.2268 164.017L31.065 160.94C30.814 160.275 30.668 159.631 30.627 159.007C30.583 158.375 30.6669 157.788 30.8787 157.245C31.0904 156.701 31.4413 156.208 31.9313 155.763C32.4181 155.311 33.0629 154.933 33.8656 154.63C34.6683 154.327 35.4125 154.176 36.0982 154.176C36.7809 154.168 37.3958 154.288 37.9431 154.536C38.4823 154.786 38.9548 155.154 39.3607 155.64C39.7634 156.118 40.0903 156.689 40.3414 157.354L41.5307 160.504L32.2268 164.017ZM39.083 157.996C38.9177 157.558 38.7124 157.186 38.4673 156.881C38.2109 156.57 37.9016 156.339 37.5391 156.189C37.1685 156.042 36.7423 155.98 36.2606 156.005C35.7707 156.032 35.2096 156.165 34.5771 156.404C33.9771 156.631 33.4964 156.891 33.135 157.185C32.7735 157.479 32.5105 157.8 32.3459 158.15C32.1783 158.491 32.1036 158.857 32.1217 159.249C32.1287 159.635 32.2102 160.035 32.3663 160.449L32.8852 161.823L39.5743 159.297L39.083 157.996Z" fill="black"/>
<path d="M28.4376 153.16L27.9765 151.4L36.1884 149.249L35.0453 144.885L36.4538 144.516L38.0581 150.64L28.4376 153.16Z" fill="black"/>
<path d="M31.5218 140.568L26.3616 144.816L26.0477 142.826L29.7836 139.894L29.7796 139.869L25.3167 138.19L25.0271 136.354L31.2038 138.802L35.3772 138.144L35.6567 139.916L31.5218 140.568Z" fill="black"/>
<path d="M24.5233 128.306L24.5069 121.819L25.9369 121.815L25.9487 126.482L28.7697 126.475L28.7586 122.107L30.1626 122.104L30.1737 126.472L33.0467 126.464L33.0346 121.693L34.4516 121.69L34.4683 128.281L24.5233 128.306Z" fill="black"/>
<path d="M26.3668 114.035C26.2827 114.828 26.5435 115.492 27.1491 116.027C27.7547 116.562 28.6608 116.893 29.8673 117.021C31.0567 117.147 32.0026 117.021 32.7051 116.642C33.4 116.254 33.7904 115.655 33.8763 114.845C33.9129 114.5 33.8932 114.193 33.8172 113.923C33.7326 113.653 33.6089 113.422 33.4462 113.23C33.2758 113.029 33.0711 112.864 32.8322 112.734C32.5846 112.603 32.3113 112.509 32.0124 112.451L32.2072 110.615C32.712 110.704 33.165 110.869 33.5663 111.112C33.9676 111.355 34.3051 111.666 34.5788 112.043C34.8447 112.411 35.0383 112.846 35.1595 113.347C35.2729 113.838 35.2986 114.377 35.2364 114.963C35.0819 116.42 34.5321 117.494 33.5871 118.187C32.6335 118.879 31.3422 119.139 29.7133 118.966C28.9032 118.88 28.1903 118.7 27.5744 118.425C26.9509 118.141 26.4361 117.777 26.03 117.333C25.6239 116.889 25.3338 116.379 25.1596 115.803C24.9777 115.217 24.9234 114.579 24.9965 113.89C25.0541 113.347 25.1808 112.85 25.3767 112.401C25.564 111.95 25.8186 111.563 26.1404 111.24C26.4537 110.916 26.8329 110.668 27.2781 110.498C27.7242 110.318 28.2253 110.236 28.7814 110.252L28.5839 112.113C28.3054 112.11 28.0395 112.151 27.7863 112.238C27.534 112.316 27.3078 112.436 27.1076 112.597C26.9074 112.759 26.7424 112.959 26.6125 113.198C26.4825 113.437 26.4006 113.716 26.3668 114.035Z" fill="black"/>
<path d="M30.9866 108.029C30.1669 107.843 29.4705 107.564 28.8971 107.193C28.3154 106.821 27.8627 106.389 27.5392 105.897C27.2091 105.395 27.001 104.845 26.915 104.248C26.8204 103.649 26.8463 103.028 26.9927 102.386C27.1448 101.718 27.3891 101.134 27.7255 100.633C28.0619 100.132 28.4866 99.7307 28.9996 99.4298C29.5042 99.1271 30.0984 98.938 30.7822 98.8627C31.4576 98.7855 32.2093 98.8413 33.0374 99.03C33.8655 99.2187 34.5662 99.4984 35.1395 99.869C35.7148 100.231 36.1684 100.659 36.5004 101.152C36.8239 101.644 37.033 102.189 37.1275 102.789C37.2136 103.386 37.1815 104.014 37.0313 104.673C36.8753 105.358 36.6282 105.955 36.2898 106.464C35.9534 106.966 35.5287 107.367 35.0157 107.667C34.5046 107.96 33.9124 108.14 33.2389 108.209C32.5655 108.278 31.8147 108.218 30.9866 108.029ZM35.7102 104.386C35.8932 103.583 35.7259 102.874 35.2084 102.258C34.691 101.642 33.828 101.197 32.6197 100.921C32.0113 100.783 31.4603 100.724 30.9666 100.745C30.473 100.766 30.0429 100.859 29.6763 101.024C29.3117 101.181 29.0125 101.402 28.7788 101.686C28.5451 101.971 28.3839 102.307 28.2953 102.696C28.1143 103.49 28.2793 104.19 28.7902 104.795C29.3012 105.401 30.1819 105.846 31.4325 106.131C32.6578 106.41 33.6299 106.396 34.3488 106.089C35.0696 105.773 35.5234 105.205 35.7102 104.386Z" fill="black"/>
<path d="M33.9189 96.8011L35.1474 93.0996L36.4675 93.5378L35.2391 97.2392L33.9189 96.8011Z" fill="black"/>
<path d="M41.4677 90.2562L40.7534 91.9301L31.6063 88.0271L34.0196 82.3715L35.3348 82.9327L33.6359 86.9144L36.5175 88.1439L38.1042 84.4253L39.3956 84.9763L37.8089 88.695L41.4677 90.2562Z" fill="black"/>
<path d="M41.3749 78.4274C41.4964 78.2074 41.5851 77.9841 41.641 77.7575C41.6969 77.531 41.7039 77.3121 41.6622 77.1009C41.6246 76.8821 41.5341 76.6786 41.3905 76.4904C41.2436 76.2904 41.0336 76.115 40.7605 75.9641C40.5026 75.8216 40.2575 75.7455 40.0251 75.736C39.7852 75.7222 39.5664 75.7598 39.3688 75.8486C39.1753 75.9299 38.9997 76.0507 38.8418 76.211C38.6839 76.3713 38.5484 76.5538 38.4352 76.7587L37.5677 78.3289L40.5261 79.9635L41.3749 78.4274ZM42.5418 79.0573L41.6868 80.6048L45.1345 82.5097L44.2544 84.1027L35.5496 79.2933L37.3854 75.9707C37.5447 75.6824 37.7326 75.405 37.9491 75.1385C38.1657 74.872 38.408 74.6395 38.6761 74.4411C39.0837 74.1514 39.5311 73.9778 40.0183 73.9203C40.498 73.8585 41.0223 73.9848 41.5913 74.2992C41.963 74.5046 42.256 74.7358 42.4704 74.9929C42.6773 75.2458 42.8273 75.5118 42.9205 75.7911C43.018 76.0628 43.0708 76.3345 43.079 76.6064C43.0872 76.8783 43.0689 77.1355 43.024 77.378L43.0467 77.3906L47.8882 77.5258L46.9263 79.2667L42.5418 79.0573Z" fill="black"/>
<path d="M40.9709 70.0625L41.9799 68.5478L50.2568 74.0612L49.2478 75.5759L40.9709 70.0625Z" fill="black"/>
<path d="M44.3467 65.1632L48.3603 60.0669L49.4837 60.9517L46.5962 64.6181L48.8124 66.3635L51.5149 62.932L52.6179 63.8006L49.9154 67.2322L52.1725 69.0098L55.1243 65.2616L56.2376 66.1383L52.1596 71.3163L44.3467 65.1632Z" fill="black"/>
<path d="M50.8694 57.2214L52.3278 55.7383L59.2272 57.4179C59.4421 57.4713 59.6326 57.5248 59.7985 57.5786C59.9582 57.6263 60.0996 57.6741 60.2225 57.7221C60.3639 57.7761 60.49 57.8271 60.6007 57.8752L60.6281 57.8474L55.354 52.661L56.5207 51.4745L63.6115 58.4475L62.2078 59.875L55.2256 58.1869C54.9984 58.1336 54.7988 58.0832 54.6268 58.0356C54.4548 57.988 54.3073 57.9402 54.1844 57.8922C54.0429 57.8383 53.92 57.7903 53.8154 57.7482L53.7972 57.7668L59.1269 63.0079L57.9602 64.1944L50.8694 57.2214Z" fill="black"/>
<path d="M59.4141 48.934L61.9775 46.8733C62.5314 46.4281 63.0984 46.089 63.6785 45.8562C64.2654 45.618 64.8498 45.5151 65.4319 45.5475C66.014 45.58 66.5924 45.76 67.167 46.0876C67.7485 46.4097 68.308 46.9051 68.8455 47.5738C69.3831 48.2425 69.7582 48.9028 69.9709 49.5547C70.1903 50.2012 70.2676 50.823 70.2027 51.42C70.1323 52.0103 69.9293 52.5738 69.5935 53.1106C69.2645 53.642 68.8231 54.1303 68.2692 54.5755L65.645 56.6851L59.4141 48.934ZM67.2679 53.579C67.6327 53.2858 67.9223 52.9751 68.1367 52.6471C68.3525 52.3069 68.4755 51.9411 68.5057 51.5499C68.5305 51.1519 68.4564 50.7277 68.2834 50.2774C68.105 49.8204 67.8041 49.3284 67.3805 48.8015C66.9787 48.3017 66.5819 47.9257 66.1902 47.6735C65.7984 47.4213 65.411 47.2713 65.0278 47.2235C64.6514 47.1702 64.28 47.213 63.9135 47.352C63.5483 47.4787 63.1935 47.6805 62.849 47.9575L61.7041 48.8778L66.1838 54.4505L67.2679 53.579Z" fill="black"/>
<path d="M68.5549 41.9575L70.085 40.9719L74.682 48.1084L78.4744 45.6656L79.2628 46.8896L73.9405 50.3181L68.5549 41.9575Z" fill="black"/>
<path d="M81.4824 40.9744L75.8402 37.3906L77.6344 36.4735L81.5822 39.1131L81.6054 39.1012L81.8132 34.3377L83.4686 33.4917L83.0621 40.1233L84.9849 43.8854L83.3874 44.7018L81.4824 40.9744Z" fill="black"/>
<path d="M90.9616 30.5115L97.1221 28.4795L97.57 29.8375L93.1379 31.2994L94.0216 33.9785L98.1697 32.6102L98.6095 33.9436L94.4614 35.3118L95.3613 38.0402L99.8922 36.5457L100.336 37.8914L94.0768 39.956L90.9616 30.5115Z" fill="black"/>
<path d="M105.098 27.828C104.318 27.9945 103.768 28.4487 103.448 29.1906C103.128 29.9325 103.094 30.8967 103.348 32.0833C103.598 33.2529 104.012 34.1128 104.59 34.6628C105.175 35.2025 105.866 35.3873 106.662 35.2172C107.001 35.1448 107.287 35.0306 107.52 34.8746C107.75 34.7101 107.932 34.5208 108.063 34.3066C108.201 34.0822 108.295 33.8362 108.344 33.5687C108.392 33.2927 108.396 33.0036 108.358 32.7016L110.164 32.3161C110.237 32.8234 110.22 33.3055 110.114 33.7624C110.007 34.2193 109.817 34.6366 109.543 35.0141C109.276 35.3813 108.923 35.7004 108.485 35.9712C108.053 36.2318 107.549 36.4236 106.973 36.5467C105.54 36.8526 104.348 36.6641 103.396 35.9812C102.442 35.2899 101.794 34.1433 101.452 32.5414C101.282 31.7447 101.231 31.011 101.301 30.3404C101.377 29.6595 101.563 29.057 101.859 28.533C102.154 28.009 102.549 27.5747 103.043 27.23C103.543 26.8751 104.132 26.6252 104.81 26.4804C105.344 26.3664 105.855 26.3326 106.344 26.3789C106.83 26.4168 107.277 26.5385 107.684 26.744C108.09 26.941 108.443 27.2245 108.743 27.5946C109.052 27.9628 109.286 28.4136 109.444 28.947L107.614 29.338C107.53 29.0722 107.408 28.8324 107.247 28.6186C107.095 28.403 106.911 28.2252 106.695 28.0852C106.479 27.9452 106.237 27.8506 105.969 27.8014C105.702 27.7522 105.411 27.7611 105.098 27.828Z" fill="black"/>
<path d="M112.243 30.3521C112.165 29.515 112.214 28.7664 112.388 28.1062C112.561 27.4375 112.831 26.873 113.198 26.4127C113.572 25.9429 114.03 25.5743 114.571 25.3068C115.111 25.0307 115.709 24.8623 116.365 24.8018C117.047 24.7389 117.678 24.7895 118.259 24.9535C118.84 25.1174 119.353 25.3965 119.798 25.7906C120.243 26.176 120.607 26.682 120.892 27.3085C121.175 27.9265 121.356 28.6583 121.434 29.504C121.512 30.3498 121.464 31.1027 121.289 31.7628C121.124 32.4221 120.858 32.9863 120.493 33.4552C120.126 33.9155 119.673 34.2837 119.132 34.5598C118.591 34.8274 117.984 34.9922 117.311 35.0543C116.612 35.1188 115.968 35.0694 115.378 34.9062C114.797 34.7422 114.284 34.4632 113.839 34.0691C113.402 33.6743 113.046 33.1675 112.772 32.5488C112.497 31.9301 112.321 31.1978 112.243 30.3521ZM117.174 33.7092C117.994 33.6335 118.616 33.2541 119.04 32.5709C119.465 31.8877 119.62 30.929 119.506 29.6949C119.449 29.0736 119.333 28.5315 119.16 28.0688C118.987 27.6061 118.765 27.2263 118.494 26.9293C118.231 26.6315 117.928 26.4157 117.585 26.282C117.242 26.1483 116.872 26.0997 116.475 26.1364C115.664 26.2112 115.05 26.5855 114.634 27.2593C114.217 27.9331 114.068 28.9086 114.186 30.1859C114.301 31.4372 114.616 32.3568 115.132 32.9446C115.656 33.5316 116.337 33.7864 117.174 33.7092Z" fill="black"/>
<path d="M123.826 29.6489L127.726 29.6659L127.72 31.0569L123.82 31.0398L123.826 29.6489Z" fill="black"/>
<path d="M132.393 34.7895L130.58 34.631L131.447 24.7238L137.572 25.2595L137.448 26.6841L133.135 26.3069L132.862 29.428L136.89 29.7803L136.768 31.1789L132.74 30.8267L132.393 34.7895Z" fill="black"/>
<path d="M143.607 31.0244C143.854 31.0715 144.094 31.0864 144.327 31.0691C144.559 31.0518 144.77 30.9905 144.957 30.8852C145.154 30.7815 145.319 30.6322 145.453 30.4372C145.598 30.2354 145.699 29.9813 145.758 29.6748C145.813 29.3854 145.809 29.1287 145.746 28.9049C145.684 28.6726 145.581 28.4763 145.435 28.3161C145.297 28.1575 145.128 28.0281 144.927 27.9279C144.725 27.8277 144.509 27.7556 144.28 27.7117L142.517 27.3752L141.883 30.6952L143.607 31.0244ZM143.371 32.3293L141.635 31.9977L140.896 35.8667L139.108 35.5253L140.974 25.7569L144.702 26.4689C145.026 26.5307 145.348 26.6231 145.668 26.7461C145.989 26.8691 146.285 27.0271 146.557 27.2202C146.959 27.5176 147.263 27.8889 147.469 28.3341C147.677 28.7708 147.72 29.3084 147.598 29.9469C147.519 30.364 147.39 30.7144 147.212 30.9981C147.036 31.2733 146.83 31.4986 146.593 31.6741C146.365 31.8511 146.124 31.9858 145.868 32.0781C145.612 32.1704 145.362 32.2329 145.117 32.2657L145.112 32.2912L146.489 36.9348L144.535 36.5617L143.371 32.3293Z" fill="black"/>
<path d="M151.432 28.0408L153.185 28.529L150.518 38.1095L148.765 37.6213L151.432 28.0408Z" fill="black"/>
<path d="M157.138 29.7263L163.23 31.957L162.738 33.2998L158.356 31.6949L157.385 34.3439L161.487 35.8459L161.004 37.1643L156.903 35.6623L155.915 38.3601L160.395 40.0007L159.908 41.3313L153.718 39.0648L157.138 29.7263Z" fill="black"/>
<path d="M166.714 33.4571L168.577 34.3822L169.125 41.462C169.141 41.6829 169.149 41.8805 169.15 42.0549C169.154 42.2216 169.153 42.3708 169.145 42.5026C169.138 42.6538 169.129 42.7894 169.117 42.9096L169.152 42.927L172.442 36.302L173.933 37.0421L169.509 45.9492L167.716 45.0587L167.15 37.8976C167.13 37.6651 167.116 37.4598 167.108 37.2815C167.1 37.1032 167.099 36.9482 167.107 36.8164C167.114 36.6652 167.122 36.5334 167.129 36.421L167.106 36.4094L163.781 43.1043L162.29 42.3641L166.714 33.4571Z" fill="black"/>
<path d="M177.247 39.0023L180.002 40.7983C180.598 41.1863 181.096 41.6198 181.498 42.0988C181.906 42.5826 182.186 43.1061 182.336 43.6695C182.486 44.2328 182.495 44.8385 182.362 45.4865C182.237 46.1392 181.94 46.825 181.471 47.5438C181.003 48.2626 180.492 48.8244 179.938 49.2292C179.392 49.6387 178.825 49.9054 178.237 50.0293C177.654 50.1459 177.056 50.1281 176.441 49.9758C175.834 49.8282 175.233 49.5604 174.637 49.1724L171.816 47.3339L177.247 39.0023ZM175.273 47.911C175.665 48.1665 176.05 48.3452 176.429 48.4471C176.819 48.5464 177.205 48.5496 177.586 48.4567C177.972 48.3565 178.353 48.1543 178.727 47.8499C179.106 47.5383 179.48 47.0993 179.849 46.533C180.199 45.9957 180.433 45.5017 180.551 45.051C180.669 44.6002 180.691 44.1853 180.617 43.8063C180.551 43.432 180.395 43.0923 180.149 42.7871C179.915 42.4794 179.613 42.2049 179.243 41.9636L178.012 41.1615L174.108 47.1514L175.273 47.911Z" fill="black"/>
<path d="M186.719 45.5222L188.131 46.6701L182.777 53.2577L186.278 56.1028L185.359 57.2327L180.446 53.2396L186.719 45.5222Z" fill="black"/>
<path d="M191.671 57.5038L193.324 51.0271L194.753 52.4474L193.471 57.0201L193.49 57.0384L198.082 55.7554L199.401 57.0657L192.971 58.7407L189.993 61.7376L188.721 60.4731L191.671 57.5038Z" fill="black"/>
<path d="M204.562 63.2614L208.409 68.4852L207.257 69.3331L204.49 65.5749L202.218 67.2475L204.808 70.7649L203.678 71.5974L201.088 68.08L198.774 69.7834L201.603 73.6253L200.462 74.4655L196.554 69.158L204.562 63.2614Z" fill="black"/>
<path d="M211.507 75.8633C211.107 75.1739 210.504 74.7924 209.699 74.7187C208.895 74.645 207.968 74.913 206.919 75.5227C205.885 76.1236 205.196 76.7844 204.853 77.505C204.522 78.2288 204.561 78.9428 204.971 79.6472C205.145 79.9469 205.342 80.183 205.563 80.3556C205.791 80.5238 206.027 80.6371 206.271 80.6955C206.528 80.757 206.791 80.7696 207.06 80.7332C207.337 80.6925 207.613 80.6072 207.889 80.4773L208.816 82.0733C208.357 82.3003 207.893 82.4343 207.426 82.4753C206.959 82.5163 206.503 82.4654 206.059 82.3224C205.627 82.1826 205.214 81.9464 204.82 81.6139C204.439 81.2845 204.1 80.8651 203.803 80.3555C203.067 79.0892 202.876 77.8973 203.229 76.78C203.59 75.6583 204.478 74.6859 205.894 73.8629C206.599 73.4535 207.28 73.1776 207.939 73.0352C208.61 72.8959 209.24 72.8854 209.83 73.0037C210.42 73.1219 210.956 73.362 211.437 73.724C211.93 74.0891 212.35 74.5714 212.699 75.1709C212.973 75.6429 213.164 76.1183 213.272 76.597C213.387 77.0713 213.41 77.5339 213.342 77.9848C213.281 78.4314 213.121 78.855 212.862 79.2557C212.609 79.6639 212.253 80.0261 211.795 80.3423L210.854 78.7238C211.081 78.5619 211.271 78.3714 211.424 78.152C211.582 77.9402 211.693 77.7098 211.759 77.461C211.825 77.2122 211.84 76.953 211.804 76.6835C211.767 76.4139 211.668 76.1405 211.507 75.8633Z" fill="black"/>
<path d="M211.329 83.4386C212.101 83.105 212.827 82.9183 213.509 82.8786C214.198 82.8354 214.819 82.9165 215.37 83.1219C215.933 83.3317 216.426 83.6522 216.848 84.0833C217.278 84.511 217.624 85.0271 217.886 85.6317C218.157 86.2601 218.306 86.8759 218.33 87.4789C218.355 88.082 218.249 88.6564 218.013 89.2023C217.785 89.7447 217.417 90.2483 216.91 90.7131C216.411 91.1744 215.771 91.5736 214.992 91.9107C214.212 92.2477 213.482 92.4361 212.8 92.4758C212.122 92.5235 211.503 92.4464 210.944 92.2445C210.393 92.0391 209.902 91.7226 209.471 91.295C209.049 90.8639 208.703 90.3381 208.435 89.7176C208.157 89.0733 208.003 88.4456 207.975 87.8346C207.95 87.2315 208.056 86.657 208.292 86.1112C208.532 85.5733 208.903 85.0776 209.406 84.6243C209.908 84.1709 210.549 83.7757 211.329 83.4386ZM209.671 89.1691C209.998 89.9249 210.552 90.3982 211.333 90.5892C212.114 90.7801 213.074 90.6297 214.211 90.1379C214.784 89.8903 215.263 89.6122 215.649 89.3037C216.035 88.9952 216.327 88.666 216.525 88.316C216.727 87.9739 216.838 87.6191 216.858 87.2515C216.879 86.8838 216.81 86.517 216.652 86.1511C216.328 85.4033 215.782 84.9362 215.012 84.7498C214.242 84.5633 213.268 84.7246 212.091 85.2336C210.937 85.7323 210.161 86.318 209.763 86.9907C209.368 87.6714 209.337 88.3975 209.671 89.1691Z" fill="black"/>
<path d="M215.598 94.2296L216.794 97.9416L215.47 98.3682L214.274 94.6561L215.598 94.2296Z" fill="black"/>
<path d="M213.375 103.971L212.962 102.198L222.648 99.942L224.043 105.931L222.65 106.255L221.668 102.039L218.617 102.75L219.534 106.687L218.166 107.006L217.249 103.068L213.375 103.971Z" fill="black"/>
<path d="M220.439 113.458C220.471 113.708 220.531 113.94 220.62 114.156C220.709 114.372 220.833 114.553 220.991 114.698C221.151 114.853 221.344 114.963 221.571 115.03C221.808 115.105 222.081 115.122 222.39 115.083C222.683 115.045 222.925 114.962 223.118 114.832C223.32 114.701 223.474 114.542 223.581 114.353C223.689 114.174 223.76 113.972 223.792 113.75C223.825 113.527 223.826 113.3 223.797 113.068L223.569 111.288L220.216 111.718L220.439 113.458ZM219.126 113.64L218.901 111.886L214.994 112.386L214.763 110.581L224.627 109.318L225.109 113.083C225.151 113.41 225.163 113.745 225.146 114.088C225.129 114.43 225.071 114.761 224.972 115.08C224.814 115.554 224.556 115.959 224.197 116.293C223.846 116.626 223.349 116.834 222.704 116.917C222.283 116.971 221.91 116.957 221.585 116.877C221.268 116.795 220.99 116.669 220.75 116.499C220.511 116.337 220.308 116.149 220.14 115.934C219.973 115.72 219.836 115.502 219.729 115.279L219.703 115.283L215.717 118.034L215.465 116.061L219.126 113.64Z" fill="black"/>
<path d="M225.707 119.968L225.788 121.786L215.853 122.229L215.772 120.411L225.707 119.968Z" fill="black"/>
<path d="M225.879 125.916L225.652 132.399L224.223 132.349L224.386 127.685L221.567 127.586L221.415 131.951L220.011 131.902L220.164 127.537L217.293 127.437L217.126 132.205L215.71 132.155L215.94 125.568L225.879 125.916Z" fill="black"/>
<path d="M225.309 136.177L225.009 138.235L218.451 140.957C218.246 141.041 218.06 141.11 217.895 141.165C217.738 141.221 217.595 141.266 217.468 141.299C217.322 141.34 217.19 141.373 217.072 141.399L217.067 141.438L224.386 142.506L224.146 144.153L214.305 142.717L214.594 140.736L221.225 137.972C221.439 137.881 221.63 137.803 221.797 137.74C221.964 137.677 222.111 137.628 222.239 137.594C222.385 137.554 222.512 137.521 222.621 137.493L222.625 137.467L215.228 136.388L215.469 134.741L225.309 136.177Z" fill="black"/>
<path d="M223.313 147.912L222.462 151.089C222.278 151.775 222.021 152.384 221.691 152.914C221.358 153.453 220.947 153.882 220.459 154.199C219.97 154.517 219.397 154.714 218.74 154.789C218.08 154.873 217.336 154.804 216.507 154.582C215.678 154.36 214.986 154.049 214.429 153.649C213.87 153.257 213.44 152.801 213.14 152.281C212.848 151.763 212.679 151.188 212.632 150.557C212.584 149.934 212.651 149.279 212.835 148.592L213.706 145.34L223.313 147.912ZM214.232 148.805C214.111 149.257 214.061 149.679 214.081 150.07C214.108 150.472 214.225 150.84 214.432 151.173C214.647 151.509 214.958 151.807 215.363 152.068C215.777 152.332 216.311 152.551 216.964 152.726C217.583 152.891 218.126 152.96 218.591 152.932C219.056 152.904 219.457 152.796 219.794 152.609C220.129 152.429 220.404 152.175 220.617 151.846C220.837 151.528 221.004 151.156 221.118 150.729L221.498 149.31L214.591 147.461L214.232 148.805Z" fill="black"/>
<path d="M220.06 158.941L219.408 160.64L211.483 157.598L209.867 161.81L208.507 161.288L210.775 155.378L220.06 158.941Z" fill="black"/>
<path d="M210.211 167.372L216.881 166.93L215.975 168.73L211.231 168.933L211.219 168.956L213.866 172.922L213.03 174.583L209.44 168.992L205.666 167.093L206.472 165.491L210.211 167.372Z" fill="black"/>
<path d="M208.746 181.414L204.977 186.694L203.813 185.863L206.525 182.065L204.229 180.426L201.691 183.98L200.548 183.165L203.086 179.61L200.748 177.94L197.976 181.823L196.823 181L200.653 175.636L208.746 181.414Z" fill="black"/>
<path d="M198.928 191.933C199.458 191.338 199.634 190.646 199.454 189.859C199.273 189.071 198.731 188.273 197.825 187.466C196.932 186.67 196.09 186.221 195.299 186.119C194.508 186.029 193.841 186.288 193.299 186.896C193.069 187.155 192.905 187.416 192.81 187.679C192.721 187.948 192.687 188.208 192.707 188.458C192.728 188.721 192.798 188.975 192.917 189.22C193.041 189.47 193.208 189.706 193.417 189.928L192.189 191.305C191.83 190.939 191.559 190.54 191.375 190.109C191.19 189.677 191.097 189.229 191.095 188.762C191.094 188.308 191.19 187.842 191.383 187.365C191.578 186.899 191.871 186.447 192.263 186.007C193.238 184.914 194.311 184.361 195.483 184.349C196.661 184.343 197.862 184.886 199.084 185.976C199.692 186.518 200.166 187.08 200.506 187.662C200.847 188.257 201.053 188.853 201.124 189.45C201.195 190.048 201.134 190.631 200.939 191.201C200.745 191.783 200.417 192.332 199.956 192.85C199.593 193.257 199.2 193.587 198.779 193.838C198.364 194.095 197.931 194.261 197.481 194.336C197.038 194.416 196.586 194.396 196.124 194.275C195.657 194.161 195.203 193.935 194.76 193.598L196.006 192.201C196.23 192.366 196.47 192.488 196.726 192.565C196.977 192.649 197.23 192.684 197.487 192.669C197.744 192.654 197.995 192.588 198.24 192.469C198.485 192.351 198.714 192.172 198.928 191.933Z" fill="black"/>
<path d="M191.672 194.118C192.229 194.747 192.632 195.38 192.882 196.015C193.137 196.657 193.253 197.272 193.229 197.86C193.204 198.46 193.053 199.028 192.775 199.564C192.502 200.106 192.119 200.595 191.625 201.031C191.113 201.485 190.573 201.817 190.008 202.028C189.442 202.239 188.864 202.317 188.271 202.262C187.685 202.214 187.092 202.021 186.493 201.684C185.899 201.352 185.321 200.869 184.758 200.233C184.195 199.596 183.789 198.961 183.54 198.325C183.283 197.695 183.164 197.083 183.182 196.489C183.206 195.901 183.354 195.336 183.627 194.794C183.906 194.259 184.298 193.767 184.804 193.319C185.33 192.854 185.879 192.513 186.451 192.296C187.017 192.085 187.595 192.007 188.188 192.062C188.773 192.123 189.36 192.321 189.947 192.658C190.534 192.995 191.109 193.482 191.672 194.118ZM185.71 194.323C185.093 194.869 184.815 195.542 184.877 196.344C184.938 197.146 185.379 198.011 186.2 198.94C186.614 199.407 187.027 199.776 187.44 200.047C187.853 200.318 188.257 200.493 188.651 200.573C189.039 200.658 189.411 200.653 189.766 200.558C190.122 200.463 190.449 200.284 190.748 200.02C191.358 199.48 191.632 198.815 191.57 198.026C191.508 197.236 191.052 196.361 190.203 195.4C189.37 194.459 188.572 193.903 187.809 193.733C187.039 193.57 186.339 193.766 185.71 194.323Z" fill="black"/>
<path d="M182.742 201.529L179.586 203.82L178.769 202.694L181.925 200.403L182.742 201.529Z" fill="black"/>
<path d="M172.793 202.444L174.349 201.501L179.504 210.006L174.246 213.193L173.505 211.97L177.207 209.726L175.583 207.047L172.125 209.142L171.398 207.942L174.855 205.846L172.793 202.444Z" fill="black"/>
<path d="M165.971 212.108C165.743 212.216 165.541 212.345 165.364 212.497C165.186 212.648 165.053 212.822 164.964 213.018C164.866 213.217 164.821 213.436 164.828 213.672C164.831 213.92 164.899 214.185 165.033 214.467C165.16 214.733 165.314 214.938 165.498 215.081C165.684 215.232 165.884 215.329 166.096 215.372C166.301 215.419 166.514 215.424 166.736 215.385C166.958 215.347 167.174 215.278 167.385 215.178L169.006 214.408L167.556 211.355L165.971 212.108ZM165.39 210.916L166.987 210.157L165.297 206.599L166.941 205.818L171.208 214.801L167.779 216.43C167.481 216.571 167.167 216.687 166.836 216.777C166.504 216.867 166.172 216.915 165.838 216.92C165.338 216.918 164.874 216.798 164.444 216.56C164.019 216.331 163.666 215.922 163.387 215.335C163.205 214.952 163.102 214.593 163.078 214.259C163.057 213.933 163.09 213.629 163.178 213.348C163.257 213.071 163.372 212.819 163.524 212.593C163.676 212.368 163.841 212.169 164.019 211.999L164.008 211.975L160.154 209.042L161.95 208.189L165.39 210.916Z" fill="black"/>
<path d="M161.421 219.139L159.718 219.781L156.209 210.476L157.912 209.834L161.421 219.139Z" fill="black"/>
<path d="M155.822 221.15L149.589 222.95L149.192 221.576L153.676 220.281L152.894 217.571L148.697 218.783L148.308 217.434L152.504 216.222L151.707 213.462L147.123 214.786L146.73 213.424L153.063 211.596L155.822 221.15Z" fill="black"/>
<path d="M145.787 223.961L143.737 224.315L139.112 218.927C138.968 218.759 138.845 218.604 138.741 218.464C138.639 218.332 138.552 218.211 138.481 218.1C138.397 217.974 138.325 217.859 138.263 217.755L138.224 217.762L139.484 225.05L137.845 225.334L136.15 215.534L138.123 215.193L142.811 220.636C142.964 220.812 143.097 220.969 143.209 221.108C143.321 221.247 143.413 221.372 143.485 221.483C143.568 221.609 143.64 221.72 143.701 221.815L143.726 221.81L142.453 214.445L144.093 214.161L145.787 223.961Z" fill="black"/>
<path d="M134.117 225.548L130.833 225.727C130.124 225.766 129.465 225.711 128.858 225.562C128.243 225.413 127.708 225.156 127.254 224.79C126.8 224.424 126.435 223.941 126.159 223.339C125.875 222.739 125.709 222.01 125.662 221.153C125.616 220.296 125.696 219.541 125.903 218.888C126.102 218.235 126.402 217.684 126.803 217.237C127.204 216.799 127.698 216.459 128.283 216.219C128.861 215.979 129.504 215.84 130.213 215.801L133.575 215.618L134.117 225.548ZM130.446 217.195C129.978 217.22 129.562 217.304 129.197 217.445C128.823 217.596 128.51 217.821 128.257 218.121C128.005 218.43 127.818 218.818 127.696 219.285C127.574 219.76 127.532 220.335 127.568 221.01C127.603 221.651 127.706 222.187 127.878 222.621C128.049 223.054 128.276 223.402 128.559 223.664C128.834 223.927 129.161 224.109 129.54 224.209C129.91 224.319 130.316 224.362 130.757 224.338L132.224 224.258L131.835 217.119L130.446 217.195Z" fill="black"/>
<path d="M122.624 225.885L120.806 225.793L121.233 217.315L116.728 217.088L116.801 215.634L123.124 215.952L122.624 225.885Z" fill="black"/>
<path d="M111.548 219.145L114.042 225.346L112.05 225.045L110.382 220.598L110.356 220.595L107.409 224.343L105.571 224.065L109.769 218.915L110.4 214.737L112.174 215.006L111.548 219.145Z" fill="black"/>
</svg>
