<svg width="202" height="196" viewBox="0 0 202 196" fill="none" xmlns="http://www.w3.org/2000/svg">
<path d="M94.1355 134.017L92.4238 175.988L92.1956 178.497L44.2695 175.189C41.5308 174.961 38.9824 173.764 36.6241 171.597C34.2659 169.43 32.4781 166.94 31.261 164.126C30.4242 162.073 29.8726 159.982 29.6064 157.853C29.3401 155.725 29.4923 153.253 30.0628 150.44C30.6334 147.627 31.0898 145.536 31.4321 144.167C31.7745 142.799 32.5922 140.366 33.8855 136.868C35.1787 133.371 35.9014 131.356 36.0536 130.823C41.9873 131.736 61.3479 132.8 94.1355 134.017ZM49.975 67.183L70.5147 110.408L53.7406 99.9156C48.948 105.39 44.7069 110.884 41.0173 116.396C37.3278 121.908 34.5701 126.661 32.7444 130.652C30.9186 134.644 29.4162 138.237 28.2371 141.43C27.0579 144.624 26.3542 147.019 26.126 148.615L25.6696 151.01L3.98872 110.294C2.69548 108.317 2.01082 106.188 1.93475 103.907C1.85867 101.626 2.08689 99.8396 2.61941 98.547L3.53228 96.4941C6.19485 91.704 10.531 84.5568 16.5408 75.0526L0.56543 65.2442L49.975 67.183ZM190.444 126.147L168.991 167.092C168.079 169.297 166.69 171.064 164.826 172.395C162.963 173.726 161.308 174.505 159.863 174.733L157.809 175.189C152.408 175.721 144.078 176.178 132.819 176.558L133.732 195.262L107.486 153.405L131.563 112.119L132.362 131.85C145.295 133.066 156.059 133.257 164.655 132.42C173.252 131.584 179.718 130.329 184.054 128.656L190.444 126.147ZM100.868 20.7643C97.2925 25.5545 87.2128 42.0919 70.6288 70.3765L34.456 49.049L32.288 47.6803L57.9627 7.07825C59.4841 4.7212 61.7663 3.01043 64.8092 1.94596C67.8522 0.881484 70.8951 0.501314 73.938 0.80545C75.7638 0.957517 77.6086 1.41372 79.4724 2.17406C81.3361 2.9344 82.9337 3.73275 84.265 4.56913C85.5962 5.4055 87.1748 6.66006 89.0005 8.33281C90.8263 10.0056 92.1956 11.3171 93.1085 12.2676C94.0213 13.218 95.3907 14.7197 97.2164 16.7726C99.0422 18.8255 100.259 20.1561 100.868 20.7643ZM175.61 55.778L199.801 97.1784C201.17 99.9917 201.646 102.881 201.227 105.846C200.809 108.812 199.763 111.625 198.089 114.286C197.101 115.807 195.845 117.213 194.324 118.506C192.802 119.799 191.357 120.863 189.988 121.699C188.618 122.536 186.774 123.372 184.453 124.208C182.133 125.045 180.345 125.653 179.09 126.033C177.835 126.413 175.876 126.946 173.214 127.63C170.551 128.314 168.801 128.771 167.964 128.999C165.378 123.524 155.298 106.949 137.725 79.2724L173.442 57.0325L175.61 55.778ZM159.292 30.0025L175.496 20.5362L150.392 63.0772L102.58 60.7962L119.81 50.9878C117.224 44.2208 114.371 37.91 111.252 32.0554C108.133 26.2008 105.261 21.5057 102.637 17.9701C100.012 14.4345 97.5588 11.3932 95.2766 8.84603C92.9944 6.2989 91.2066 4.53111 89.9134 3.54267L87.9735 2.06001L134.188 2.17406C136.546 1.94596 138.752 2.34514 140.806 3.37159C142.86 4.39805 144.344 5.48153 145.257 6.62204L146.512 8.33281C149.479 12.9709 153.739 20.1941 159.292 30.0025Z" fill="#058C42"/>
</svg>
