<svg width="48" height="67" viewBox="0 0 48 67" fill="none" xmlns="http://www.w3.org/2000/svg">
<path d="M7.22594 21.6177H2.50445V18.9652H3.08801C4.60878 18.9652 5.77589 18.6115 6.58933 17.9042C7.33204 17.2322 7.72107 16.1712 7.75644 14.7211H11.1517V37.5859H7.22594V21.6177ZM27.9156 39.867C27.951 37.4267 28.729 35.5346 30.2498 34.1906C31.806 32.8467 33.8572 32.1747 36.4037 32.1747C37.8183 32.1747 39.0208 32.3515 40.0111 32.7052C41.0367 33.0589 41.8678 33.5363 42.5044 34.1376C43.1764 34.7035 43.6539 35.3754 43.9368 36.1535C44.2551 36.8962 44.4143 37.692 44.4143 38.5408C44.4143 39.3542 44.3082 40.0969 44.096 40.7689C43.8838 41.4409 43.5478 42.0951 43.088 42.7317C42.6636 43.3683 42.0977 44.0226 41.3904 44.6946C40.7184 45.3666 39.905 46.127 38.9501 46.9758L33.3798 51.9625V52.0156H44.8387V55.3047H27.7034V52.6522L35.9262 45.0129C37.3409 43.7751 38.4019 42.6964 39.1092 41.7768C39.8519 40.8573 40.2233 39.8493 40.2233 38.753C40.2233 37.7273 39.8696 36.8962 39.1623 36.2596C38.4903 35.623 37.5354 35.3047 36.2976 35.3047C35.7317 35.3047 35.1835 35.3931 34.653 35.5699C34.1579 35.7114 33.6981 35.959 33.2737 36.3126C32.8846 36.6663 32.5663 37.1438 32.3188 37.745C32.1066 38.3109 32.0005 39.0182 32.0005 39.867H27.9156ZM33.592 13.8723H37.7299L8.71135 57.4267H4.57342L33.592 13.8723Z" fill="black"/>
</svg>
