<svg width="48" height="67" viewBox="0 0 48 67" fill="none" xmlns="http://www.w3.org/2000/svg">
<path d="M7.09823 21.6177H2.37674V18.9652H2.9603C4.48107 18.9652 5.64818 18.6115 6.46162 17.9042C7.20433 17.2322 7.59336 16.1712 7.62873 14.7211H11.024V37.5859H7.09823V21.6177ZM33.7295 45.2782V42.2012H35.7985C36.9302 42.2012 37.8851 41.8829 38.6632 41.2463C39.4413 40.5744 39.8303 39.7256 39.8303 38.6999C39.8303 37.6389 39.4413 36.8078 38.6632 36.2065C37.8851 35.6053 36.9302 35.3047 35.7985 35.3047C33.0752 35.3047 31.6606 36.5779 31.5545 39.1243H27.5226C27.5226 38.2401 27.6818 37.3913 28.0001 36.5779C28.3538 35.7291 28.8666 34.9864 29.5385 34.3498C30.2459 33.6778 31.1124 33.1473 32.138 32.7583C33.199 32.3692 34.4545 32.1747 35.9046 32.1747C38.451 32.1747 40.4139 32.7583 41.7932 33.9254C43.1725 35.0925 43.8622 36.5425 43.8622 38.2755C43.8622 39.478 43.4908 40.539 42.7481 41.4585C42.0054 42.3427 41.0151 42.997 39.7773 43.4214V43.5275C41.0858 43.8104 42.1999 44.4117 43.1194 45.3312C44.039 46.2154 44.4988 47.4886 44.4988 49.1508C44.4988 50.035 44.3042 50.8838 43.9152 51.6973C43.5615 52.4753 43.0133 53.1827 42.2706 53.8193C41.5279 54.4205 40.6084 54.898 39.512 55.2516C38.451 55.6053 37.2132 55.7821 35.7985 55.7821C34.2777 55.7821 32.9691 55.5876 31.8728 55.1986C30.8118 54.8096 29.9276 54.2967 29.2202 53.6601C28.5483 52.9882 28.0354 52.2454 27.6818 51.432C27.3281 50.5832 27.1336 49.699 27.0982 48.7795H31.1831C31.3599 50.0881 31.8904 51.0607 32.7746 51.6973C33.6588 52.3339 34.7198 52.6522 35.9576 52.6522C37.2309 52.6522 38.3095 52.3162 39.1937 51.6442C40.0779 50.9369 40.52 50.035 40.52 48.9386C40.52 47.7715 40.1133 46.8697 39.2998 46.2331C38.5217 45.5965 37.4077 45.2782 35.9576 45.2782H33.7295ZM32.8277 13.8723H36.9656L7.94703 57.4267H3.8091L32.8277 13.8723Z" fill="black"/>
</svg>
