<svg width="240" height="240" viewBox="0 0 240 240" fill="none" xmlns="http://www.w3.org/2000/svg">
<circle cx="119.332" cy="119.356" r="112" stroke="black" stroke-width="2"/>
<circle cx="119.332" cy="119.356" r="81" stroke="black" stroke-width="2"/>
<path d="M128.77 215.035L132.24 219.568L130.154 219.737L127.809 216.535L127.783 216.537L125.904 220.079L123.999 220.233L126.728 215.265L122.901 210.344L125.039 210.172L127.701 213.739L127.714 213.738L129.795 209.788L131.687 209.636L128.77 215.035Z" fill="#FBD914"/>
<path d="M117.821 213.843L117.914 210.295L119.733 210.343L119.474 220.284L116.173 220.198C115.653 220.185 115.174 220.111 114.735 219.979C114.288 219.854 113.903 219.658 113.58 219.389C113.257 219.129 113.01 218.798 112.839 218.395C112.659 217.991 112.576 217.508 112.59 216.945C112.605 216.373 112.718 215.882 112.928 215.471C113.129 215.069 113.407 214.742 113.76 214.491C114.104 214.24 114.512 214.06 114.983 213.951C115.454 213.842 115.958 213.794 116.496 213.808L117.821 213.843ZM116.369 215.158C115.754 215.141 115.278 215.285 114.941 215.588C114.595 215.891 114.413 216.355 114.397 216.979C114.38 217.637 114.537 218.109 114.867 218.395C115.189 218.69 115.649 218.845 116.247 218.861L117.689 218.898L117.786 215.194L116.369 215.158Z" fill="#FBD914"/>
<path d="M108.401 212.151L111.059 219.979L109.099 219.726L107.606 215.155C107.505 214.853 107.423 214.572 107.361 214.31C107.327 214.166 107.293 214.026 107.258 213.891L107.232 213.887C107.164 214.009 107.095 214.136 107.026 214.267C106.967 214.382 106.903 214.504 106.834 214.635C106.756 214.765 106.678 214.895 106.6 215.025L104.148 219.086L102.356 218.854L106.618 211.946C106.884 211.509 107.142 211.136 107.392 210.827C107.633 210.518 107.892 210.272 108.169 210.089C108.446 209.906 108.75 209.784 109.082 209.722C109.404 209.659 109.781 209.655 110.21 209.711C110.374 209.732 110.511 209.754 110.621 209.777C110.732 209.8 110.82 209.825 110.887 209.851C110.971 209.879 111.041 209.91 111.098 209.943L110.904 211.439C110.888 211.428 110.818 211.397 110.694 211.346C110.568 211.304 110.394 211.268 110.17 211.239C109.775 211.188 109.446 211.229 109.184 211.361C108.914 211.492 108.663 211.739 108.433 212.102L108.401 212.151Z" fill="#FBD914"/>
<path d="M100.307 208.244L102.076 208.675L99.7197 218.337L92.0027 216.456L94.3586 206.794L96.1268 207.225L94.1158 215.472L98.2964 216.491L100.307 208.244Z" fill="#FBD914"/>
<path d="M88.3374 210.82L87.4349 210.487L83.0811 213.383L81.2153 212.694L86.1909 209.39L84.3799 203.261L86.4165 204.013L87.9149 209.112L88.8418 209.454L90.3189 205.454L92.0262 206.085L88.5811 215.414L86.8738 214.783L88.3374 210.82Z" fill="#FBD914"/>
<path d="M79.76 206.603C79.379 207.352 78.9389 207.96 78.4396 208.425C77.9365 208.899 77.4071 209.232 76.8516 209.426C76.2843 209.624 75.7006 209.692 75.1002 209.63C74.4959 209.575 73.9002 209.399 73.3131 209.1C72.7028 208.79 72.1956 208.411 71.7916 207.962C71.3877 207.514 71.1023 207.004 70.9356 206.433C70.765 205.87 70.7265 205.248 70.8202 204.566C70.91 203.892 71.1473 203.177 71.5323 202.42C71.9172 201.663 72.3593 201.051 72.8585 200.586C73.35 200.116 73.8755 199.781 74.435 199.579C74.9906 199.385 75.5705 199.315 76.1748 199.37C76.7751 199.432 77.3766 199.616 77.9792 199.922C78.6049 200.241 79.1237 200.626 79.5354 201.078C79.9393 201.527 80.2247 202.036 80.3914 202.607C80.5504 203.174 80.5811 203.793 80.4836 204.462C80.3861 205.132 80.1449 205.846 79.76 206.603ZM77.378 201.134C76.6441 200.76 75.9155 200.75 75.1922 201.101C74.4689 201.453 73.8265 202.181 73.2648 203.286C72.982 203.842 72.7906 204.362 72.6904 204.846C72.5903 205.33 72.5757 205.77 72.6467 206.166C72.71 206.558 72.8511 206.902 73.07 207.198C73.289 207.494 73.5761 207.732 73.9315 207.913C74.6577 208.282 75.3766 208.293 76.0882 207.945C76.7999 207.597 77.4463 206.851 78.0276 205.708C78.5971 204.587 78.8205 203.641 78.6978 202.869C78.5673 202.093 78.1274 201.515 77.378 201.134Z" fill="#FBD914"/>
<path d="M66.4957 205.085L61.0728 201.525L61.8576 200.33L65.759 202.891L67.3072 200.532L63.6557 198.135L64.4262 196.962L68.0777 199.359L69.6543 196.957L65.666 194.339L66.4436 193.154L71.9534 196.771L66.4957 205.085Z" fill="#FBD914"/>
<path d="M60.2893 188.169L61.6434 189.385L54.9989 196.785L50.4238 192.676L51.3792 191.612L54.6002 194.505L56.6934 192.174L53.6852 189.472L54.6233 188.428L57.6315 191.129L60.2893 188.169Z" fill="#FBD914"/>
<path d="M48.6491 184.121C48.4803 183.935 48.2977 183.779 48.1014 183.653C47.9051 183.527 47.7002 183.449 47.4869 183.42C47.2677 183.385 47.0459 183.405 46.8214 183.48C46.5846 183.554 46.3506 183.696 46.1195 183.906C45.9012 184.104 45.75 184.311 45.6658 184.528C45.5751 184.75 45.5399 184.97 45.56 185.185C45.5743 185.395 45.6318 185.6 45.7324 185.801C45.833 186.002 45.9619 186.19 46.1191 186.363L47.3242 187.692L49.828 185.422L48.6491 184.121ZM49.6226 183.221L50.8103 184.531L53.7282 181.885L54.9508 183.233L47.5838 189.914L45.0338 187.102C44.8126 186.858 44.6109 186.59 44.4288 186.299C44.2467 186.008 44.1051 185.703 44.0041 185.385C43.8618 184.906 43.8423 184.427 43.9455 183.947C44.0423 183.473 44.3314 183.018 44.8129 182.581C45.1275 182.296 45.4411 182.093 45.7537 181.974C46.0599 181.86 46.3602 181.804 46.6546 181.806C46.9432 181.802 47.2175 181.84 47.4774 181.92C47.7373 182 47.9747 182.101 48.1897 182.222L48.209 182.204L49.9032 177.667L51.2393 179.14L49.6226 183.221Z" fill="#FBD914"/>
<path d="M39.7008 177.988C39.7269 177.98 39.8692 177.925 40.1275 177.824C40.3737 177.721 40.6799 177.612 41.046 177.497L44.1837 176.511L42.5003 174.183L40.5813 176.854C40.4674 177.022 40.3565 177.172 40.2484 177.303C40.1334 177.44 40.0368 177.558 39.9588 177.657C39.8597 177.772 39.7686 177.875 39.6855 177.967L39.7008 177.988ZM43.3399 173.015L45.5564 176.08L48.0455 175.307L49.0662 176.719L38.9581 179.712L37.7546 178.048L43.7419 169.355L44.854 170.893L43.3399 173.015Z" fill="#FBD914"/>
<path d="M32.473 167.377C32.9083 168.156 33.5314 168.587 34.3423 168.671C35.1489 168.746 36.0856 168.486 37.1524 167.89C38.2874 167.256 39.0055 166.587 39.3069 165.882C39.6041 165.17 39.5477 164.447 39.1378 163.714C38.7574 163.033 38.2724 162.609 37.6827 162.442C37.0855 162.279 36.4266 162.379 35.7061 162.742L35.5522 162.813L36.7884 165.026L35.5968 165.692L33.53 161.992L38.0697 159.456L38.7861 160.738L37.5831 161.41L37.6021 161.444C38.1063 161.441 38.6151 161.578 39.1284 161.857C39.6299 162.133 40.0666 162.604 40.4385 163.27C40.7682 163.86 40.9678 164.448 41.0374 165.035C41.1027 165.614 41.037 166.172 40.8405 166.708C40.6439 167.245 40.3218 167.753 39.8743 168.231C39.4191 168.713 38.8398 169.151 38.1361 169.544C37.4324 169.937 36.7457 170.192 36.0759 170.308C35.3943 170.421 34.7575 170.409 34.1654 170.273C33.5733 170.137 33.0319 169.879 32.5411 169.498C32.0503 169.117 31.6379 168.628 31.304 168.03C30.7504 167.039 30.5336 166.117 30.6537 165.266C30.7695 164.407 31.2216 163.688 32.0098 163.109L32.91 164.72C32.4975 165.03 32.2517 165.426 32.1729 165.907C32.094 166.387 32.1941 166.877 32.473 167.377Z" fill="#FBD914"/>
<path d="M27.9032 160.861L27.1628 159.198L36.2477 155.153L36.9881 156.815L27.9032 160.861Z" fill="#FBD914"/>
<path d="M25.9955 156.473L25.3876 154.758L33.3891 151.922L31.8824 147.67L33.2548 147.184L35.3694 153.151L25.9955 156.473Z" fill="#FBD914"/>
<path d="M22.5958 146.135L21.0409 139.837L22.4292 139.495L23.5479 144.026L26.2866 143.35L25.2397 139.109L26.6027 138.772L27.6497 143.013L30.439 142.324L29.2954 137.692L30.6711 137.353L32.2509 143.752L22.5958 146.135Z" fill="#FBD914"/>
<path d="M24.326 129.026L19.8028 132.508L19.6288 130.422L22.8242 128.068L22.822 128.042L19.2743 126.173L19.1154 124.268L24.0904 126.984L29.0011 123.143L29.1794 125.281L25.6192 127.952L25.6203 127.965L29.5761 130.036L29.7339 131.927L24.326 129.026Z" fill="#FBD914"/>
<path d="M25.4882 118.073L29.0362 118.156L28.9938 119.975L19.0515 119.744L19.1284 116.443C19.1406 115.923 19.2124 115.443 19.344 115.004C19.4672 114.556 19.6625 114.171 19.9301 113.847C20.1891 113.524 20.52 113.276 20.9228 113.103C21.3258 112.922 21.8089 112.838 22.372 112.851C22.9439 112.864 23.4354 112.976 23.8467 113.185C24.2494 113.385 24.5768 113.661 24.8286 114.014C25.0807 114.358 25.2619 114.765 25.3723 115.236C25.4827 115.706 25.5316 116.21 25.5191 116.748L25.4882 118.073ZM24.1696 116.625C24.1839 116.01 24.0389 115.534 23.7347 115.198C23.4307 114.852 22.9667 114.673 22.3429 114.658C21.6844 114.643 21.2126 114.801 20.9275 115.132C20.6339 115.455 20.4801 115.915 20.4662 116.513L20.4325 117.955L24.1365 118.042L24.1696 116.625Z" fill="#FBD914"/>
<path d="M27.1547 108.648L19.3336 111.328L19.5816 109.367L24.1486 107.862C24.4498 107.76 24.731 107.678 24.9923 107.615C25.1364 107.58 25.2762 107.546 25.4117 107.51L25.415 107.485C25.2925 107.417 25.1658 107.348 25.0347 107.279C24.9198 107.221 24.7968 107.157 24.6658 107.089C24.5358 107.011 24.4059 106.933 24.2759 106.856L20.2081 104.415L20.4349 102.622L27.3541 106.865C27.7923 107.13 28.166 107.387 28.4752 107.636C28.7855 107.876 29.0324 108.134 29.2158 108.411C29.3992 108.688 29.5223 108.991 29.5853 109.323C29.6493 109.645 29.6541 110.021 29.5997 110.451C29.5791 110.615 29.5574 110.752 29.5346 110.862C29.5119 110.973 29.4876 111.062 29.4617 111.128C29.4336 111.212 29.4029 111.283 29.3694 111.339L27.8734 111.15C27.8841 111.134 27.9149 111.064 27.9656 110.939C28.0077 110.813 28.0429 110.639 28.0712 110.415C28.1212 110.02 28.0798 109.691 27.9469 109.43C27.815 109.16 27.5671 108.91 27.203 108.681L27.1547 108.648Z" fill="#FBD914"/>
<path d="M31.0386 100.544L30.6124 102.313L20.944 99.9842L22.8043 92.2621L32.4727 94.5914L32.0464 96.3607L23.7935 94.3725L22.7857 98.5559L31.0386 100.544Z" fill="#FBD914"/>
<path d="M28.4301 88.5816L28.7609 87.6782L25.8528 83.3324L26.5367 81.4646L29.8543 86.4311L35.9782 84.6033L35.2317 86.6419L30.1371 88.1544L29.7974 89.0822L33.8014 90.5483L33.1756 92.2573L23.8369 88.8379L24.4627 87.1289L28.4301 88.5816Z" fill="#FBD914"/>
<path d="M32.6233 79.9924C31.8729 79.6135 31.2641 79.1751 30.7971 78.6771C30.3224 78.1753 29.9872 77.6468 29.7918 77.0918C29.5925 76.5251 29.5231 75.9415 29.5836 75.341C29.6363 74.7366 29.8112 74.1404 30.108 73.5524C30.4166 72.9412 30.7946 72.4331 31.2419 72.0279C31.6893 71.6226 32.1981 71.3359 32.7685 71.1676C33.3312 70.9954 33.9535 70.9552 34.6353 71.0471C35.3093 71.135 36.0254 71.3704 36.7836 71.7532C37.5417 72.136 38.1543 72.5764 38.6214 73.0744C39.0923 73.5646 39.4294 74.0892 39.6326 74.6481C39.8281 75.2031 39.8994 75.7828 39.8466 76.3873C39.7861 76.9878 39.6035 77.5898 39.2988 78.1932C38.9824 78.8198 38.5986 79.3396 38.1474 79.7526C37.7 80.1578 37.1912 80.4445 36.6208 80.6128C36.0542 80.7734 35.4359 80.8058 34.7658 80.7102C34.0956 80.6145 33.3815 80.3752 32.6233 79.9924ZM38.0861 77.5954C38.4572 76.8605 38.4659 76.1318 38.1122 75.4095C37.7584 74.6872 37.0284 74.0467 35.9221 73.4881C35.3651 73.2069 34.8445 73.0168 34.3604 72.918C33.8763 72.8192 33.4365 72.8059 33.0409 72.8779C32.6491 72.9423 32.3056 73.0843 32.0101 73.3041C31.7147 73.5239 31.4771 73.8117 31.2974 74.1676C30.9302 74.8948 30.9216 75.6137 31.2715 76.3244C31.6214 77.0351 32.3688 77.6795 33.5138 78.2576C34.6356 78.824 35.5824 79.0448 36.3542 78.9199C37.1299 78.7873 37.7072 78.3458 38.0861 77.5954Z" fill="#FBD914"/>
<path d="M34.1045 66.7238L37.6495 61.2911L38.8471 62.0726L36.2967 65.9811L38.6592 67.5227L41.0462 63.8646L42.222 64.6319L39.835 68.29L42.2411 69.86L44.8483 65.8644L46.035 66.6388L42.4332 72.1586L34.1045 66.7238Z" fill="#FBD914"/>
<path d="M51.0032 60.4709L49.791 61.8284L42.3731 55.2043L46.4688 50.6179L47.5354 51.5704L44.652 54.7993L46.9888 56.8861L49.6818 53.8705L50.729 54.8056L48.0361 57.8213L51.0032 60.4709Z" fill="#FBD914"/>
<path d="M55.0191 48.8196C55.2048 48.6503 55.3605 48.4673 55.4861 48.2706C55.6117 48.074 55.6887 47.8689 55.7169 47.6555C55.7516 47.4362 55.7311 47.2145 55.6556 46.9901C55.5806 46.7535 55.438 46.52 55.2278 46.2894C55.0292 46.0717 54.8214 45.921 54.6044 45.8374C54.3816 45.7474 54.1623 45.7127 53.9467 45.7335C53.7374 45.7484 53.5323 45.8064 53.3313 45.9076C53.1303 46.0087 52.9434 46.1381 52.7705 46.2958L51.4449 47.5046L53.7223 50.0021L55.0191 48.8196ZM55.9222 49.7907L54.6158 50.9819L57.2699 53.8925L55.9251 55.1188L49.2241 47.7703L52.029 45.2126C52.2724 44.9907 52.5394 44.7883 52.83 44.6054C53.1206 44.4224 53.4247 44.28 53.7423 44.1781C54.2213 44.0345 54.7008 44.0137 55.1807 44.1156C55.6548 44.211 56.1109 44.4989 56.5488 44.9792C56.835 45.293 57.0383 45.606 57.1589 45.9183C57.2736 46.2242 57.3304 46.5244 57.3291 46.8188C57.3342 47.1074 57.297 47.3817 57.2175 47.6418C57.138 47.902 57.0381 48.1397 56.9178 48.355L56.9353 48.3742L61.4773 50.0559L60.0076 51.3961L55.9222 49.7907Z" fill="#FBD914"/>
<path d="M61.1277 39.8545C61.136 39.8806 61.1911 40.0227 61.293 40.2807C61.3969 40.5267 61.5068 40.8325 61.6228 41.1983L62.6167 44.3333L64.9402 42.6435L62.2641 40.7319C62.0959 40.6185 61.9458 40.5079 61.8139 40.4002C61.6769 40.2855 61.5587 40.1893 61.4593 40.1116C61.3447 40.0128 61.2411 39.922 61.1487 39.8392L61.1277 39.8545ZM66.111 43.4798L63.0515 45.7048L63.8314 48.1918L62.4226 49.2163L59.4016 39.1166L61.0627 37.9085L69.7717 43.8718L68.2367 44.9881L66.111 43.4798Z" fill="#FBD914"/>
<path d="M71.7187 32.5972C70.9406 33.0347 70.5111 33.6589 70.4302 34.47C70.3568 35.2768 70.6196 36.2128 71.2185 37.278C71.8556 38.4112 72.5267 39.1275 73.232 39.427C73.9448 39.7222 74.6676 39.6638 75.4004 39.2518C76.0803 38.8695 76.5029 38.3834 76.6683 37.7933C76.8294 37.1956 76.7276 36.537 76.3628 35.8175L76.2913 35.6638L74.0816 36.9061L73.4127 35.7163L77.1068 33.6393L79.6552 38.1721L78.3747 38.892L77.6994 37.6908L77.6654 37.7099C77.6705 38.2141 77.5342 38.7233 77.2565 39.2373C76.9821 39.7396 76.5125 40.1776 75.8477 40.5514C75.2584 40.8827 74.6706 41.0839 74.0842 41.155C73.5054 41.222 72.9474 41.1579 72.4102 40.9628C71.873 40.7677 71.3646 40.447 70.885 40.0008C70.4012 39.547 69.9618 38.9688 69.5668 38.2662C69.1718 37.5636 68.9154 36.8776 68.7975 36.2082C68.6829 35.5269 68.6927 34.89 68.8269 34.2976C68.9612 33.7051 69.2181 33.1629 69.5978 32.6711C69.9774 32.1792 70.4657 31.7655 71.0625 31.43C72.0521 30.8736 72.9728 30.6543 73.8244 30.772C74.6836 30.8855 75.404 31.3356 75.9854 32.1222L74.3763 33.0269C74.0653 32.6152 73.6693 32.3705 73.1882 32.293C72.7071 32.2155 72.2173 32.3169 71.7187 32.5972Z" fill="#FBD914"/>
<path d="M78.222 28.0096L79.8825 27.2646L83.9532 36.3383L82.2927 37.0833L78.222 28.0096Z" fill="#FBD914"/>
<path d="M82.6043 26.0899L84.3181 25.4773L87.1756 33.4709L91.4234 31.9525L91.9135 33.3235L85.9519 35.4546L82.6043 26.0899Z" fill="#FBD914"/>
<path d="M92.9329 22.6618L99.2265 21.0895L99.5731 22.4769L95.0453 23.608L95.729 26.3449L99.9667 25.2862L100.307 26.6484L96.0693 27.707L96.7656 30.4944L101.394 29.338L101.738 30.7128L95.3433 32.3102L92.9329 22.6618Z" fill="#FBD914"/>
<path d="M110.047 24.3446L106.553 19.8311L108.638 19.6513L111.001 22.8402L111.027 22.8379L112.886 19.2851L114.79 19.121L112.088 24.1034L115.942 29.0035L113.805 29.1878L111.124 25.6349L111.111 25.636L109.052 29.5975L107.161 29.7605L110.047 24.3446Z" fill="#FBD914"/>
<path d="M121.003 25.4768L120.93 29.0251L119.11 28.9877L119.315 19.0448L122.616 19.1126C123.136 19.1233 123.616 19.1939 124.055 19.3243C124.503 19.4462 124.889 19.6405 125.213 19.9072C125.537 20.1652 125.786 20.4954 125.96 20.8978C126.143 21.3003 126.228 21.7831 126.216 22.3463C126.205 22.9182 126.095 23.4101 125.887 23.8219C125.688 24.2252 125.413 24.5533 125.061 24.8061C124.717 25.0591 124.311 25.2414 123.84 25.3531C123.37 25.4648 122.866 25.5151 122.329 25.5041L121.003 25.4768ZM122.447 24.1542C123.063 24.1669 123.538 24.0206 123.874 23.7155C124.218 23.4105 124.397 22.9461 124.41 22.3222C124.423 21.6637 124.264 21.1923 123.931 20.9081C123.608 20.6154 123.147 20.4629 122.55 20.4506L121.107 20.4209L121.031 24.1251L122.447 24.1542Z" fill="#FBD914"/>
<path d="M130.433 27.1174L127.732 19.3036L129.693 19.5462L131.211 24.1091C131.313 24.41 131.397 24.691 131.46 24.9521C131.495 25.0961 131.53 25.2358 131.566 25.3712L131.591 25.3744C131.659 25.2518 131.727 25.1249 131.796 24.9936C131.854 24.8785 131.917 24.7554 131.986 24.6241C132.063 24.494 132.14 24.3638 132.217 24.2336L134.647 20.1591L136.44 20.3809L132.216 27.3118C131.952 27.7507 131.697 28.1251 131.449 28.435C131.209 28.746 130.952 28.9936 130.676 29.1778C130.4 29.3619 130.096 29.4859 129.765 29.5498C129.443 29.6147 129.066 29.6205 128.636 29.5673C128.473 29.5471 128.336 29.5258 128.225 29.5034C128.114 29.4809 128.026 29.4569 127.959 29.4311C127.875 29.4033 127.805 29.3728 127.748 29.3395L127.933 27.8429C127.949 27.8536 128.019 27.8842 128.144 27.9346C128.27 27.9763 128.445 28.011 128.668 28.0387C129.064 28.0876 129.392 28.0453 129.653 27.9117C129.923 27.7791 130.172 27.5305 130.4 27.1658L130.433 27.1174Z" fill="#FBD914"/>
<path d="M138.547 30.9789L136.777 30.5575L139.079 20.8827L146.807 22.7217L144.504 32.3965L142.733 31.9751L144.699 23.7168L140.513 22.7205L138.547 30.9789Z" fill="#FBD914"/>
<path d="M150.503 28.3373L151.407 28.6656L155.745 25.7455L157.615 26.4243L152.657 29.7556L154.502 35.8744L152.461 35.1335L150.935 30.0431L150.006 29.7059L148.551 33.714L146.84 33.0929L150.234 23.7448L151.945 24.3659L150.503 28.3373Z" fill="#FBD914"/>
<path d="M159.103 32.507C159.48 31.7555 159.917 31.1456 160.414 30.6772C160.914 30.2011 161.442 29.8645 161.996 29.6675C162.562 29.4666 163.146 29.3956 163.746 29.4545C164.351 29.5056 164.948 29.6787 165.537 29.974C166.149 30.2809 166.658 30.6575 167.064 31.1037C167.471 31.5499 167.759 32.058 167.929 32.6279C168.102 33.1901 168.144 33.8123 168.054 34.4943C167.968 35.1686 167.735 35.8854 167.354 36.6446C166.973 37.4038 166.535 38.0176 166.038 38.486C165.549 38.9583 165.025 39.2968 164.467 39.5015C163.913 39.6985 163.333 39.7715 162.729 39.7204C162.128 39.6615 161.525 39.4806 160.921 39.1776C160.294 38.8629 159.773 38.4805 159.359 38.0304C158.952 37.5842 158.664 37.0761 158.494 36.5062C158.332 35.9401 158.298 35.3219 158.392 34.6514C158.485 33.981 158.723 33.2662 159.103 32.507ZM161.516 37.9632C162.252 38.3323 162.98 38.3389 163.701 37.9832C164.423 37.6275 165.061 36.8957 165.617 35.7879C165.897 35.2301 166.085 34.709 166.183 34.2246C166.28 33.7403 166.292 33.3004 166.219 32.905C166.154 32.5134 166.011 32.1702 165.79 31.8754C165.569 31.5806 165.281 31.3438 164.925 31.1651C164.196 30.7999 163.477 30.7932 162.768 31.1451C162.058 31.497 161.416 32.2462 160.841 33.3928C160.277 34.5161 160.059 35.4635 160.186 36.2349C160.321 37.0103 160.764 37.5863 161.516 37.9632Z" fill="#FBD914"/>
<path d="M172.376 33.9513L177.818 37.4813L177.04 38.681L173.125 36.1414L171.589 38.5081L175.254 40.8851L174.49 42.063L170.825 39.6861L169.262 42.0964L173.265 44.6927L172.494 45.8815L166.964 42.2949L172.376 33.9513Z" fill="#FBD914"/>
<path d="M178.675 50.8331L177.315 49.6245L183.918 42.1885L188.516 46.2715L187.566 47.3407L184.33 44.4662L182.249 46.8088L185.272 49.4934L184.34 50.5432L181.317 47.8586L178.675 50.8331Z" fill="#FBD914"/>
<path d="M190.338 54.8164C190.508 55.0016 190.691 55.1568 190.888 55.2819C191.085 55.407 191.29 55.4833 191.504 55.511C191.723 55.545 191.945 55.524 192.169 55.4478C192.405 55.3722 192.638 55.2289 192.868 55.0181C193.086 54.8189 193.236 54.6107 193.319 54.3935C193.408 54.1704 193.442 53.9511 193.421 53.7354C193.405 53.5262 193.347 53.3213 193.245 53.1206C193.143 52.9199 193.013 52.7333 192.855 52.5608L191.643 51.2385L189.152 53.5229L190.338 54.8164ZM189.369 55.7221L188.174 54.419L185.271 57.0811L184.041 55.7397L191.371 49.0185L193.936 51.8164C194.159 52.0591 194.362 52.3255 194.546 52.6157C194.73 52.9058 194.873 53.2095 194.976 53.5268C195.121 54.0054 195.143 54.4848 195.042 54.965C194.948 55.4394 194.661 55.8962 194.182 56.3355C193.869 56.6225 193.557 56.8267 193.245 56.9482C192.939 57.0637 192.639 57.1213 192.345 57.1208C192.056 57.1267 191.782 57.0903 191.522 57.0115C191.261 56.9328 191.023 56.8335 190.808 56.7138L190.788 56.7313L189.119 61.2779L187.775 59.8119L189.369 55.7221Z" fill="#FBD914"/>
<path d="M199.32 60.9006C199.294 60.9089 199.152 60.9644 198.894 61.0671C198.648 61.1716 198.343 61.2824 197.977 61.3994L194.845 62.4019L196.541 64.7208L198.445 62.0394C198.558 61.8709 198.669 61.7205 198.776 61.5883C198.89 61.451 198.986 61.3326 199.063 61.2329C199.162 61.118 199.252 61.0142 199.335 60.9216L199.32 60.9006ZM195.708 65.8939L193.475 62.8406L190.99 63.6273L189.961 62.2213L200.053 59.1724L201.265 60.8303L195.326 69.5556L194.206 68.0237L195.708 65.8939Z" fill="#FBD914"/>
<path d="M206.606 71.4713C206.166 70.6944 205.541 70.2666 204.73 70.1879C203.923 70.1168 202.987 70.3821 201.924 70.9839C200.792 71.6242 200.078 72.2973 199.78 73.0034C199.487 73.717 199.547 74.4397 199.961 75.1713C200.346 75.8502 200.833 76.2715 201.423 76.4352C202.022 76.5947 202.68 76.491 203.398 76.1243L203.552 76.0523L202.303 73.8461L203.491 73.1738L205.579 76.8623L201.053 79.4231L200.329 78.1446L201.529 77.466L201.51 77.4321C201.005 77.4385 200.496 77.3036 199.981 77.0273C199.478 76.7543 199.039 76.2859 198.663 75.6222C198.33 75.0338 198.127 74.4466 198.055 73.8604C197.986 73.2818 198.049 72.7236 198.242 72.1858C198.436 71.6481 198.755 71.1388 199.2 70.658C199.652 70.173 200.229 69.732 200.931 69.335C201.632 68.9381 202.318 68.6798 202.987 68.5601C203.668 68.4436 204.305 68.4517 204.898 68.5842C205.49 68.7168 206.033 68.9722 206.526 69.3506C207.019 69.7289 207.434 70.216 207.771 70.8119C208.33 71.8 208.552 72.72 208.437 73.572C208.326 74.4315 207.878 75.1531 207.093 75.7367L206.184 74.1301C206.594 73.8179 206.838 73.4212 206.914 72.9399C206.99 72.4587 206.888 71.9691 206.606 71.4713Z" fill="#FBD914"/>
<path d="M211.212 77.962L211.961 79.6205L202.899 83.7162L202.149 82.0577L211.212 77.962Z" fill="#FBD914"/>
<path d="M213.143 82.3388L213.761 84.0509L205.775 86.9304L207.305 91.174L205.936 91.6678L203.788 85.7122L213.143 82.3388Z" fill="#FBD914"/>
<path d="M216.6 92.6585L218.19 98.9477L216.803 99.2981L215.66 94.7734L212.925 95.4647L213.995 99.6995L212.634 100.044L211.564 95.8087L208.778 96.5127L209.947 101.138L208.573 101.485L206.958 95.0954L216.6 92.6585Z" fill="#FBD914"/>
<path d="M214.964 109.777L219.468 106.27L219.654 108.355L216.471 110.726L216.474 110.752L220.032 112.602L220.201 114.505L215.211 111.817L210.322 115.685L210.132 113.548L213.677 110.857L213.676 110.844L209.709 108.796L209.541 106.905L214.964 109.777Z" fill="#FBD914"/>
<path d="M213.863 120.736L210.314 120.672L210.346 118.853L220.29 119.03L220.231 122.331C220.222 122.851 220.153 123.331 220.023 123.771C219.903 124.219 219.71 124.606 219.444 124.931C219.187 125.255 218.857 125.505 218.455 125.68C218.053 125.864 217.571 125.95 217.007 125.94C216.435 125.93 215.943 125.822 215.531 125.615C215.127 125.417 214.798 125.143 214.544 124.791C214.291 124.449 214.107 124.042 213.994 123.572C213.881 123.102 213.829 122.599 213.839 122.061L213.863 120.736ZM215.189 122.176C215.178 122.792 215.326 123.267 215.632 123.602C215.938 123.945 216.403 124.122 217.027 124.133C217.685 124.145 218.156 123.985 218.439 123.652C218.731 123.327 218.882 122.866 218.893 122.268L218.919 120.826L215.214 120.76L215.189 122.176Z" fill="#FBD914"/>
<path d="M212.248 130.17L220.054 127.448L219.817 129.409L215.258 130.94C214.958 131.044 214.677 131.127 214.416 131.192C214.272 131.227 214.133 131.262 213.997 131.298L213.994 131.324C214.117 131.391 214.244 131.459 214.375 131.527C214.491 131.585 214.614 131.648 214.745 131.716C214.876 131.793 215.006 131.87 215.137 131.947L219.218 134.365L219.001 136.159L212.058 131.954C211.619 131.692 211.244 131.437 210.933 131.19C210.621 130.951 210.373 130.694 210.188 130.419C210.003 130.143 209.878 129.84 209.814 129.509C209.748 129.187 209.741 128.811 209.793 128.381C209.813 128.217 209.834 128.08 209.856 127.969C209.878 127.858 209.902 127.77 209.927 127.703C209.955 127.619 209.985 127.548 210.018 127.491L211.516 127.672C211.505 127.688 211.475 127.759 211.424 127.884C211.383 128.01 211.349 128.185 211.322 128.408C211.274 128.804 211.317 129.132 211.452 129.393C211.585 129.662 211.834 129.911 212.2 130.138L212.248 130.17Z" fill="#FBD914"/>
<path d="M208.409 138.295L208.825 136.523L218.506 138.799L216.689 146.531L207.008 144.256L207.424 142.484L215.688 144.427L216.673 140.238L208.409 138.295Z" fill="#FBD914"/>
<path d="M211.083 150.243L210.757 151.148L213.689 155.478L213.016 157.35L209.671 152.402L203.557 154.263L204.292 152.22L209.379 150.68L209.713 149.75L205.701 148.306L206.318 146.594L215.675 149.962L215.059 151.674L211.083 150.243Z" fill="#FBD914"/>
<path d="M206.937 158.856C207.69 159.23 208.301 159.665 208.771 160.161C209.248 160.66 209.586 161.187 209.785 161.741C209.987 162.306 210.06 162.889 210.003 163.49C209.953 164.095 209.782 164.692 209.488 165.282C209.183 165.895 208.808 166.405 208.363 166.812C207.918 167.22 207.41 167.51 206.841 167.681C206.279 167.856 205.657 167.9 204.975 167.812C204.3 167.728 203.583 167.496 202.823 167.118C202.062 166.739 201.447 166.302 200.978 165.807C200.504 165.319 200.164 164.796 199.958 164.239C199.759 163.685 199.685 163.105 199.734 162.501C199.791 161.9 199.971 161.297 200.272 160.692C200.585 160.063 200.966 159.541 201.415 159.126C201.86 158.718 202.367 158.429 202.937 158.257C203.502 158.094 204.12 158.058 204.791 158.15C205.462 158.242 206.177 158.477 206.937 158.856ZM201.488 161.283C201.121 162.02 201.116 162.748 201.474 163.469C201.832 164.189 202.565 164.826 203.675 165.378C204.233 165.656 204.755 165.843 205.239 165.939C205.724 166.036 206.164 166.047 206.559 165.972C206.95 165.906 207.293 165.762 207.588 165.54C207.882 165.319 208.118 165.03 208.295 164.673C208.659 163.944 208.663 163.225 208.309 162.516C207.956 161.807 207.205 161.167 206.057 160.595C204.932 160.035 203.984 159.82 203.213 159.949C202.438 160.086 201.863 160.53 201.488 161.283Z" fill="#FBD914"/>
<path d="M205.529 172.132L202.014 177.584L200.813 176.809L203.341 172.887L200.97 171.358L198.604 175.029L197.424 174.268L199.79 170.597L197.376 169.04L194.791 173.05L193.6 172.283L197.171 166.743L205.529 172.132Z" fill="#FBD914"/>
<path d="M188.666 178.478L189.87 177.114L197.325 183.697L193.254 188.306L192.182 187.359L195.048 184.114L192.7 182.041L190.023 185.071L188.971 184.142L191.647 181.111L188.666 178.478Z" fill="#FBD914"/>
<path d="M184.714 190.151C184.529 190.322 184.374 190.506 184.25 190.703C184.125 190.9 184.05 191.106 184.022 191.319C183.989 191.539 184.011 191.76 184.087 191.984C184.164 192.22 184.308 192.453 184.519 192.683C184.719 192.899 184.927 193.049 185.145 193.131C185.368 193.22 185.588 193.253 185.803 193.232C186.012 193.215 186.217 193.156 186.418 193.054C186.618 192.952 186.804 192.821 186.976 192.663L188.295 191.447L186.004 188.962L184.714 190.151ZM183.805 189.185L185.105 187.987L182.435 185.091L183.773 183.857L190.515 191.169L187.724 193.742C187.482 193.965 187.216 194.169 186.926 194.353C186.637 194.538 186.333 194.682 186.016 194.786C185.538 194.932 185.059 194.955 184.578 194.856C184.104 194.763 183.646 194.478 183.205 194C182.917 193.688 182.712 193.376 182.59 193.064C182.474 192.759 182.415 192.459 182.415 192.165C182.408 191.876 182.444 191.602 182.522 191.341C182.6 191.081 182.699 190.842 182.818 190.626L182.8 190.607L178.249 188.951L179.711 187.602L183.805 189.185Z" fill="#FBD914"/>
<path d="M178.655 199.15C178.646 199.124 178.59 198.982 178.487 198.725C178.382 198.479 178.27 198.174 178.152 197.809L177.141 194.679L174.827 196.382L177.514 198.279C177.682 198.391 177.833 198.501 177.966 198.608C178.103 198.722 178.222 198.817 178.322 198.895C178.437 198.993 178.541 199.083 178.634 199.165L178.655 199.15ZM173.651 195.552L176.699 193.31L175.905 190.828L177.308 189.795L180.385 199.878L178.73 201.096L169.989 195.18L171.518 194.056L173.651 195.552Z" fill="#FBD914"/>
<path d="M168.104 206.466C168.88 206.024 169.306 205.397 169.382 204.586C169.451 203.778 169.183 202.844 168.578 201.782C167.935 200.652 167.26 199.94 166.553 199.644C165.839 199.353 165.116 199.415 164.386 199.831C163.708 200.217 163.288 200.706 163.126 201.297C162.968 201.895 163.073 202.553 163.442 203.271L163.514 203.424L165.717 202.17L166.393 203.356L162.71 205.453L160.137 200.934L161.413 200.208L162.095 201.405L162.129 201.386C162.121 200.881 162.255 200.372 162.53 199.856C162.801 199.352 163.268 198.912 163.931 198.534C164.519 198.2 165.105 197.995 165.691 197.921C166.27 197.851 166.828 197.912 167.366 198.104C167.905 198.296 168.415 198.614 168.897 199.057C169.383 199.509 169.826 200.084 170.225 200.785C170.623 201.485 170.884 202.17 171.005 202.839C171.124 203.519 171.117 204.156 170.986 204.749C170.855 205.342 170.601 205.886 170.224 206.38C169.847 206.874 169.362 207.29 168.767 207.629C167.78 208.191 166.861 208.415 166.008 208.302C165.148 208.194 164.426 207.747 163.84 206.964L165.444 206.05C165.757 206.46 166.155 206.703 166.636 206.778C167.118 206.853 167.607 206.749 168.104 206.466Z" fill="#FBD914"/>
<path d="M161.626 211.089L159.97 211.843L155.849 202.792L157.505 202.038L161.626 211.089Z" fill="#FBD914"/>
<path d="M157.254 213.033L155.544 213.655L152.643 205.677L148.403 207.219L147.906 205.851L153.855 203.687L157.254 213.033Z" fill="#FBD914"/>
<path d="M146.945 216.518L140.66 218.125L140.306 216.739L144.827 215.583L144.129 212.85L139.897 213.932L139.549 212.572L143.781 211.49L143.069 208.707L138.447 209.888L138.096 208.516L144.481 206.883L146.945 216.518Z" fill="#FBD914"/>
<path d="M134.3 149.987L152.898 143.218L155.605 150.657L110.97 166.902L108.262 159.463L126.86 152.694L118.697 130.265C107.88 133.064 96.5387 127.251 92.6398 116.538C92.2202 115.385 91.9256 114.229 91.7055 113.045L87.6142 91.1555L111.941 82.3019L110.702 92.9043L110.169 97.6898L117.609 94.9822L116.117 107.783L115.584 112.568L123.805 109.577L124.485 123.019L129.462 105.791L130.925 100.667L122.555 103.713L124.047 90.9121L124.58 86.1267L117.14 88.8342L118.152 80.0411L124.811 77.6179L135.783 97.0029C136.45 98.0241 136.856 99.1399 137.276 100.293C141.174 111.006 136.223 122.749 126.137 127.557L134.3 149.987Z" fill="black"/>
</svg>
