<svg width="1000" height="386" viewBox="0 0 1000 386" fill="none" xmlns="http://www.w3.org/2000/svg">
<path d="M37.3465 24.6548C37.3111 24.7256 37.2404 24.9201 37.1343 25.2384C37.0635 25.5567 36.9398 25.9634 36.7629 26.4585C36.6215 26.9183 36.4623 27.4311 36.2855 27.997C36.1086 28.5629 35.9141 29.1287 35.7019 29.6946L30.6621 44.2304H44.1369L39.0441 29.6946C38.8319 29.0934 38.6197 28.4921 38.4075 27.8909C38.2307 27.2897 38.0715 26.7415 37.93 26.2463C37.7532 25.6805 37.594 25.15 37.4526 24.6548H37.3465ZM45.5162 48.2092H29.2828L25.0918 60.3047H20.1582L34.5879 19.7211H40.4234L55.0123 60.3047H49.7603L45.5162 48.2092Z" fill="black"/>
<path d="M37.3465 332.347C37.3111 332.418 37.2404 332.612 37.1343 332.931C37.0635 333.249 36.9398 333.656 36.7629 334.151C36.6215 334.611 36.4623 335.124 36.2855 335.689C36.1086 336.255 35.9141 336.821 35.7019 337.387L30.6621 351.923H44.1369L39.0441 337.387C38.8319 336.786 38.6197 336.185 38.4075 335.583C38.2307 334.982 38.0715 334.434 37.93 333.939C37.7532 333.373 37.594 332.842 37.4526 332.347H37.3465ZM45.5162 355.902H29.2828L25.0918 367.997H20.1582L34.5879 327.414H40.4234L55.0123 367.997H49.7603L45.5162 355.902ZM39.4154 324.124H35.6489L30.6621 317.069H36.2324L39.4154 324.124Z" fill="black"/>
<path d="M114.27 332.347C114.234 332.418 114.164 332.612 114.058 332.931C113.987 333.249 113.863 333.656 113.686 334.151C113.545 334.611 113.386 335.124 113.209 335.689C113.032 336.255 112.837 336.821 112.625 337.387L107.585 351.923H121.06L115.967 337.387C115.755 336.786 115.543 336.185 115.331 335.583C115.154 334.982 114.995 334.434 114.853 333.939C114.677 333.373 114.517 332.842 114.376 332.347H114.27ZM122.44 355.902H106.206L102.015 367.997H97.0815L111.511 327.414H117.347L131.936 367.997H126.684L122.44 355.902ZM115.755 317.069H121.326L116.339 324.124H112.572L115.755 317.069Z" fill="black"/>
<path d="M191.193 332.347C191.157 332.418 191.087 332.612 190.98 332.931C190.91 333.249 190.786 333.656 190.609 334.151C190.468 334.611 190.308 335.124 190.132 335.689C189.955 336.255 189.76 336.821 189.548 337.387L184.508 351.923H197.983L192.89 337.387C192.678 336.786 192.466 336.185 192.254 335.583C192.077 334.982 191.918 334.434 191.776 333.939C191.599 333.373 191.44 332.842 191.299 332.347H191.193ZM199.362 355.902H183.129L178.938 367.997H174.004L188.434 327.414H194.27L208.858 367.997H203.606L199.362 355.902ZM199.787 324.124H195.384L191.405 320.093H191.352L187.373 324.124H183.447L189.124 317.069H194.11L199.787 324.124Z" fill="black"/>
<path d="M268.116 332.347C268.081 332.418 268.01 332.612 267.904 332.931C267.833 333.249 267.709 333.656 267.532 334.151C267.391 334.611 267.232 335.124 267.055 335.689C266.878 336.255 266.684 336.821 266.471 337.387L261.432 351.923H274.906L269.814 337.387C269.601 336.786 269.389 336.185 269.177 335.583C269 334.982 268.841 334.434 268.7 333.939C268.523 333.373 268.364 332.842 268.222 332.347H268.116ZM276.286 355.902H260.052L255.861 367.997H250.928L265.357 327.414H271.193L285.782 367.997H280.53L276.286 355.902ZM258.938 324.124C258.938 323.205 259.044 322.321 259.257 321.472C259.504 320.588 259.858 319.827 260.318 319.191C260.777 318.519 261.361 317.988 262.068 317.599C262.776 317.175 263.589 316.963 264.509 316.963C265.393 316.963 266.206 317.139 266.949 317.493C267.692 317.847 268.381 318.236 269.018 318.66C269.654 319.049 270.238 319.421 270.769 319.774C271.334 320.128 271.847 320.305 272.307 320.305C273.686 320.305 274.517 319.155 274.8 316.856H277.771C277.771 317.776 277.647 318.678 277.4 319.562C277.188 320.411 276.852 321.171 276.392 321.843C275.932 322.515 275.349 323.046 274.641 323.435C273.934 323.824 273.12 324.018 272.201 324.018C271.317 324.018 270.503 323.859 269.761 323.541C269.053 323.187 268.381 322.798 267.745 322.374C267.108 321.949 266.507 321.578 265.941 321.26C265.41 320.906 264.88 320.729 264.349 320.729C263.005 320.729 262.192 321.861 261.909 324.124H258.938Z" fill="black"/>
<path d="M345.039 332.347C345.003 332.418 344.933 332.612 344.827 332.931C344.756 333.249 344.632 333.656 344.455 334.151C344.314 334.611 344.155 335.124 343.978 335.689C343.801 336.255 343.607 336.821 343.394 337.387L338.355 351.923H351.829L346.736 337.387C346.524 336.786 346.312 336.185 346.1 335.583C345.923 334.982 345.764 334.434 345.622 333.939C345.446 333.373 345.286 332.842 345.145 332.347H345.039ZM353.209 355.902H336.975L332.784 367.997H327.851L342.28 327.414H348.116L362.705 367.997H357.453L353.209 355.902ZM348.381 319.138H353.262V324.39H348.381V319.138ZM336.922 319.138H341.803V324.39H336.922V319.138Z" fill="black"/>
<path d="M421.962 332.347C421.927 332.418 421.856 332.612 421.75 332.931C421.679 333.249 421.555 333.656 421.379 334.151C421.237 334.611 421.078 335.124 420.901 335.689C420.724 336.255 420.53 336.821 420.318 337.387L415.278 351.923H428.753L423.66 337.387C423.448 336.786 423.235 336.185 423.023 335.583C422.846 334.982 422.687 334.434 422.546 333.939C422.369 333.373 422.21 332.842 422.068 332.347H421.962ZM430.132 355.902H413.899L409.708 367.997H404.774L419.204 327.414H425.039L439.628 367.997H434.376L430.132 355.902ZM422.121 325.079C420.282 325.079 418.85 324.566 417.824 323.541C416.834 322.48 416.339 321.101 416.339 319.403C416.339 317.705 416.869 316.344 417.93 315.318C419.027 314.257 420.441 313.727 422.174 313.727C424.049 313.727 425.481 314.257 426.471 315.318C427.462 316.344 427.957 317.705 427.957 319.403C427.957 321.101 427.426 322.48 426.365 323.541C425.304 324.566 423.89 325.079 422.121 325.079ZM422.121 316.167C421.308 316.167 420.636 316.467 420.105 317.069C419.61 317.67 419.363 318.448 419.363 319.403C419.363 320.358 419.61 321.136 420.105 321.737C420.601 322.338 421.29 322.639 422.174 322.639C422.988 322.639 423.642 322.338 424.137 321.737C424.668 321.136 424.933 320.358 424.933 319.403C424.933 318.448 424.685 317.67 424.19 317.069C423.695 316.467 423.006 316.167 422.121 316.167Z" fill="black"/>
<path d="M498.627 331.817H494.383L485.258 351.923H498.627V331.817ZM477.991 367.997H472.898L491.571 327.414H524.038V331.817H503.561V345.345H522.341V349.642H503.561V363.594H524.304V367.997H498.627V355.902H483.455L477.991 367.997Z" fill="black"/>
<path d="M36.4128 210.756C37.2969 210.756 38.1988 210.597 39.1183 210.279C40.0732 209.96 40.9397 209.448 41.7178 208.74C42.4959 207.998 43.1325 207.043 43.6276 205.876C44.1228 204.673 44.3703 203.205 44.3703 201.472V200.836C41.3288 200.977 38.9061 201.189 37.1024 201.472C35.3341 201.755 33.9901 202.233 33.0706 202.905C32.0449 203.683 31.5321 204.832 31.5321 206.353C31.5321 207.803 31.9565 208.899 32.8053 209.642C33.6895 210.385 34.892 210.756 36.4128 210.756ZM28.1369 193.833C28.2076 191.357 29.1449 189.359 30.9486 187.838C32.7523 186.282 35.3341 185.504 38.6939 185.504C42.1953 185.504 44.7947 186.3 46.4923 187.891C48.1899 189.483 49.0388 192.153 49.0388 195.902V207.308C49.0388 208.44 49.1979 209.253 49.5162 209.748C49.8699 210.208 50.5595 210.456 51.5852 210.491V214.364H51.0016C48.7735 214.364 47.1997 213.957 46.2801 213.143C45.396 212.33 44.8301 211.092 44.5825 209.43H44.4764C43.7337 211.092 42.5666 212.383 40.9751 213.303C39.419 214.187 37.5976 214.629 35.5109 214.629C32.7169 214.629 30.5419 213.921 28.9857 212.507C27.4296 211.092 26.6515 209.129 26.6515 206.618C26.6515 205.062 26.9875 203.683 27.6594 202.48C28.3314 201.242 29.3924 200.27 30.8425 199.563C32.3279 198.784 34.167 198.236 36.3597 197.918C38.5525 197.6 41.2227 197.387 44.3703 197.281V196.061C44.3703 193.515 43.8929 191.711 42.938 190.65C41.9831 189.589 40.5153 189.059 38.5348 189.059C37.5091 189.059 36.625 189.2 35.8823 189.483C35.1749 189.731 34.5914 190.084 34.1316 190.544C33.6718 191.004 33.3182 191.517 33.0706 192.082C32.8584 192.648 32.7346 193.232 32.6992 193.833H28.1369Z" fill="black"/>
<path d="M23.173 96.645H29.486L47.5231 126.831C47.8768 127.397 48.1774 127.927 48.425 128.422C48.6725 128.882 48.8848 129.289 49.0616 129.642C49.2384 130.067 49.4153 130.456 49.5921 130.809H49.7512V96.645H54.4197V137.229H48.1067L30.1226 107.096C29.7336 106.424 29.3976 105.84 29.1146 105.345C28.8671 104.85 28.6549 104.443 28.478 104.125L28.0006 103.17H27.8945V137.229H23.173V96.645Z" fill="black"/>
<path d="M45.6671 273.833C45.6671 272.807 45.6141 271.799 45.508 270.809C45.4372 269.783 45.1543 268.935 44.6592 268.263C44.164 267.591 43.5274 267.113 42.7493 266.83C42.0066 266.547 41.1755 266.406 40.256 266.406C38.9474 266.406 37.8157 266.6 36.8608 266.989C35.9058 267.378 35.1101 267.927 34.4735 268.634C33.8722 269.341 33.4125 270.19 33.0942 271.18C32.8112 272.135 32.6698 273.179 32.6698 274.31V291.074H27.8952V263.117H32.4045V267.838H32.5106C32.8289 267.131 33.271 266.459 33.8369 265.822C34.4028 265.15 35.0747 264.567 35.8528 264.072C36.6309 263.576 37.4797 263.187 38.3992 262.904C39.3541 262.586 40.3974 262.427 41.5292 262.427C42.8731 262.427 44.0933 262.604 45.1897 262.958C46.286 263.276 47.2233 263.806 48.0013 264.549C48.7794 265.256 49.3806 266.194 49.805 267.361C50.2295 268.528 50.4417 269.942 50.4417 271.605V291.074H45.6671V273.833Z" fill="black"/>
<path d="M102.666 60.3047V19.7211H118.634C120.367 19.7211 121.994 19.9333 123.514 20.3577C125.035 20.7468 126.361 21.348 127.493 22.1615C128.625 22.9749 129.509 24.0005 130.146 25.2384C130.818 26.4762 131.154 27.9263 131.154 29.5885C131.154 32.0642 130.499 34.0624 129.191 35.5832C127.882 37.104 126.061 38.1296 123.727 38.6601V38.7662C125 38.9784 126.167 39.3851 127.228 39.9864C128.289 40.5523 129.208 41.2773 129.986 42.1615C130.765 43.0103 131.366 43.9828 131.79 45.0792C132.215 46.1756 132.427 47.325 132.427 48.5275C132.427 50.8264 132.02 52.7362 131.207 54.2569C130.429 55.7424 129.35 56.9448 127.971 57.8644C126.627 58.7485 125.035 59.3851 123.196 59.7742C121.392 60.1279 119.465 60.3047 117.414 60.3047H102.666ZM117.732 36.8034C118.793 36.8034 119.818 36.6973 120.809 36.4851C121.834 36.2729 122.719 35.9192 123.461 35.4241C124.239 34.8935 124.858 34.2039 125.318 33.3551C125.778 32.4709 126.008 31.3745 126.008 30.066C126.008 27.8378 125.3 26.2287 123.886 25.2384C122.471 24.2127 120.632 23.6999 118.368 23.6999H107.599V36.8034H117.732ZM117.467 56.3259C118.952 56.3259 120.296 56.2021 121.498 55.9546C122.701 55.6716 123.727 55.2118 124.575 54.5752C125.46 53.9386 126.131 53.1075 126.591 52.0819C127.051 51.0209 127.281 49.73 127.281 48.2092C127.281 45.5213 126.379 43.6292 124.575 42.5328C122.772 41.4364 120.261 40.8882 117.042 40.8882H107.599V56.3259H117.467Z" fill="black"/>
<path d="M104.74 172.348H109.515V190.809H109.568C110.346 189.288 111.478 188.033 112.963 187.043C114.449 186.017 116.252 185.504 118.374 185.504C119.86 185.504 121.274 185.752 122.618 186.247C123.998 186.742 125.2 187.555 126.226 188.687C127.251 189.784 128.065 191.251 128.666 193.09C129.303 194.894 129.621 197.122 129.621 199.775C129.621 202.321 129.32 204.549 128.719 206.459C128.118 208.334 127.287 209.89 126.226 211.127C125.2 212.365 123.98 213.303 122.565 213.939C121.186 214.54 119.701 214.841 118.109 214.841C117.013 214.841 116.005 214.7 115.085 214.417C114.166 214.134 113.335 213.762 112.592 213.303C111.884 212.807 111.248 212.259 110.682 211.658C110.152 211.021 109.709 210.367 109.356 209.695H109.25V214.151H104.74V172.348ZM117.366 211.074C119.877 211.074 121.734 210.12 122.937 208.21C124.175 206.265 124.793 203.453 124.793 199.775C124.793 198.289 124.67 196.91 124.422 195.637C124.175 194.364 123.768 193.267 123.202 192.348C122.636 191.393 121.858 190.65 120.868 190.12C119.913 189.589 118.728 189.324 117.313 189.324C116.04 189.324 114.908 189.571 113.918 190.066C112.963 190.526 112.132 191.181 111.425 192.029C110.753 192.843 110.24 193.798 109.886 194.894C109.533 195.955 109.356 197.069 109.356 198.236V201.207C109.356 202.586 109.515 203.877 109.833 205.08C110.187 206.282 110.7 207.326 111.372 208.21C112.044 209.094 112.875 209.801 113.865 210.332C114.855 210.827 116.022 211.074 117.366 211.074Z" fill="black"/>
<path d="M96.9353 117.069C96.9353 113.427 97.4305 110.297 98.4207 107.679C99.411 105.027 100.737 102.852 102.4 101.154C104.062 99.4213 105.989 98.1481 108.182 97.3346C110.375 96.4858 112.674 96.0614 115.079 96.0614C117.554 96.0614 119.888 96.4858 122.081 97.3346C124.309 98.1481 126.255 99.4213 127.917 101.154C129.579 102.852 130.905 105.027 131.896 107.679C132.886 110.297 133.381 113.427 133.381 117.069C133.381 120.677 132.886 123.807 131.896 126.459C130.941 129.112 129.614 131.305 127.917 133.038C126.255 134.735 124.309 136.008 122.081 136.857C119.888 137.671 117.554 138.077 115.079 138.077C112.568 138.077 110.216 137.671 108.023 136.857C105.83 136.008 103.903 134.735 102.24 133.038C100.613 131.305 99.3226 129.112 98.3677 126.459C97.4128 123.807 96.9353 120.677 96.9353 117.069ZM115.079 134.099C116.988 134.099 118.739 133.727 120.331 132.984C121.957 132.242 123.337 131.163 124.468 129.748C125.636 128.298 126.537 126.512 127.174 124.39C127.846 122.268 128.182 119.846 128.182 117.122C128.182 114.328 127.864 111.87 127.227 109.748C126.59 107.626 125.689 105.84 124.522 104.39C123.39 102.94 122.01 101.844 120.384 101.101C118.792 100.358 117.024 99.9871 115.079 99.9871C113.169 99.9871 111.418 100.341 109.827 101.048C108.27 101.755 106.909 102.834 105.742 104.284C104.61 105.699 103.726 107.485 103.089 109.642C102.453 111.764 102.134 114.258 102.134 117.122C102.134 119.881 102.435 122.321 103.036 124.443C103.673 126.565 104.557 128.351 105.689 129.801C106.82 131.216 108.182 132.295 109.774 133.038C111.365 133.745 113.133 134.099 115.079 134.099Z" fill="black"/>
<path d="M116.206 291.764C114.155 291.764 112.351 291.41 110.795 290.703C109.239 289.996 107.93 289.005 106.869 287.732C105.844 286.423 105.066 284.867 104.535 283.064C104.005 281.26 103.739 279.262 103.739 277.069C103.739 274.912 104.022 272.931 104.588 271.127C105.189 269.324 106.02 267.785 107.082 266.512C108.178 265.203 109.504 264.195 111.06 263.488C112.616 262.781 114.367 262.427 116.312 262.427C118.399 262.427 120.22 262.781 121.776 263.488C123.333 264.195 124.623 265.203 125.649 266.512C126.71 267.785 127.488 269.324 127.983 271.127C128.514 272.931 128.779 274.912 128.779 277.069C128.779 279.262 128.496 281.26 127.93 283.064C127.364 284.867 126.533 286.423 125.437 287.732C124.341 289.005 123.014 289.996 121.458 290.703C119.902 291.41 118.151 291.764 116.206 291.764ZM116.259 266.087C113.713 266.087 111.803 267.06 110.53 269.005C109.292 270.95 108.673 273.638 108.673 277.069C108.673 280.5 109.274 283.187 110.477 285.133C111.679 287.078 113.642 288.05 116.365 288.05C118.982 288.05 120.875 287.078 122.042 285.133C123.244 283.187 123.845 280.5 123.845 277.069C123.845 273.638 123.244 270.95 122.042 269.005C120.875 267.06 118.947 266.087 116.259 266.087Z" fill="black"/>
<path d="M194.278 23.1164C192.192 23.1164 190.335 23.5231 188.708 24.3365C187.116 25.15 185.772 26.2994 184.676 27.7848C183.615 29.2702 182.802 31.0562 182.236 33.1429C181.67 35.2295 181.387 37.5461 181.387 40.0925C181.387 42.7096 181.67 45.0792 182.236 47.2012C182.802 49.2879 183.633 51.0739 184.729 52.5593C185.825 54.0094 187.169 55.1234 188.761 55.9015C190.352 56.6796 192.156 57.0686 194.172 57.0686C195.976 57.0686 197.514 56.8034 198.787 56.2729C200.061 55.707 201.122 54.982 201.97 54.0978C202.819 53.1783 203.474 52.1703 203.933 51.0739C204.393 49.9422 204.694 48.7928 204.835 47.6256H209.875C209.698 49.5355 209.221 51.3215 208.443 52.9837C207.665 54.6106 206.586 56.0253 205.207 57.2278C203.863 58.4302 202.253 59.3851 200.379 60.0925C198.54 60.7645 196.471 61.1004 194.172 61.1004C191.52 61.1004 189.079 60.676 186.851 59.8272C184.658 58.9431 182.766 57.6345 181.175 55.9015C179.583 54.1685 178.345 51.9935 177.461 49.3763C176.577 46.7238 176.135 43.6292 176.135 40.0925C176.135 36.8034 176.577 33.8679 177.461 31.2861C178.381 28.669 179.636 26.4585 181.228 24.6548C182.855 22.8511 184.764 21.4718 186.957 20.5169C189.185 19.562 191.626 19.0845 194.278 19.0845C196.011 19.0845 197.744 19.3321 199.477 19.8272C201.245 20.287 202.855 21.0297 204.305 22.0554C205.79 23.081 207.028 24.4073 208.018 26.0341C209.044 27.6256 209.663 29.5531 209.875 31.8166H204.676C204.499 30.791 204.163 29.7653 203.668 28.7397C203.173 27.6787 202.501 26.7415 201.652 25.928C200.803 25.0792 199.76 24.4073 198.522 23.9121C197.32 23.3816 195.905 23.1164 194.278 23.1164Z" fill="black"/>
<path d="M199.43 194.629C199.359 193.921 199.165 193.25 198.847 192.613C198.564 191.941 198.157 191.357 197.626 190.862C197.096 190.332 196.442 189.925 195.664 189.642C194.921 189.324 194.054 189.165 193.064 189.165C191.791 189.165 190.677 189.43 189.722 189.96C188.767 190.491 187.971 191.234 187.335 192.189C186.698 193.143 186.203 194.293 185.849 195.637C185.531 196.981 185.372 198.466 185.372 200.093C185.372 201.72 185.496 203.205 185.743 204.549C186.026 205.893 186.468 207.06 187.069 208.051C187.671 209.005 188.449 209.748 189.404 210.279C190.358 210.809 191.543 211.074 192.958 211.074C194.267 211.074 195.345 210.862 196.194 210.438C197.078 210.013 197.768 209.483 198.263 208.846C198.793 208.21 199.165 207.555 199.377 206.883C199.625 206.176 199.766 205.557 199.801 205.027H204.258C204.081 206.654 203.674 208.086 203.038 209.324C202.401 210.526 201.587 211.534 200.597 212.348C199.607 213.161 198.457 213.762 197.149 214.151C195.84 214.576 194.426 214.788 192.905 214.788C190.889 214.788 189.103 214.452 187.547 213.78C186.026 213.108 184.735 212.153 183.674 210.915C182.613 209.642 181.817 208.121 181.287 206.353C180.756 204.549 180.491 202.533 180.491 200.305C180.491 198.183 180.774 196.22 181.34 194.417C181.906 192.578 182.719 191.004 183.78 189.695C184.877 188.387 186.185 187.361 187.706 186.618C189.262 185.876 191.03 185.504 193.011 185.504C194.39 185.504 195.717 185.681 196.99 186.035C198.298 186.353 199.448 186.883 200.438 187.626C201.464 188.334 202.295 189.271 202.931 190.438C203.603 191.605 203.992 193.002 204.099 194.629H199.43Z" fill="black"/>
<path d="M185.576 121.738V137.229H180.643V96.645H192.844C194.79 96.645 196.611 96.8925 198.309 97.3877C200.042 97.8474 201.527 98.5901 202.765 99.6158C204.003 100.606 204.975 101.897 205.683 103.488C206.425 105.045 206.797 106.919 206.797 109.112C206.797 111.269 206.425 113.144 205.683 114.735C204.975 116.291 203.985 117.6 202.712 118.661C201.439 119.687 199.918 120.465 198.149 120.995C196.416 121.49 194.507 121.738 192.42 121.738H185.576ZM192.42 117.759C195.391 117.759 197.672 117.052 199.263 115.637C200.89 114.187 201.704 112.012 201.704 109.112C201.704 106.07 200.89 103.895 199.263 102.587C197.672 101.278 195.444 100.624 192.579 100.624H185.576V117.759H192.42Z" fill="black"/>
<path d="M186.279 278.13C186.279 279.509 186.438 280.8 186.757 282.003C187.11 283.205 187.623 284.248 188.295 285.133C188.967 286.017 189.798 286.724 190.788 287.255C191.779 287.75 192.946 287.997 194.29 287.997C196.801 287.997 198.658 287.042 199.86 285.133C201.098 283.187 201.717 280.376 201.717 276.698C201.717 275.212 201.593 273.833 201.345 272.56C201.098 271.286 200.691 270.19 200.125 269.271C199.559 268.316 198.781 267.573 197.791 267.042C196.836 266.512 195.651 266.247 194.237 266.247C192.999 266.247 191.885 266.494 190.894 266.989C189.94 267.449 189.108 268.103 188.401 268.952C187.729 269.766 187.199 270.721 186.81 271.817C186.456 272.878 186.279 273.992 186.279 275.159V278.13ZM181.664 263.117H186.279V267.785H186.385C187.199 266.3 188.348 265.044 189.833 264.019C191.354 262.958 193.176 262.427 195.298 262.427C196.783 262.427 198.198 262.675 199.542 263.17C200.921 263.665 202.123 264.478 203.149 265.61C204.175 266.706 204.988 268.174 205.589 270.013C206.226 271.817 206.544 274.045 206.544 276.698C206.544 279.244 206.226 281.472 205.589 283.382C204.988 285.256 204.157 286.813 203.096 288.05C202.07 289.288 200.85 290.225 199.436 290.862C198.056 291.463 196.571 291.764 194.979 291.764C193.954 291.764 192.981 291.622 192.062 291.339C191.177 291.092 190.364 290.756 189.621 290.332C188.879 289.872 188.242 289.359 187.711 288.793C187.181 288.227 186.792 287.626 186.544 286.989H186.438V301.048H181.664V263.117Z" fill="black"/>
<path d="M253.935 19.7211H266.402C269.16 19.7211 271.742 20.0748 274.147 20.7821C276.552 21.4895 278.621 22.6389 280.354 24.2304C282.122 25.7866 283.501 27.8202 284.492 30.3312C285.517 32.8423 286.03 35.9015 286.03 39.5089C286.03 43.081 285.553 46.1756 284.598 48.7928C283.678 51.4099 282.37 53.5673 280.672 55.2649C278.974 56.9625 276.959 58.2357 274.624 59.0845C272.29 59.898 269.744 60.3047 266.985 60.3047H253.935V19.7211ZM266.402 56.0607C268.559 56.0607 270.522 55.7777 272.29 55.2118C274.058 54.6106 275.579 53.6557 276.852 52.3471C278.126 51.0386 279.116 49.3409 279.823 47.2543C280.531 45.1676 280.884 42.6389 280.884 39.6681C280.884 36.8387 280.531 34.4338 279.823 32.4532C279.116 30.4373 278.126 28.8104 276.852 27.5726C275.615 26.2994 274.129 25.3798 272.396 24.814C270.663 24.2481 268.771 23.9652 266.72 23.9652H258.868V56.0607H266.402Z" fill="black"/>
<path d="M276.358 199.085C276.358 197.6 276.164 196.256 275.775 195.053C275.421 193.851 274.908 192.825 274.236 191.976C273.564 191.127 272.751 190.473 271.796 190.013C270.877 189.554 269.869 189.324 268.772 189.324C266.084 189.324 264.104 190.314 262.831 192.295C261.593 194.24 260.974 196.857 260.974 200.146C260.974 201.738 261.098 203.205 261.345 204.549C261.593 205.858 261.999 207.007 262.565 207.998C263.167 208.952 263.945 209.713 264.9 210.279C265.854 210.809 267.022 211.074 268.401 211.074C269.639 211.074 270.735 210.845 271.69 210.385C272.68 209.925 273.511 209.288 274.183 208.475C274.891 207.662 275.421 206.707 275.775 205.61C276.164 204.514 276.358 203.329 276.358 202.056V199.085ZM281.027 214.151H276.465V209.536H276.305C275.563 210.915 274.449 212.153 272.963 213.25C271.478 214.311 269.656 214.841 267.499 214.841C266.014 214.841 264.581 214.593 263.202 214.098C261.823 213.603 260.602 212.79 259.541 211.658C258.516 210.491 257.685 208.988 257.048 207.149C256.412 205.31 256.093 203.046 256.093 200.358C256.093 197.953 256.394 195.831 256.995 193.992C257.596 192.153 258.427 190.615 259.488 189.377C260.549 188.104 261.805 187.149 263.255 186.512C264.74 185.84 266.367 185.504 268.136 185.504C270.258 185.504 271.973 185.999 273.282 186.99C274.625 187.98 275.58 189.129 276.146 190.438H276.252V172.348H281.027V214.151Z" fill="black"/>
<path d="M250.782 117.069C250.782 113.427 251.277 110.297 252.267 107.679C253.257 105.027 254.583 102.852 256.246 101.154C257.908 99.4213 259.835 98.1481 262.028 97.3346C264.221 96.4858 266.52 96.0614 268.925 96.0614C271.4 96.0614 273.735 96.4858 275.927 97.3346C278.156 98.1481 280.101 99.4213 281.763 101.154C283.425 102.852 284.751 105.027 285.742 107.679C286.732 110.297 287.227 113.427 287.227 117.069C287.227 121.137 286.591 124.62 285.317 127.52C284.079 130.42 282.258 132.648 279.853 134.205V134.47C281.94 134.435 283.69 134.859 285.105 135.743C286.555 136.627 287.846 137.954 288.978 139.722L284.946 142.693C283.567 140.641 282.205 139.262 280.861 138.555C279.517 137.847 277.979 137.494 276.246 137.494C275.538 137.494 274.919 137.511 274.389 137.547C273.894 137.618 273.381 137.671 272.85 137.706C272.355 137.777 271.789 137.83 271.153 137.865C270.552 137.936 269.809 137.971 268.925 137.971C266.414 137.971 264.062 137.565 261.869 136.751C259.676 135.938 257.749 134.682 256.087 132.984C254.46 131.252 253.169 129.076 252.214 126.459C251.259 123.807 250.782 120.677 250.782 117.069ZM268.925 134.099C270.835 134.099 272.585 133.763 274.177 133.091C275.804 132.419 277.183 131.393 278.315 130.014C279.482 128.634 280.384 126.884 281.02 124.762C281.692 122.604 282.028 120.058 282.028 117.122C282.028 114.328 281.71 111.87 281.073 109.748C280.437 107.626 279.535 105.84 278.368 104.39C277.236 102.94 275.857 101.844 274.23 101.101C272.638 100.358 270.87 99.9871 268.925 99.9871C267.015 99.9871 265.264 100.341 263.673 101.048C262.117 101.755 260.755 102.834 259.588 104.284C258.456 105.699 257.572 107.485 256.935 109.642C256.299 111.764 255.98 114.258 255.98 117.122C255.98 119.881 256.281 122.321 256.882 124.443C257.519 126.565 258.403 128.351 259.535 129.801C260.667 131.216 262.028 132.295 263.62 133.038C265.211 133.745 266.98 134.099 268.925 134.099Z" fill="black"/>
<path d="M281.027 301.048H276.252V286.83H276.093C275.775 287.467 275.333 288.086 274.767 288.687C274.236 289.253 273.618 289.766 272.91 290.225C272.203 290.685 271.389 291.057 270.47 291.339C269.55 291.622 268.56 291.764 267.499 291.764C266.014 291.764 264.581 291.516 263.202 291.021C261.823 290.526 260.602 289.713 259.541 288.581C258.516 287.449 257.685 285.964 257.048 284.125C256.412 282.286 256.093 280.004 256.093 277.281C256.093 274.876 256.394 272.754 256.995 270.915C257.596 269.076 258.427 267.538 259.488 266.3C260.549 265.026 261.805 264.072 263.255 263.435C264.74 262.763 266.367 262.427 268.136 262.427C270.258 262.427 271.991 262.922 273.335 263.912C274.714 264.903 275.686 266.052 276.252 267.361H276.358V263.117H281.027V301.048ZM268.401 287.997C269.639 287.997 270.735 287.767 271.69 287.308C272.68 286.848 273.511 286.211 274.183 285.398C274.891 284.584 275.421 283.629 275.775 282.533C276.164 281.437 276.358 280.252 276.358 278.979V276.008C276.358 274.522 276.164 273.179 275.775 271.976C275.421 270.774 274.908 269.748 274.236 268.899C273.564 268.05 272.751 267.396 271.796 266.936C270.877 266.477 269.869 266.247 268.772 266.247C266.155 266.247 264.192 267.237 262.884 269.217C261.61 271.163 260.974 273.78 260.974 277.069C260.974 278.66 261.098 280.128 261.345 281.472C261.593 282.781 261.999 283.93 262.565 284.92C263.167 285.875 263.945 286.636 264.9 287.202C265.854 287.732 267.022 287.997 268.401 287.997Z" fill="black"/>
<path d="M333.152 19.7211H359.094V24.1243H338.086V37.6522H357.396V41.9493H338.086V55.9015H359.359V60.3047H333.152V19.7211Z" fill="black"/>
<path d="M352.732 197.387C352.697 196.22 352.555 195.142 352.308 194.151C352.06 193.126 351.653 192.242 351.087 191.499C350.557 190.756 349.85 190.173 348.965 189.748C348.117 189.324 347.091 189.112 345.888 189.112C343.66 189.112 341.927 189.907 340.689 191.499C339.452 193.09 338.691 195.159 338.408 197.706H352.732V197.387ZM357.241 206.83C356.746 209.271 355.508 211.216 353.528 212.666C351.583 214.116 349.107 214.841 346.101 214.841C343.979 214.841 342.122 214.487 340.53 213.78C338.939 213.037 337.613 212.012 336.552 210.703C335.526 209.395 334.748 207.856 334.217 206.088C333.722 204.319 333.475 202.392 333.475 200.305C333.475 198.254 333.74 196.326 334.27 194.523C334.836 192.719 335.65 191.145 336.711 189.801C337.772 188.457 339.063 187.414 340.583 186.671C342.14 185.893 343.926 185.504 345.941 185.504C348.028 185.504 349.814 185.876 351.3 186.618C352.785 187.361 353.987 188.369 354.907 189.642C355.862 190.88 356.552 192.312 356.976 193.939C357.4 195.566 357.613 197.264 357.613 199.032V201.472H338.355C338.497 204.372 339.186 206.724 340.424 208.528C341.697 210.296 343.643 211.181 346.26 211.181C347.427 211.181 348.382 211.039 349.124 210.756C349.903 210.438 350.521 210.066 350.981 209.642C351.476 209.182 351.848 208.705 352.095 208.21C352.343 207.715 352.52 207.255 352.626 206.83H357.241Z" fill="black"/>
<path d="M347.508 115.955C348.711 115.955 349.807 115.814 350.797 115.531C351.823 115.213 352.707 114.735 353.45 114.099C354.192 113.462 354.776 112.648 355.2 111.658C355.625 110.668 355.837 109.483 355.837 108.104C355.837 105.593 355.059 103.736 353.503 102.534C351.982 101.296 350.055 100.677 347.72 100.677H338.171V115.955H347.508ZM347.19 120.04H338.171V137.229H333.238V96.645H347.933C350.868 96.645 353.485 97.2462 355.784 98.4487C357.411 99.3682 358.684 100.624 359.604 102.215C360.559 103.771 361.036 105.717 361.036 108.051C361.036 109.961 360.753 111.57 360.187 112.878C359.621 114.187 358.914 115.283 358.065 116.168C357.216 117.016 356.279 117.688 355.254 118.183C354.228 118.643 353.255 118.997 352.336 119.244V119.351L361.301 137.229H355.572L347.19 120.04Z" fill="black"/>
<path d="M340.669 263.117H345.178V268.369H345.284C345.602 267.626 346.045 266.919 346.61 266.247C347.212 265.539 347.884 264.92 348.626 264.39C349.404 263.859 350.253 263.435 351.173 263.117C352.128 262.763 353.118 262.586 354.144 262.586H354.621V267.573H353.719C351.208 267.573 349.192 268.28 347.671 269.695C346.186 271.074 345.443 273.126 345.443 275.849V291.074H340.669V263.117Z" fill="black"/>
<path d="M417.819 60.3047H412.886V19.7211H437.13V24.1243H417.819V38.7662H435.485V43.0633H417.819V60.3047Z" fill="black"/>
<path d="M424.162 214.151H419.387V189.854H414.294V186.194H419.387V179.934C419.387 177.069 420.148 175.071 421.668 173.939C423.189 172.772 425.258 172.189 427.875 172.189C428.406 172.189 428.919 172.224 429.414 172.295C429.944 172.33 430.422 172.383 430.846 172.454V176.379C430.563 176.309 430.209 176.256 429.785 176.22C429.361 176.185 428.848 176.167 428.247 176.167C426.867 176.167 425.842 176.468 425.17 177.069C424.498 177.67 424.162 178.82 424.162 180.517V186.194H430.846V189.854H424.162V214.151Z" fill="black"/>
<path d="M432.266 107.52C432.16 106.53 431.912 105.575 431.523 104.656C431.17 103.736 430.657 102.94 429.985 102.268C429.313 101.561 428.464 101.013 427.439 100.624C426.448 100.199 425.246 99.9871 423.831 99.9871C422.452 99.9871 421.232 100.182 420.171 100.571C419.11 100.924 418.225 101.419 417.518 102.056C416.811 102.693 416.263 103.435 415.874 104.284C415.52 105.133 415.343 106.035 415.343 106.99C415.343 108.864 415.874 110.35 416.935 111.446C417.996 112.507 419.729 113.267 422.133 113.727L427.863 114.735C429.843 115.089 431.506 115.602 432.85 116.274C434.229 116.91 435.325 117.706 436.139 118.661C436.988 119.58 437.589 120.641 437.943 121.844C438.332 123.046 438.526 124.373 438.526 125.823C438.526 129.536 437.271 132.507 434.759 134.735C432.284 136.928 428.623 138.024 423.778 138.024C421.444 138.024 419.357 137.724 417.518 137.122C415.679 136.521 414.105 135.69 412.797 134.629C411.523 133.533 410.533 132.242 409.826 130.756C409.118 129.271 408.712 127.626 408.606 125.823H413.752C413.893 126.919 414.194 127.962 414.653 128.953C415.113 129.943 415.75 130.827 416.563 131.605C417.412 132.348 418.438 132.949 419.64 133.409C420.843 133.833 422.257 134.045 423.884 134.045C425.688 134.045 427.191 133.851 428.393 133.462C429.631 133.038 430.622 132.472 431.364 131.764C432.142 131.057 432.691 130.226 433.009 129.271C433.327 128.316 433.486 127.308 433.486 126.247C433.486 124.479 432.956 123.011 431.895 121.844C430.869 120.677 429.101 119.881 426.59 119.457L420.913 118.449C418.933 118.095 417.253 117.565 415.874 116.857C414.494 116.15 413.38 115.319 412.531 114.364C411.683 113.409 411.064 112.348 410.675 111.181C410.321 110.014 410.144 108.758 410.144 107.414C410.144 105.787 410.462 104.284 411.099 102.905C411.771 101.49 412.691 100.288 413.858 99.2975C415.06 98.2718 416.51 97.4761 418.208 96.9102C419.905 96.3443 421.798 96.0614 423.884 96.0614C426.042 96.0614 427.934 96.3443 429.561 96.9102C431.187 97.4407 432.549 98.2188 433.645 99.2444C434.777 100.235 435.644 101.437 436.245 102.852C436.846 104.231 437.2 105.787 437.306 107.52H432.266Z" fill="black"/>
<path d="M428.754 270.119C428.613 268.881 428.064 267.891 427.109 267.148C426.155 266.406 424.846 266.034 423.184 266.034C421.521 266.034 420.195 266.459 419.205 267.308C418.215 268.156 417.72 269.235 417.72 270.544C417.72 271.675 418.055 272.542 418.727 273.143C419.435 273.709 420.496 274.116 421.91 274.363L426.208 275C429.108 275.46 431.159 276.326 432.361 277.599C433.564 278.873 434.165 280.712 434.165 283.117C434.165 284.531 433.882 285.787 433.316 286.883C432.786 287.944 432.043 288.846 431.088 289.589C430.133 290.296 428.984 290.827 427.64 291.18C426.296 291.569 424.828 291.764 423.237 291.764C421.787 291.764 420.407 291.587 419.099 291.233C417.826 290.915 416.694 290.42 415.704 289.748C414.749 289.041 413.971 288.139 413.369 287.042C412.768 285.946 412.414 284.655 412.308 283.17H416.977C417.012 283.7 417.136 284.266 417.348 284.867C417.56 285.433 417.896 285.964 418.356 286.459C418.851 286.919 419.488 287.308 420.266 287.626C421.079 287.944 422.105 288.103 423.343 288.103C425.253 288.103 426.756 287.697 427.852 286.883C428.984 286.034 429.55 284.867 429.55 283.382C429.55 282.816 429.497 282.321 429.391 281.897C429.284 281.472 429.072 281.101 428.754 280.782C428.471 280.429 428.029 280.146 427.428 279.934C426.862 279.686 426.101 279.474 425.147 279.297L420.849 278.66C418.338 278.271 416.429 277.493 415.12 276.326C413.847 275.159 413.21 273.355 413.21 270.915C413.21 269.677 413.44 268.545 413.9 267.52C414.36 266.459 415.014 265.557 415.863 264.814C416.747 264.072 417.808 263.488 419.046 263.064C420.319 262.639 421.751 262.427 423.343 262.427C426.384 262.427 428.736 263.099 430.399 264.443C432.096 265.787 433.069 267.679 433.316 270.119H428.754Z" fill="black"/>
<path d="M499.609 23.0633C497.417 23.0633 495.489 23.4877 493.827 24.3365C492.165 25.15 490.768 26.3171 489.636 27.8378C488.54 29.3233 487.708 31.1447 487.143 33.302C486.577 35.4241 486.294 37.776 486.294 40.3577C486.294 45.7689 487.39 49.9245 489.583 52.8246C491.776 55.6893 494.941 57.1217 499.079 57.1217C502.934 57.1217 505.94 56.0607 508.098 53.9386C510.255 51.8166 511.334 48.7574 511.334 44.7609V44.1774H499.609V39.8272H516.161V60.3047H511.864V54.4691H511.652C511.157 55.3533 510.52 56.2021 509.742 57.0156C508.999 57.829 508.098 58.5363 507.037 59.1376C506.011 59.7388 504.808 60.2163 503.429 60.5699C502.085 60.959 500.6 61.1535 498.973 61.1535C496.426 61.1535 494.057 60.7291 491.864 59.8803C489.671 59.0315 487.779 57.7583 486.188 56.0607C484.596 54.3277 483.341 52.1526 482.421 49.5355C481.537 46.8829 481.095 43.7706 481.095 40.1986C481.095 36.8741 481.555 33.921 482.474 31.3392C483.429 28.722 484.738 26.5116 486.4 24.7079C488.062 22.9042 490.025 21.5248 492.288 20.5699C494.552 19.615 496.992 19.1376 499.609 19.1376C501.696 19.1376 503.624 19.4028 505.392 19.9333C507.16 20.4285 508.699 21.1712 510.007 22.1615C511.351 23.1164 512.448 24.3012 513.296 25.7158C514.145 27.0951 514.693 28.6867 514.941 30.4904H509.795C509.618 29.3233 509.229 28.2799 508.628 27.3604C508.062 26.4409 507.319 25.6628 506.4 25.0262C505.516 24.3896 504.49 23.9121 503.323 23.5938C502.156 23.2401 500.918 23.0633 499.609 23.0633Z" fill="black"/>
<path d="M507.18 198.661C507.18 197.281 506.985 196.008 506.596 194.841C506.243 193.674 505.712 192.684 505.005 191.87C504.333 191.057 503.502 190.42 502.511 189.96C501.521 189.501 500.425 189.271 499.222 189.271C497.949 189.271 496.853 189.518 495.933 190.013C495.014 190.509 494.235 191.216 493.599 192.135C492.998 193.055 492.538 194.169 492.22 195.478C491.937 196.751 491.795 198.183 491.795 199.775C491.795 201.331 491.919 202.746 492.167 204.019C492.414 205.292 492.821 206.388 493.387 207.308C493.988 208.192 494.766 208.899 495.721 209.43C496.711 209.925 497.949 210.173 499.434 210.173C500.566 210.173 501.592 209.943 502.511 209.483C503.466 209.023 504.28 208.404 504.952 207.626C505.659 206.813 506.207 205.893 506.596 204.868C506.985 203.807 507.18 202.675 507.18 201.472V198.661ZM499.01 224.708C497.666 224.708 496.34 224.567 495.031 224.284C493.758 224.036 492.591 223.612 491.53 223.011C490.504 222.41 489.62 221.614 488.877 220.624C488.17 219.633 487.746 218.413 487.604 216.963H492.22C492.503 218.166 493.139 219.12 494.129 219.828C495.155 220.535 496.817 220.889 499.116 220.889C501.769 220.889 503.749 220.305 505.058 219.138C506.402 217.971 507.074 215.849 507.074 212.772V208.634H507.021C506.313 210.013 505.164 211.216 503.572 212.242C502.016 213.267 500.195 213.78 498.108 213.78C496.658 213.78 495.243 213.532 493.864 213.037C492.52 212.542 491.335 211.746 490.31 210.65C489.284 209.554 488.453 208.121 487.816 206.353C487.215 204.549 486.915 202.356 486.915 199.775C486.915 197.476 487.197 195.442 487.763 193.674C488.365 191.87 489.178 190.367 490.204 189.165C491.265 187.962 492.503 187.06 493.917 186.459C495.367 185.822 496.959 185.504 498.692 185.504C499.823 185.504 500.831 185.646 501.716 185.929C502.635 186.211 503.431 186.601 504.103 187.096C504.81 187.555 505.411 188.104 505.907 188.74C506.402 189.341 506.791 189.96 507.074 190.597H507.18V186.194H511.742V213.462C511.742 215.442 511.424 217.14 510.787 218.555C510.186 219.969 509.319 221.119 508.188 222.003C507.091 222.922 505.765 223.594 504.209 224.019C502.653 224.479 500.92 224.708 499.01 224.708Z" fill="black"/>
<path d="M516.775 100.942H502.717V137.229H497.783V100.942H483.725V96.645H516.775V100.942Z" fill="black"/>
<path d="M500.955 255V263.117H507.852V266.777H500.955V283.276C500.955 284.761 501.273 285.822 501.91 286.459C502.582 287.095 503.678 287.414 505.199 287.414C505.553 287.414 505.906 287.414 506.26 287.414C506.649 287.378 506.985 287.343 507.268 287.308C507.622 287.272 507.958 287.219 508.276 287.148V291.18C507.887 291.251 507.463 291.304 507.003 291.339C506.189 291.446 505.146 291.499 503.873 291.499C501.114 291.499 499.151 290.862 497.984 289.589C496.817 288.316 496.234 286.477 496.234 284.072V266.777H491.141V263.276H491.99C492.944 263.276 493.705 263.205 494.271 263.064C494.872 262.922 495.349 262.622 495.703 262.162C496.057 261.702 496.287 261.065 496.393 260.252C496.534 259.438 496.605 258.36 496.605 257.016V255H500.955Z" fill="black"/>
<path d="M566.568 60.3047H561.634V19.7211H566.568V37.5991H587.841V19.7211H592.775V60.3047H587.841V42.0023H566.568V60.3047Z" fill="black"/>
<path d="M584.129 196.857C584.129 195.831 584.075 194.823 583.969 193.833C583.899 192.843 583.616 192.012 583.121 191.34C582.625 190.668 581.989 190.19 581.211 189.907C580.468 189.624 579.637 189.483 578.717 189.483C577.409 189.483 576.277 189.677 575.322 190.066C574.367 190.456 573.572 191.004 572.935 191.711C572.334 192.418 571.874 193.267 571.556 194.257C571.273 195.212 571.131 196.256 571.131 197.387V214.151H566.357V172.348H571.131V190.809H571.237C571.556 190.137 571.962 189.483 572.457 188.846C572.988 188.21 573.625 187.644 574.367 187.149C575.11 186.654 575.941 186.265 576.861 185.982C577.816 185.663 578.859 185.504 579.991 185.504C581.335 185.504 582.555 185.681 583.651 186.035C584.747 186.353 585.685 186.883 586.463 187.626C587.241 188.334 587.842 189.271 588.266 190.438C588.691 191.605 588.903 193.02 588.903 194.682V214.151H584.129V196.857Z" fill="black"/>
<path d="M562.153 96.645H567.087V119.987C567.087 120.907 567.087 121.862 567.087 122.852C567.122 123.842 567.211 124.797 567.352 125.717C567.494 126.636 567.706 127.52 567.989 128.369C568.272 129.183 568.661 129.908 569.156 130.544C570.111 131.747 571.296 132.631 572.71 133.197C574.125 133.727 575.77 133.992 577.644 133.992C579.519 133.992 581.163 133.727 582.578 133.197C584.028 132.631 585.213 131.747 586.132 130.544C586.627 129.908 586.999 129.183 587.246 128.369C587.529 127.52 587.724 126.636 587.83 125.717C587.936 124.797 587.989 123.842 587.989 122.852C588.024 121.862 588.042 120.907 588.042 119.987V96.645H592.923V123.701C592.923 126.247 592.551 128.422 591.809 130.226C591.066 132.03 590.023 133.515 588.679 134.682C587.335 135.849 585.708 136.698 583.798 137.229C581.924 137.759 579.837 138.024 577.538 138.024C575.204 138.024 573.082 137.759 571.172 137.229C569.298 136.698 567.688 135.867 566.344 134.735C565 133.568 563.957 132.083 563.214 130.279C562.507 128.475 562.153 126.282 562.153 123.701V96.645Z" fill="black"/>
<path d="M570.972 280.305C570.972 281.331 571.007 282.374 571.078 283.435C571.184 284.461 571.485 285.309 571.98 285.981C572.9 287.219 574.332 287.838 576.277 287.838C578.894 287.838 580.822 287.025 582.06 285.398C583.297 283.736 583.916 281.348 583.916 278.236V263.117H588.691V291.074H584.129V286.3H584.022C583.704 287.007 583.262 287.697 582.696 288.369C582.166 289.041 581.529 289.624 580.786 290.119C580.044 290.614 579.195 291.003 578.24 291.286C577.32 291.605 576.312 291.764 575.216 291.764C572.528 291.764 570.353 291.057 568.691 289.642C567.064 288.227 566.251 285.875 566.251 282.586V263.117H570.972V280.305Z" fill="black"/>
<path d="M651.902 19.7211H656.835V60.3047H651.902V19.7211Z" fill="black"/>
<path d="M650.861 174.682H655.901V179.828H650.861V174.682ZM650.967 186.194H655.795V214.151H650.967V186.194Z" fill="black"/>
<path d="M635.569 96.645H640.821L651.272 126.512C651.625 127.538 651.908 128.458 652.121 129.271C652.333 130.049 652.51 130.703 652.651 131.234C652.793 131.87 652.916 132.401 653.022 132.825H653.129C653.235 132.401 653.358 131.87 653.5 131.234C653.747 130.173 654.225 128.634 654.932 126.618L665.33 96.645H670.317L655.887 137.229H650.158L635.569 96.645Z" fill="black"/>
<path d="M641.282 263.117H646.163L652.21 281.101C652.387 281.702 652.564 282.268 652.741 282.798C652.918 283.329 653.077 283.789 653.218 284.178C653.36 284.637 653.484 285.08 653.59 285.504H653.696C653.802 285.08 653.926 284.637 654.067 284.178C654.209 283.789 654.35 283.329 654.492 282.798C654.668 282.268 654.863 281.702 655.075 281.101L661.282 263.117H665.844L656.136 291.074H651.096L641.282 263.117Z" fill="black"/>
<path d="M721.796 60.4638V56.2729H722.91C725.032 56.2729 726.73 56.1314 728.003 55.8485C729.312 55.5302 730.32 55.0527 731.027 54.4161C731.77 53.7441 732.247 52.8953 732.459 51.8697C732.707 50.8087 732.831 49.5355 732.831 48.05V19.7211H737.765V48.4744C737.765 50.6672 737.464 52.524 736.863 54.0447C736.297 55.5655 735.43 56.8034 734.263 57.7583C733.096 58.7132 731.646 59.4028 729.913 59.8272C728.215 60.2516 726.253 60.4638 724.024 60.4638H721.796Z" fill="black"/>
<path d="M727.784 174.682H732.824V179.828H727.784V174.682ZM724.654 224.708C724.123 224.708 723.61 224.673 723.115 224.602C722.62 224.532 722.178 224.443 721.789 224.337V220.305C722.461 220.517 723.274 220.624 724.229 220.624C725.432 220.624 726.334 220.323 726.935 219.722C727.572 219.156 727.89 218.13 727.89 216.645V186.194H732.717V217.016C732.717 218.395 732.505 219.58 732.081 220.57C731.656 221.561 731.073 222.356 730.33 222.958C729.623 223.559 728.774 224.001 727.784 224.284C726.829 224.567 725.786 224.708 724.654 224.708Z" fill="black"/>
<path d="M716.531 137.229L704.913 96.645H709.953L717.91 125.398C718.441 127.485 718.812 129.076 719.024 130.173C719.166 130.809 719.272 131.375 719.343 131.87H719.449C719.484 131.375 719.572 130.809 719.714 130.173C719.926 129.006 720.297 127.432 720.828 125.451L728.626 96.645H734.356L742.207 125.398C742.49 126.424 742.72 127.343 742.897 128.157C743.109 128.935 743.268 129.607 743.374 130.173C743.516 130.809 743.622 131.375 743.693 131.87H743.799C743.834 131.375 743.923 130.809 744.064 130.173C744.17 129.607 744.312 128.935 744.488 128.157C744.665 127.379 744.895 126.477 745.178 125.451L753.083 96.645H757.91L746.292 137.229H740.775L732.817 108.953C732.534 107.927 732.287 107.025 732.075 106.247C731.898 105.434 731.756 104.744 731.65 104.178C731.509 103.542 731.42 102.958 731.385 102.427H731.279C731.208 102.958 731.102 103.542 730.961 104.178C730.748 105.345 730.377 106.919 729.847 108.9L721.995 137.229H716.531Z" fill="black"/>
<path d="M710.111 263.117H714.992L720.403 281.95C720.509 282.409 720.615 282.851 720.721 283.276C720.863 283.665 720.969 284.036 721.04 284.39C721.146 284.779 721.234 285.15 721.305 285.504H721.411C721.482 285.15 721.588 284.779 721.729 284.39C721.835 284.036 721.941 283.665 722.047 283.276C722.189 282.851 722.33 282.427 722.472 282.003L728.414 263.117H733.294L739.183 282.003C739.324 282.427 739.448 282.851 739.554 283.276C739.66 283.665 739.766 284.036 739.872 284.39C739.979 284.779 740.085 285.15 740.191 285.504H740.297C740.368 285.15 740.456 284.779 740.562 284.39C740.633 284.036 740.721 283.665 740.827 283.276C740.933 282.851 741.057 282.427 741.199 282.003L746.716 263.117H751.331L742.684 291.074H737.644L732.551 274.629C732.339 273.992 732.127 273.338 731.915 272.666C731.738 271.958 731.561 271.304 731.384 270.703C731.208 270.031 731.013 269.359 730.801 268.687H730.748C730.536 269.359 730.341 270.031 730.164 270.703C729.987 271.304 729.793 271.958 729.581 272.666C729.368 273.338 729.174 273.992 728.997 274.629L723.851 291.074H718.811L710.111 263.117Z" fill="black"/>
<path d="M799.64 60.3047H794.706V19.7211H799.64V40.5699L818.632 19.7211H824.574L808.977 36.7503L825.688 60.3047H819.746L805.582 40.4638L799.64 46.989V60.3047Z" fill="black"/>
<path d="M803.074 214.151H798.299V172.348H803.074V199.669L814.745 186.194H820.315L810.978 196.698L821.482 214.151H815.912L807.742 200.358L803.074 205.61V214.151Z" fill="black"/>
<path d="M803.82 116.221L790.929 96.645H796.817L806.632 112.03H806.738L817.083 96.645H822.388L809.443 115.955L823.661 137.229H817.666L806.632 120.199H806.526L795.226 137.229H789.921L803.82 116.221Z" fill="black"/>
<path d="M805.043 276.645L796.183 263.117H801.807L807.908 272.878H808.014L814.274 263.117H819.473L810.666 276.379L820.374 291.074H814.698L807.748 280.146H807.589L800.693 291.074H795.494L805.043 276.645Z" fill="black"/>
<path d="M874.235 19.7211H879.169V55.9015H899.328V60.3047H874.235V19.7211Z" fill="black"/>
<path d="M881.788 172.348H886.562V214.151H881.788V172.348Z" fill="black"/>
<path d="M882.452 119.881L868.128 96.645H873.858L884.839 115.372H884.945L896.351 96.645H901.603L887.332 119.563V137.229H882.452V119.881Z" fill="black"/>
<path d="M872.588 263.117H877.362L883.198 280.623C883.41 281.295 883.605 281.897 883.781 282.427C883.958 282.958 884.1 283.417 884.206 283.806C884.347 284.231 884.471 284.62 884.577 284.973H884.736C884.842 284.62 884.966 284.231 885.108 283.806C885.214 283.417 885.338 282.958 885.479 282.427C885.656 281.897 885.868 281.278 886.116 280.57L891.845 263.117H896.62L886.434 292.825C885.868 294.416 885.302 295.778 884.736 296.91C884.206 298.042 883.552 298.943 882.773 299.615C882.031 300.323 881.147 300.835 880.121 301.154C879.095 301.472 877.822 301.631 876.301 301.631C875.771 301.631 875.258 301.596 874.763 301.525C874.268 301.454 873.826 301.384 873.437 301.313V297.387C873.896 297.493 874.356 297.564 874.816 297.599C875.276 297.635 875.629 297.652 875.877 297.652C876.761 297.652 877.504 297.564 878.105 297.387C878.742 297.21 879.272 296.91 879.697 296.485C880.156 296.096 880.545 295.584 880.864 294.947C881.182 294.31 881.5 293.515 881.819 292.56L882.349 291.074L872.588 263.117Z" fill="black"/>
<path d="M942.127 19.7211H949.607L959.898 48.7928C960.217 49.7123 960.482 50.4904 960.694 51.127C960.906 51.7636 961.101 52.3118 961.278 52.7715C961.419 53.302 961.561 53.7441 961.702 54.0978H961.808C961.914 53.7441 962.056 53.302 962.233 52.7715C962.374 52.3118 962.551 51.7636 962.763 51.127C963.011 50.4904 963.294 49.7123 963.612 48.7928L974.063 19.7211H981.49V60.3047H976.45V25.4506H976.291C976.15 25.875 975.973 26.4055 975.761 27.0421C975.584 27.5726 975.354 28.2446 975.071 29.058C974.823 29.8361 974.505 30.7556 974.116 31.8166L963.877 60.3047H959.209L949.235 31.8166C948.846 30.7556 948.51 29.8361 948.227 29.058C947.98 28.2446 947.768 27.5726 947.591 27.0421C947.379 26.4055 947.202 25.875 947.06 25.4506H946.901V60.3047H942.127V19.7211Z" fill="black"/>
<path d="M941.407 186.194H945.916V190.915H946.022C946.341 190.208 946.765 189.536 947.296 188.899C947.861 188.227 948.533 187.644 949.311 187.149C950.089 186.654 950.938 186.265 951.858 185.982C952.813 185.663 953.856 185.504 954.988 185.504C957.11 185.504 958.914 185.982 960.399 186.937C961.92 187.891 962.928 189.341 963.423 191.287H963.529C963.776 190.544 964.183 189.837 964.749 189.165C965.315 188.457 965.987 187.838 966.765 187.308C967.543 186.777 968.427 186.353 969.418 186.035C970.408 185.681 971.486 185.504 972.654 185.504C973.962 185.504 975.165 185.681 976.261 186.035C977.357 186.353 978.295 186.883 979.073 187.626C979.851 188.334 980.452 189.271 980.876 190.438C981.301 191.605 981.513 193.02 981.513 194.682V214.151H976.738V196.857C976.738 195.831 976.685 194.823 976.579 193.833C976.509 192.843 976.226 191.994 975.731 191.287C975.235 190.615 974.616 190.155 973.874 189.907C973.131 189.624 972.3 189.483 971.38 189.483C970.072 189.483 968.94 189.677 967.985 190.066C967.066 190.456 966.288 191.004 965.651 191.711C965.05 192.418 964.59 193.267 964.272 194.257C963.989 195.212 963.847 196.256 963.847 197.387V214.151H959.073V196.857C959.073 195.831 959.02 194.841 958.914 193.886C958.843 192.896 958.56 192.047 958.065 191.34C957.57 190.668 956.951 190.19 956.208 189.907C955.465 189.624 954.634 189.483 953.715 189.483C952.406 189.483 951.274 189.677 950.319 190.066C949.4 190.456 948.622 191.004 947.985 191.711C947.384 192.418 946.924 193.25 946.606 194.204C946.323 195.159 946.181 196.185 946.181 197.281V214.151H941.407V186.194Z" fill="black"/>
<path d="M947.784 96.645H976.219V100.412L953.195 132.878H976.643V137.229H946.935V133.462L970.012 100.995H947.784V96.645Z" fill="black"/>
<path d="M951.074 263.117H972.135V267.255L955.743 287.148H972.507V291.074H950.332V286.883L966.618 266.989H951.074V263.117Z" fill="black"/>
<line x1="1000" y1="1" x2="0.00012207" y2="1" stroke="black" stroke-width="2"/>
<line x1="1000" y1="77.9229" x2="0.00012207" y2="77.9229" stroke="black" stroke-width="2"/>
<line x1="1000" y1="231.77" x2="0.00012207" y2="231.77" stroke="black" stroke-width="2"/>
<line x1="1000" y1="154.846" x2="0.00012207" y2="154.846" stroke="black" stroke-width="2"/>
<line x1="1000" y1="308.692" x2="0.00012207" y2="308.692" stroke="black" stroke-width="2"/>
<line x1="1000" y1="385" x2="0.00012207" y2="385" stroke="black" stroke-width="2"/>
</svg>
