<svg width="1000" height="232" viewBox="0 0 1000 232" fill="none" xmlns="http://www.w3.org/2000/svg">
<path d="M23.4581 40.7821C23.4581 37.3515 23.794 34.363 24.466 31.8166C25.138 29.2702 26.0752 27.1482 27.2777 25.4506C28.5155 23.753 30.0009 22.4974 31.7339 21.684C33.4669 20.8352 35.3944 20.4108 37.5164 20.4108C39.6738 20.4108 41.619 20.8352 43.3519 21.684C45.0849 22.4974 46.5703 23.753 47.8082 25.4506C49.046 27.1482 50.0009 29.2702 50.6729 31.8166C51.3449 34.363 51.6809 37.3515 51.6809 40.7821C51.6809 44.1774 51.3449 47.1482 50.6729 49.6946C50.0009 52.241 49.046 54.363 47.8082 56.0607C46.6057 57.7583 45.1203 59.0315 43.3519 59.8803C41.619 60.7291 39.6738 61.1535 37.5164 61.1535C33.1663 61.1535 29.7357 59.4736 27.2246 56.1137C24.7136 52.7185 23.4581 47.608 23.4581 40.7821ZM37.5164 57.2278C40.275 57.2278 42.4678 55.8485 44.0947 53.0898C45.7215 50.3312 46.535 46.264 46.535 40.8882C46.535 35.4064 45.7392 31.2861 44.1477 28.5275C42.5562 25.7689 40.3458 24.3896 37.5164 24.3896C34.7578 24.3896 32.5827 25.7335 30.9912 28.4214C29.3997 31.1093 28.6039 35.2649 28.6039 40.8882C28.6039 46.3701 29.382 50.4727 30.9382 53.1959C32.4943 55.8838 34.6871 57.2278 37.5164 57.2278Z" fill="black"/>
<path d="M37.6735 180.464H32.9521V177.812H33.5356C35.0564 177.812 36.2235 177.458 37.0369 176.751C37.7796 176.079 38.1687 175.018 38.204 173.568H41.5993V196.433H37.6735V180.464Z" fill="black"/>
<path d="M14.53 104.072C14.5653 101.632 15.3434 99.7396 16.8642 98.3956C18.4203 97.0517 20.4716 96.3797 23.018 96.3797C24.4327 96.3797 25.6352 96.5565 26.6255 96.9102C27.6511 97.2639 28.4822 97.7413 29.1188 98.3426C29.7908 98.9084 30.2682 99.5804 30.5512 100.358C30.8695 101.101 31.0286 101.897 31.0286 102.746C31.0286 103.559 30.9225 104.302 30.7103 104.974C30.4981 105.646 30.1621 106.3 29.7024 106.937C29.278 107.573 28.7121 108.228 28.0048 108.9C27.3328 109.572 26.5194 110.332 25.5644 111.181L19.9942 116.168V116.221H31.453V119.51H14.3178V116.857L22.5406 109.218C23.9553 107.98 25.0163 106.901 25.7236 105.982C26.4663 105.062 26.8377 104.054 26.8377 102.958C26.8377 101.932 26.484 101.101 25.7766 100.465C25.1047 99.828 24.1498 99.5097 22.9119 99.5097C22.3461 99.5097 21.7979 99.5981 21.2674 99.7749C20.7722 99.9164 20.3125 100.164 19.8881 100.518C19.499 100.871 19.1807 101.349 18.9331 101.95C18.7209 102.516 18.6148 103.223 18.6148 104.072H14.53ZM50.6042 127.202V124.125H52.6732C53.8049 124.125 54.7598 123.807 55.5379 123.17C56.316 122.498 56.705 121.649 56.705 120.624C56.705 119.563 56.316 118.732 55.5379 118.13C54.7598 117.529 53.8049 117.229 52.6732 117.229C49.9499 117.229 48.5353 118.502 48.4292 121.048H44.3973C44.3973 120.164 44.5565 119.315 44.8748 118.502C45.2285 117.653 45.7413 116.91 46.4133 116.274C47.1206 115.602 47.9871 115.071 49.0127 114.682C50.0737 114.293 51.3293 114.099 52.7793 114.099C55.3257 114.099 57.2886 114.682 58.6679 115.849C60.0472 117.016 60.7369 118.466 60.7369 120.199C60.7369 121.402 60.3655 122.463 59.6228 123.382C58.8801 124.267 57.8898 124.921 56.652 125.345V125.451C57.9606 125.734 59.0746 126.336 59.9942 127.255C60.9137 128.139 61.3735 129.412 61.3735 131.075C61.3735 131.959 61.1789 132.808 60.7899 133.621C60.4362 134.399 59.8881 135.106 59.1453 135.743C58.4026 136.344 57.4831 136.822 56.3867 137.175C55.3257 137.529 54.0879 137.706 52.6732 137.706C51.1524 137.706 49.8438 137.511 48.7475 137.122C47.6865 136.733 46.8023 136.221 46.0949 135.584C45.423 134.912 44.9102 134.169 44.5565 133.356C44.2028 132.507 44.0083 131.623 43.9729 130.703H48.0578C48.2346 132.012 48.7652 132.984 49.6493 133.621C50.5335 134.258 51.5945 134.576 52.8324 134.576C54.1056 134.576 55.1843 134.24 56.0684 133.568C56.9526 132.861 57.3947 131.959 57.3947 130.862C57.3947 129.695 56.988 128.794 56.1745 128.157C55.3965 127.52 54.2824 127.202 52.8324 127.202H50.6042ZM50.8695 95.7962H55.0074L25.9888 139.351H21.8509L50.8695 95.7962Z" fill="black"/>
<path d="M115.976 31.3392H108.125V27.9439H109.292C111.873 27.9439 113.801 27.3073 115.074 26.0341C115.675 25.4329 116.1 24.7256 116.347 23.9121C116.63 23.0987 116.789 22.073 116.825 20.8352H120.804V60.3047H115.976V31.3392Z" fill="black"/>
<path d="M106.575 180.995C106.61 178.555 107.388 176.662 108.909 175.318C110.465 173.975 112.516 173.303 115.063 173.303C116.478 173.303 117.68 173.479 118.67 173.833C119.696 174.187 120.527 174.664 121.164 175.265C121.836 175.831 122.313 176.503 122.596 177.281C122.914 178.024 123.073 178.82 123.073 179.669C123.073 180.482 122.967 181.225 122.755 181.897C122.543 182.569 122.207 183.223 121.747 183.86C121.323 184.496 120.757 185.15 120.05 185.822C119.378 186.494 118.564 187.255 117.609 188.104L112.039 193.09V193.143H123.498V196.433H106.363V193.78L114.585 186.141C116 184.903 117.061 183.824 117.768 182.905C118.511 181.985 118.882 180.977 118.882 179.881C118.882 178.855 118.529 178.024 117.821 177.387C117.15 176.751 116.195 176.433 114.957 176.433C114.391 176.433 113.843 176.521 113.312 176.698C112.817 176.839 112.357 177.087 111.933 177.44C111.544 177.794 111.226 178.272 110.978 178.873C110.766 179.439 110.66 180.146 110.66 180.995H106.575Z" fill="black"/>
<path d="M98.6385 103.542H93.917V100.889H94.5006C96.0213 100.889 97.1884 100.535 98.0019 99.828C98.7446 99.156 99.1336 98.095 99.169 96.645H102.564V119.51H98.6385V103.542ZM119.806 120.305C119.806 118.537 120.46 117.069 121.768 115.902C123.112 114.7 125.093 114.099 127.71 114.099C130.327 114.099 132.29 114.7 133.599 115.902C134.943 117.069 135.615 118.555 135.615 120.358C135.615 121.738 135.243 122.852 134.501 123.701C133.793 124.549 132.927 125.133 131.901 125.451V125.557C133.104 125.84 134.147 126.406 135.031 127.255C135.915 128.104 136.357 129.377 136.357 131.075C136.357 131.994 136.163 132.861 135.774 133.674C135.385 134.488 134.819 135.195 134.076 135.796C133.369 136.397 132.467 136.875 131.371 137.229C130.31 137.547 129.089 137.706 127.71 137.706C124.881 137.706 122.723 137.087 121.238 135.849C119.788 134.576 119.063 132.984 119.063 131.075C119.063 130.261 119.187 129.536 119.434 128.9C119.682 128.263 120.018 127.732 120.442 127.308C120.867 126.848 121.344 126.477 121.875 126.194C122.405 125.911 122.953 125.699 123.519 125.557V125.451C122.493 125.133 121.609 124.549 120.867 123.701C120.159 122.852 119.806 121.72 119.806 120.305ZM127.71 117.016C126.578 117.016 125.623 117.317 124.845 117.918C124.067 118.484 123.678 119.386 123.678 120.624C123.678 121.862 124.067 122.781 124.845 123.382C125.623 123.984 126.578 124.284 127.71 124.284C128.806 124.284 129.744 123.984 130.522 123.382C131.3 122.781 131.689 121.862 131.689 120.624C131.689 119.386 131.3 118.484 130.522 117.918C129.779 117.317 128.842 117.016 127.71 117.016ZM127.71 134.841C129.054 134.841 130.168 134.541 131.052 133.939C131.972 133.303 132.432 132.313 132.432 130.969C132.432 129.625 131.972 128.652 131.052 128.051C130.168 127.414 129.054 127.096 127.71 127.096C126.437 127.096 125.323 127.414 124.368 128.051C123.448 128.652 122.989 129.625 122.989 130.969C122.989 132.313 123.448 133.303 124.368 133.939C125.323 134.541 126.437 134.841 127.71 134.841ZM124.58 95.7962H128.718L99.6995 139.351H95.5616L124.58 95.7962Z" fill="black"/>
<path d="M183.777 60.3047V56.2198H191.734V31.3392H183.724V27.9439H185.05C187.632 27.9439 189.559 27.3073 190.832 26.0341C191.434 25.4329 191.858 24.7256 192.106 23.9121C192.389 23.0987 192.548 22.073 192.583 20.8352H196.562V56.2198H204.042V60.3047H183.777Z" fill="black"/>
<path d="M189.515 186.406V183.329H191.584C192.716 183.329 193.67 183.011 194.449 182.374C195.227 181.702 195.616 180.853 195.616 179.828C195.616 178.767 195.227 177.936 194.449 177.334C193.67 176.733 192.716 176.433 191.584 176.433C188.861 176.433 187.446 177.706 187.34 180.252H183.308C183.308 179.368 183.467 178.519 183.785 177.706C184.139 176.857 184.652 176.114 185.324 175.478C186.031 174.806 186.898 174.275 187.923 173.886C188.984 173.497 190.24 173.303 191.69 173.303C194.236 173.303 196.199 173.886 197.579 175.053C198.958 176.22 199.648 177.67 199.648 179.403C199.648 180.606 199.276 181.667 198.533 182.586C197.791 183.471 196.8 184.125 195.563 184.549V184.655C196.871 184.938 197.985 185.54 198.905 186.459C199.824 187.343 200.284 188.616 200.284 190.279C200.284 191.163 200.09 192.012 199.701 192.825C199.347 193.603 198.799 194.311 198.056 194.947C197.313 195.548 196.394 196.026 195.297 196.379C194.236 196.733 192.999 196.91 191.584 196.91C190.063 196.91 188.754 196.715 187.658 196.326C186.597 195.937 185.713 195.425 185.006 194.788C184.334 194.116 183.821 193.373 183.467 192.56C183.113 191.711 182.919 190.827 182.884 189.907H186.968C187.145 191.216 187.676 192.189 188.56 192.825C189.444 193.462 190.505 193.78 191.743 193.78C193.016 193.78 194.095 193.444 194.979 192.772C195.863 192.065 196.305 191.163 196.305 190.066C196.305 188.899 195.899 187.998 195.085 187.361C194.307 186.724 193.193 186.406 191.743 186.406H189.515Z" fill="black"/>
<path d="M182.432 112.136C182.432 110.65 181.99 109.519 181.106 108.74C180.257 107.962 179.161 107.573 177.817 107.573C175.872 107.573 174.457 108.175 173.573 109.377H170.178L171.292 96.698H185.085V99.9871H174.528L173.944 106.3H173.997C174.457 105.805 175.094 105.381 175.907 105.027C176.756 104.638 177.746 104.443 178.878 104.443C179.904 104.443 180.876 104.603 181.796 104.921C182.751 105.239 183.564 105.717 184.236 106.353C184.943 106.99 185.492 107.786 185.881 108.74C186.305 109.695 186.517 110.809 186.517 112.083C186.517 114.346 185.739 116.238 184.183 117.759C182.662 119.244 180.487 119.987 177.658 119.987C176.137 119.987 174.864 119.793 173.838 119.404C172.813 119.015 171.964 118.502 171.292 117.865C170.655 117.229 170.178 116.521 169.859 115.743C169.576 114.93 169.4 114.116 169.329 113.303H173.308C173.414 114.541 173.856 115.442 174.634 116.008C175.447 116.539 176.491 116.804 177.764 116.804C178.966 116.804 180.045 116.415 181 115.637C181.955 114.859 182.432 113.692 182.432 112.136ZM198.719 120.305C198.719 118.537 199.373 117.069 200.682 115.902C202.026 114.7 204.006 114.099 206.623 114.099C209.24 114.099 211.203 114.7 212.512 115.902C213.856 117.069 214.528 118.555 214.528 120.358C214.528 121.738 214.156 122.852 213.414 123.701C212.706 124.549 211.84 125.133 210.814 125.451V125.557C212.017 125.84 213.06 126.406 213.944 127.255C214.828 128.104 215.271 129.377 215.271 131.075C215.271 131.994 215.076 132.861 214.687 133.674C214.298 134.488 213.732 135.195 212.989 135.796C212.282 136.397 211.38 136.875 210.284 137.229C209.223 137.547 208.003 137.706 206.623 137.706C203.794 137.706 201.637 137.087 200.151 135.849C198.701 134.576 197.976 132.984 197.976 131.075C197.976 130.261 198.1 129.536 198.347 128.9C198.595 128.263 198.931 127.732 199.355 127.308C199.78 126.848 200.257 126.477 200.788 126.194C201.318 125.911 201.866 125.699 202.432 125.557V125.451C201.407 125.133 200.523 124.549 199.78 123.701C199.072 122.852 198.719 121.72 198.719 120.305ZM206.623 117.016C205.492 117.016 204.537 117.317 203.759 117.918C202.981 118.484 202.591 119.386 202.591 120.624C202.591 121.862 202.981 122.781 203.759 123.382C204.537 123.984 205.492 124.284 206.623 124.284C207.72 124.284 208.657 123.984 209.435 123.382C210.213 122.781 210.602 121.862 210.602 120.624C210.602 119.386 210.213 118.484 209.435 117.918C208.692 117.317 207.755 117.016 206.623 117.016ZM206.623 134.841C207.967 134.841 209.081 134.541 209.965 133.939C210.885 133.303 211.345 132.313 211.345 130.969C211.345 129.625 210.885 128.652 209.965 128.051C209.081 127.414 207.967 127.096 206.623 127.096C205.35 127.096 204.236 127.414 203.281 128.051C202.362 128.652 201.902 129.625 201.902 130.969C201.902 132.313 202.362 133.303 203.281 133.939C204.236 134.541 205.35 134.841 206.623 134.841ZM204.501 95.7962H208.639L179.621 139.351H175.483L204.501 95.7962Z" fill="black"/>
<path d="M257.037 33.0368C257.037 31.0562 257.355 29.2879 257.992 27.7317C258.664 26.1402 259.566 24.814 260.698 23.753C261.829 22.6566 263.173 21.8255 264.729 21.2596C266.286 20.6937 267.948 20.4108 269.716 20.4108C271.873 20.4108 273.713 20.7291 275.233 21.3657C276.754 21.9669 278.01 22.7804 279 23.806C279.99 24.7963 280.715 25.9457 281.175 27.2543C281.635 28.5275 281.865 29.8184 281.865 31.127C281.865 32.4709 281.705 33.7088 281.387 34.8405C281.104 35.9369 280.609 37.0509 279.902 38.1827C279.23 39.279 278.346 40.4462 277.249 41.684C276.153 42.8865 274.791 44.2658 273.164 45.8219L262.501 56.0076V56.0607H282.13V60.3047H256.029V56.6442L269.504 43.2755C270.6 42.1438 271.591 41.1004 272.475 40.1455C273.394 39.1553 274.172 38.2004 274.809 37.2808C275.446 36.3613 275.941 35.4417 276.294 34.5222C276.648 33.5673 276.825 32.524 276.825 31.3922C276.825 29.3763 276.188 27.7141 274.915 26.4055C273.677 25.0615 271.944 24.3896 269.716 24.3896C268.69 24.3896 267.7 24.5487 266.745 24.867C265.826 25.1853 265.012 25.6981 264.305 26.4055C263.598 27.0775 263.032 27.9616 262.607 29.058C262.218 30.1544 262.024 31.4806 262.024 33.0368H257.037Z" fill="black"/>
<path d="M272.046 188.051V177.494H271.886C271.78 177.706 271.657 177.936 271.515 178.183C271.374 178.395 271.214 178.643 271.038 178.926C270.861 179.209 270.649 179.527 270.401 179.881L264.3 188.051H272.046ZM275.759 191.181V196.433H271.886V191.181H260.268V188.263L271.144 173.621H275.759V187.998H278.836V191.181H275.759Z" fill="black"/>
<path d="M259.664 125.929C259.664 121.932 260.513 118.961 262.21 117.016C263.908 115.071 266.154 114.099 268.948 114.099C271.848 114.099 274.129 115.071 275.791 117.016C277.489 118.926 278.337 121.897 278.337 125.929C278.337 129.89 277.489 132.843 275.791 134.788C274.129 136.733 271.848 137.706 268.948 137.706C266.012 137.706 263.731 136.751 262.104 134.841C260.477 132.896 259.664 129.925 259.664 125.929ZM268.948 134.629C270.468 134.629 271.688 133.939 272.608 132.56C273.563 131.145 274.04 128.935 274.04 125.929C274.04 122.852 273.563 120.624 272.608 119.244C271.688 117.865 270.468 117.175 268.948 117.175C267.427 117.175 266.207 117.865 265.287 119.244C264.403 120.624 263.961 122.852 263.961 125.929C263.961 129.006 264.403 131.234 265.287 132.613C266.171 133.957 267.391 134.629 268.948 134.629Z" fill="black"/>
<path d="M343.81 42.5328V38.1296H345.879C346.869 38.1296 347.789 37.9528 348.638 37.5991C349.522 37.2454 350.282 36.768 350.919 36.1668C351.555 35.5302 352.05 34.7874 352.404 33.9386C352.758 33.0898 352.935 32.188 352.935 31.2331C352.935 29.1464 352.263 27.5019 350.919 26.2994C349.575 25.0615 347.842 24.4426 345.72 24.4426C343.279 24.4426 341.37 25.0792 339.99 26.3524C338.611 27.5903 337.868 29.5531 337.762 32.241H332.988C332.988 30.6495 333.253 29.1464 333.783 27.7317C334.349 26.2817 335.163 25.0262 336.224 23.9652C337.285 22.8688 338.611 22.0023 340.203 21.3657C341.794 20.7291 343.633 20.4108 345.72 20.4108C347.594 20.4108 349.274 20.676 350.76 21.2065C352.245 21.737 353.501 22.4798 354.526 23.4347C355.552 24.3542 356.33 25.4683 356.86 26.7768C357.426 28.05 357.709 29.447 357.709 30.9678C357.709 32.9837 357.09 34.7698 355.852 36.3259C354.65 37.8821 353.094 39.0668 351.184 39.8803V39.9864C352.139 40.234 353.076 40.623 353.996 41.1535C354.915 41.6486 355.729 42.3029 356.436 43.1164C357.143 43.8944 357.709 44.8493 358.134 45.9811C358.593 47.0775 358.823 48.3683 358.823 49.8538C358.823 51.3745 358.523 52.8246 357.921 54.2039C357.32 55.5478 356.454 56.7326 355.322 57.7583C354.19 58.7839 352.793 59.5973 351.131 60.1986C349.469 60.7998 347.577 61.1004 345.455 61.1004C343.226 61.1004 341.299 60.7821 339.672 60.1455C338.045 59.5089 336.701 58.6424 335.64 57.5461C334.579 56.4497 333.766 55.1942 333.2 53.7795C332.669 52.3648 332.369 50.8617 332.298 49.2702H337.126C337.479 51.9227 338.47 53.8856 340.096 55.1588C341.723 56.432 343.651 57.0686 345.879 57.0686C347.011 57.0686 348.072 56.9095 349.062 56.5912C350.052 56.2375 350.919 55.7424 351.661 55.1057C352.404 54.4691 352.988 53.7088 353.412 52.8246C353.837 51.9404 354.049 50.9501 354.049 49.8538C354.049 47.5195 353.324 45.7158 351.874 44.4426C350.459 43.1694 348.461 42.5328 345.879 42.5328H343.81Z" fill="black"/>
<path d="M349.937 189.059C349.937 187.573 349.495 186.441 348.611 185.663C347.762 184.885 346.665 184.496 345.321 184.496C343.376 184.496 341.962 185.097 341.077 186.3H337.682L338.796 173.621H352.589V176.91H342.032L341.449 183.223H341.502C341.962 182.728 342.598 182.303 343.412 181.95C344.26 181.561 345.251 181.366 346.382 181.366C347.408 181.366 348.381 181.525 349.3 181.844C350.255 182.162 351.069 182.639 351.741 183.276C352.448 183.913 352.996 184.708 353.385 185.663C353.81 186.618 354.022 187.732 354.022 189.005C354.022 191.269 353.244 193.161 351.687 194.682C350.167 196.167 347.992 196.91 345.162 196.91C343.642 196.91 342.368 196.715 341.343 196.326C340.317 195.937 339.468 195.425 338.796 194.788C338.16 194.151 337.682 193.444 337.364 192.666C337.081 191.853 336.904 191.039 336.833 190.226H340.812C340.918 191.463 341.36 192.365 342.138 192.931C342.952 193.462 343.995 193.727 345.268 193.727C346.471 193.727 347.55 193.338 348.504 192.56C349.459 191.782 349.937 190.615 349.937 189.059Z" fill="black"/>
<path d="M344.387 121.26H339.665V118.608H340.249C341.77 118.608 342.937 118.254 343.75 117.547C344.493 116.875 344.882 115.814 344.917 114.364H348.313V137.229H344.387V121.26Z" fill="black"/>
<path d="M427.194 46.6707V26.6707H427.088C426.911 27.0244 426.717 27.3958 426.504 27.7848C426.328 28.1738 426.08 28.6159 425.762 29.1111C425.443 29.6062 425.09 30.1544 424.701 30.7556L413.772 46.6707H427.194ZM431.809 50.7556V60.3047H427.194V50.7556H408.786V46.936L426.611 20.9943H431.809V46.6177H436.955V50.7556H431.809Z" fill="black"/>
<path d="M428.015 178.82C427.838 178.112 427.432 177.494 426.795 176.963C426.194 176.433 425.363 176.167 424.302 176.167C423.347 176.167 422.516 176.397 421.808 176.857C421.136 177.281 420.553 177.883 420.058 178.661C419.598 179.403 419.244 180.288 418.997 181.313C418.785 182.339 418.678 183.435 418.678 184.602H418.838C419.368 183.683 420.164 182.905 421.225 182.268C422.286 181.596 423.559 181.26 425.044 181.26C427.166 181.26 428.899 181.897 430.243 183.17C431.587 184.408 432.259 186.265 432.259 188.74C432.259 189.872 432.065 190.933 431.676 191.923C431.287 192.914 430.721 193.78 429.978 194.523C429.235 195.265 428.316 195.849 427.22 196.273C426.159 196.698 424.938 196.91 423.559 196.91C422.321 196.91 421.154 196.733 420.058 196.379C418.997 196.026 418.059 195.425 417.246 194.576C416.468 193.727 415.849 192.613 415.389 191.234C414.93 189.854 414.7 188.139 414.7 186.088C414.7 181.879 415.566 178.696 417.299 176.539C419.067 174.381 421.508 173.303 424.62 173.303C427.06 173.303 428.846 173.815 429.978 174.841C431.145 175.867 431.817 177.193 431.994 178.82H428.015ZM423.612 193.78C424.815 193.78 425.893 193.391 426.848 192.613C427.803 191.835 428.281 190.65 428.281 189.059C428.281 187.573 427.838 186.424 426.954 185.61C426.105 184.797 424.991 184.39 423.612 184.39C422.233 184.39 421.119 184.779 420.27 185.557C419.421 186.335 418.997 187.502 418.997 189.059C418.997 190.65 419.456 191.835 420.376 192.613C421.331 193.391 422.41 193.78 423.612 193.78Z" fill="black"/>
<path d="M414.615 121.791C414.65 119.351 415.428 117.458 416.949 116.114C418.505 114.771 420.556 114.099 423.103 114.099C424.518 114.099 425.72 114.275 426.71 114.629C427.736 114.983 428.567 115.46 429.204 116.061C429.876 116.627 430.353 117.299 430.636 118.077C430.954 118.82 431.114 119.616 431.114 120.465C431.114 121.278 431.007 122.021 430.795 122.693C430.583 123.365 430.247 124.019 429.787 124.656C429.363 125.292 428.797 125.946 428.09 126.618C427.418 127.29 426.604 128.051 425.649 128.9L420.079 133.886V133.939H431.538V137.229H414.403V134.576L422.625 126.937C424.04 125.699 425.101 124.62 425.808 123.701C426.551 122.781 426.923 121.773 426.923 120.677C426.923 119.651 426.569 118.82 425.862 118.183C425.19 117.547 424.235 117.229 422.997 117.229C422.431 117.229 421.883 117.317 421.352 117.494C420.857 117.635 420.397 117.883 419.973 118.236C419.584 118.59 419.266 119.068 419.018 119.669C418.806 120.235 418.7 120.942 418.7 121.791H414.615Z" fill="black"/>
<path d="M507.356 47.7317C507.356 46.2463 507.144 44.9378 506.72 43.806C506.295 42.6389 505.712 41.6663 504.969 40.8882C504.226 40.1102 503.342 39.5266 502.316 39.1376C501.326 38.7132 500.248 38.501 499.08 38.501C497.454 38.501 496.021 38.8016 494.783 39.4028C493.545 39.9687 492.555 40.8175 491.812 41.9493H487.675L489.372 20.9943H510.274V25.1323H493.404L492.396 37.6522H492.502C493.209 36.8387 494.2 36.096 495.473 35.4241C496.782 34.7521 498.338 34.4161 500.141 34.4161C501.662 34.4161 503.148 34.6637 504.598 35.1588C506.083 35.6539 507.392 36.4497 508.523 37.5461C509.69 38.6071 510.61 39.9687 511.282 41.6309C511.989 43.2932 512.343 45.2914 512.343 47.6256C512.343 49.6769 512.025 51.5337 511.388 53.1959C510.751 54.8582 509.85 56.2729 508.683 57.44C507.515 58.6071 506.101 59.5089 504.438 60.1455C502.776 60.7821 500.902 61.1004 498.815 61.1004C496.622 61.1004 494.748 60.7821 493.192 60.1455C491.636 59.4736 490.362 58.6248 489.372 57.5991C488.382 56.5381 487.639 55.3533 487.144 54.0447C486.684 52.7362 486.401 51.4099 486.295 50.066H491.123C491.3 52.5416 492.095 54.3277 493.51 55.4241C494.925 56.5204 496.782 57.0686 499.08 57.0686C500.071 57.0686 501.061 56.8918 502.051 56.5381C503.041 56.1844 503.926 55.6363 504.704 54.8935C505.517 54.1155 506.154 53.1429 506.614 51.9758C507.109 50.7733 507.356 49.3586 507.356 47.7317Z" fill="black"/>
<path d="M503.551 176.963H491.827V173.621H508.166V176.008L498.087 196.433H493.896L503.551 176.963Z" fill="black"/>
<path d="M497.554 127.202V124.125H499.623C500.755 124.125 501.71 123.807 502.488 123.17C503.266 122.498 503.655 121.649 503.655 120.624C503.655 119.563 503.266 118.732 502.488 118.13C501.71 117.529 500.755 117.229 499.623 117.229C496.9 117.229 495.485 118.502 495.379 121.048H491.348C491.348 120.164 491.507 119.315 491.825 118.502C492.179 117.653 492.691 116.91 493.363 116.274C494.071 115.602 494.937 115.071 495.963 114.682C497.024 114.293 498.279 114.099 499.729 114.099C502.276 114.099 504.239 114.682 505.618 115.849C506.997 117.016 507.687 118.466 507.687 120.199C507.687 121.402 507.316 122.463 506.573 123.382C505.83 124.267 504.84 124.921 503.602 125.345V125.451C504.911 125.734 506.025 126.336 506.944 127.255C507.864 128.139 508.324 129.412 508.324 131.075C508.324 131.959 508.129 132.808 507.74 133.621C507.386 134.399 506.838 135.106 506.096 135.743C505.353 136.344 504.433 136.822 503.337 137.175C502.276 137.529 501.038 137.706 499.623 137.706C498.103 137.706 496.794 137.511 495.698 137.122C494.637 136.733 493.752 136.221 493.045 135.584C492.373 134.912 491.86 134.169 491.507 133.356C491.153 132.507 490.958 131.623 490.923 130.703H495.008C495.185 132.012 495.715 132.984 496.6 133.621C497.484 134.258 498.545 134.576 499.783 134.576C501.056 134.576 502.134 134.24 503.019 133.568C503.903 132.861 504.345 131.959 504.345 130.862C504.345 129.695 503.938 128.794 503.125 128.157C502.347 127.52 501.233 127.202 499.783 127.202H497.554Z" fill="black"/>
<path d="M584.697 29.4824C584.414 27.8555 583.706 26.5646 582.575 25.6097C581.443 24.6195 579.869 24.1243 577.853 24.1243C576.085 24.1243 574.599 24.5487 573.397 25.3975C572.23 26.2463 571.257 27.4134 570.479 28.8989C569.736 30.3843 569.188 32.1349 568.835 34.1508C568.481 36.1314 568.269 38.2534 568.198 40.5169H568.41C569.33 38.8546 570.656 37.5284 572.389 36.5381C574.122 35.5478 576.103 35.0527 578.331 35.0527C579.816 35.0527 581.266 35.3003 582.681 35.7954C584.131 36.2552 585.422 36.9979 586.553 38.0235C587.685 39.0492 588.605 40.3577 589.312 41.9493C590.019 43.5054 590.373 45.3975 590.373 47.6256C590.373 49.5708 590.055 51.3745 589.418 53.0368C588.817 54.6637 587.933 56.0783 586.766 57.2808C585.634 58.4833 584.237 59.4205 582.575 60.0925C580.948 60.7645 579.109 61.1004 577.057 61.1004C575.289 61.1004 573.574 60.8352 571.912 60.3047C570.285 59.8096 568.835 58.89 567.561 57.5461C566.288 56.2021 565.263 54.3454 564.484 51.9758C563.742 49.6062 563.37 46.5823 563.37 42.9042C563.37 35.4417 564.555 29.8361 566.925 26.0872C569.294 22.3029 572.937 20.4108 577.853 20.4108C581.39 20.4108 584.095 21.2065 585.97 22.7981C587.88 24.3896 588.976 26.6177 589.259 29.4824H584.697ZM577.11 57.0686C578.101 57.0686 579.091 56.8918 580.081 56.5381C581.072 56.1844 581.956 55.6539 582.734 54.9466C583.547 54.2039 584.184 53.2667 584.644 52.1349C585.139 51.0032 585.386 49.6416 585.386 48.05C585.386 46.6 585.174 45.3268 584.75 44.2304C584.325 43.0987 583.742 42.1615 582.999 41.4187C582.256 40.676 581.372 40.1102 580.347 39.7211C579.356 39.3321 578.278 39.1376 577.11 39.1376C575.908 39.1376 574.794 39.3144 573.768 39.6681C572.778 40.0218 571.912 40.5699 571.169 41.3126C570.426 42.0554 569.843 42.9926 569.418 44.1243C569.029 45.2207 568.835 46.5293 568.835 48.05C568.835 49.6416 569.064 51.0032 569.524 52.1349C570.019 53.2667 570.638 54.2039 571.381 54.9466C572.159 55.6539 573.043 56.1844 574.034 56.5381C575.024 56.8918 576.049 57.0686 577.11 57.0686Z" fill="black"/>
<path d="M569.601 179.509C569.601 177.741 570.256 176.273 571.564 175.106C572.908 173.904 574.889 173.303 577.506 173.303C580.123 173.303 582.086 173.904 583.394 175.106C584.738 176.273 585.41 177.759 585.41 179.563C585.41 180.942 585.039 182.056 584.296 182.905C583.589 183.753 582.722 184.337 581.697 184.655V184.761C582.899 185.044 583.943 185.61 584.827 186.459C585.711 187.308 586.153 188.581 586.153 190.279C586.153 191.198 585.958 192.065 585.569 192.878C585.18 193.692 584.615 194.399 583.872 195C583.165 195.601 582.263 196.079 581.166 196.433C580.105 196.751 578.885 196.91 577.506 196.91C574.676 196.91 572.519 196.291 571.034 195.053C569.584 193.78 568.859 192.189 568.859 190.279C568.859 189.465 568.982 188.74 569.23 188.104C569.478 187.467 569.813 186.937 570.238 186.512C570.662 186.052 571.14 185.681 571.67 185.398C572.201 185.115 572.749 184.903 573.315 184.761V184.655C572.289 184.337 571.405 183.753 570.662 182.905C569.955 182.056 569.601 180.924 569.601 179.509ZM577.506 176.22C576.374 176.22 575.419 176.521 574.641 177.122C573.863 177.688 573.474 178.59 573.474 179.828C573.474 181.066 573.863 181.985 574.641 182.586C575.419 183.188 576.374 183.488 577.506 183.488C578.602 183.488 579.539 183.188 580.317 182.586C581.096 181.985 581.485 181.066 581.485 179.828C581.485 178.59 581.096 177.688 580.317 177.122C579.575 176.521 578.638 176.22 577.506 176.22ZM577.506 194.045C578.85 194.045 579.964 193.745 580.848 193.143C581.768 192.507 582.227 191.517 582.227 190.173C582.227 188.829 581.768 187.856 580.848 187.255C579.964 186.618 578.85 186.3 577.506 186.3C576.233 186.3 575.119 186.618 574.164 187.255C573.244 187.856 572.784 188.829 572.784 190.173C572.784 191.517 573.244 192.507 574.164 193.143C575.119 193.745 576.233 194.045 577.506 194.045Z" fill="black"/>
<path d="M579.759 128.847V118.29H579.6C579.494 118.502 579.37 118.732 579.229 118.979C579.088 119.191 578.928 119.439 578.752 119.722C578.575 120.005 578.362 120.323 578.115 120.677L572.014 128.847H579.759ZM583.473 131.977V137.229H579.6V131.977H567.982V129.059L578.858 114.417H583.473V128.794H586.55V131.977H583.473Z" fill="black"/>
<path d="M661.314 25.2914H641.897V20.9943H666.937V24.1243L650.492 60.3047H645.399L661.314 25.2914Z" fill="black"/>
<path d="M653.183 176.486C652.617 176.486 652.051 176.574 651.485 176.751C650.954 176.928 650.477 177.193 650.053 177.547C649.628 177.9 649.274 178.378 648.992 178.979C648.744 179.545 648.62 180.217 648.62 180.995C648.62 182.516 649.045 183.647 649.893 184.39C650.742 185.133 651.839 185.504 653.183 185.504C654.526 185.504 655.641 185.115 656.525 184.337C657.409 183.524 657.851 182.41 657.851 180.995C657.851 179.509 657.374 178.395 656.419 177.653C655.464 176.875 654.385 176.486 653.183 176.486ZM648.779 191.074C648.956 191.959 649.416 192.648 650.159 193.143C650.937 193.639 651.821 193.886 652.811 193.886C656.277 193.886 658.028 191.092 658.063 185.504H657.957C657.462 186.318 656.702 187.043 655.676 187.679C654.686 188.28 653.519 188.581 652.175 188.581C651.255 188.581 650.335 188.44 649.416 188.157C648.532 187.874 647.736 187.432 647.029 186.83C646.321 186.194 645.738 185.416 645.278 184.496C644.854 183.577 644.641 182.48 644.641 181.207C644.641 178.908 645.402 177.016 646.923 175.531C648.479 174.045 650.583 173.303 653.236 173.303C656.065 173.303 658.258 174.169 659.814 175.902C661.37 177.635 662.148 180.394 662.148 184.178C662.148 188.669 661.317 191.923 659.655 193.939C658.028 195.92 655.729 196.91 652.758 196.91C650.636 196.91 648.885 196.415 647.506 195.425C646.162 194.434 645.349 192.984 645.066 191.074H648.779Z" fill="black"/>
<path d="M657.324 129.855C657.324 128.369 656.882 127.237 655.998 126.459C655.149 125.681 654.053 125.292 652.709 125.292C650.763 125.292 649.349 125.893 648.465 127.096H645.069L646.183 114.417H659.977V117.706H649.42L648.836 124.019H648.889C649.349 123.524 649.985 123.099 650.799 122.746C651.648 122.357 652.638 122.162 653.77 122.162C654.795 122.162 655.768 122.321 656.687 122.64C657.642 122.958 658.456 123.435 659.128 124.072C659.835 124.709 660.383 125.504 660.772 126.459C661.197 127.414 661.409 128.528 661.409 129.801C661.409 132.065 660.631 133.957 659.075 135.478C657.554 136.963 655.379 137.706 652.55 137.706C651.029 137.706 649.756 137.511 648.73 137.122C647.704 136.733 646.855 136.221 646.183 135.584C645.547 134.947 645.069 134.24 644.751 133.462C644.468 132.648 644.291 131.835 644.221 131.022H648.199C648.305 132.259 648.748 133.161 649.526 133.727C650.339 134.258 651.382 134.523 652.656 134.523C653.858 134.523 654.937 134.134 655.892 133.356C656.847 132.578 657.324 131.411 657.324 129.855Z" fill="black"/>
<path d="M718.72 31.127C718.72 29.6416 719.003 28.2623 719.569 26.989C720.17 25.6805 721.001 24.5487 722.062 23.5938C723.159 22.6035 724.467 21.8255 725.988 21.2596C727.544 20.6937 729.259 20.4108 731.134 20.4108C733.044 20.4108 734.759 20.6937 736.28 21.2596C737.801 21.8255 739.109 22.6035 740.206 23.5938C741.302 24.5487 742.133 25.6805 742.699 26.989C743.3 28.2623 743.601 29.6416 743.601 31.127C743.601 32.3294 743.406 33.4435 743.017 34.4691C742.664 35.4594 742.186 36.3436 741.585 37.1217C740.984 37.8644 740.294 38.5187 739.516 39.0845C738.773 39.615 737.995 40.0041 737.182 40.2516V40.3577C738.03 40.5699 738.897 40.9059 739.781 41.3657C740.665 41.8255 741.479 42.4444 742.221 43.2225C742.964 43.9652 743.565 44.9024 744.025 46.0341C744.485 47.1305 744.715 48.4214 744.715 49.9068C744.715 51.4983 744.396 52.9837 743.76 54.363C743.123 55.707 742.204 56.8918 741.001 57.9174C739.834 58.9077 738.402 59.7034 736.704 60.3047C735.042 60.8706 733.185 61.1535 731.134 61.1535C729.047 61.1535 727.173 60.8706 725.511 60.3047C723.848 59.7388 722.434 58.9607 721.267 57.9705C720.099 56.9448 719.198 55.7424 718.561 54.363C717.924 52.9837 717.606 51.4983 717.606 49.9068C717.606 48.4214 717.836 47.1305 718.296 46.0341C718.791 44.9024 719.392 43.9652 720.099 43.2225C720.842 42.4444 721.656 41.8255 722.54 41.3657C723.424 40.9059 724.273 40.5699 725.086 40.3577V40.2516C724.273 40.0041 723.477 39.615 722.699 39.0845C721.956 38.5187 721.284 37.8467 720.683 37.0686C720.082 36.2905 719.604 35.4064 719.251 34.4161C718.897 33.4258 718.72 32.3294 718.72 31.127ZM731.134 24.2304C730.108 24.2304 729.136 24.3719 728.216 24.6548C727.332 24.9378 726.554 25.3798 725.882 25.9811C725.21 26.5823 724.662 27.3427 724.237 28.2622C723.848 29.1464 723.654 30.1897 723.654 31.3922C723.654 32.5947 723.848 33.638 724.237 34.5222C724.662 35.4064 725.21 36.1491 725.882 36.7503C726.589 37.3515 727.385 37.8113 728.269 38.1296C729.189 38.4126 730.144 38.554 731.134 38.554C732.089 38.554 733.008 38.4126 733.893 38.1296C734.812 37.8113 735.608 37.3515 736.28 36.7503C736.987 36.1491 737.553 35.4064 737.977 34.5222C738.402 33.638 738.614 32.5947 738.614 31.3922C738.614 30.1897 738.402 29.1464 737.977 28.2622C737.588 27.3427 737.04 26.5823 736.333 25.9811C735.661 25.3798 734.865 24.9378 733.946 24.6548C733.061 24.3719 732.124 24.2304 731.134 24.2304ZM731.134 57.3339C732.301 57.3339 733.415 57.1924 734.476 56.9095C735.537 56.6265 736.457 56.1844 737.235 55.5832C738.048 54.9466 738.685 54.1685 739.145 53.249C739.604 52.2941 739.834 51.1623 739.834 49.8538C739.834 48.5452 739.587 47.4311 739.091 46.5116C738.632 45.5567 737.995 44.7786 737.182 44.1774C736.404 43.5408 735.484 43.081 734.423 42.7981C733.397 42.4798 732.301 42.3206 731.134 42.3206C730.002 42.3206 728.923 42.4798 727.898 42.7981C726.872 43.081 725.953 43.5408 725.139 44.1774C724.361 44.7786 723.725 45.5567 723.229 46.5116C722.77 47.4311 722.54 48.5452 722.54 49.8538C722.54 51.1623 722.77 52.2941 723.229 53.249C723.725 54.1685 724.361 54.9466 725.139 55.5832C725.953 56.1844 726.872 56.6265 727.898 56.9095C728.923 57.1924 730.002 57.3339 731.134 57.3339Z" fill="black"/>
<path d="M736.14 119.616C735.963 118.908 735.557 118.29 734.92 117.759C734.319 117.229 733.488 116.963 732.427 116.963C731.472 116.963 730.641 117.193 729.933 117.653C729.261 118.077 728.678 118.679 728.183 119.457C727.723 120.199 727.369 121.084 727.122 122.109C726.91 123.135 726.803 124.231 726.803 125.398H726.963C727.493 124.479 728.289 123.701 729.35 123.064C730.411 122.392 731.684 122.056 733.169 122.056C735.291 122.056 737.024 122.693 738.368 123.966C739.712 125.204 740.384 127.061 740.384 129.536C740.384 130.668 740.19 131.729 739.801 132.719C739.412 133.71 738.846 134.576 738.103 135.319C737.36 136.061 736.441 136.645 735.345 137.069C734.284 137.494 733.063 137.706 731.684 137.706C730.446 137.706 729.279 137.529 728.183 137.175C727.122 136.822 726.184 136.221 725.371 135.372C724.593 134.523 723.974 133.409 723.514 132.03C723.055 130.65 722.825 128.935 722.825 126.884C722.825 122.675 723.691 119.492 725.424 117.335C727.192 115.177 729.633 114.099 732.745 114.099C735.185 114.099 736.971 114.611 738.103 115.637C739.27 116.663 739.942 117.989 740.119 119.616H736.14ZM731.737 134.576C732.94 134.576 734.018 134.187 734.973 133.409C735.928 132.631 736.406 131.446 736.406 129.855C736.406 128.369 735.963 127.22 735.079 126.406C734.23 125.593 733.116 125.186 731.737 125.186C730.358 125.186 729.244 125.575 728.395 126.353C727.546 127.131 727.122 128.298 727.122 129.855C727.122 131.446 727.581 132.631 728.501 133.409C729.456 134.187 730.535 134.576 731.737 134.576Z" fill="black"/>
<path d="M807.737 24.4426C806.746 24.4426 805.756 24.6195 804.766 24.9731C803.811 25.2914 802.944 25.8042 802.166 26.5116C801.424 27.2189 800.805 28.1208 800.31 29.2172C799.85 30.3135 799.62 31.6221 799.62 33.1429C799.62 34.5576 799.832 35.8131 800.256 36.9095C800.681 37.9705 801.247 38.8723 801.954 39.615C802.697 40.3224 803.563 40.8706 804.554 41.2596C805.544 41.6133 806.605 41.7901 807.737 41.7901C808.904 41.7901 810 41.5956 811.026 41.2065C812.051 40.8175 812.936 40.2516 813.678 39.5089C814.456 38.7662 815.058 37.8644 815.482 36.8034C815.906 35.7424 816.119 34.5222 816.119 33.1429C816.119 31.6928 815.871 30.4373 815.376 29.3763C814.916 28.2799 814.279 27.3781 813.466 26.6707C812.688 25.928 811.804 25.3798 810.814 25.0262C809.823 24.6371 808.798 24.4426 807.737 24.4426ZM800.097 51.4453C800.416 53.249 801.247 54.6813 802.591 55.7424C803.935 56.768 805.508 57.2808 807.312 57.2808C810.424 57.2808 812.723 55.9722 814.209 53.3551C815.73 50.7379 816.49 46.547 816.49 40.7821H816.384C815.535 42.2676 814.279 43.4877 812.617 44.4426C810.955 45.3622 808.957 45.8219 806.623 45.8219C805.279 45.8219 803.899 45.592 802.485 45.1323C801.07 44.6371 799.779 43.8944 798.612 42.9042C797.445 41.9139 796.49 40.6407 795.747 39.0845C795.004 37.5284 794.633 35.6893 794.633 33.5673C794.633 31.6575 794.969 29.9068 795.641 28.3153C796.313 26.6884 797.233 25.2914 798.4 24.1243C799.567 22.9572 800.946 22.0554 802.538 21.4187C804.165 20.7468 805.933 20.4108 807.843 20.4108C809.965 20.4108 811.875 20.7468 813.572 21.4187C815.27 22.0907 816.702 23.1694 817.869 24.6548C819.036 26.1049 819.938 27.997 820.575 30.3312C821.211 32.6301 821.53 35.4241 821.53 38.7132C821.53 42.8157 821.211 46.2994 820.575 49.1641C819.974 51.9935 819.072 54.2923 817.869 56.0607C816.667 57.829 815.181 59.1199 813.413 59.9333C811.645 60.7114 809.611 61.1004 807.312 61.1004C805.791 61.1004 804.359 60.9059 803.015 60.5169C801.671 60.1632 800.486 59.5973 799.461 58.8193C798.435 58.0058 797.569 56.9979 796.861 55.7954C796.189 54.5576 795.73 53.1075 795.482 51.4453H800.097Z" fill="black"/>
<path d="M810.264 117.759H798.54V114.417H814.88V116.804L804.8 137.229H800.609L810.264 117.759Z" fill="black"/>
<path d="M868.226 26.6177H863.504V23.9652H864.088C865.609 23.9652 866.776 23.6115 867.589 22.9042C868.332 22.2322 868.721 21.1712 868.756 19.7211H872.152V42.5859H868.226V26.6177ZM888.916 44.867C888.951 42.4267 889.729 40.5346 891.25 39.1906C892.806 37.8467 894.857 37.1747 897.404 37.1747C898.818 37.1747 900.021 37.3515 901.011 37.7052C902.037 38.0589 902.868 38.5363 903.504 39.1376C904.176 39.7035 904.654 40.3754 904.937 41.1535C905.255 41.8962 905.414 42.692 905.414 43.5408C905.414 44.3542 905.308 45.0969 905.096 45.7689C904.884 46.4409 904.548 47.0951 904.088 47.7317C903.664 48.3683 903.098 49.0226 902.39 49.6946C901.718 50.3666 900.905 51.127 899.95 51.9758L894.38 56.9625V57.0156H905.839V60.3047H888.703V57.6522L896.926 50.0129C898.341 48.7751 899.402 47.6964 900.109 46.7768C900.852 45.8573 901.223 44.8493 901.223 43.753C901.223 42.7273 900.87 41.8962 900.162 41.2596C899.49 40.623 898.535 40.3047 897.298 40.3047C896.732 40.3047 896.183 40.3931 895.653 40.5699C895.158 40.7114 894.698 40.959 894.274 41.3126C893.885 41.6663 893.566 42.1438 893.319 42.745C893.107 43.3109 893 44.0182 893 44.867H888.916ZM894.592 18.8723H898.73L869.711 62.4267H865.573L894.592 18.8723Z" fill="black"/>
<path d="M876.975 120.305C876.975 118.537 877.63 117.069 878.938 115.902C880.282 114.7 882.263 114.099 884.88 114.099C887.497 114.099 889.46 114.7 890.768 115.902C892.112 117.069 892.784 118.555 892.784 120.358C892.784 121.738 892.413 122.852 891.67 123.701C890.963 124.549 890.096 125.133 889.071 125.451V125.557C890.273 125.84 891.317 126.406 892.201 127.255C893.085 128.104 893.527 129.377 893.527 131.075C893.527 131.994 893.333 132.861 892.943 133.674C892.554 134.488 891.989 135.195 891.246 135.796C890.539 136.397 889.637 136.875 888.54 137.229C887.479 137.547 886.259 137.706 884.88 137.706C882.05 137.706 879.893 137.087 878.408 135.849C876.958 134.576 876.233 132.984 876.233 131.075C876.233 130.261 876.356 129.536 876.604 128.9C876.852 128.263 877.188 127.732 877.612 127.308C878.036 126.848 878.514 126.477 879.044 126.194C879.575 125.911 880.123 125.699 880.689 125.557V125.451C879.663 125.133 878.779 124.549 878.036 123.701C877.329 122.852 876.975 121.72 876.975 120.305ZM884.88 117.016C883.748 117.016 882.793 117.317 882.015 117.918C881.237 118.484 880.848 119.386 880.848 120.624C880.848 121.862 881.237 122.781 882.015 123.382C882.793 123.984 883.748 124.284 884.88 124.284C885.976 124.284 886.913 123.984 887.691 123.382C888.47 122.781 888.859 121.862 888.859 120.624C888.859 119.386 888.47 118.484 887.691 117.918C886.949 117.317 886.012 117.016 884.88 117.016ZM884.88 134.841C886.224 134.841 887.338 134.541 888.222 133.939C889.142 133.303 889.601 132.313 889.601 130.969C889.601 129.625 889.142 128.652 888.222 128.051C887.338 127.414 886.224 127.096 884.88 127.096C883.607 127.096 882.493 127.414 881.538 128.051C880.618 128.652 880.158 129.625 880.158 130.969C880.158 132.313 880.618 133.303 881.538 133.939C882.493 134.541 883.607 134.841 884.88 134.841Z" fill="black"/>
<path d="M945.098 26.6177H940.377V23.9652H940.96C942.481 23.9652 943.648 23.6115 944.462 22.9042C945.204 22.2322 945.593 21.1712 945.629 19.7211H949.024V42.5859H945.098V26.6177ZM971.73 50.2782V47.2012H973.798C974.93 47.2012 975.885 46.8829 976.663 46.2463C977.441 45.5744 977.83 44.7256 977.83 43.6999C977.83 42.6389 977.441 41.8078 976.663 41.2065C975.885 40.6053 974.93 40.3047 973.798 40.3047C971.075 40.3047 969.661 41.5779 969.554 44.1243H965.523C965.523 43.2401 965.682 42.3913 966 41.5779C966.354 40.7291 966.867 39.9864 967.539 39.3498C968.246 38.6778 969.112 38.1473 970.138 37.7583C971.199 37.3692 972.455 37.1747 973.905 37.1747C976.451 37.1747 978.414 37.7583 979.793 38.9254C981.172 40.0925 981.862 41.5425 981.862 43.2755C981.862 44.478 981.491 45.539 980.748 46.4585C980.005 47.3427 979.015 47.997 977.777 48.4214V48.5275C979.086 48.8104 980.2 49.4117 981.119 50.3312C982.039 51.2154 982.499 52.4886 982.499 54.1508C982.499 55.035 982.304 55.8838 981.915 56.6973C981.562 57.4753 981.013 58.1827 980.271 58.8193C979.528 59.4205 978.608 59.898 977.512 60.2516C976.451 60.6053 975.213 60.7821 973.798 60.7821C972.278 60.7821 970.969 60.5876 969.873 60.1986C968.812 59.8096 967.928 59.2967 967.22 58.6601C966.548 57.9882 966.035 57.2454 965.682 56.432C965.328 55.5832 965.134 54.699 965.098 53.7795H969.183C969.36 55.0881 969.89 56.0607 970.775 56.6973C971.659 57.3339 972.72 57.6522 973.958 57.6522C975.231 57.6522 976.31 57.3162 977.194 56.6442C978.078 55.9369 978.52 55.035 978.52 53.9386C978.52 52.7715 978.113 51.8697 977.3 51.2331C976.522 50.5965 975.408 50.2782 973.958 50.2782H971.73ZM970.828 18.8723H974.966L945.947 62.4267H941.809L970.828 18.8723Z" fill="black"/>
<path d="M961.479 117.282C960.914 117.282 960.348 117.37 959.782 117.547C959.251 117.724 958.774 117.989 958.349 118.343C957.925 118.696 957.571 119.174 957.288 119.775C957.041 120.341 956.917 121.013 956.917 121.791C956.917 123.312 957.341 124.443 958.19 125.186C959.039 125.929 960.135 126.3 961.479 126.3C962.823 126.3 963.937 125.911 964.822 125.133C965.706 124.32 966.148 123.206 966.148 121.791C966.148 120.305 965.67 119.191 964.715 118.449C963.761 117.671 962.682 117.282 961.479 117.282ZM957.076 131.87C957.253 132.755 957.713 133.444 958.456 133.939C959.234 134.435 960.118 134.682 961.108 134.682C964.574 134.682 966.325 131.888 966.36 126.3H966.254C965.759 127.114 964.998 127.839 963.973 128.475C962.982 129.076 961.815 129.377 960.471 129.377C959.552 129.377 958.632 129.236 957.713 128.953C956.829 128.67 956.033 128.228 955.326 127.626C954.618 126.99 954.035 126.212 953.575 125.292C953.15 124.373 952.938 123.276 952.938 122.003C952.938 119.704 953.699 117.812 955.219 116.327C956.776 114.841 958.88 114.099 961.532 114.099C964.362 114.099 966.555 114.965 968.111 116.698C969.667 118.431 970.445 121.19 970.445 124.974C970.445 129.465 969.614 132.719 967.952 134.735C966.325 136.716 964.026 137.706 961.055 137.706C958.933 137.706 957.182 137.211 955.803 136.221C954.459 135.23 953.646 133.78 953.363 131.87H957.076Z" fill="black"/>
<line x1="1000" y1="1" x2="0.00012207" y2="1" stroke="black" stroke-width="2"/>
<line x1="1000" y1="77.9229" x2="0.00012207" y2="77.9229" stroke="black" stroke-width="2"/>
<line x1="1000" y1="154.846" x2="0.00012207" y2="154.846" stroke="black" stroke-width="2"/>
<line x1="1000" y1="231" x2="0.00012207" y2="231" stroke="black" stroke-width="2"/>
</svg>
