<svg width="869" height="355" viewBox="0 0 869 355" fill="none" xmlns="http://www.w3.org/2000/svg">
<path d="M516.359 170.052H513.359V173.052H516.359V170.052ZM534.432 170.052V173.052H535.995L536.891 171.771L534.432 170.052ZM598.406 78.5383V75.5383H596.843L595.947 76.8195L598.406 78.5383ZM649.183 78.5383L651.637 80.2645L654.962 75.5383H649.183V78.5383ZM574.308 184.97L571.854 183.244L570.634 184.979L571.863 186.708L574.308 184.97ZM654.634 298V301H660.446L657.079 296.262L654.634 298ZM599.267 298L596.815 299.729L597.711 301H599.267V298ZM534.719 206.486L537.171 204.757L536.274 203.486H534.719V206.486ZM516.359 206.486V203.486H513.359V206.486H516.359ZM516.359 298V301H519.359V298H516.359ZM469.311 298H466.311V301H469.311V298ZM469.311 78.5383V75.5383H466.311V78.5383H469.311ZM516.359 78.5383H519.359V75.5383H516.359V78.5383ZM516.359 173.052H534.432V167.052H516.359V173.052ZM536.891 171.771L600.865 80.2572L595.947 76.8195L531.973 168.334L536.891 171.771ZM598.406 81.5383H649.183V75.5383H598.406V81.5383ZM646.73 76.8122L571.854 183.244L576.762 186.696L651.637 80.2645L646.73 76.8122ZM571.863 186.708L652.189 299.738L657.079 296.262L576.754 183.232L571.863 186.708ZM654.634 295H599.267V301H654.634V295ZM601.718 296.271L537.171 204.757L532.267 208.215L596.815 299.729L601.718 296.271ZM534.719 203.486H516.359V209.486H534.719V203.486ZM513.359 206.486V298H519.359V206.486H513.359ZM516.359 295H469.311V301H516.359V295ZM472.311 298V78.5383H466.311V298H472.311ZM469.311 81.5383H516.359V75.5383H469.311V81.5383ZM513.359 78.5383V170.052H519.359V78.5383H513.359Z" fill="#FBD914"/>
<path d="M348.109 268.165V271.165H351.109V268.165H348.109ZM312.25 268.165H309.25V271.165H312.25V268.165ZM312.25 211.937H315.25V208.937H312.25V211.937ZM257.743 211.937H254.743V214.937H257.743V211.937ZM257.743 178.659V175.659H254.743V178.659H257.743ZM312.25 178.659V181.659H315.25V178.659H312.25ZM312.25 123.004V120.004H309.25V123.004H312.25ZM348.109 123.004H351.109V120.004H348.109V123.004ZM348.109 178.659H345.109V181.659H348.109V178.659ZM402.903 178.659H405.903V175.659H402.903V178.659ZM402.903 211.937V214.937H405.903V211.937H402.903ZM348.109 211.937V208.937H345.109V211.937H348.109ZM348.109 265.165H312.25V271.165H348.109V265.165ZM315.25 268.165V211.937H309.25V268.165H315.25ZM312.25 208.937H257.743V214.937H312.25V208.937ZM260.743 211.937V178.659H254.743V211.937H260.743ZM257.743 181.659H312.25V175.659H257.743V181.659ZM315.25 178.659V123.004H309.25V178.659H315.25ZM312.25 126.004H348.109V120.004H312.25V126.004ZM345.109 123.004V178.659H351.109V123.004H345.109ZM348.109 181.659H402.903V175.659H348.109V181.659ZM399.903 178.659V211.937H405.903V178.659H399.903ZM402.903 208.937H348.109V214.937H402.903V208.937ZM345.109 211.937V268.165H351.109V211.937H345.109Z" fill="#FBD914"/>
<path d="M708.089 150.258V147.258H705.089V150.258H708.089ZM845.79 150.258H848.79V147.258H845.79V150.258ZM845.79 183.249V186.249H848.79V183.249H845.79ZM708.089 183.249H705.089V186.249H708.089V183.249ZM708.089 242.059H705.089V245.059H708.089V242.059ZM708.089 209.068V206.068H705.089V209.068H708.089ZM845.79 209.068H848.79V206.068H845.79V209.068ZM845.79 242.059V245.059H848.79V242.059H845.79ZM708.089 153.258H845.79V147.258H708.089V153.258ZM842.79 150.258V183.249H848.79V150.258H842.79ZM845.79 180.249H708.089V186.249H845.79V180.249ZM711.089 183.249V150.258H705.089V183.249H711.089ZM711.089 242.059V209.068H705.089V242.059H711.089ZM708.089 212.068H845.79V206.068H708.089V212.068ZM842.79 209.068V242.059H848.79V209.068H842.79ZM845.79 239.059H708.089V245.059H845.79V239.059Z" fill="#FBD914"/>
<path d="M145.539 170.052H148.539V173.052H145.539V170.052ZM127.465 170.052V173.052H125.902L125.007 171.771L127.465 170.052ZM63.4916 78.5383V75.5383H65.0547L65.9503 76.8195L63.4916 78.5383ZM12.7141 78.5383L10.2605 80.2645L6.93563 75.5383H12.7141V78.5383ZM87.5893 184.97L90.043 183.244L91.2635 184.979L90.0347 186.708L87.5893 184.97ZM7.26347 298V301H1.45109L4.81808 296.262L7.26347 298ZM62.6309 298L65.0825 299.729L64.1861 301H62.6309V298ZM127.178 206.486L124.727 204.757L125.623 203.486H127.178V206.486ZM145.539 206.486V203.486H148.539V206.486H145.539ZM145.539 298V301H142.539V298H145.539ZM192.587 298H195.587V301H192.587V298ZM192.587 78.5383V75.5383H195.587V78.5383H192.587ZM145.539 78.5383H142.539V75.5383H145.539V78.5383ZM145.539 173.052H127.465V167.052H145.539V173.052ZM125.007 171.771L61.0328 80.2572L65.9503 76.8195L129.924 168.334L125.007 171.771ZM63.4916 81.5383H12.7141V75.5383H63.4916V81.5383ZM15.1678 76.8122L90.043 183.244L85.1357 186.696L10.2605 80.2645L15.1678 76.8122ZM90.0347 186.708L9.70885 299.738L4.81808 296.262L85.1439 183.232L90.0347 186.708ZM7.26347 295H62.6309V301H7.26347V295ZM60.1794 296.271L124.727 204.757L129.63 208.215L65.0825 299.729L60.1794 296.271ZM127.178 203.486H145.539V209.486H127.178V203.486ZM148.539 206.486V298H142.539V206.486H148.539ZM145.539 295H192.587V301H145.539V295ZM189.587 298V78.5383H195.587V298H189.587ZM192.587 81.5383H145.539V75.5383H192.587V81.5383ZM148.539 78.5383V170.052H142.539V78.5383H148.539Z" fill="#FBD914"/>
</svg>
