<svg width="896" height="356" viewBox="0 0 896 356" fill="none" xmlns="http://www.w3.org/2000/svg">
<path d="M612.455 262.229V265.229H615.455V262.229H612.455ZM612.455 79.2004V76.2004H609.455V79.2004H612.455ZM659.503 79.2004H662.503V76.2004H659.503V79.2004ZM659.503 262.229H656.503V265.229H659.503V262.229ZM684.749 262.229H687.749V259.229H684.749V262.229ZM684.749 337.104V340.104H687.749V337.104H684.749ZM642.004 337.104H639.004V340.104H642.004V337.104ZM642.004 298.662H645.004V295.662H642.004V298.662ZM479.344 298.662H476.344V301.662H479.344V298.662ZM479.344 79.2004V76.2004H476.344V79.2004H479.344ZM526.392 79.2004H529.392V76.2004H526.392V79.2004ZM526.392 262.229H523.392V265.229H526.392V262.229ZM615.455 262.229V79.2004H609.455V262.229H615.455ZM612.455 82.2004H659.503V76.2004H612.455V82.2004ZM656.503 79.2004V262.229H662.503V79.2004H656.503ZM659.503 265.229H684.749V259.229H659.503V265.229ZM681.749 262.229V337.104H687.749V262.229H681.749ZM684.749 334.104H642.004V340.104H684.749V334.104ZM645.004 337.104V298.662H639.004V337.104H645.004ZM642.004 295.662H479.344V301.662H642.004V295.662ZM482.344 298.662V79.2004H476.344V298.662H482.344ZM479.344 82.2004H526.392V76.2004H479.344V82.2004ZM523.392 79.2004V262.229H529.392V79.2004H523.392ZM526.392 265.229H612.455V259.229H526.392V265.229Z" fill="#FBD914"/>
<path d="M358.142 268.827V271.827H361.142V268.827H358.142ZM322.283 268.827H319.283V271.827H322.283V268.827ZM322.283 212.599H325.283V209.599H322.283V212.599ZM267.776 212.599H264.776V215.599H267.776V212.599ZM267.776 179.321V176.321H264.776V179.321H267.776ZM322.283 179.321V182.321H325.283V179.321H322.283ZM322.283 123.667V120.667H319.283V123.667H322.283ZM358.142 123.667H361.142V120.667H358.142V123.667ZM358.142 179.321H355.142V182.321H358.142V179.321ZM412.936 179.321H415.936V176.321H412.936V179.321ZM412.936 212.599V215.599H415.936V212.599H412.936ZM358.142 212.599V209.599H355.142V212.599H358.142ZM358.142 265.827H322.283V271.827H358.142V265.827ZM325.283 268.827V212.599H319.283V268.827H325.283ZM322.283 209.599H267.776V215.599H322.283V209.599ZM270.776 212.599V179.321H264.776V212.599H270.776ZM267.776 182.321H322.283V176.321H267.776V182.321ZM325.283 179.321V123.667H319.283V179.321H325.283ZM322.283 126.667H358.142V120.667H322.283V126.667ZM355.142 123.667V179.321H361.142V123.667H355.142ZM358.142 182.321H412.936V176.321H358.142V182.321ZM409.936 179.321V212.599H415.936V179.321H409.936ZM412.936 209.599H358.142V215.599H412.936V209.599ZM355.142 212.599V268.827H361.142V212.599H355.142Z" fill="#FBD914"/>
<path d="M735.509 150.92V147.92H732.509V150.92H735.509ZM873.21 150.92H876.21V147.92H873.21V150.92ZM873.21 183.911V186.911H876.21V183.911H873.21ZM735.509 183.911H732.509V186.911H735.509V183.911ZM735.509 242.721H732.509V245.721H735.509V242.721ZM735.509 209.73V206.73H732.509V209.73H735.509ZM873.21 209.73H876.21V206.73H873.21V209.73ZM873.21 242.721V245.721H876.21V242.721H873.21ZM735.509 153.92H873.21V147.92H735.509V153.92ZM870.21 150.92V183.911H876.21V150.92H870.21ZM873.21 180.911H735.509V186.911H873.21V180.911ZM738.509 183.911V150.92H732.509V183.911H738.509ZM738.509 242.721V209.73H732.509V242.721H738.509ZM735.509 212.73H873.21V206.73H735.509V212.73ZM870.21 209.73V242.721H876.21V209.73H870.21ZM873.21 239.721H735.509V245.721H873.21V239.721Z" fill="#FBD914"/>
<path d="M81.4701 212.312L84.4613 212.542L84.4613 212.542L81.4701 212.312ZM76.0195 251.327L78.9468 251.983L78.9468 251.983L76.0195 251.327ZM65.1181 279.154L62.5925 277.535L62.587 277.544L62.5816 277.552L65.1181 279.154ZM47.3317 295.793L48.6733 298.477L48.7012 298.463L48.7289 298.448L47.3317 295.793ZM13.4801 300.957L13.7786 297.972L13.7786 297.972L13.4801 300.957ZM8.31625 300.096L9.04386 297.186L9.00557 297.176L8.96704 297.168L8.31625 300.096ZM3.7262 298.662H0.726202V300.64L2.54444 301.42L3.7262 298.662ZM3.7262 258.212L5.06784 255.529L0.726202 253.358L0.726202 258.212H3.7262ZM6.02123 259.073L7.20299 256.316L6.98204 256.221L6.74883 256.163L6.02123 259.073ZM30.9796 248.458L28.2963 247.117L30.9796 248.458ZM39.0122 209.73L42.0016 209.982L42.0043 209.949L42.0064 209.917L39.0122 209.73ZM40.4466 190.222L43.4362 190.471L43.4368 190.465L40.4466 190.222ZM42.1679 168.706L45.1586 168.942L45.159 168.936L42.1679 168.706ZM43.6022 146.904L40.6115 146.668L40.6086 146.705L40.6066 146.742L43.6022 146.904ZM45.3235 125.962L48.3126 126.218L48.314 126.2L48.3153 126.183L45.3235 125.962ZM48.766 79.2004V76.2004H45.9775L45.774 78.9815L48.766 79.2004ZM201.098 79.2004H204.098V76.2004H201.098V79.2004ZM201.098 298.662V301.662H204.098V298.662H201.098ZM154.05 298.662H151.05V301.662H154.05V298.662ZM154.05 115.634H157.05V112.634H154.05V115.634ZM88.929 115.634V112.634H86.1624L85.9388 115.392L88.929 115.634ZM87.2077 138.584L90.2001 138.798L90.2004 138.793L87.2077 138.584ZM85.1996 163.543L82.2113 163.277L82.2086 163.308L82.2065 163.339L85.1996 163.543ZM83.1914 188.788L80.2037 188.516L80.2009 188.548L80.1987 188.579L83.1914 188.788ZM78.479 212.082C77.3393 226.898 75.5389 239.755 73.0921 250.671L78.9468 251.983C81.4726 240.715 83.306 227.561 84.4613 212.542L78.479 212.082ZM73.0921 250.671C70.6618 261.514 67.1396 270.442 62.5925 277.535L67.6437 280.773C72.6592 272.949 76.4046 263.326 78.9468 251.983L73.0921 250.671ZM62.5816 277.552C58.2588 284.397 52.7144 289.57 45.9344 293.139L48.7289 298.448C56.484 294.366 62.7973 288.447 67.6546 280.756L62.5816 277.552ZM45.99 293.11C39.2499 296.48 30.7517 298.244 20.3651 298.244V304.244C31.3988 304.244 40.8783 302.374 48.6733 298.477L45.99 293.11ZM20.3651 298.244C17.7518 298.244 15.5619 298.15 13.7786 297.972L13.1815 303.942C15.2232 304.146 17.6234 304.244 20.3651 304.244V298.244ZM13.7786 297.972C11.9807 297.792 10.4063 297.527 9.04386 297.186L7.58864 303.007C9.28623 303.431 11.1544 303.74 13.1815 303.942L13.7786 297.972ZM8.96704 297.168C7.39115 296.818 6.04415 296.392 4.90796 295.905L2.54444 301.42C4.08578 302.08 5.79882 302.61 7.66546 303.025L8.96704 297.168ZM6.7262 298.662V258.212H0.726202V298.662H6.7262ZM2.38457 260.896C3.32898 261.368 4.29921 261.735 5.29362 261.983L6.74883 256.163C6.21322 256.029 5.65344 255.822 5.06784 255.529L2.38457 260.896ZM4.83947 261.83C6.77608 262.66 9.5025 262.934 12.6194 262.934V256.934C9.61628 256.934 7.94389 256.633 7.20299 256.316L4.83947 261.83ZM12.6194 262.934C17.2943 262.934 21.4994 261.866 25.1108 259.609C28.7193 257.353 31.5497 254.027 33.6629 249.8L28.2963 247.117C26.5845 250.54 24.4423 252.951 21.9308 254.521C19.4221 256.089 16.3596 256.934 12.6194 256.934V262.934ZM33.6629 249.8C37.7616 241.603 40.4676 228.198 42.0016 209.982L36.0228 209.478C34.4968 227.6 31.8477 240.014 28.2963 247.117L33.6629 249.8ZM42.0064 209.917C42.3874 203.82 42.864 197.338 43.4362 190.471L37.457 189.973C36.8817 196.876 36.402 203.4 36.018 209.543L42.0064 209.917ZM43.4368 190.465C44.0107 183.386 44.5846 176.212 45.1585 168.942L39.1772 168.47C38.6036 175.736 38.03 182.906 37.4564 189.98L43.4368 190.465ZM45.159 168.936C45.7344 161.456 46.2141 154.166 46.5979 147.066L40.6066 146.742C40.2254 153.794 39.7488 161.039 39.1767 168.476L45.159 168.936ZM46.5929 147.14C47.1662 139.878 47.7394 132.904 48.3126 126.218L42.3345 125.705C41.7601 132.406 41.1858 139.394 40.6115 146.668L46.5929 147.14ZM48.3153 126.183C49.4629 110.691 50.6105 95.1029 51.7581 79.4194L45.774 78.9815C44.6266 94.6633 43.4792 110.249 42.3317 125.74L48.3153 126.183ZM48.766 82.2004H201.098V76.2004H48.766V82.2004ZM198.098 79.2004V298.662H204.098V79.2004H198.098ZM201.098 295.662H154.05V301.662H201.098V295.662ZM157.05 298.662V115.634H151.05V298.662H157.05ZM154.05 112.634H88.929V118.634H154.05V112.634ZM85.9388 115.392C85.364 122.481 84.7894 130.142 84.215 138.375L90.2004 138.793C90.7735 130.579 91.3464 122.94 91.9192 115.876L85.9388 115.392ZM84.2153 138.37C83.6429 146.385 82.9749 154.687 82.2113 163.277L88.1878 163.808C88.9542 155.186 89.625 146.849 90.2001 138.798L84.2153 138.37ZM82.2065 163.339C81.6343 171.731 80.9667 180.124 80.2037 188.516L86.1791 189.059C86.9461 180.622 87.6173 172.184 88.1926 163.747L82.2065 163.339ZM80.1987 188.579C79.6254 196.796 79.0521 204.631 78.479 212.082L84.4613 212.542C85.0357 205.075 85.6099 197.227 86.1841 188.997L80.1987 188.579Z" fill="#FBD914"/>
</svg>
