<svg width="906" height="356" viewBox="0 0 906 356" fill="none" xmlns="http://www.w3.org/2000/svg">
<path d="M69.9659 298.831V301.831H72.9659V298.831H69.9659ZM22.918 298.831H19.918V301.831H22.918V298.831ZM22.918 79.3694V76.3694H19.918V79.3694H22.918ZM69.9659 79.3694H72.9659V76.3694H69.9659V79.3694ZM69.9659 170.883H66.9659V173.883H69.9659V170.883ZM158.324 170.883V173.883H161.324V170.883H158.324ZM158.324 79.3694V76.3694H155.324V79.3694H158.324ZM205.946 79.3694H208.946V76.3694H205.946V79.3694ZM205.946 298.831V301.831H208.946V298.831H205.946ZM158.324 298.831H155.324V301.831H158.324V298.831ZM158.324 207.604H161.324V204.604H158.324V207.604ZM69.9659 207.604V204.604H66.9659V207.604H69.9659ZM69.9659 295.831H22.918V301.831H69.9659V295.831ZM25.918 298.831V79.3694H19.918V298.831H25.918ZM22.918 82.3694H69.9659V76.3694H22.918V82.3694ZM66.9659 79.3694V170.883H72.9659V79.3694H66.9659ZM69.9659 173.883H158.324V167.883H69.9659V173.883ZM161.324 170.883V79.3694H155.324V170.883H161.324ZM158.324 82.3694H205.946V76.3694H158.324V82.3694ZM202.946 79.3694V298.831H208.946V79.3694H202.946ZM205.946 295.831H158.324V301.831H205.946V295.831ZM161.324 298.831V207.604H155.324V298.831H161.324ZM158.324 204.604H69.9659V210.604H158.324V204.604ZM66.9659 207.604V298.831H72.9659V207.604H66.9659Z" fill="#FBD914"/>
<path d="M362.292 268.996V271.996H365.292V268.996H362.292ZM326.433 268.996H323.433V271.996H326.433V268.996ZM326.433 212.768H329.433V209.768H326.433V212.768ZM271.926 212.768H268.926V215.768H271.926V212.768ZM271.926 179.49V176.49H268.926V179.49H271.926ZM326.433 179.49V182.49H329.433V179.49H326.433ZM326.433 123.835V120.835H323.433V123.835H326.433ZM362.292 123.835H365.292V120.835H362.292V123.835ZM362.292 179.49H359.292V182.49H362.292V179.49ZM417.086 179.49H420.086V176.49H417.086V179.49ZM417.086 212.768V215.768H420.086V212.768H417.086ZM362.292 212.768V209.768H359.292V212.768H362.292ZM362.292 265.996H326.433V271.996H362.292V265.996ZM329.433 268.996V212.768H323.433V268.996H329.433ZM326.433 209.768H271.926V215.768H326.433V209.768ZM274.926 212.768V179.49H268.926V212.768H274.926ZM271.926 182.49H326.433V176.49H271.926V182.49ZM329.433 179.49V123.835H323.433V179.49H329.433ZM326.433 126.835H362.292V120.835H326.433V126.835ZM359.292 123.835V179.49H365.292V123.835H359.292ZM362.292 182.49H417.086V176.49H362.292V182.49ZM414.086 179.49V212.768H420.086V179.49H414.086ZM417.086 209.768H362.292V215.768H417.086V209.768ZM359.292 212.768V268.996H365.292V212.768H359.292Z" fill="#FBD914"/>
<path d="M745.092 151.089V148.089H742.092V151.089H745.092ZM882.794 151.089H885.794V148.089H882.794V151.089ZM882.794 184.08V187.08H885.794V184.08H882.794ZM745.092 184.08H742.092V187.08H745.092V184.08ZM745.092 242.89H742.092V245.89H745.092V242.89ZM745.092 209.899V206.899H742.092V209.899H745.092ZM882.794 209.899H885.794V206.899H882.794V209.899ZM882.794 242.89V245.89H885.794V242.89H882.794ZM745.092 154.089H882.794V148.089H745.092V154.089ZM879.794 151.089V184.08H885.794V151.089H879.794ZM882.794 181.08H745.092V187.08H882.794V181.08ZM748.092 184.08V151.089H742.092V184.08H748.092ZM748.092 242.89V209.899H742.092V242.89H748.092ZM745.092 212.899H882.794V206.899H745.092V212.899ZM879.794 209.899V242.89H885.794V209.899H879.794ZM882.794 239.89H745.092V245.89H882.794V239.89Z" fill="#FBD914"/>
<path d="M483.032 141.622L480.214 140.594L480.208 140.61L480.202 140.627L483.032 141.622ZM504.261 106.049L502.076 103.993L502.075 103.994L504.261 106.049ZM536.965 83.9594L538.065 86.7507L538.076 86.7464L538.086 86.742L536.965 83.9594ZM622.455 83.6725L623.54 80.8757L623.54 80.8757L622.455 83.6725ZM654.872 105.762L652.644 107.771L652.665 107.794L652.686 107.817L654.872 105.762ZM675.527 141.335L672.685 142.295L672.689 142.307L675.527 141.335ZM675.24 238.3L672.41 237.305L672.406 237.317L672.402 237.328L675.24 238.3ZM654.298 273.873L652.114 271.817L652.112 271.818L654.298 273.873ZM621.594 295.962L622.694 298.753L622.705 298.749L622.715 298.745L621.594 295.962ZM502.54 274.16L500.324 276.182L500.334 276.193L500.344 276.204L502.54 274.16ZM618.152 249.201L620.614 250.914L620.62 250.906L620.626 250.898L618.152 249.201ZM627.905 155.105L624.995 155.833L625.002 155.859L625.009 155.885L627.905 155.105ZM617.004 130.147L614.53 131.843L614.546 131.867L614.563 131.891L617.004 130.147ZM600.365 115.229L598.962 117.88L598.992 117.897L599.024 117.912L600.365 115.229ZM540.121 129.86L537.658 128.147L537.65 128.159L537.641 128.171L540.121 129.86ZM539.834 249.488L537.338 251.152L537.343 251.161L537.349 251.169L539.834 249.488ZM478.573 189.817C478.573 172.113 481.022 156.393 485.862 142.616L480.202 140.627C475.097 155.156 472.573 171.566 472.573 189.817H478.573ZM485.85 142.65C490.895 128.823 497.774 117.33 506.447 108.104L502.075 103.994C492.77 113.893 485.496 126.116 480.214 140.594L485.85 142.65ZM506.446 108.105C515.319 98.6775 525.848 91.5633 538.065 86.7507L535.866 81.1682C522.837 86.3007 511.564 93.9128 502.076 103.993L506.446 108.105ZM538.086 86.742C550.508 81.7365 564.179 79.2137 579.136 79.2137V73.2137C563.493 73.2137 549.051 75.8548 535.844 81.1769L538.086 86.742ZM579.136 79.2137C594.892 79.2137 608.955 81.6517 621.369 86.4693L623.54 80.8757C610.327 75.7483 595.511 73.2137 579.136 73.2137V79.2137ZM621.369 86.4693C633.767 91.2804 644.175 98.382 652.644 107.771L657.1 103.753C647.973 93.6346 636.77 86.0098 623.54 80.8757L621.369 86.4693ZM652.686 107.817C661.342 117.025 668.022 128.494 672.685 142.295L678.369 140.375C673.469 125.871 666.38 113.624 657.058 103.707L652.686 107.817ZM672.689 142.307C677.341 155.89 679.699 171.71 679.699 189.817H685.699C685.699 171.204 683.276 154.703 678.365 140.363L672.689 142.307ZM679.699 189.817C679.699 207.717 677.249 223.532 672.41 237.305L678.071 239.294C683.176 224.763 685.699 208.256 685.699 189.817H679.699ZM672.402 237.328C667.745 250.927 660.973 262.404 652.114 271.817L656.483 275.929C665.984 265.834 673.173 253.595 678.079 239.272L672.402 237.328ZM652.112 271.818C643.437 281.047 632.905 288.17 620.473 293.18L622.715 298.745C635.911 293.427 647.182 285.824 656.484 275.927L652.112 271.818ZM620.495 293.171C608.272 297.986 594.5 300.421 579.136 300.421V306.421C595.137 306.421 609.671 303.884 622.694 298.753L620.495 293.171ZM579.136 300.421C546.865 300.421 522.208 290.876 504.735 272.115L500.344 276.204C519.209 296.459 545.617 306.421 579.136 306.421V300.421ZM504.756 272.137C487.443 253.167 478.573 225.877 478.573 189.817H472.573C472.573 226.816 481.681 255.754 500.324 276.182L504.756 272.137ZM579.136 271.996C596.894 271.996 610.843 264.961 620.614 250.914L615.689 247.488C607.1 259.834 595.039 265.996 579.136 265.996V271.996ZM620.626 250.898C630.3 236.789 634.922 216.285 634.922 189.817H628.922C628.922 215.753 624.363 234.838 615.677 247.505L620.626 250.898ZM634.922 189.817C634.922 176.427 633.564 164.584 630.802 154.325L625.009 155.885C627.602 165.516 628.922 176.815 628.922 189.817H634.922ZM630.816 154.378C628.26 144.154 624.492 135.468 619.445 128.403L614.563 131.891C619.079 138.213 622.578 146.166 624.995 155.833L630.816 154.378ZM619.478 128.45C614.635 121.387 608.716 116.05 601.707 112.546L599.024 117.912C605.02 120.911 610.193 125.519 614.53 131.843L619.478 128.45ZM601.769 112.578C594.816 108.897 587.255 107.065 579.136 107.065V113.065C586.317 113.065 592.909 114.676 598.962 117.88L601.769 112.578ZM579.136 107.065C561.379 107.065 547.43 114.1 537.658 128.147L542.584 131.573C551.172 119.227 563.233 113.065 579.136 113.065V107.065ZM537.641 128.171C528.153 142.1 523.638 162.806 523.638 189.817H529.638C529.638 163.278 534.111 144.012 542.6 131.549L537.641 128.171ZM523.638 189.817C523.638 216.635 528.057 237.231 537.338 251.152L542.33 247.824C534.016 235.352 529.638 216.168 529.638 189.817H523.638ZM537.349 251.169C546.772 265.099 560.863 271.996 579.136 271.996V265.996C562.601 265.996 550.491 259.888 542.319 247.807L537.349 251.169Z" fill="#FBD914"/>
</svg>
