<svg width="308" height="201" viewBox="0 0 308 201" fill="none" xmlns="http://www.w3.org/2000/svg">
<g clip-path="url(#clip0_370_276)">
<path d="M307.425 65.9223C307.425 71.4613 305.802 76.839 302.749 81.9723C285.966 110.208 225.926 131.1 154.435 131.1C82.9428 131.1 22.9087 110.208 6.12533 81.9723C3.07239 76.839 1.44971 71.4613 1.44971 65.9223C1.44971 29.9216 69.9457 0.739258 154.435 0.739258C238.923 0.739258 307.425 29.9216 307.425 65.9223Z" stroke="black" stroke-width="2" stroke-miterlimit="10"/>
<path d="M307.425 65.9224V105.382C307.425 157.869 238.929 200.418 154.435 200.418C69.9405 200.418 1.44971 157.869 1.44971 105.382V65.9224C1.44971 71.4613 3.07239 76.8391 6.12533 81.9724C22.9087 110.208 82.948 131.1 154.435 131.1C225.921 131.1 285.966 110.208 302.749 81.9724C305.802 76.8391 307.425 71.4613 307.425 65.9224V65.9224Z" stroke="black" stroke-width="2" stroke-miterlimit="10"/>
<path d="M79.859 111.743H79.8535" stroke="black" stroke-width="2" stroke-miterlimit="10"/>
<path d="M297.346 89.2329C297.059 86.3516 295.77 83.5848 293.476 81.8425C292.119 80.8127 290.35 80.0065 289.867 78.3682C289.44 76.9172 290.236 75.3621 290.033 73.859C289.57 70.4004 284.723 69.6567 282.674 66.8378C281.748 65.5688 281.462 63.9513 280.744 62.5575C278.95 59.0885 274.898 57.5594 271.195 56.3164C266.166 54.6313 261.137 52.9514 256.107 51.2663C252.196 49.9557 248.291 48.645 244.426 47.2044C240.271 45.6545 236.167 43.9486 231.928 42.638C221.116 39.2834 209.502 38.5553 198.357 40.5264C196.843 40.7916 195.324 41.1089 193.79 41.1297C192.344 41.1505 190.904 40.9009 189.505 40.5472C183.289 38.9661 177.855 35.2995 172.16 32.3558C164.4 28.3511 155.376 25.5998 146.966 27.9454C145.026 28.4863 143.17 29.282 141.251 29.8749C139.659 30.3638 138.026 30.7071 136.388 31.0139C130.375 32.1269 124.301 32.9123 118.205 33.3959C111.356 33.942 104.418 34.1293 97.6409 32.9643C91.8938 31.9761 85.4967 30.1402 80.6027 33.3127C77.841 35.1018 76.0675 38.2536 73.0769 39.6214C71.1942 40.4796 69.0462 40.5212 67.0543 41.0881C62.7895 42.2947 59.3829 46.1122 58.6652 50.4861C54.5929 48.5358 49.0383 51.6147 48.5338 56.1031C44.3263 51.1519 36.0412 52.166 30.8871 56.1187C27.002 59.0989 24.0947 63.7953 24.516 68.6737C21.7335 70.8529 18.9458 73.0373 16.1581 75.2165C14.1922 76.7612 12.143 78.4046 11.1861 80.7139C10.562 82.2169 10.6036 84.0788 11.3369 85.4779C11.753 86.2788 11.6333 87.2826 10.926 87.8391C10.8064 87.9327 10.6868 88.0367 10.5828 88.146" stroke="black" stroke-width="2" stroke-miterlimit="10"/>
<path d="M52.4708 84.1152C50.6505 85.4467 49.2619 87.3606 48.5806 89.5138C48.3881 90.1223 48.3829 90.7932 48.643 91.3809C49.5947 93.4925 52.6633 92.4159 54.9465 92.5511C56.8656 92.6655 58.5195 93.867 60.2306 94.7407C61.9417 95.6145 64.1521 96.1293 65.6916 94.9747C66.4405 94.413 66.9346 93.5081 67.7875 93.118C68.4637 92.806 69.2438 92.8788 69.9927 92.8684C72.2239 92.8372 74.4291 91.9738 76.0934 90.4864C76.5667 90.0599 77.0192 89.5762 77.6173 89.3422C78.4078 89.0405 79.2867 89.2433 80.1293 89.3057C81.3047 89.3942 82.4957 89.1705 83.5723 88.692C84.7685 88.1615 86.2092 88.5256 86.8801 89.6542C87.6706 90.9804 89.0385 92.0414 90.5155 92.5459C91.9926 93.0504 93.6309 93.1492 95.2432 93.0608C96.8554 92.9724 98.1141 94.127 98.2701 95.6769C98.3377 96.3686 98.4833 97.0447 98.7642 97.6844C99.4299 99.2135 101.099 100.441 102.717 100.025C103.336 100.758 102.514 101.783 102.181 102.682C101.515 104.477 103.143 106.458 105.005 106.911C106.867 107.363 108.802 106.734 110.617 106.12" stroke="black" stroke-width="2" stroke-miterlimit="10"/>
<path d="M177.839 107.52C181.058 108.992 184.418 110.5 187.96 110.422C191.502 110.344 195.267 108.186 195.959 104.711C196.094 104.03 196.188 103.203 196.812 102.891C197.145 102.725 197.535 102.766 197.899 102.813C202.33 103.396 207.073 104.696 211.088 102.73C212.966 101.809 214.469 100.249 216.352 99.3388C220.216 97.4613 224.777 98.6367 229.005 99.396C233.234 100.155 238.279 100.187 241.025 96.884C242.06 95.6409 242.934 93.857 244.551 93.8102C245.165 93.7894 245.747 94.0495 246.335 94.2367C249.97 95.4121 254.329 93.5762 256.035 90.1592" stroke="black" stroke-width="2" stroke-miterlimit="10"/>
<path d="M242.2 67.5921C238.58 64.3831 232.88 64.5912 228.568 66.7756C226.035 68.0602 223.867 69.8961 221.875 71.9453C220.257 73.6044 217.527 73.4171 216.227 71.498C214.677 69.2148 212.196 67.5401 209.445 67.2072C208.555 67.098 207.562 67.0772 206.922 66.4531C206.47 66.011 206.298 65.3661 206.09 64.7732C204.686 60.7581 200.79 57.986 196.666 56.9458C192.542 55.9056 188.188 56.3477 184.002 57.1071C183.414 57.2111 182.774 57.3203 182.249 57.0342C181.875 56.8314 181.625 56.4673 181.37 56.1293C179.467 53.6172 176.388 52.0362 173.236 51.9582C170.084 51.8801 166.927 53.2896 164.894 55.6976" stroke="black" stroke-width="2" stroke-miterlimit="10"/>
<path d="M147.653 79.6844C146.665 76.5639 145.312 73.4121 142.847 71.2589C140.382 69.1058 136.554 68.2112 133.772 69.9379C132.534 66.6613 129.809 63.9777 126.516 62.7867C123.224 61.5956 119.412 61.9181 116.369 63.6448C115.922 63.8996 115.459 64.1909 114.95 64.1961C114.216 64.2065 113.618 63.6552 113.082 63.1559C110.576 60.8155 107.491 58.8444 104.069 58.6207C100.647 58.3971 96.918 60.3682 96.0234 63.6812C93.5894 62.7346 91.0722 62.0117 88.5081 61.5228C85.736 60.9923 82.6051 60.8103 80.3583 62.5214C78.1115 64.2325 77.9035 68.4608 80.5403 69.4698" stroke="black" stroke-width="2" stroke-miterlimit="10"/>
<path d="M55.3106 69.3501C53.433 67.4674 50.5621 66.6456 47.9721 67.2437C45.382 67.8418 43.1664 69.839 42.3031 72.3562C42.1627 72.7567 42.043 73.1936 41.731 73.4796C41.2109 73.9477 40.4099 73.8125 39.7078 73.7553C36.8109 73.5108 34.0336 75.1023 31.9845 77.1619C29.4256 79.7363 27.6729 83.2417 27.7301 86.872C27.7873 90.5022 29.8833 94.1585 33.2275 95.5731" stroke="black" stroke-width="2" stroke-miterlimit="10"/>
</g>
<defs>
<clipPath id="clip0_370_276">
<rect width="307.015" height="200.719" fill="white" transform="translate(0.929688 0.219727)"/>
</clipPath>
</defs>
</svg>
