<svg width="406" height="586" viewBox="0 0 406 586" fill="none" xmlns="http://www.w3.org/2000/svg">
<rect x="1" y="1" width="403.333" height="583" fill="white" stroke="black" stroke-width="2"/>
<mask id="mask0_550_13" style="mask-type:alpha" maskUnits="userSpaceOnUse" x="0" y="0" width="406" height="585">
<rect x="1" y="1" width="403.333" height="583" fill="white" stroke="black" stroke-width="2"/>
</mask>
<g mask="url(#mask0_550_13)">
<path d="M58.9765 558.714C62.7425 558.714 66.3292 557.997 69.7365 556.562C73.1439 555.127 76.1029 552.975 78.6135 550.106C81.3035 547.057 83.4555 543.291 85.0695 538.808C86.6835 534.325 87.4905 529.124 87.4905 523.206V518.633C76.1925 519.35 67.4052 520.247 61.1285 521.323C55.0312 522.399 50.2789 524.102 46.8715 526.434C44.3609 528.048 42.5675 530.11 41.4915 532.621C40.4155 535.132 39.8775 537.911 39.8775 540.96C39.8775 546.161 41.5812 550.464 44.9885 553.872C48.3959 557.1 53.0585 558.714 58.9765 558.714ZM3.83153 482.587C4.7282 468.061 10.5565 456.763 21.3165 448.693C32.0765 440.623 46.9612 436.588 65.9705 436.588C77.6272 436.588 87.4009 437.843 95.2915 440.354C103.362 442.685 109.818 446.272 114.66 451.114C119.681 455.776 123.268 461.694 125.42 468.868C127.572 476.041 128.648 484.47 128.648 494.154V543.919C128.648 547.864 129.365 550.644 130.8 552.258C132.414 553.872 135.552 554.679 140.215 554.679V584.269H125.958C115.556 584.269 107.666 582.924 102.286 580.234C96.9055 577.544 93.0499 572.254 90.7185 564.363H90.1805C85.5179 571.178 79.5999 576.468 72.4265 580.234C65.4325 583.82 56.8245 585.614 46.6025 585.614C31.3592 585.614 19.3439 581.848 10.5565 574.316C1.94853 566.784 -2.35547 556.293 -2.35547 542.843C-2.35547 526.523 4.90753 514.508 19.4335 506.797C27.1449 502.672 36.4702 500.072 47.4095 498.996C58.5282 497.741 71.7989 496.754 87.2215 496.037V488.236C87.2215 472.096 80.1379 464.026 65.9705 464.026C58.9765 464.026 53.7759 465.819 50.3685 469.406C46.9612 472.813 45.0782 477.207 44.7195 482.587H3.83153Z" fill="black"/>
<path d="M195.624 0.5V439.816H227.904V469.406H196.162V533.159C196.162 540.511 197.597 545.891 200.466 549.299C203.515 552.527 208.716 554.141 216.068 554.141C217.324 554.141 218.669 554.141 220.103 554.141C221.538 553.962 222.883 553.782 224.138 553.603C225.573 553.424 226.918 553.244 228.173 553.065V584.269C225.304 584.628 221.359 584.986 216.337 585.345C211.316 585.703 205.757 585.883 199.659 585.883C192.665 585.883 186.299 585.076 180.56 583.462C175.001 581.848 170.249 579.337 166.303 575.93C162.358 572.343 159.309 567.68 157.157 561.942C155.005 556.203 153.929 549.299 153.929 541.229V469.406H132.678V440.085H137.52C142.004 440.085 145.68 439.816 148.549 439.278C151.419 438.56 153.571 437.126 155.005 434.974C156.619 432.822 157.695 429.773 158.233 425.828C158.771 421.883 159.04 416.682 159.04 410.226V0.5H195.624Z" fill="black"/>
<path d="M233.114 0.5H275.885V584H233.114V0.5Z" fill="black"/>
<path d="M365.204 479.897C364.845 475.234 362.962 471.379 359.555 468.33C356.147 465.102 351.126 463.488 344.491 463.488C337.855 463.488 332.834 464.923 329.427 467.792C326.019 470.661 324.316 474.248 324.316 478.552C324.316 482.677 325.481 485.905 327.813 488.236C330.323 490.567 334.717 492.181 340.994 493.078L365.473 496.306C378.743 498.099 388.965 502.403 396.139 509.218C403.491 515.853 407.168 525.717 407.168 538.808C407.168 546.878 405.554 553.961 402.326 560.059C399.277 566.156 394.973 571.267 389.414 575.392C384.034 579.517 377.488 582.655 369.777 584.807C362.065 586.959 353.637 588.035 344.491 588.035C333.731 588.035 324.495 586.869 316.784 584.538C309.072 582.206 302.616 578.979 297.416 574.854C292.394 570.55 288.539 565.618 285.849 560.059C283.338 554.5 281.814 548.492 281.276 542.036H320.55C320.908 547.237 322.881 551.63 326.468 555.217C330.054 558.804 336.152 560.597 344.76 560.597C351.574 560.597 357.044 559.252 361.169 556.562C365.473 553.872 367.625 549.927 367.625 544.726C367.625 540.422 366.459 537.104 364.128 534.773C361.796 532.441 357.223 530.828 350.409 529.931L327.275 526.703C313.825 524.73 303.423 520.337 296.071 513.522C288.718 506.707 285.042 496.754 285.042 483.663C285.042 477.386 286.207 471.379 288.539 465.64C291.049 459.901 294.726 454.88 299.568 450.576C304.41 446.272 310.597 442.865 318.129 440.354C325.661 437.664 334.538 436.319 344.76 436.319C354.085 436.319 362.245 437.395 369.239 439.547C376.412 441.699 382.42 444.748 387.262 448.693C392.104 452.459 395.78 457.032 398.291 462.412C400.801 467.792 402.326 473.62 402.864 479.897H365.204Z" fill="black"/>
</g>
<mask id="mask1_550_13" style="mask-type:alpha" maskUnits="userSpaceOnUse" x="-3" y="372" width="411" height="217">
<path d="M58.9766 558.714C62.7426 558.714 66.3293 557.997 69.7366 556.562C73.1439 555.127 76.1029 552.975 78.6136 550.106C81.3036 547.057 83.4556 543.291 85.0696 538.808C86.6836 534.325 87.4906 529.124 87.4906 523.206V518.633C76.1926 519.35 67.4053 520.247 61.1286 521.323C55.0313 522.399 50.2789 524.103 46.8716 526.434C44.3609 528.048 42.5676 530.11 41.4916 532.621C40.4156 535.132 39.8776 537.911 39.8776 540.96C39.8776 546.161 41.5813 550.465 44.9886 553.872C48.3959 557.1 53.0586 558.714 58.9766 558.714ZM3.8316 482.587C4.72826 468.061 10.5566 456.763 21.3166 448.693C32.0766 440.623 46.9613 436.588 65.9706 436.588C77.6273 436.588 87.4009 437.843 95.2916 440.354C103.362 442.685 109.818 446.272 114.66 451.114C119.681 455.777 123.268 461.695 125.42 468.868C127.572 476.041 128.648 484.47 128.648 494.154V543.919C128.648 547.864 129.365 550.644 130.8 552.258C132.414 553.872 135.552 554.679 140.215 554.679V584.269H125.958C115.556 584.269 107.666 582.924 102.286 580.234C96.9056 577.544 93.0499 572.254 90.7186 564.363H90.1806C85.5179 571.178 79.5999 576.468 72.4266 580.234C65.4326 583.821 56.8246 585.614 46.6026 585.614C31.3593 585.614 19.3439 581.848 10.5566 574.316C1.9486 566.784 -2.35541 556.293 -2.35541 542.843C-2.35541 526.524 4.9076 514.508 19.4336 506.797C27.1449 502.672 36.4703 500.072 47.4096 498.996C58.5283 497.741 71.7989 496.754 87.2216 496.037V488.236C87.2216 472.096 80.1379 464.026 65.9706 464.026C58.9766 464.026 53.7759 465.819 50.3686 469.406C46.9613 472.813 45.0783 477.207 44.7196 482.587H3.8316ZM195.624 399.197V439.816H227.904V469.406H196.162V533.159C196.162 540.512 197.597 545.892 200.466 549.299C203.515 552.527 208.716 554.141 216.068 554.141C217.324 554.141 218.669 554.141 220.103 554.141C221.538 553.962 222.883 553.782 224.138 553.603C225.573 553.424 226.918 553.244 228.173 553.065V584.269C225.304 584.628 221.359 584.986 216.337 585.345C211.316 585.704 205.757 585.883 199.659 585.883C192.665 585.883 186.299 585.076 180.56 583.462C175.001 581.848 170.249 579.337 166.303 575.93C162.358 572.343 159.309 567.681 157.157 561.942C155.005 556.203 153.929 549.299 153.929 541.229V469.406H132.678V440.085H137.52C142.004 440.085 145.68 439.816 148.549 439.278C151.419 438.561 153.571 437.126 155.005 434.974C156.619 432.822 157.695 429.773 158.233 425.828C158.771 421.883 159.04 416.682 159.04 410.226V399.197H195.624ZM233.114 372.028H275.885V584H233.114V372.028ZM365.204 479.897C364.845 475.234 362.962 471.379 359.555 468.33C356.147 465.102 351.126 463.488 344.491 463.488C337.855 463.488 332.834 464.923 329.427 467.792C326.019 470.661 324.316 474.248 324.316 478.552C324.316 482.677 325.481 485.905 327.813 488.236C330.323 490.567 334.717 492.181 340.994 493.078L365.473 496.306C378.743 498.099 388.965 502.403 396.139 509.218C403.491 515.853 407.168 525.717 407.168 538.808C407.168 546.878 405.554 553.962 402.326 560.059C399.277 566.156 394.973 571.267 389.414 575.392C384.034 579.517 377.488 582.655 369.777 584.807C362.065 586.959 353.637 588.035 344.491 588.035C333.731 588.035 324.495 586.869 316.784 584.538C309.072 582.207 302.616 578.979 297.416 574.854C292.394 570.55 288.539 565.618 285.849 560.059C283.338 554.5 281.814 548.492 281.276 542.036H320.55C320.908 547.237 322.881 551.63 326.468 555.217C330.054 558.804 336.152 560.597 344.76 560.597C351.574 560.597 357.044 559.252 361.169 556.562C365.473 553.872 367.625 549.927 367.625 544.726C367.625 540.422 366.459 537.104 364.128 534.773C361.796 532.442 357.223 530.828 350.409 529.931L327.275 526.703C313.825 524.73 303.423 520.337 296.071 513.522C288.718 506.707 285.042 496.754 285.042 483.663C285.042 477.386 286.207 471.379 288.539 465.64C291.049 459.901 294.726 454.88 299.568 450.576C304.41 446.272 310.597 442.865 318.129 440.354C325.661 437.664 334.538 436.319 344.76 436.319C354.085 436.319 362.245 437.395 369.239 439.547C376.412 441.699 382.42 444.748 387.262 448.693C392.104 452.459 395.78 457.032 398.291 462.412C400.801 467.792 402.326 473.62 402.864 479.897H365.204Z" fill="black"/>
</mask>
<g mask="url(#mask1_550_13)">
<path d="M288.318 558.714C292.084 558.714 295.671 557.997 299.078 556.562C302.485 555.127 305.444 552.975 307.955 550.106C310.645 547.057 312.797 543.291 314.411 538.808C316.025 534.325 316.832 529.124 316.832 523.206V518.633C305.534 519.35 296.747 520.247 290.47 521.323C284.373 522.399 279.62 524.103 276.213 526.434C273.702 528.048 271.909 530.11 270.833 532.621C269.757 535.132 269.219 537.911 269.219 540.96C269.219 546.161 270.923 550.465 274.33 553.872C277.737 557.1 282.4 558.714 288.318 558.714ZM233.173 482.587C234.07 468.061 239.898 456.763 250.658 448.693C261.418 440.623 276.303 436.588 295.312 436.588C306.969 436.588 316.742 437.843 324.633 440.354C332.703 442.685 339.159 446.272 344.001 451.114C349.022 455.777 352.609 461.695 354.761 468.868C356.913 476.041 357.989 484.47 357.989 494.154V543.919C357.989 547.864 358.706 550.644 360.141 552.258C361.755 553.872 364.893 554.679 369.556 554.679V584.269H355.299C344.898 584.269 337.007 582.924 331.627 580.234C326.247 577.544 322.391 572.254 320.06 564.363H319.522C314.859 571.178 308.941 576.468 301.768 580.234C294.774 583.821 286.166 585.614 275.944 585.614C260.701 585.614 248.685 581.848 239.898 574.316C231.29 566.784 226.986 556.293 226.986 542.843C226.986 526.524 234.249 514.508 248.775 506.797C256.486 502.672 265.812 500.072 276.751 498.996C287.87 497.741 301.14 496.754 316.563 496.037V488.236C316.563 472.096 309.479 464.026 295.312 464.026C288.318 464.026 283.117 465.819 279.71 469.406C276.303 472.813 274.42 477.207 274.061 482.587H233.173Z" fill="#058C42"/>
</g>
<rect x="1" y="1" width="403.333" height="583" stroke="black" stroke-width="2"/>
</svg>
