<svg width="418" height="607" viewBox="0 0 418 607" fill="none" xmlns="http://www.w3.org/2000/svg">
<rect x="367.126" y="129.581" width="28.6526" height="28.6526" transform="rotate(-54.1004 367.126 129.581)" stroke="#058C42" stroke-width="2"/>
<rect x="391.305" y="209.292" width="16.7662" height="16.7662" transform="rotate(-107.53 391.305 209.292)" stroke="#058C42" stroke-width="2"/>
<rect x="378.854" y="2.30605" width="41.8633" height="41.8633" transform="rotate(46.8514 378.854 2.30605)" stroke="#FBD914" stroke-width="2"/>
<path d="M51.0552 39.8593L57.3172 43.517L90.171 26.8853L111.257 39.2022L69.6655 59.6427L72.1405 108.223L50.2875 95.4583L48.4771 58.0642L42.4707 54.5558L26.6453 81.6484L6.32582 69.7794L46.3371 1.28102L66.6566 13.15L51.0552 39.8593Z" fill="#FBD914"/>
<path d="M104.818 1.46649L128.54 6.60547L132.432 50.1528C132.647 52.4205 132.75 54.5122 132.738 56.4279C132.824 58.3645 132.865 60.0392 132.861 61.4519C132.892 63.1747 132.809 64.7216 132.613 66.0925L133.047 66.1865C133.436 64.8574 134.001 63.415 134.742 61.8592C135.324 60.5719 136.006 59.0539 136.788 57.3053C137.571 55.5567 138.53 53.6948 139.664 51.7196L160.506 13.5306L182.926 18.3875L138.405 92.485C135.88 96.683 133.346 100.223 130.804 103.105C128.261 105.986 125.459 108.206 122.395 109.763C119.311 111.417 115.871 112.388 112.073 112.676C108.275 112.963 103.869 112.564 98.8548 111.478C95.094 110.663 92.3289 109.913 90.5594 109.227C88.7899 108.54 87.8191 108.128 87.6472 107.99L91.2821 91.2111C91.9153 91.5502 92.9447 91.9247 94.3702 92.3345C95.7749 92.8407 97.2969 93.2713 98.9362 93.6265C103.276 94.5665 106.711 94.5536 109.242 93.5876C111.849 92.7389 114.059 90.6938 115.871 87.4521L116.857 85.6971L104.818 1.46649Z" fill="#FBD914"/>
<path d="M167.837 40.8395L229.646 1.23751L272.442 68.0317L252.753 80.6468L219.059 28.0589L196.753 42.3507L230.446 94.9387L210.632 107.634L167.837 40.8395Z" fill="#FBD914"/>
<path d="M322.578 2.83267L346.243 1.99328L349.055 81.2714L325.982 82.0898L324.151 30.4703L323.855 30.4808C323.312 31.8822 322.678 33.4844 321.952 35.2873C320.684 38.4916 318.892 42.2574 316.577 46.5849L296.253 83.1443L272.587 83.9837L269.775 4.70555L292.849 3.88715L294.68 55.5067L294.976 55.4962C295.518 54.0947 296.153 52.4926 296.879 50.6897C297.516 49.1862 298.246 47.4819 299.067 45.5769C299.986 43.6685 301.049 41.6069 302.253 39.3921L322.578 2.83267Z" fill="#FBD914"/>
<path d="M6.80568 111.368L78.5154 105.768L79.8289 122.589L55.6306 124.479L60.4932 186.745L37.1802 188.566L32.3176 126.299L8.11927 128.189L6.80568 111.368Z" fill="#FBD914"/>
<path d="M109.535 145.113L121.187 153.997C125.345 157.168 128.605 160.459 130.966 163.872C133.405 167.345 134.966 170.831 135.648 174.329C136.409 177.887 136.352 181.38 135.476 184.807C134.601 188.233 132.966 191.516 130.573 194.654C128.061 197.95 125.208 200.552 122.016 202.46C118.883 204.29 115.471 205.349 111.778 205.635C108.224 205.903 104.42 205.36 100.365 204.005C96.3893 202.711 92.3221 200.478 88.1636 197.307L57.7992 174.155L105.898 111.073L124.611 125.341L109.535 145.113ZM100.023 157.588L86.0243 175.948L94.0273 182.05C95.9104 183.486 97.7282 184.438 99.4808 184.906C101.233 185.373 102.831 185.475 104.274 185.21C105.855 184.927 107.26 184.385 108.49 183.586C109.78 182.708 110.903 181.642 111.86 180.386C113.775 177.875 114.536 175.168 114.145 172.264C113.753 169.36 111.714 166.502 108.026 163.69L100.023 157.588Z" fill="#FBD914"/>
<path d="M244.036 192.363C241.292 198.289 238.594 203.39 235.941 207.664C233.323 211.847 230.455 215.146 227.339 217.562C224.316 220.012 220.985 221.452 217.348 221.882C213.71 222.312 209.628 221.68 205.1 219.986C203.991 219.571 203.038 219.162 202.24 218.758C201.443 218.355 200.756 217.939 200.178 217.513C199.508 217.051 198.977 216.642 198.584 216.284L205.378 198.125C205.586 198.414 205.857 198.673 206.192 198.904C206.863 199.366 207.706 199.787 208.722 200.167C211.772 201.308 214.497 200.642 216.897 198.169C219.39 195.73 222.129 191.224 225.115 184.651C226.544 181.394 228.21 177.645 230.113 173.406C232.049 169.074 233.836 165.002 235.473 161.19C237.445 156.765 239.422 152.185 241.405 147.449L300.178 169.439L272.379 243.737L250.339 235.49L272.225 176.995L253.928 170.149L244.036 192.363Z" fill="#058C42"/>
<path d="M345.406 140.021C343.107 134.873 340.35 131.205 337.136 129.017C333.921 126.83 330.229 126.497 326.058 128.019C321.517 129.677 318.599 132.475 317.306 136.413C316.012 140.352 316.136 145.295 317.678 151.245L345.761 140.994L345.406 140.021ZM376.013 156.105C377.54 163.74 375.976 170.823 371.323 177.353C366.762 183.85 359.43 188.942 349.327 192.63C343.303 194.829 337.635 195.847 332.324 195.685C327.106 195.489 322.295 194.252 317.892 191.973C313.582 189.66 309.759 186.381 306.424 182.137C303.089 177.892 300.322 172.758 298.123 166.733C296.059 161.079 294.999 155.585 294.942 150.249C294.851 144.82 295.755 139.816 297.655 135.236C299.52 130.564 302.432 126.455 306.39 122.91C310.313 119.272 315.195 116.387 321.034 114.256C327.337 111.955 333.068 110.966 338.227 111.288C343.479 111.577 348.167 112.912 352.292 115.292C356.51 117.639 360.131 120.939 363.154 125.192C366.235 129.319 368.774 134.116 370.771 139.585L372.902 145.424L322.296 163.896C325.195 170.401 328.455 174.725 332.073 176.87C335.692 179.016 339.865 179.225 344.592 177.5C346.817 176.688 348.586 175.78 349.9 174.775C351.18 173.677 352.148 172.589 352.804 171.509C353.519 170.303 353.968 169.088 354.152 167.866C354.303 166.551 354.36 165.269 354.325 164.022L376.013 156.105Z" fill="#058C42"/>
<path d="M364.229 183.921L404.177 222.874L392.398 234.954L369.298 212.429L325.696 257.146L308.847 240.718L364.229 183.921Z" fill="#058C42"/>
<path d="M364.273 314.7C358.085 314.11 352.575 312.643 347.744 310.299C343.02 307.866 339.108 304.718 336.008 300.854C332.917 296.892 330.682 292.268 329.303 286.982C328.022 281.706 327.691 275.827 328.309 269.344C328.927 262.862 330.413 257.156 332.767 252.226C335.12 247.297 338.184 243.228 341.959 240.02C345.744 236.714 350.181 234.362 355.27 232.964C360.457 231.576 366.144 231.177 372.332 231.767C378.324 232.339 383.686 233.792 388.419 236.126C393.25 238.47 397.216 241.574 400.317 245.438C403.417 249.302 405.652 253.926 407.022 259.31C408.499 264.604 408.928 270.493 408.31 276.976C407.692 283.458 406.156 289.16 403.705 294.08C401.253 299 398.086 303.108 394.203 306.405C390.33 309.604 385.844 311.951 380.746 313.447C375.657 314.845 370.166 315.263 364.273 314.7ZM370.829 247.531C367.882 247.25 365.312 247.699 363.118 248.877C361.032 249.967 359.242 251.58 357.75 253.717C356.356 255.864 355.214 258.481 354.325 261.568C353.436 264.655 352.818 268.015 352.471 271.649C352.106 275.48 352.068 278.995 352.358 282.194C352.647 285.393 353.318 288.233 354.37 290.712C355.431 293.093 356.883 295.015 358.726 296.479C360.676 297.855 363.075 298.678 365.924 298.95C368.87 299.231 371.387 298.827 373.473 297.737C375.667 296.559 377.461 294.897 378.855 292.75C380.258 290.505 381.356 287.835 382.147 284.738C383.036 281.651 383.654 278.291 384 274.657C384.366 270.826 384.404 267.311 384.114 264.112C383.923 260.922 383.296 258.137 382.235 255.756C381.272 253.384 379.815 251.511 377.865 250.135C376.022 248.671 373.677 247.803 370.829 247.531Z" fill="#058C42"/>
<rect x="6" y="2" width="402" height="581" stroke="black" stroke-width="2"/>
<path d="M36.3524 307.731L43.394 305.997L55.3976 271.184L79.1092 265.345L63.485 308.975L99.0846 342.124L74.5108 348.175L47.1765 322.594L40.4223 324.257L47.9252 354.723L25.0759 360.35L6.1064 283.323L28.9557 277.696L36.3524 307.731Z" fill="black"/>
<path d="M82.28 429.907C76.7361 432.718 71.2963 434.426 65.9605 435.03C60.6681 435.501 55.6786 434.934 50.9922 433.328C46.2611 431.634 41.8994 428.922 37.9069 425.194C34.0024 421.422 30.5776 416.631 27.6323 410.824C24.6871 405.016 22.8902 399.4 22.2417 393.976C21.5931 388.552 22.0056 383.475 23.4791 378.746C24.9079 373.928 27.3983 369.567 30.9504 365.664C34.5904 361.716 39.1824 358.337 44.7263 355.525C50.0942 352.803 55.402 351.162 60.6498 350.603C65.9856 349.999 70.9968 350.5 75.6832 352.106C80.3696 353.712 84.7314 356.424 88.7685 360.24C92.849 363.923 96.3618 368.669 99.3071 374.477C102.252 380.284 104.005 385.923 104.566 391.391C105.126 396.859 104.648 402.025 103.131 406.887C101.57 411.662 99.0354 416.045 95.528 420.036C91.9759 423.939 87.56 427.229 82.28 429.907ZM51.8886 369.649C49.2486 370.988 47.317 372.742 46.0938 374.911C44.914 376.947 44.2653 379.268 44.1477 381.872C44.118 384.431 44.5532 387.253 45.4533 390.336C46.3533 393.42 47.6288 396.59 49.2799 399.846C51.0203 403.278 52.8685 406.268 54.8245 408.816C56.7805 411.364 58.866 413.404 61.0809 414.936C63.2513 416.38 65.5065 417.228 67.8466 417.479C70.2301 417.598 72.6978 417.01 75.2497 415.716C77.8897 414.377 79.7996 412.69 80.9794 410.653C82.2027 408.484 82.8291 406.12 82.8587 403.56C82.8437 400.913 82.3422 398.07 81.3541 395.031C80.4541 391.947 79.1786 388.777 77.5274 385.521C75.7871 382.089 73.9389 379.099 71.9829 376.551C70.1149 373.958 68.0957 371.94 65.9254 370.496C63.843 369.008 61.6101 368.204 59.2267 368.085C56.8866 367.834 54.4405 368.355 51.8886 369.649Z" fill="black"/>
<path d="M130.054 409.457L154.002 423.623L169.75 397L189.877 408.905L149.489 477.183L129.363 465.277L145.337 438.272L121.389 424.107L105.415 451.112L85.1609 439.131L125.548 370.854L145.802 382.834L130.054 409.457Z" fill="black"/>
<path d="M211.052 460.789C209.866 456.697 207.948 453.498 205.296 451.192C202.742 448.869 199.284 448.124 194.923 448.959C191.919 449.535 189.539 450.744 187.782 452.587C186.007 454.333 184.712 456.49 183.898 459.057C183.18 461.605 182.876 464.477 182.985 467.67C183.076 470.767 183.427 473.915 184.04 477.112C184.615 480.117 185.384 483.084 186.347 486.013C187.31 488.943 188.556 491.517 190.086 493.736C191.713 495.936 193.692 497.616 196.024 498.777C198.337 499.841 201.141 500.058 204.436 499.427C206.956 498.944 209.004 498.1 210.581 496.894C212.256 495.669 213.496 494.277 214.302 492.716C215.108 491.155 215.587 489.456 215.737 487.619C215.966 485.666 215.943 483.712 215.669 481.755L238.054 477.469C238.844 482.642 238.641 487.352 237.445 491.6C236.327 495.731 234.372 499.421 231.578 502.668C228.862 505.8 225.454 508.462 221.353 510.654C217.234 512.749 212.606 514.288 207.47 515.271C194.775 517.702 184.349 515.981 176.193 510.109C168.115 504.121 162.851 494.732 160.402 481.94C159.196 475.641 159.031 469.796 159.907 464.404C160.784 459.012 162.584 454.248 165.307 450.109C168.012 445.875 171.611 442.373 176.104 439.604C180.578 436.738 185.868 434.72 191.973 433.551C197.206 432.549 202.075 432.27 206.58 432.713C211.182 433.138 215.323 434.304 219.004 436.211C222.684 438.119 225.749 440.746 228.198 444.095C230.745 447.425 232.588 451.542 233.728 456.447L211.052 460.789Z" fill="black"/>
<path d="M230.898 416.259L300.611 433.971L296.456 450.323L272.932 444.346L257.552 504.879L234.888 499.121L250.268 438.588L226.743 432.611L230.898 416.259Z" fill="black"/>
<path d="M323.813 441.801C324.627 447.964 326.626 452.925 329.81 456.684C332.981 460.346 337.306 461.814 342.783 461.091C347.968 460.406 351.645 457.73 353.815 453.065C356.083 448.386 356.655 441.791 355.531 433.281C354.432 424.967 352.284 418.881 349.088 415.024C345.891 411.167 341.505 409.607 335.929 410.343C331.234 410.964 327.616 413.333 325.075 417.45C322.618 421.457 321.823 426.737 322.689 433.291L323.813 441.801ZM295.02 401.267L317.469 398.301L319.155 411.067L319.449 411.028C320.097 409.151 321.044 407.284 322.292 405.427C323.624 403.46 325.227 401.656 327.1 400.015C328.961 398.276 331.16 396.841 333.697 395.71C336.222 394.48 339.098 393.652 342.326 393.226C346.826 392.631 351.086 392.865 355.108 393.926C359.215 394.876 362.906 396.827 366.182 399.778C369.445 402.631 372.202 406.546 374.452 411.524C376.702 416.501 378.305 422.609 379.261 429.848C380.127 436.401 380.071 442.38 379.093 447.784C378.2 453.077 376.525 457.727 374.069 461.734C371.6 465.643 368.385 468.805 364.424 471.219C360.562 473.621 356.087 475.157 351.001 475.829C345.327 476.579 340.575 476.013 336.743 474.13C332.912 472.248 329.958 469.851 327.881 466.941L327.441 466.999L332.384 504.414L309.055 507.496L295.02 401.267Z" fill="black"/>
<path d="M32.4039 428.107L55.6328 435.146L55.9933 478.865C56.0247 481.143 55.9575 483.236 55.7915 485.144C55.72 487.082 55.6256 488.754 55.5083 490.162C55.3995 491.882 55.1921 493.417 54.8859 494.767L55.3108 494.896C55.8058 493.603 56.4854 492.211 57.3496 490.72C58.0334 489.484 58.8361 488.026 59.7574 486.346C60.6788 484.667 61.7848 482.888 63.0753 481.011L86.9351 444.631L108.889 451.284L58.5256 521.542C55.6699 525.522 52.8585 528.845 50.0916 531.512C47.3246 534.179 44.3516 536.165 41.1725 537.47C37.9649 538.869 34.4568 539.558 30.6483 539.538C26.8398 539.518 22.4804 538.764 17.5702 537.276C13.8876 536.16 11.1922 535.189 9.48391 534.362C7.77565 533.535 6.8414 533.046 6.68116 532.894L11.66 516.464C12.2638 516.853 13.2596 517.309 14.6473 517.833C16.0065 518.451 17.4887 519.003 19.094 519.49C23.3431 520.778 26.7682 521.042 29.3693 520.284C32.0361 519.649 34.4039 517.789 36.4727 514.704L37.5973 513.035L32.4039 428.107Z" fill="black"/>
<path d="M95.4762 531.226L101.064 526.603L96.7416 490.034L115.557 474.468L120.452 520.552L166.922 534.93L147.422 551.062L111.685 539.906L106.325 544.34L126.325 568.515L108.194 583.515L57.6276 522.393L75.7591 507.393L95.4762 531.226Z" fill="black"/>
<path d="M148.697 577.676L175.014 510.735L190.716 516.908L181.836 539.497L239.961 562.348L231.406 584.111L173.28 561.26L164.4 583.849L148.697 577.676Z" fill="black"/>
<path d="M282.723 582.734C276.603 583.823 270.902 583.886 265.619 582.922C260.417 581.843 255.804 579.858 251.782 576.966C247.742 573.977 244.35 570.121 241.605 565.399C238.958 560.659 237.063 555.083 235.922 548.672C234.781 542.26 234.684 536.365 235.631 530.985C236.577 525.605 238.439 520.864 241.217 516.762C243.977 512.563 247.621 509.108 252.15 506.398C256.776 503.671 262.148 501.762 268.268 500.673C274.194 499.618 279.749 499.582 284.935 500.563C290.217 501.527 294.87 503.455 298.892 506.347C302.914 509.239 306.307 513.095 309.069 517.914C311.91 522.62 313.902 528.178 315.043 534.59C316.184 541.001 316.233 546.905 315.189 552.302C314.145 557.699 312.195 562.506 309.337 566.723C306.463 570.842 302.77 574.305 298.258 577.113C293.73 579.823 288.552 581.696 282.723 582.734ZM271.043 516.264C268.129 516.783 265.773 517.904 263.975 519.627C262.257 521.235 260.965 523.269 260.1 525.728C259.332 528.17 258.933 530.997 258.904 534.209C258.874 537.421 259.179 540.824 259.819 544.418C260.493 548.207 261.398 551.604 262.534 554.608C263.67 557.613 265.077 560.169 266.755 562.275C268.416 564.285 270.33 565.748 272.497 566.665C274.745 567.468 277.277 567.618 280.094 567.117C283.008 566.598 285.324 565.535 287.042 563.926C288.84 562.203 290.123 560.121 290.891 557.679C291.642 555.14 291.983 552.273 291.916 549.078C291.946 545.866 291.64 542.463 291.001 538.869C290.326 535.08 289.421 531.684 288.285 528.679C287.246 525.657 285.897 523.141 284.236 521.132C282.673 519.105 280.767 517.69 278.52 516.888C276.352 515.971 273.86 515.763 271.043 516.264Z" fill="black"/>
<path d="M349.668 523.957C347.693 529.851 347.309 535.185 348.518 539.961C349.758 544.643 352.998 547.863 358.237 549.619C363.195 551.281 367.673 550.493 371.673 547.255C375.765 544.048 379.176 538.375 381.904 530.236C384.57 522.284 385.314 515.874 384.136 511.004C382.959 506.135 379.704 502.806 374.372 501.019C369.881 499.514 365.59 500.053 361.499 502.635C357.532 505.156 354.498 509.55 352.397 515.818L349.668 523.957ZM341.608 474.895L363.078 482.092L358.985 494.3L359.266 494.394C360.672 492.993 362.344 491.732 364.28 490.612C366.341 489.43 368.574 488.513 370.977 487.862C373.412 487.117 376.018 486.794 378.795 486.892C381.603 486.897 384.551 487.417 387.638 488.452C391.941 489.894 395.666 491.975 398.813 494.695C402.085 497.353 404.544 500.727 406.191 504.817C407.869 508.814 408.625 513.542 408.46 519.002C408.295 524.462 407.052 530.653 404.731 537.576C402.63 543.844 399.953 549.19 396.701 553.615C393.573 557.978 390.026 561.42 386.059 563.94C382.124 566.367 377.847 567.795 373.228 568.224C368.703 568.685 364.009 568.1 359.144 566.469C353.718 564.65 349.698 562.054 347.082 558.679C344.467 555.305 342.866 551.855 342.279 548.328L341.858 548.187L329.863 583.97L307.552 576.491L341.608 474.895Z" fill="black"/>
<rect x="213.151" y="321.607" width="110.469" height="110.469" transform="rotate(-34.8512 213.151 321.607)" stroke="black" stroke-width="2"/>
<rect x="153.076" y="334.137" width="64.2321" height="64.2321" transform="rotate(-4.51969 153.076 334.137)" stroke="black" stroke-width="2"/>
<rect x="134.505" y="252" width="77.0428" height="77.0428" transform="rotate(56.3911 134.505 252)" stroke="black" stroke-width="2"/>
<rect x="197.241" y="269.985" width="41.7855" height="41.7855" transform="rotate(42.5484 197.241 269.985)" stroke="black" stroke-width="2"/>
<rect x="228.122" y="266.09" width="25.1614" height="25.1614" transform="rotate(11.5362 228.122 266.09)" stroke="black" stroke-width="2"/>
<rect x="260.361" y="136.637" width="25.1614" height="25.1614" transform="rotate(-29.2036 260.361 136.637)" stroke="#058C42" stroke-width="2"/>
<rect x="151.969" y="71.3724" width="37.2039" height="37.2039" transform="rotate(5.52794 151.969 71.3724)" stroke="#FBD914" stroke-width="2"/>
<rect x="113.414" y="145.156" width="49.1887" height="49.1887" transform="rotate(-46.6044 113.414 145.156)" stroke="#FBD914" stroke-width="2"/>
<rect x="175.241" y="116.232" width="24.8602" height="24.8602" transform="rotate(-16.332 175.241 116.232)" stroke="#FBD914" stroke-width="2"/>
<path d="M272.447 391.349L269.015 393.778L267.306 391.364L267.756 391.046C268.276 390.677 268.711 390.287 269.059 389.875C269.411 389.436 269.648 388.984 269.769 388.519C269.995 387.601 269.723 386.597 268.952 385.508L272.29 383.146L284.723 400.708L280.96 403.372L272.447 391.349ZM281.884 384.668L278.452 387.097L276.743 384.683L277.193 384.365C277.714 383.996 278.148 383.606 278.496 383.194C278.848 382.755 279.085 382.303 279.206 381.838C279.432 380.92 279.16 379.916 278.389 378.827L281.727 376.465L294.16 394.027L290.397 396.691L281.884 384.668ZM290.82 383.351C289.736 381.821 288.958 380.37 288.485 379C288.017 377.602 287.828 376.314 287.918 375.137C288.013 373.933 288.366 372.842 288.977 371.865C289.577 370.872 290.413 369.995 291.486 369.236C292.607 368.442 293.737 367.915 294.878 367.652C296.018 367.389 297.164 367.419 298.316 367.741C299.456 368.047 300.592 368.664 301.723 369.592C302.859 370.494 303.974 371.718 305.069 373.264C306.141 374.779 306.914 376.222 307.387 377.592C307.86 378.963 308.057 380.245 307.977 381.438C307.887 382.615 307.534 383.706 306.919 384.71C306.292 385.699 305.426 386.584 304.322 387.366C302.034 388.986 299.755 389.498 297.485 388.902C295.22 388.278 292.998 386.428 290.82 383.351ZM302.311 384.526C302.753 384.213 303.077 383.818 303.284 383.34C303.495 382.835 303.561 382.243 303.483 381.564C303.394 380.869 303.141 380.077 302.724 379.188C302.308 378.298 301.703 377.293 300.91 376.173C300.106 375.037 299.345 374.13 298.629 373.453C297.917 372.749 297.254 372.247 296.64 371.948C296.014 371.633 295.433 371.499 294.898 371.546C294.368 371.566 293.89 371.727 293.464 372.029C293.006 372.353 292.679 372.761 292.484 373.255C292.278 373.733 292.219 374.319 292.308 375.014C292.402 375.682 292.663 376.468 293.09 377.374C293.507 378.263 294.117 379.276 294.922 380.412C295.748 381.58 296.51 382.521 297.206 383.237C297.906 383.925 298.556 384.425 299.155 384.735C299.758 385.018 300.319 385.142 300.839 385.106C301.363 385.043 301.853 384.85 302.311 384.526ZM306.845 372.007C305.761 370.476 304.983 369.026 304.51 367.655C304.042 366.257 303.853 364.97 303.943 363.792C304.038 362.588 304.391 361.497 305.002 360.52C305.602 359.527 306.438 358.651 307.511 357.891C308.631 357.098 309.762 356.57 310.902 356.307C312.043 356.045 313.189 356.074 314.341 356.396C315.481 356.702 316.617 357.319 317.748 358.248C318.883 359.149 319.999 360.373 321.093 361.919C322.166 363.434 322.939 364.877 323.411 366.248C323.884 367.618 324.081 368.9 324.002 370.093C323.912 371.271 323.559 372.361 322.943 373.366C322.317 374.354 321.451 375.239 320.346 376.021C318.058 377.641 315.78 378.153 313.51 377.557C311.245 376.934 309.023 375.084 306.845 372.007ZM318.336 373.181C318.777 372.868 319.102 372.473 319.308 371.995C319.519 371.49 319.586 370.898 319.508 370.219C319.419 369.525 319.166 368.732 318.749 367.843C318.333 366.953 317.728 365.948 316.935 364.828C316.13 363.692 315.37 362.785 314.654 362.108C313.942 361.404 313.279 360.902 312.664 360.603C312.038 360.288 311.458 360.154 310.923 360.201C310.392 360.221 309.914 360.382 309.488 360.684C309.031 361.008 308.704 361.417 308.509 361.91C308.302 362.388 308.244 362.974 308.333 363.669C308.427 364.337 308.687 365.124 309.115 366.029C309.532 366.919 310.142 367.931 310.946 369.067C311.773 370.235 312.534 371.177 313.23 371.892C313.931 372.58 314.58 373.08 315.179 373.39C315.783 373.674 316.344 373.798 316.863 373.761C317.387 373.699 317.878 373.505 318.336 373.181ZM322.869 360.662C321.786 359.132 321.007 357.681 320.535 356.31C320.066 354.913 319.877 353.625 319.968 352.448C320.063 351.243 320.415 350.153 321.026 349.175C321.626 348.182 322.463 347.306 323.536 346.546C324.656 345.753 325.786 345.225 326.927 344.963C328.067 344.7 329.214 344.729 330.365 345.051C331.506 345.357 332.641 345.974 333.772 346.903C334.908 347.804 336.023 349.028 337.118 350.575C338.19 352.089 338.963 353.532 339.436 354.903C339.909 356.274 340.106 357.556 340.027 358.749C339.936 359.926 339.583 361.017 338.968 362.021C338.341 363.009 337.476 363.895 336.371 364.677C334.083 366.296 331.804 366.808 329.534 366.212C327.269 365.589 325.048 363.739 322.869 360.662ZM334.36 361.836C334.802 361.524 335.126 361.128 335.333 360.65C335.544 360.146 335.61 359.554 335.532 358.875C335.443 358.18 335.19 357.388 334.774 356.498C334.357 355.609 333.752 354.604 332.959 353.483C332.155 352.347 331.395 351.441 330.678 350.763C329.966 350.059 329.303 349.557 328.689 349.258C328.063 348.943 327.483 348.809 326.948 348.856C326.417 348.877 325.939 349.038 325.513 349.339C325.055 349.663 324.729 350.072 324.533 350.566C324.327 351.043 324.268 351.63 324.357 352.325C324.451 352.993 324.712 353.779 325.14 354.684C325.556 355.574 326.167 356.587 326.971 357.723C327.798 358.89 328.559 359.832 329.255 360.547C329.955 361.236 330.605 361.735 331.204 362.046C331.807 362.329 332.369 362.453 332.888 362.417C333.412 362.354 333.903 362.16 334.36 361.836ZM342.956 351.736L341.699 349.961L339.308 351.653L338.035 349.855L340.425 348.162L334.192 339.357L340.63 334.8C341.592 334.118 342.557 333.59 343.522 333.214C344.488 332.838 345.427 332.659 346.34 332.676C347.257 332.666 348.129 332.878 348.956 333.311C349.773 333.728 350.51 334.402 351.169 335.333C351.84 336.279 352.234 337.221 352.351 338.156C352.473 339.065 352.361 339.961 352.016 340.845C351.686 341.718 351.155 342.556 350.421 343.36C349.687 344.164 348.815 344.923 347.805 345.638L345.581 347.213L346.837 348.988L353.417 344.33L354.691 346.129L348.111 350.787L350.49 354.148L346.609 356.896L344.229 353.535L341.862 355.211L340.589 353.412L342.956 351.736ZM346.181 343.092C347.191 342.378 347.816 341.604 348.055 340.771C348.283 339.922 348.079 339.048 347.442 338.149C346.761 337.186 346.005 336.703 345.173 336.7C344.346 336.669 343.436 337.006 342.441 337.71L340.051 339.402L343.838 344.751L346.181 343.092Z" fill="black"/>
</svg>
