<svg width="1000" height="310" viewBox="0 0 1000 310" fill="none" xmlns="http://www.w3.org/2000/svg">
<path d="M40.2997 40.5169L41.4137 32.9837H34.6763L33.5623 40.5169H40.2997ZM28.8939 44.5487H23.0583V40.5169H29.5305L30.5915 32.9837H24.6498V28.9519H31.175L32.5543 19.7211H36.5862L35.2599 28.9519H41.9442L43.3236 19.7211H47.4084L46.0291 28.9519H52.0769V32.9837H45.4456L44.3846 40.5169H50.4854V44.5487H43.748L42.2626 55.0527H38.1777L39.6631 44.5487H32.9257L31.4403 55.0527H27.4084L28.8939 44.5487Z" fill="black"/>
<path d="M28.2496 220.57H49.4698V224.231H28.2496V220.57Z" fill="black"/>
<path d="M49.0528 264.156H44.7027L38.8672 254.024H38.8141L32.7664 264.156H28.6815L37.0104 249.196H40.9361L49.0528 264.156Z" fill="black"/>
<path d="M123.885 261.186C123.885 259.488 124.168 258.02 124.734 256.782C125.3 255.509 126.061 254.448 127.015 253.599C127.97 252.751 129.084 252.132 130.358 251.743C131.631 251.318 132.992 251.106 134.443 251.106C135.893 251.106 137.254 251.318 138.527 251.743C139.836 252.132 140.968 252.751 141.923 253.599C142.878 254.448 143.638 255.509 144.204 256.782C144.77 258.02 145.053 259.488 145.053 261.186C145.053 262.883 144.77 264.369 144.204 265.642C143.638 266.88 142.878 267.923 141.923 268.772C140.968 269.621 139.836 270.257 138.527 270.682C137.254 271.106 135.893 271.318 134.443 271.318C132.957 271.318 131.56 271.106 130.252 270.682C128.978 270.257 127.864 269.621 126.909 268.772C125.99 267.923 125.247 266.88 124.681 265.642C124.151 264.369 123.885 262.883 123.885 261.186ZM88.8192 251.69H95.1322L112.108 280.602C112.427 281.203 112.71 281.752 112.957 282.247C113.24 282.706 113.47 283.113 113.647 283.467C113.859 283.856 114.036 284.227 114.177 284.581H114.336V251.69H119.005V291H112.692L95.7688 262.141C95.3797 261.469 95.0438 260.885 94.7608 260.39C94.5132 259.895 94.301 259.488 94.1242 259.17L93.6468 258.215H93.5407V291H88.8192V251.69ZM128.342 261.186C128.342 263.414 128.872 265.058 129.933 266.119C130.994 267.18 132.48 267.711 134.389 267.711C136.264 267.711 137.749 267.18 138.846 266.119C139.942 265.023 140.49 263.378 140.49 261.186C140.49 258.958 139.942 257.313 138.846 256.252C137.749 255.156 136.264 254.607 134.389 254.607C132.48 254.607 130.994 255.138 129.933 256.199C128.872 257.26 128.342 258.922 128.342 261.186ZM124.946 274.926H143.992V279.223H124.946V274.926Z" fill="black"/>
<path d="M190.065 255.138C187.943 255.421 186.316 256.181 185.184 257.419C184.053 258.657 183.487 260.089 183.487 261.716C183.487 263.732 184.053 265.253 185.184 266.279C186.316 267.304 187.819 267.976 189.694 268.294L190.065 268.347V255.138ZM193.885 287.286C196.466 287.004 198.305 286.243 199.402 285.005C200.498 283.732 201.046 282.176 201.046 280.337C201.046 278.639 200.516 277.225 199.455 276.093C198.394 274.926 196.643 274.112 194.203 273.653L193.566 273.546V287.286H193.885ZM190.065 297.154V291.371C185.998 291.088 182.956 289.886 180.94 287.764C178.96 285.642 177.828 282.972 177.545 279.753H182.266C182.408 280.673 182.656 281.557 183.009 282.406C183.363 283.255 183.84 284.033 184.442 284.74C185.078 285.412 185.856 285.978 186.776 286.438C187.695 286.897 188.792 287.198 190.065 287.34V272.857L189.11 272.698C185.821 272.096 183.292 270.929 181.524 269.196C179.791 267.428 178.924 264.935 178.924 261.716C178.924 260.337 179.19 259.046 179.72 257.844C180.286 256.641 181.046 255.598 182.001 254.714C182.992 253.794 184.159 253.051 185.503 252.485C186.882 251.884 188.403 251.495 190.065 251.318V247.074H193.566V251.318C197.174 251.637 199.95 252.786 201.895 254.767C203.84 256.712 204.901 259.24 205.078 262.353H200.41C200.198 260.62 199.561 259.081 198.5 257.737C197.474 256.358 195.83 255.492 193.566 255.138V268.984L195.105 269.249C199.03 269.957 201.789 271.212 203.381 273.016C205.007 274.82 205.821 277.118 205.821 279.912C205.821 283.272 204.778 285.96 202.691 287.976C200.64 289.957 197.598 291.088 193.566 291.371V297.154H190.065Z" fill="black"/>
<path d="M272.145 252.645C273.454 252.645 274.674 252.733 275.806 252.91C276.938 253.087 277.981 253.334 278.936 253.653C279.891 253.971 280.757 254.324 281.535 254.714L279.891 258.374C278.794 257.879 277.592 257.454 276.283 257.101C275.01 256.747 273.649 256.57 272.199 256.57C270.324 256.57 268.821 257.083 267.689 258.109C266.593 259.134 266.045 260.814 266.045 263.149V267.817H276.761V271.265H266.045V275.403H276.761V278.905H265.992C265.992 280.425 265.832 281.698 265.514 282.724C265.231 283.75 264.807 284.581 264.241 285.218C263.71 285.854 263.092 286.367 262.384 286.756H282.756V291H256.071V287.074C257.168 286.827 258.105 286.385 258.883 285.748C259.696 285.111 260.315 284.227 260.74 283.095C261.164 281.964 261.376 280.567 261.376 278.905H256.23V275.403H261.376V271.265H256.23V267.817H261.376V264.316C261.376 261.875 261.748 259.789 262.49 258.056C263.233 256.323 264.382 254.996 265.939 254.077C267.53 253.122 269.599 252.645 272.145 252.645Z" fill="black"/>
<path d="M361.278 280.019C361.172 281.752 360.801 283.343 360.164 284.793C359.563 286.243 358.714 287.499 357.618 288.56C356.521 289.585 355.195 290.399 353.639 291C352.118 291.566 350.385 291.849 348.44 291.849C346.565 291.849 344.85 291.584 343.294 291.053C341.738 290.523 340.359 289.691 339.156 288.56C337.989 287.393 336.999 285.925 336.185 284.156C335.407 282.353 334.841 280.195 334.488 277.684H330.031V273.918H334.116C334.081 273.529 334.063 273.14 334.063 272.751C334.063 272.326 334.063 271.902 334.063 271.477C334.063 271.053 334.063 270.646 334.063 270.257C334.063 269.868 334.081 269.479 334.116 269.09H329.925V265.324H334.488C335.266 260.514 336.875 256.942 339.315 254.607C341.791 252.273 344.832 251.106 348.44 251.106C350.031 251.106 351.552 251.354 353.002 251.849C354.488 252.344 355.796 253.104 356.928 254.13C358.06 255.12 358.979 256.358 359.687 257.844C360.429 259.329 360.854 261.044 360.96 262.989H356.238C356.132 262.034 355.885 261.08 355.496 260.125C355.107 259.17 354.576 258.321 353.904 257.578C353.267 256.836 352.489 256.234 351.57 255.775C350.65 255.279 349.607 255.032 348.44 255.032C345.893 255.032 343.878 255.916 342.392 257.684C340.907 259.453 339.916 261.999 339.421 265.324H351.729V269.09H339.05C339.015 269.479 338.997 269.868 338.997 270.257C338.997 270.646 338.997 271.053 338.997 271.477C338.997 271.902 338.997 272.326 338.997 272.751C338.997 273.14 339.015 273.529 339.05 273.918H351.835V277.684H339.421C339.952 281.115 340.96 283.697 342.445 285.43C343.931 287.163 345.929 288.029 348.44 288.029C349.713 288.029 350.827 287.817 351.782 287.393C352.772 286.968 353.603 286.402 354.275 285.695C354.947 284.988 355.46 284.156 355.814 283.202C356.203 282.211 356.451 281.15 356.557 280.019H361.278Z" fill="black"/>
<path d="M430.374 264.846C431.01 263.891 431.328 262.636 431.328 261.08C431.328 259.382 430.674 257.932 429.366 256.729C428.092 255.527 426.236 254.926 423.795 254.926C422.628 254.926 421.603 255.085 420.718 255.403C419.834 255.721 419.074 256.146 418.437 256.676C417.836 257.207 417.323 257.844 416.899 258.586C416.51 259.294 416.209 260.054 415.997 260.867H410.851C411.311 257.861 412.602 255.474 414.724 253.706C416.846 251.902 419.852 251 423.742 251C425.723 251 427.491 251.248 429.047 251.743C430.639 252.238 431.965 252.928 433.026 253.812C434.122 254.696 434.954 255.757 435.519 256.995C436.085 258.233 436.368 259.594 436.368 261.08C436.368 262.53 436.138 263.785 435.679 264.846H439.233V268.507H406.66V264.846H430.374ZM439.339 273.44V277.101H415.732C415.095 278.126 414.777 279.364 414.777 280.814C414.777 281.769 414.918 282.671 415.201 283.52C415.519 284.369 416.015 285.111 416.687 285.748C417.359 286.385 418.243 286.897 419.339 287.286C420.435 287.64 421.797 287.817 423.424 287.817C424.803 287.817 426.023 287.64 427.084 287.286C428.145 286.933 429.065 286.455 429.843 285.854C430.621 285.253 431.258 284.563 431.753 283.785C432.248 282.972 432.619 282.105 432.867 281.186H438.172C437.889 282.777 437.359 284.227 436.58 285.536C435.838 286.809 434.848 287.923 433.61 288.878C432.407 289.798 430.957 290.505 429.26 291C427.562 291.531 425.652 291.796 423.53 291.796C421.267 291.796 419.268 291.531 417.535 291C415.838 290.469 414.405 289.727 413.238 288.772C412.071 287.817 411.187 286.668 410.586 285.324C410.02 283.98 409.737 282.494 409.737 280.867C409.737 280.16 409.79 279.506 409.896 278.905C410.038 278.268 410.214 277.667 410.427 277.101H406.766V273.44H439.339Z" fill="black"/>
<path d="M516.54 251.69V255.35H484.445V251.69H516.54ZM516.54 264.581H503.013V291H498.079V264.581H484.551V260.284H516.54V264.581Z" fill="black"/>
<path d="M565.283 279.594V274.66H559.395V271H565.283V251.69H577.485C579.43 251.69 581.252 251.92 582.949 252.379C584.682 252.804 586.168 253.476 587.405 254.395C588.643 255.315 589.616 256.482 590.323 257.897C591.066 259.311 591.437 261.009 591.437 262.989C591.437 264.97 591.066 266.703 590.323 268.188C589.616 269.638 588.626 270.841 587.352 271.796C586.079 272.751 584.558 273.476 582.79 273.971C581.057 274.431 579.147 274.66 577.061 274.66H570.217V279.594H585.336V283.255H570.217V291H565.283V283.255H559.501V279.594H565.283ZM577.061 270.682C580.031 270.682 582.313 270.045 583.904 268.772C585.531 267.499 586.344 265.571 586.344 262.989C586.344 260.372 585.531 258.498 583.904 257.366C582.313 256.234 580.084 255.668 577.22 255.668H570.217V270.682H577.061Z" fill="black"/>
<path d="M36.0284 95.4248H41.4395L40.8029 124.656H36.6119L36.0284 95.4248ZM35.604 137.229V130.969H41.8639V137.229H35.604Z" fill="black"/>
<path d="M107.814 40.8882C107.814 42.1261 108.132 43.134 108.769 43.9121C109.441 44.6548 110.29 45.2737 111.315 45.7689L118 49.1111C118.46 49.3586 118.884 49.5885 119.273 49.8007C119.697 50.0129 120.104 50.2428 120.493 50.4904C121.483 50.1367 122.279 49.5885 122.88 48.8458C123.482 48.1031 123.782 47.0775 123.782 45.7689C123.782 44.7432 123.499 43.8591 122.934 43.1164C122.368 42.3737 121.413 41.6663 120.069 40.9943L113.915 37.9174C113.491 37.7052 113.084 37.493 112.695 37.2808C112.306 37.0686 111.934 36.8564 111.581 36.6442C109.07 37.3515 107.814 38.7662 107.814 40.8882ZM103.093 41.6309C103.093 39.7565 103.641 38.218 104.737 37.0156C105.834 35.8131 107.125 34.9112 108.61 34.31V34.2039C107.903 33.4966 107.39 32.7008 107.071 31.8166C106.789 30.9325 106.647 29.9068 106.647 28.7397C106.647 27.5372 106.877 26.4232 107.337 25.3975C107.832 24.3719 108.504 23.4877 109.353 22.745C110.237 22.0023 111.28 21.4364 112.483 21.0474C113.72 20.623 115.082 20.4108 116.567 20.4108C119.68 20.4108 122.014 21.2065 123.57 22.7981C125.162 24.3542 126.046 26.4409 126.223 29.058H121.554C121.483 28.386 121.342 27.7494 121.13 27.1482C120.953 26.5116 120.67 25.9811 120.281 25.5567C119.892 25.0969 119.379 24.7432 118.743 24.4957C118.141 24.2127 117.381 24.0713 116.461 24.0713C114.658 24.0713 113.349 24.5134 112.536 25.3975C111.758 26.2817 111.369 27.3073 111.369 28.4745C111.369 29.8184 111.687 30.8264 112.323 31.4983C112.96 32.1703 113.773 32.7538 114.764 33.249L121.342 36.4851C122.721 37.1924 123.871 37.8821 124.79 38.554C125.71 39.226 126.435 39.9157 126.965 40.623C127.531 41.3303 127.938 42.0907 128.186 42.9042C128.433 43.6822 128.557 44.5487 128.557 45.5036C128.557 47.4488 128.044 48.9873 127.018 50.119C126.028 51.2508 124.843 52.1349 123.464 52.7715V52.8776C124.702 54.1155 125.321 55.8308 125.321 58.0235C125.321 60.5699 124.437 62.5859 122.668 64.0713C120.9 65.592 118.3 66.3524 114.87 66.3524C111.545 66.3524 108.999 65.4859 107.231 63.753C105.498 62.02 104.56 59.7211 104.419 56.8564H109.193C109.406 58.6955 109.918 60.1102 110.732 61.1004C111.581 62.0907 112.995 62.5859 114.976 62.5859C117.063 62.5859 118.513 62.1791 119.326 61.3657C120.175 60.5523 120.599 59.5266 120.599 58.2888C120.599 57.6522 120.529 57.1217 120.387 56.6973C120.246 56.2375 120.016 55.8485 119.697 55.5302C119.379 55.1765 118.972 54.8582 118.477 54.5752C117.982 54.2569 117.399 53.921 116.727 53.5673L110.361 50.3843C109.229 49.8184 108.203 49.2525 107.284 48.6867C106.399 48.1208 105.639 47.5019 105.002 46.8299C104.401 46.1225 103.924 45.3622 103.57 44.5487C103.252 43.6999 103.093 42.7273 103.093 41.6309Z" fill="black"/>
<path d="M108.084 194.629H122.832V198.926H108.084V194.629Z" fill="black"/>
<path d="M118.363 143.542H112.952L113.588 114.311H117.779L118.363 143.542ZM118.787 101.738V107.998H112.527V101.738H118.787Z" fill="black"/>
<path d="M204.658 18.8723H209.114L180.096 62.4267H175.639L204.658 18.8723ZM180.679 40.0925C179.441 40.0925 178.292 39.898 177.231 39.5089C176.205 39.0845 175.286 38.4833 174.472 37.7052C173.694 36.8918 173.075 35.8838 172.615 34.6813C172.191 33.4789 171.979 32.0819 171.979 30.4904C171.979 28.8989 172.209 27.5019 172.668 26.2994C173.128 25.0969 173.747 24.1066 174.525 23.3286C175.339 22.5151 176.276 21.9139 177.337 21.5249C178.398 21.1358 179.512 20.9413 180.679 20.9413C181.882 20.9413 183.013 21.1358 184.074 21.5249C185.135 21.9139 186.055 22.5151 186.833 23.3286C187.646 24.1066 188.283 25.0969 188.743 26.2994C189.203 27.5019 189.432 28.8989 189.432 30.4904C189.432 32.0819 189.203 33.4789 188.743 34.6813C188.283 35.8838 187.646 36.8918 186.833 37.7052C186.055 38.4833 185.135 39.0845 184.074 39.5089C183.013 39.898 181.882 40.0925 180.679 40.0925ZM180.626 36.6973C182.005 36.6973 183.102 36.1844 183.915 35.1588C184.764 34.1332 185.188 32.577 185.188 30.4904C185.188 28.3683 184.764 26.7945 183.915 25.7689C183.102 24.7432 182.005 24.2304 180.626 24.2304C179.211 24.2304 178.097 24.7432 177.284 25.7689C176.506 26.7592 176.117 28.333 176.117 30.4904C176.117 32.6124 176.506 34.1862 177.284 35.2119C178.097 36.2021 179.211 36.6973 180.626 36.6973ZM204.074 60.676C202.836 60.676 201.687 60.4815 200.626 60.0925C199.6 59.6681 198.681 59.0668 197.867 58.2888C197.089 57.4753 196.47 56.4674 196.011 55.2649C195.586 54.0624 195.374 52.6654 195.374 51.0739C195.374 49.4824 195.604 48.0854 196.064 46.8829C196.523 45.6805 197.142 44.6902 197.92 43.9121C198.734 43.0987 199.671 42.4974 200.732 42.1084C201.793 41.7194 202.907 41.5248 204.074 41.5248C205.277 41.5248 206.409 41.7194 207.47 42.1084C208.531 42.4974 209.45 43.0987 210.228 43.9121C211.042 44.6902 211.678 45.6805 212.138 46.8829C212.598 48.0854 212.828 49.4824 212.828 51.0739C212.828 52.6654 212.598 54.0624 212.138 55.2649C211.678 56.4674 211.042 57.4753 210.228 58.2888C209.45 59.0668 208.531 59.6681 207.47 60.0925C206.409 60.4815 205.277 60.676 204.074 60.676ZM204.021 57.2808C205.401 57.2808 206.497 56.768 207.31 55.7424C208.159 54.7167 208.584 53.1606 208.584 51.0739C208.584 48.9519 208.159 47.3781 207.31 46.3524C206.497 45.3268 205.401 44.814 204.021 44.814C202.607 44.814 201.493 45.3268 200.679 46.3524C199.901 47.3427 199.512 48.9165 199.512 51.0739C199.512 53.1959 199.901 54.7698 200.679 55.7954C201.493 56.7857 202.607 57.2808 204.021 57.2808Z" fill="black"/>
<path d="M179.161 197.122V193.25H205.262V197.122H179.161Z" fill="black"/>
<path d="M200.122 105.929C200.122 103.913 199.468 102.268 198.159 100.995C196.886 99.7219 195.153 99.0853 192.96 99.0853C190.308 99.0853 188.256 99.8987 186.806 101.526C185.356 103.152 184.667 105.522 184.737 108.634H180.228C180.157 106.583 180.405 104.726 180.971 103.064C181.572 101.366 182.421 99.9164 183.517 98.7139C184.649 97.5115 186.011 96.5919 187.602 95.9553C189.194 95.2833 190.944 94.9474 192.854 94.9474C194.941 94.9474 196.727 95.2657 198.212 95.9023C199.733 96.5035 200.988 97.2993 201.979 98.2895C202.969 99.2798 203.694 100.412 204.154 101.685C204.614 102.958 204.843 104.231 204.843 105.504C204.843 106.884 204.667 108.104 204.313 109.165C203.995 110.226 203.553 111.181 202.987 112.03C202.456 112.843 201.837 113.586 201.13 114.258C200.458 114.93 199.768 115.566 199.061 116.168L197.098 117.865C196.568 118.36 196.108 118.767 195.719 119.085C195.365 119.368 195.082 119.669 194.87 119.987C194.658 120.305 194.499 120.659 194.393 121.048C194.286 121.437 194.233 121.95 194.233 122.587V125.186H189.883V121.791C189.883 120.907 189.954 120.182 190.095 119.616C190.237 119.015 190.467 118.484 190.785 118.024C191.103 117.565 191.51 117.122 192.005 116.698C192.536 116.238 193.172 115.69 193.915 115.053L196.515 112.825C197.682 111.87 198.566 110.862 199.167 109.801C199.804 108.705 200.122 107.414 200.122 105.929ZM188.875 137.229V130.969H195.135V137.229H188.875Z" fill="black"/>
<path d="M271.574 18.8723H276.03L247.011 62.4267H242.555L271.574 18.8723ZM247.913 40.0925C246.64 40.0925 245.455 39.898 244.359 39.5089C243.298 39.0845 242.361 38.4833 241.547 37.7052C240.734 36.8918 240.097 35.8838 239.637 34.6813C239.178 33.4789 238.948 32.0819 238.948 30.4904C238.948 28.8989 239.178 27.5019 239.637 26.2994C240.132 25.0969 240.787 24.1066 241.6 23.3286C242.414 22.5151 243.351 21.9139 244.412 21.5249C245.508 21.1358 246.675 20.9413 247.913 20.9413C249.151 20.9413 250.318 21.1358 251.415 21.5249C252.511 21.9139 253.466 22.5151 254.279 23.3286C255.093 24.1066 255.729 25.0969 256.189 26.2994C256.684 27.5019 256.932 28.8989 256.932 30.4904C256.932 32.0819 256.684 33.4789 256.189 34.6813C255.729 35.8838 255.093 36.8918 254.279 37.7052C253.466 38.4833 252.511 39.0845 251.415 39.5089C250.318 39.898 249.151 40.0925 247.913 40.0925ZM247.86 36.6973C249.31 36.6973 250.46 36.1844 251.308 35.1588C252.157 34.1332 252.582 32.577 252.582 30.4904C252.582 28.3683 252.157 26.7945 251.308 25.7689C250.46 24.7432 249.31 24.2304 247.86 24.2304C246.375 24.2304 245.225 24.7432 244.412 25.7689C243.598 26.7592 243.192 28.333 243.192 30.4904C243.192 32.6124 243.598 34.1862 244.412 35.2119C245.225 36.2021 246.375 36.6973 247.86 36.6973ZM291.043 60.676C289.77 60.676 288.585 60.4815 287.489 60.0925C286.428 59.6681 285.491 59.0668 284.677 58.2888C283.864 57.4753 283.227 56.4674 282.767 55.2649C282.308 54.0624 282.078 52.6654 282.078 51.0739C282.078 49.4824 282.308 48.0854 282.767 46.8829C283.262 45.6805 283.917 44.6902 284.73 43.9121C285.544 43.0987 286.481 42.4974 287.542 42.1084C288.638 41.7194 289.805 41.5248 291.043 41.5248C292.281 41.5248 293.448 41.7194 294.545 42.1084C295.641 42.4974 296.596 43.0987 297.409 43.9121C298.223 44.6902 298.859 45.6805 299.319 46.8829C299.814 48.0854 300.062 49.4824 300.062 51.0739C300.062 52.6654 299.814 54.0624 299.319 55.2649C298.859 56.4674 298.223 57.4753 297.409 58.2888C296.596 59.0668 295.641 59.6681 294.545 60.0925C293.448 60.4815 292.281 60.676 291.043 60.676ZM270.3 60.676C269.027 60.676 267.842 60.4815 266.746 60.0925C265.685 59.6681 264.748 59.0668 263.934 58.2888C263.121 57.4753 262.484 56.4674 262.025 55.2649C261.565 54.0624 261.335 52.6654 261.335 51.0739C261.335 49.4824 261.565 48.0854 262.025 46.8829C262.52 45.6805 263.174 44.6902 263.987 43.9121C264.801 43.0987 265.738 42.4974 266.799 42.1084C267.896 41.7194 269.063 41.5248 270.3 41.5248C271.538 41.5248 272.705 41.7194 273.802 42.1084C274.898 42.4974 275.853 43.0987 276.667 43.9121C277.48 44.6902 278.117 45.6805 278.576 46.8829C279.071 48.0854 279.319 49.4824 279.319 51.0739C279.319 52.6654 279.071 54.0624 278.576 55.2649C278.117 56.4674 277.48 57.4753 276.667 58.2888C275.853 59.0668 274.898 59.6681 273.802 60.0925C272.705 60.4815 271.538 60.676 270.3 60.676ZM290.99 57.2808C292.44 57.2808 293.59 56.768 294.438 55.7424C295.287 54.7167 295.712 53.1606 295.712 51.0739C295.712 48.9519 295.287 47.3781 294.438 46.3524C293.59 45.3268 292.44 44.814 290.99 44.814C289.505 44.814 288.355 45.3268 287.542 46.3524C286.728 47.3427 286.322 48.9165 286.322 51.0739C286.322 53.1959 286.728 54.7698 287.542 55.7954C288.355 56.7857 289.505 57.2808 290.99 57.2808ZM270.247 57.2808C271.697 57.2808 272.847 56.768 273.696 55.7424C274.545 54.7167 274.969 53.1606 274.969 51.0739C274.969 48.9519 274.545 47.3781 273.696 46.3524C272.847 45.3268 271.697 44.814 270.247 44.814C268.762 44.814 267.613 45.3268 266.799 46.3524C265.986 47.3427 265.579 48.9165 265.579 51.0739C265.579 53.1959 265.986 54.7698 266.799 55.7954C267.613 56.7857 268.762 57.2808 270.247 57.2808Z" fill="black"/>
<path d="M249.3 194.894H290.679V198.661H249.3V194.894Z" fill="black"/>
<path d="M261.894 133.038C261.894 135.053 262.53 136.698 263.804 137.971C265.112 139.244 266.863 139.881 269.056 139.881C271.708 139.881 273.759 139.068 275.21 137.441C276.66 135.814 277.349 133.444 277.278 130.332H281.788C281.858 132.383 281.593 134.258 280.992 135.955C280.426 137.618 279.577 139.05 278.446 140.252C277.349 141.455 276.005 142.374 274.414 143.011C272.822 143.683 271.072 144.019 269.162 144.019C267.075 144.019 265.271 143.701 263.751 143.064C262.265 142.463 261.027 141.667 260.037 140.677C259.047 139.687 258.322 138.555 257.862 137.282C257.402 136.008 257.172 134.735 257.172 133.462C257.172 132.083 257.332 130.862 257.65 129.801C258.004 128.74 258.446 127.803 258.976 126.99C259.542 126.141 260.161 125.381 260.833 124.709C261.54 124.037 262.248 123.4 262.955 122.799L264.918 121.101C265.448 120.606 265.89 120.217 266.244 119.934C266.633 119.616 266.934 119.297 267.146 118.979C267.358 118.661 267.517 118.307 267.623 117.918C267.729 117.529 267.782 117.016 267.782 116.38V113.78H272.133V117.175C272.133 118.06 272.062 118.802 271.92 119.404C271.779 119.969 271.549 120.482 271.231 120.942C270.912 121.402 270.488 121.862 269.958 122.321C269.462 122.746 268.843 123.276 268.101 123.913L265.501 126.141C264.334 127.096 263.432 128.122 262.796 129.218C262.194 130.279 261.894 131.552 261.894 133.038ZM273.141 101.738V107.998H266.881V101.738H273.141Z" fill="black"/>
<path d="M362.108 60.4108C360.41 60.4108 358.925 60.0748 357.652 59.4028C356.378 58.6955 355.052 57.6522 353.673 56.2729C352.4 57.7583 350.861 58.9431 349.057 59.8272C347.254 60.7114 345.114 61.1535 342.638 61.1535C340.41 61.1535 338.447 60.8706 336.75 60.3047C335.087 59.7388 333.673 58.9607 332.506 57.9705C331.374 56.9448 330.525 55.7424 329.959 54.363C329.393 52.9837 329.11 51.4983 329.11 49.9068C329.11 48.7043 329.27 47.608 329.588 46.6177C329.906 45.592 330.419 44.6195 331.126 43.6999C331.869 42.7804 332.806 41.8785 333.938 40.9943C335.07 40.0748 336.467 39.1376 338.129 38.1827C337.386 37.3339 336.714 36.5381 336.113 35.7954C335.547 35.0173 335.052 34.2393 334.628 33.4612C334.203 32.6477 333.885 31.8166 333.673 30.9678C333.461 30.0836 333.355 29.0934 333.355 27.997C333.355 26.6884 333.584 25.4683 334.044 24.3365C334.504 23.2048 335.158 22.2145 336.007 21.3657C336.891 20.5169 337.935 19.8626 339.137 19.4028C340.375 18.9077 341.754 18.6601 343.275 18.6601C344.619 18.6601 345.857 18.8723 346.988 19.2967C348.156 19.6858 349.146 20.2516 349.959 20.9943C350.808 21.7371 351.48 22.6212 351.975 23.6469C352.47 24.6725 352.718 25.7866 352.718 26.989C352.718 28.05 352.506 29.1111 352.081 30.1721C351.692 31.2331 351.126 32.2587 350.384 33.249C349.641 34.2393 348.739 35.2119 347.678 36.1668C346.652 37.0863 345.521 37.9528 344.283 38.7662L352.134 47.997L353.301 49.3763C353.867 47.8909 354.274 46.3524 354.522 44.7609C354.769 43.134 354.928 41.5602 354.999 40.0394H359.137C359.031 42.1261 358.73 44.2658 358.235 46.4585C357.775 48.6159 357.068 50.6495 356.113 52.5593C356.891 53.4081 357.563 54.0801 358.129 54.5752C358.73 55.035 359.296 55.4064 359.827 55.6893C360.393 55.9369 360.941 56.096 361.471 56.1668C362.037 56.2375 362.691 56.2729 363.434 56.2729V60.4108H362.108ZM340.198 41.2596C339.137 41.9669 338.217 42.6389 337.439 43.2755C336.697 43.8767 336.06 44.5134 335.53 45.1853C335.034 45.8219 334.663 46.5116 334.416 47.2543C334.168 47.997 334.044 48.8281 334.044 49.7477C334.044 51.0916 334.274 52.241 334.734 53.1959C335.229 54.1508 335.866 54.9289 336.644 55.5302C337.457 56.1314 338.377 56.5912 339.402 56.9095C340.428 57.1924 341.507 57.3339 342.638 57.3339C344.584 57.3339 346.246 56.9802 347.625 56.2729C349.004 55.5655 350.154 54.6283 351.073 53.4612L349.27 51.3392L340.516 41.0474L340.198 41.2596ZM337.917 27.8909C337.917 29.3409 338.288 30.7026 339.031 31.9758C339.774 33.249 340.729 34.5576 341.896 35.9015C344.018 34.5576 345.591 33.2136 346.617 31.8697C347.678 30.4904 348.209 28.9519 348.209 27.2543C348.209 26.5823 348.103 25.9457 347.89 25.3445C347.678 24.7432 347.36 24.2127 346.935 23.753C346.511 23.2578 345.981 22.8688 345.344 22.5859C344.743 22.3029 344.035 22.1615 343.222 22.1615C341.524 22.1615 340.216 22.7096 339.296 23.806C338.377 24.867 337.917 26.2287 337.917 27.8909Z" fill="black"/>
<path d="M335.606 204.761L344.677 195.796L335.659 186.883L338.683 183.86L347.648 192.878L356.614 183.753L359.532 186.671L350.407 195.69L359.478 204.655L356.455 207.679L347.489 198.608L338.524 207.679L335.606 204.761Z" fill="black"/>
<path d="M356.971 134.099C354.955 134.099 353.346 133.727 352.143 132.984C350.976 132.242 350.269 131.057 350.021 129.43H349.862C348.978 130.88 347.864 132.047 346.52 132.931C345.176 133.816 343.549 134.258 341.639 134.258C340.331 134.258 339.164 134.045 338.138 133.621C337.148 133.161 336.299 132.542 335.592 131.764C334.92 130.986 334.389 130.049 334 128.953C333.611 127.856 333.399 126.654 333.363 125.345C333.293 123.577 333.523 121.791 334.053 119.987C334.584 118.183 335.362 116.557 336.387 115.107C337.413 113.621 338.686 112.419 340.207 111.499C341.763 110.58 343.531 110.12 345.512 110.12C347.316 110.12 348.766 110.544 349.862 111.393C350.958 112.206 351.701 113.267 352.09 114.576H352.196L352.886 110.969H356.865L354.053 125.133C353.664 126.937 353.752 128.351 354.318 129.377C354.92 130.367 356.034 130.862 357.66 130.862C358.439 130.862 359.252 130.668 360.101 130.279C360.985 129.89 361.781 129.236 362.488 128.316C363.231 127.397 363.832 126.176 364.292 124.656C364.787 123.135 365.035 121.26 365.035 119.032C365.035 116.521 364.557 114.187 363.602 112.03C362.683 109.872 361.392 107.998 359.729 106.406C358.067 104.815 356.069 103.577 353.735 102.693C351.401 101.773 348.854 101.313 346.096 101.313C343.195 101.313 340.49 101.879 337.979 103.011C335.468 104.107 333.293 105.646 331.454 107.626C329.615 109.572 328.164 111.888 327.103 114.576C326.042 117.229 325.512 120.111 325.512 123.223C325.512 126.371 325.972 129.2 326.891 131.711C327.846 134.222 329.172 136.362 330.87 138.13C332.568 139.934 334.584 141.313 336.918 142.268C339.287 143.223 341.887 143.701 344.716 143.701C347.616 143.701 350.233 143.259 352.568 142.374C354.937 141.526 356.9 140.482 358.456 139.244L360.684 141.526C358.916 143.011 356.688 144.302 354 145.398C351.312 146.495 348.094 147.043 344.345 147.043C340.985 147.043 337.89 146.459 335.061 145.292C332.232 144.16 329.774 142.551 327.687 140.465C325.636 138.378 324.027 135.885 322.859 132.984C321.728 130.049 321.162 126.795 321.162 123.223C321.162 119.58 321.798 116.221 323.072 113.144C324.38 110.067 326.149 107.414 328.377 105.186C330.64 102.923 333.293 101.154 336.334 99.881C339.411 98.6078 342.7 97.9712 346.202 97.9712C349.491 97.9712 352.532 98.484 355.326 99.5097C358.156 100.5 360.578 101.915 362.594 103.754C364.645 105.557 366.255 107.75 367.422 110.332C368.589 112.878 369.172 115.69 369.172 118.767C369.172 121.632 368.766 124.054 367.952 126.035C367.174 127.98 366.184 129.554 364.981 130.756C363.779 131.923 362.453 132.772 361.003 133.303C359.588 133.833 358.244 134.099 356.971 134.099ZM342.647 130.809C343.531 130.809 344.363 130.633 345.141 130.279C345.954 129.925 346.679 129.43 347.316 128.794C347.988 128.157 348.554 127.414 349.013 126.565C349.473 125.681 349.809 124.726 350.021 123.701L350.499 121.419C350.676 120.571 350.729 119.687 350.658 118.767C350.622 117.847 350.428 117.016 350.074 116.274C349.721 115.531 349.19 114.912 348.483 114.417C347.775 113.922 346.856 113.674 345.724 113.674C344.38 113.674 343.213 114.045 342.223 114.788C341.233 115.496 340.419 116.415 339.783 117.547C339.146 118.643 338.668 119.899 338.35 121.313C338.032 122.693 337.873 124.037 337.873 125.345C337.873 126.866 338.244 128.157 338.987 129.218C339.765 130.279 340.985 130.809 342.647 130.809Z" fill="black"/>
<path d="M410.127 18.501H414.424L438.509 67.2012H434.212L410.127 18.501Z" fill="black"/>
<path d="M424.893 207.414H420.596V197.228H410.57V193.143H420.596V183.011H424.893V193.143H434.973V197.228H424.893V207.414Z" fill="black"/>
<path d="M426.798 144.125C426.055 142.64 425.259 141.03 424.41 139.297C423.597 137.565 422.836 135.708 422.129 133.727C421.457 131.711 420.891 129.554 420.432 127.255C419.972 124.956 419.742 122.463 419.742 119.775C419.742 117.087 419.972 114.594 420.432 112.295C420.891 109.961 421.457 107.803 422.129 105.823C422.836 103.807 423.597 101.95 424.41 100.252C425.259 98.5194 426.055 96.9102 426.798 95.4248H430.405C429.662 97.0517 428.937 98.7316 428.23 100.465C427.523 102.162 426.904 104.001 426.373 105.982C425.843 107.927 425.418 110.049 425.1 112.348C424.782 114.611 424.623 117.087 424.623 119.775C424.623 122.463 424.782 124.939 425.1 127.202C425.418 129.465 425.843 131.587 426.373 133.568C426.904 135.513 427.523 137.352 428.23 139.085C428.937 140.818 429.662 142.498 430.405 144.125H426.798Z" fill="black"/>
<path d="M497.516 18.501H501.388V67.2012H497.516V18.501Z" fill="black"/>
<path d="M497.517 182.586H502.557V187.732H497.517V182.586ZM487.862 193.143H512.265V197.228H487.862V193.143ZM497.517 207.785V202.639H502.557V207.785H497.517Z" fill="black"/>
<path d="M492.861 144.125C493.604 142.498 494.329 140.818 495.036 139.085C495.743 137.352 496.362 135.513 496.893 133.568C497.423 131.587 497.848 129.465 498.166 127.202C498.484 124.939 498.643 122.463 498.643 119.775C498.643 117.087 498.484 114.611 498.166 112.348C497.848 110.049 497.423 107.927 496.893 105.982C496.362 104.001 495.743 102.162 495.036 100.465C494.329 98.7316 493.604 97.0517 492.861 95.4248H496.468C497.211 96.9102 497.989 98.5194 498.803 100.252C499.651 101.95 500.412 103.807 501.084 105.823C501.791 107.803 502.375 109.961 502.834 112.295C503.294 114.594 503.524 117.087 503.524 119.775C503.524 122.463 503.294 124.956 502.834 127.255C502.375 129.554 501.791 131.711 501.084 133.727C500.412 135.708 499.651 137.565 498.803 139.297C497.989 141.03 497.211 142.64 496.468 144.125H492.861Z" fill="black"/>
<path d="M586.426 18.501H590.723L566.639 67.2012H562.341L586.426 18.501Z" fill="black"/>
<path d="M579.1 205.822H574.803V195.637H564.777V191.552H574.803V181.419H579.1V191.552H589.18V195.637H579.1V205.822ZM564.777 210.066H589.18V214.151H564.777V210.066Z" fill="black"/>
<path d="M574.014 95.4248H585.579V98.9792H578.417V140.571H585.579V144.125H574.014V95.4248Z" fill="black"/>
<path d="M651.145 53.8325H657.617V60.3047H651.145V53.8325Z" fill="black"/>
<path d="M643.363 198.661C643.363 197.741 643.487 196.857 643.734 196.008C643.982 195.124 644.353 194.364 644.848 193.727C645.343 193.055 645.945 192.524 646.652 192.135C647.395 191.711 648.226 191.499 649.145 191.499C650.03 191.499 650.843 191.676 651.586 192.029C652.364 192.348 653.071 192.701 653.708 193.09C654.38 193.479 654.999 193.851 655.564 194.204C656.13 194.523 656.643 194.682 657.103 194.682C657.704 194.682 658.199 194.434 658.588 193.939C659.013 193.409 659.26 192.56 659.331 191.393H662.62C662.62 192.312 662.496 193.214 662.249 194.098C662.001 194.947 661.63 195.708 661.135 196.379C660.64 197.051 660.021 197.582 659.278 197.971C658.571 198.36 657.757 198.555 656.838 198.555C655.953 198.555 655.14 198.395 654.397 198.077C653.655 197.759 652.947 197.405 652.275 197.016C651.639 196.592 651.037 196.22 650.472 195.902C649.906 195.584 649.358 195.425 648.827 195.425C648.261 195.425 647.766 195.672 647.342 196.167C646.953 196.662 646.723 197.494 646.652 198.661H643.363Z" fill="black"/>
<path d="M726.628 208.369H722.331L725.461 202.003H718.724V197.971H727.477L730.236 192.401H718.724V188.369H732.252L735.382 182.003H739.679L736.549 188.369H743.286V192.401H734.533L731.774 197.971H743.286V202.003H729.758L726.628 208.369Z" fill="black"/>
<path d="M795.459 196.751V193.037L820.286 182.639V187.255L801.559 194.894L820.286 202.533V207.149L795.459 196.751ZM795.459 214.151V210.066H820.286V214.151H795.459Z" fill="black"/>
<path d="M897.551 193.037V196.751L872.724 207.149V202.533L891.451 194.894L872.724 187.255V182.639L897.551 193.037ZM872.724 214.151V210.066H897.551V214.151H872.724Z" fill="black"/>
<path d="M962.471 184.443L958.387 191.976L954.62 189.165L960.455 183.117V183.011L952.445 181.313L953.983 176.91L961.304 180.73L961.41 180.624L960.19 172.348H964.806L963.585 180.624L963.692 180.73L970.959 176.91L972.551 181.313L964.54 183.011V183.117L970.376 189.165L966.609 191.976L962.578 184.443H962.471Z" fill="black"/>
<path d="M656.992 144.125H645.427V140.624H652.589V98.9792H645.427V95.4248H656.992V144.125Z" fill="black"/>
<path d="M730.054 53.7795H735.996L731.699 66.5116H728.25L730.054 53.7795Z" fill="black"/>
<path d="M723.499 121.738V117.812H724.772C726.329 117.812 727.39 117.511 727.955 116.91C728.557 116.309 728.857 115.266 728.857 113.78V103.117C728.857 100.217 729.688 98.1834 731.351 97.0163C733.048 95.8138 735.754 95.2126 739.467 95.2126V98.5017C738.053 98.5017 736.921 98.6078 736.072 98.82C735.223 99.0322 734.569 99.3682 734.109 99.828C733.685 100.288 733.402 100.907 733.26 101.685C733.119 102.427 733.048 103.347 733.048 104.443V113.197C733.048 113.904 732.995 114.611 732.889 115.319C732.818 116.026 732.642 116.68 732.359 117.282C732.076 117.883 731.669 118.396 731.138 118.82C730.608 119.244 729.918 119.527 729.069 119.669V119.881C729.918 120.023 730.608 120.305 731.138 120.73C731.669 121.154 732.076 121.667 732.359 122.268C732.642 122.87 732.818 123.524 732.889 124.231C732.995 124.939 733.048 125.646 733.048 126.353V135.106C733.048 136.203 733.119 137.122 733.26 137.865C733.402 138.643 733.685 139.262 734.109 139.722C734.569 140.182 735.223 140.518 736.072 140.73C736.921 140.942 738.053 141.048 739.467 141.048V144.337C737.593 144.337 735.984 144.196 734.64 143.913C733.331 143.63 732.235 143.17 731.351 142.534C730.502 141.932 729.865 141.119 729.441 140.093C729.052 139.103 728.857 137.883 728.857 136.433V125.77C728.857 124.284 728.557 123.241 727.955 122.64C727.39 122.038 726.329 121.738 724.772 121.738H723.499Z" fill="black"/>
<path d="M805.425 32.3471H811.95V38.8723H805.425V32.3471ZM805.425 60.3047V53.7795H811.95V60.3047H805.425Z" fill="black"/>
<path d="M815.242 121.738H813.968C812.412 121.738 811.334 122.038 810.732 122.64C810.166 123.241 809.884 124.284 809.884 125.77V136.433C809.884 137.883 809.671 139.103 809.247 140.093C808.858 141.119 808.221 141.932 807.337 142.534C806.488 143.17 805.392 143.63 804.048 143.913C802.704 144.196 801.113 144.337 799.273 144.337V141.048C800.688 141.048 801.82 140.942 802.669 140.73C803.517 140.518 804.154 140.182 804.578 139.722C805.038 139.262 805.339 138.643 805.48 137.865C805.622 137.122 805.693 136.203 805.693 135.106V126.353C805.693 125.646 805.728 124.939 805.799 124.231C805.905 123.524 806.099 122.87 806.382 122.268C806.665 121.667 807.072 121.154 807.602 120.73C808.133 120.305 808.823 120.023 809.671 119.881V119.669C808.823 119.527 808.133 119.244 807.602 118.82C807.072 118.396 806.665 117.883 806.382 117.282C806.099 116.68 805.905 116.026 805.799 115.319C805.728 114.611 805.693 113.904 805.693 113.197V104.443C805.693 103.347 805.622 102.427 805.48 101.685C805.339 100.907 805.038 100.288 804.578 99.828C804.154 99.3682 803.517 99.0322 802.669 98.82C801.82 98.6078 800.688 98.5017 799.273 98.5017V95.2126C802.987 95.2126 805.675 95.8138 807.337 97.0163C809.035 98.1834 809.884 100.217 809.884 103.117V113.78C809.884 115.266 810.166 116.309 810.732 116.91C811.334 117.511 812.412 117.812 813.968 117.812H815.242V121.738Z" fill="black"/>
<path d="M882.482 32.3471H889.008V38.8723H882.482V32.3471ZM880.944 66.5116L882.695 53.7795H888.636L884.339 66.5116H880.944Z" fill="black"/>
<path d="M895.061 112.613L889.544 123.542L895.114 134.205H890.658L884.61 123.382L890.605 112.613H895.061ZM884.133 112.613L878.616 123.542L884.239 134.205H879.73L873.682 123.382L879.677 112.613H884.133Z" fill="black"/>
<path d="M973.353 53.8325H979.825V60.3047H973.353V53.8325ZM958.605 53.8325H965.077V60.3047H958.605V53.8325ZM943.857 53.8325H950.329V60.3047H943.857V53.8325Z" fill="black"/>
<path d="M951.613 134.205L957.183 123.276L951.56 112.613H956.069L962.064 123.382L956.122 134.205H951.613ZM962.541 134.205L968.058 123.276L962.488 112.613H966.944L972.992 123.382L966.997 134.205H962.541Z" fill="black"/>
<line x1="1000" y1="1" x2="0.00012207" y2="1" stroke="black" stroke-width="2"/>
<line x1="1000" y1="77.9229" x2="0.00012207" y2="77.9229" stroke="black" stroke-width="2"/>
<line x1="1000" y1="232" x2="0.00012207" y2="232" stroke="black" stroke-width="2"/>
<line x1="1000" y1="309" x2="0.00012207" y2="309" stroke="black" stroke-width="2"/>
<line x1="1000" y1="154.846" x2="0.00012207" y2="154.846" stroke="black" stroke-width="2"/>
</svg>
