<svg width="2326" height="308" viewBox="0 0 2326 308" fill="none" xmlns="http://www.w3.org/2000/svg">
<line x1="1.41212e-07" y1="75" x2="2326" y2="75.0001" stroke="black" stroke-width="2"/>
<line x1="1.41212e-07" y1="1" x2="2326" y2="1.00013" stroke="black" stroke-width="2"/>
<line x1="1.41212e-07" y1="246" x2="2326" y2="246" stroke="black" stroke-width="2"/>
<line x1="1.41212e-07" y1="307" x2="2326" y2="307" stroke="black" stroke-width="2"/>
<path d="M1602.29 73.7071C1602.68 74.0976 1603.32 74.0976 1603.71 73.7071L1610.07 67.3431C1610.46 66.9526 1610.46 66.3195 1610.07 65.9289C1609.68 65.5384 1609.05 65.5384 1608.66 65.9289L1603 71.5858L1597.34 65.9289C1596.95 65.5384 1596.32 65.5384 1595.93 65.9289C1595.54 66.3195 1595.54 66.9526 1595.93 67.3431L1602.29 73.7071ZM1603.71 0.292892C1603.32 -0.0976333 1602.68 -0.0976334 1602.29 0.292892L1595.93 6.65685C1595.54 7.04738 1595.54 7.68054 1595.93 8.07107C1596.32 8.46159 1596.95 8.46159 1597.34 8.07107L1603 2.41422L1608.66 8.07107C1609.05 8.46159 1609.68 8.46159 1610.07 8.07107C1610.46 7.68054 1610.46 7.04738 1610.07 6.65685L1603.71 0.292892ZM1604 73L1604 1L1602 1L1602 73L1604 73Z" fill="black"/>
<path d="M1646.69 33.422H1637.62V29.993H1651.61V32.423L1643.56 50H1639.16L1646.69 33.422ZM1656.11 36.284H1652.2V33.53H1652.71C1653.3 33.53 1653.84 33.467 1654.33 33.341C1654.83 33.197 1655.26 32.981 1655.6 32.693C1656.26 32.117 1656.6 31.208 1656.6 29.966H1660.4V50H1656.11V36.284Z" fill="#FBD914"/>
<path d="M1649.15 273.745C1649.01 273.115 1648.72 272.629 1648.29 272.287C1647.87 271.945 1647.31 271.774 1646.61 271.774C1645.46 271.774 1644.54 272.323 1643.86 273.421C1643.19 274.501 1642.83 276.175 1642.78 278.443H1642.89C1643.3 277.633 1643.92 277.003 1644.75 276.553C1645.58 276.103 1646.52 275.878 1647.58 275.878C1648.39 275.878 1649.17 276.013 1649.91 276.283C1650.64 276.553 1651.29 276.958 1651.85 277.498C1652.41 278.038 1652.85 278.713 1653.17 279.523C1653.52 280.315 1653.69 281.242 1653.69 282.304C1653.69 283.276 1653.52 284.194 1653.2 285.058C1652.89 285.904 1652.42 286.651 1651.77 287.299C1651.14 287.947 1650.36 288.46 1649.42 288.838C1648.48 289.216 1647.4 289.405 1646.15 289.405C1645.04 289.405 1644 289.234 1643.05 288.892C1642.09 288.55 1641.27 288.001 1640.56 287.245C1639.88 286.489 1639.34 285.517 1638.94 284.329C1638.55 283.123 1638.35 281.665 1638.35 279.955C1638.35 276.247 1639.08 273.448 1640.54 271.558C1642.01 269.65 1644.06 268.696 1646.67 268.696C1647.75 268.696 1648.67 268.831 1649.45 269.101C1650.24 269.353 1650.9 269.704 1651.42 270.154C1651.94 270.604 1652.34 271.144 1652.61 271.774C1652.89 272.386 1653.07 273.043 1653.15 273.745H1649.15ZM1646.26 286.165C1646.64 286.165 1647.01 286.102 1647.37 285.976C1647.75 285.832 1648.08 285.616 1648.37 285.328C1648.66 285.022 1648.89 284.644 1649.07 284.194C1649.25 283.744 1649.34 283.204 1649.34 282.574C1649.34 281.44 1649.04 280.567 1648.45 279.955C1647.87 279.343 1647.14 279.037 1646.26 279.037C1645.34 279.037 1644.6 279.334 1644.02 279.928C1643.46 280.504 1643.18 281.386 1643.18 282.574C1643.18 283.204 1643.26 283.744 1643.43 284.194C1643.61 284.644 1643.84 285.022 1644.13 285.328C1644.42 285.616 1644.74 285.832 1645.1 285.976C1645.48 286.102 1645.87 286.165 1646.26 286.165ZM1658.14 275.284H1654.23V272.53H1654.74C1655.33 272.53 1655.87 272.467 1656.36 272.341C1656.86 272.197 1657.29 271.981 1657.63 271.693C1658.29 271.117 1658.63 270.208 1658.63 268.966H1662.43V289H1658.14V275.284Z" fill="#FBD914"/>
<path d="M1602.29 307.707C1602.68 308.098 1603.32 308.098 1603.71 307.707L1610.07 301.343C1610.46 300.953 1610.46 300.319 1610.07 299.929C1609.68 299.538 1609.05 299.538 1608.66 299.929L1603 305.586L1597.34 299.929C1596.95 299.538 1596.32 299.538 1595.93 299.929C1595.54 300.319 1595.54 300.953 1595.93 301.343L1602.29 307.707ZM1603.71 247.293C1603.32 246.902 1602.68 246.902 1602.29 247.293L1595.93 253.657C1595.54 254.047 1595.54 254.681 1595.93 255.071C1596.32 255.462 1596.95 255.462 1597.34 255.071L1603 249.414L1608.66 255.071C1609.05 255.462 1609.68 255.462 1610.07 255.071C1610.46 254.681 1610.46 254.047 1610.07 253.657L1603.71 247.293ZM1604 307L1604 248L1602 248L1602 307L1604 307Z" fill="black"/>
</svg>
